<?xml version="1.0" encoding="utf-8"?>
<svg xmlns="http://www.w3.org/2000/svg" xmlns:xlink="http://www.w3.org/1999/xlink" width="600" height="400" viewBox="0 0 2400 1600">
<defs>
  <clipPath id="clip1100">
    <rect x="0" y="0" width="2400" height="1600"/>
  </clipPath>
</defs>
<path clip-path="url(#clip1100)" d="
M0 1600 L2400 1600 L2400 0 L0 0  Z
  " fill="#ffffff" fill-rule="evenodd" fill-opacity="1"/>
<defs>
  <clipPath id="clip1101">
    <rect x="480" y="0" width="1681" height="1600"/>
  </clipPath>
</defs>
<path clip-path="url(#clip1100)" d="
M195.389 1487.47 L2352.76 1487.47 L2352.76 47.2441 L195.389 47.2441  Z
  " fill="#ffffff" fill-rule="evenodd" fill-opacity="1"/>
<defs>
  <clipPath id="clip1102">
    <rect x="195" y="47" width="2158" height="1441"/>
  </clipPath>
</defs>
<polyline clip-path="url(#clip1100)" style="stroke:#000000; stroke-width:4; stroke-opacity:1; fill:none" points="
  195.389,1487.47 2352.76,1487.47 
  "/>
<polyline clip-path="url(#clip1100)" style="stroke:#000000; stroke-width:4; stroke-opacity:1; fill:none" points="
  195.389,1487.47 195.389,47.2441 
  "/>
<polyline clip-path="url(#clip1100)" style="stroke:#000000; stroke-width:4; stroke-opacity:1; fill:none" points="
  195.389,1487.47 195.389,1470.19 
  "/>
<polyline clip-path="url(#clip1100)" style="stroke:#000000; stroke-width:4; stroke-opacity:1; fill:none" points="
  734.731,1487.47 734.731,1470.19 
  "/>
<polyline clip-path="url(#clip1100)" style="stroke:#000000; stroke-width:4; stroke-opacity:1; fill:none" points="
  1274.07,1487.47 1274.07,1470.19 
  "/>
<polyline clip-path="url(#clip1100)" style="stroke:#000000; stroke-width:4; stroke-opacity:1; fill:none" points="
  1813.41,1487.47 1813.41,1470.19 
  "/>
<polyline clip-path="url(#clip1100)" style="stroke:#000000; stroke-width:4; stroke-opacity:1; fill:none" points="
  2352.76,1487.47 2352.76,1470.19 
  "/>
<polyline clip-path="url(#clip1100)" style="stroke:#000000; stroke-width:4; stroke-opacity:1; fill:none" points="
  195.389,1440.93 221.278,1440.93 
  "/>
<polyline clip-path="url(#clip1100)" style="stroke:#000000; stroke-width:4; stroke-opacity:1; fill:none" points="
  195.389,1193.3 221.278,1193.3 
  "/>
<polyline clip-path="url(#clip1100)" style="stroke:#000000; stroke-width:4; stroke-opacity:1; fill:none" points="
  195.389,945.67 221.278,945.67 
  "/>
<polyline clip-path="url(#clip1100)" style="stroke:#000000; stroke-width:4; stroke-opacity:1; fill:none" points="
  195.389,698.04 221.278,698.04 
  "/>
<polyline clip-path="url(#clip1100)" style="stroke:#000000; stroke-width:4; stroke-opacity:1; fill:none" points="
  195.389,450.411 221.278,450.411 
  "/>
<polyline clip-path="url(#clip1100)" style="stroke:#000000; stroke-width:4; stroke-opacity:1; fill:none" points="
  195.389,202.781 221.278,202.781 
  "/>
<g clip-path="url(#clip1100)">
<text style="fill:#000000; fill-opacity:1; font-family:Arial,Helvetica Neue,Helvetica,sans-serif; font-size:48px; text-anchor:middle;" transform="rotate(0, 195.389, 1541.47)" x="195.389" y="1541.47">0</text>
</g>
<g clip-path="url(#clip1100)">
<text style="fill:#000000; fill-opacity:1; font-family:Arial,Helvetica Neue,Helvetica,sans-serif; font-size:48px; text-anchor:middle;" transform="rotate(0, 734.731, 1541.47)" x="734.731" y="1541.47">50</text>
</g>
<g clip-path="url(#clip1100)">
<text style="fill:#000000; fill-opacity:1; font-family:Arial,Helvetica Neue,Helvetica,sans-serif; font-size:48px; text-anchor:middle;" transform="rotate(0, 1274.07, 1541.47)" x="1274.07" y="1541.47">100</text>
</g>
<g clip-path="url(#clip1100)">
<text style="fill:#000000; fill-opacity:1; font-family:Arial,Helvetica Neue,Helvetica,sans-serif; font-size:48px; text-anchor:middle;" transform="rotate(0, 1813.41, 1541.47)" x="1813.41" y="1541.47">150</text>
</g>
<g clip-path="url(#clip1100)">
<text style="fill:#000000; fill-opacity:1; font-family:Arial,Helvetica Neue,Helvetica,sans-serif; font-size:48px; text-anchor:middle;" transform="rotate(0, 2352.76, 1541.47)" x="2352.76" y="1541.47">200</text>
</g>
<g clip-path="url(#clip1100)">
<text style="fill:#000000; fill-opacity:1; font-family:Arial,Helvetica Neue,Helvetica,sans-serif; font-size:48px; text-anchor:end;" transform="rotate(0, 171.389, 1458.43)" x="171.389" y="1458.43">-500</text>
</g>
<g clip-path="url(#clip1100)">
<text style="fill:#000000; fill-opacity:1; font-family:Arial,Helvetica Neue,Helvetica,sans-serif; font-size:48px; text-anchor:end;" transform="rotate(0, 171.389, 1210.8)" x="171.389" y="1210.8">0</text>
</g>
<g clip-path="url(#clip1100)">
<text style="fill:#000000; fill-opacity:1; font-family:Arial,Helvetica Neue,Helvetica,sans-serif; font-size:48px; text-anchor:end;" transform="rotate(0, 171.389, 963.17)" x="171.389" y="963.17">500</text>
</g>
<g clip-path="url(#clip1100)">
<text style="fill:#000000; fill-opacity:1; font-family:Arial,Helvetica Neue,Helvetica,sans-serif; font-size:48px; text-anchor:end;" transform="rotate(0, 171.389, 715.54)" x="171.389" y="715.54">1000</text>
</g>
<g clip-path="url(#clip1100)">
<text style="fill:#000000; fill-opacity:1; font-family:Arial,Helvetica Neue,Helvetica,sans-serif; font-size:48px; text-anchor:end;" transform="rotate(0, 171.389, 467.911)" x="171.389" y="467.911">1500</text>
</g>
<g clip-path="url(#clip1100)">
<text style="fill:#000000; fill-opacity:1; font-family:Arial,Helvetica Neue,Helvetica,sans-serif; font-size:48px; text-anchor:end;" transform="rotate(0, 171.389, 220.281)" x="171.389" y="220.281">2000</text>
</g>
<polyline clip-path="url(#clip1102)" style="stroke:#000000; stroke-width:4; stroke-opacity:1; fill:none" points="
  206.176,1051.49 216.963,1052.47 227.75,1053.72 238.537,1054.46 249.323,1055.32 260.11,1056.65 270.897,1058.33 281.684,1059.62 292.471,1060.93 303.258,1062.06 
  314.044,1063.05 324.831,1063.31 335.618,1062.82 346.405,1062.58 357.192,1063.2 367.979,1063.46 378.765,1063.67 389.552,1063.89 400.339,1064.08 411.126,1064.26 
  421.913,1064.42 432.7,1064.64 443.486,1065.19 454.273,1066.41 465.06,1067.83 475.847,1069.14 486.634,1070.51 497.421,1071.91 508.207,1073.46 518.994,1075.03 
  529.781,1076.67 540.568,1077.99 551.355,1078.76 562.142,1078.97 572.928,1078.58 583.715,1077.5 594.502,1075.77 605.289,1073.74 616.076,1071.75 626.863,1069.32 
  637.649,1066.86 648.436,1064.21 659.223,1061.89 670.01,1060.06 680.797,1058.43 691.584,1056.64 702.37,1054.64 713.157,1052.19 723.944,1049.98 734.731,1047.9 
  745.518,1046.33 756.305,1044.44 767.091,1042.61 777.878,1040.73 788.665,1038.82 799.452,1036.99 810.239,1034.88 821.026,1032.02 831.812,1029.41 842.599,1027.02 
  853.386,1025.07 864.173,1023.55 874.96,1022.13 885.747,1020 896.533,1017.06 907.32,1014.38 918.107,1011.42 928.894,1008.6 939.681,1005.56 950.468,1003.23 
  961.254,1000.62 972.041,998.558 982.828,996.078 993.615,993.346 1004.4,990.304 1015.19,987.24 1025.98,983.629 1036.76,979.979 1047.55,976.408 1058.34,973.046 
  1069.12,969.045 1079.91,964.72 1090.7,959.797 1101.48,954.656 1112.27,948.976 1123.06,943.568 1133.84,938.823 1144.63,933.311 1155.42,927.469 1166.2,922.255 
  1176.99,915.762 1187.78,908.704 1198.56,901.26 1209.35,894.199 1220.14,887.637 1230.93,880.17 1241.71,873.36 1252.5,866.379 1263.29,857.979 1274.07,849.398 
  1284.86,840.894 1295.65,831.389 1306.43,823.728 1317.22,817.842 1328.01,811.898 1338.79,805.999 1349.58,800.313 1360.37,793.577 1371.15,787.628 1381.94,780.052 
  1392.73,772.313 1403.51,765.897 1414.3,759.985 1425.09,753.154 1435.88,745.992 1446.66,739.086 1457.45,731.09 1468.24,722.259 1479.02,712.486 1489.81,702.151 
  1500.6,691.389 1511.38,681.204 1522.17,669.797 1532.96,657.607 1543.74,644.96 1554.53,630.72 1565.32,615.502 1576.1,599.501 1586.89,581.851 1597.68,563.636 
  1608.46,547.453 1619.25,530.349 1630.04,511.39 1640.82,492.052 1651.61,471.449 1662.4,447.922 1673.19,422.61 1683.97,394.616 1694.76,365.362 1705.55,332.359 
  1716.33,293.899 1727.12,247.908 1737.91,187.701 1748.69,171.994 1759.48,159.872 1770.27,148.713 1781.05,138.682 1791.84,129.931 1802.63,121.291 1813.41,113.513 
  1824.2,106.826 1834.99,101.177 1845.77,96.1211 1856.56,91.9899 1867.35,88.4131 1878.14,88.0053 1888.92,88.6849 1899.71,89.7141 1910.5,91.8903 1921.28,94.277 
  1932.07,97.7546 1942.86,102.612 1953.64,106.12 1964.43,108.583 1975.22,112.923 1986,115.569 1996.79,118.294 2007.58,122.195 2018.36,123.683 2029.15,126.613 
  2039.94,129.236 2050.72,130.282 2061.51,133.04 2072.3,136.724 2083.09,138.237 2093.87,142.683 2104.66,149.196 2115.45,370.966 2126.23,1446.71 2137.02,797.092 
  
  "/>
<path clip-path="url(#clip1100)" d="
M267.389 251.724 L801.727 251.724 L801.727 130.764 L267.389 130.764  Z
  " fill="#ffffff" fill-rule="evenodd" fill-opacity="1"/>
<polyline clip-path="url(#clip1100)" style="stroke:#000000; stroke-width:4; stroke-opacity:1; fill:none" points="
  267.389,251.724 801.727,251.724 801.727,130.764 267.389,130.764 267.389,251.724 
  "/>
<polyline clip-path="url(#clip1100)" style="stroke:#000000; stroke-width:4; stroke-opacity:1; fill:none" points="
  291.389,191.244 435.389,191.244 
  "/>
<g clip-path="url(#clip1100)">
<text style="fill:#000000; fill-opacity:1; font-family:Arial,Helvetica Neue,Helvetica,sans-serif; font-size:48px; text-anchor:start;" transform="rotate(0, 459.389, 208.744)" x="459.389" y="208.744">Iteration #100</text>
</g>
</svg>
