<?xml version="1.0" encoding="utf-8"?>
<svg xmlns="http://www.w3.org/2000/svg" xmlns:xlink="http://www.w3.org/1999/xlink" width="600" height="400" viewBox="0 0 2400 1600">
<defs>
  <clipPath id="clip0500">
    <rect x="0" y="0" width="2400" height="1600"/>
  </clipPath>
</defs>
<path clip-path="url(#clip0500)" d="
M0 1600 L2400 1600 L2400 0 L0 0  Z
  " fill="#ffffff" fill-rule="evenodd" fill-opacity="1"/>
<defs>
  <clipPath id="clip0501">
    <rect x="480" y="0" width="1681" height="1600"/>
  </clipPath>
</defs>
<path clip-path="url(#clip0500)" d="
M194.041 1487.47 L2352.76 1487.47 L2352.76 47.2441 L194.041 47.2441  Z
  " fill="#ffffff" fill-rule="evenodd" fill-opacity="1"/>
<defs>
  <clipPath id="clip0502">
    <rect x="194" y="47" width="2160" height="1441"/>
  </clipPath>
</defs>
<polyline clip-path="url(#clip0500)" style="stroke:#000000; stroke-width:4; stroke-opacity:1; fill:none" points="
  194.041,1487.47 2352.76,1487.47 
  "/>
<polyline clip-path="url(#clip0500)" style="stroke:#000000; stroke-width:4; stroke-opacity:1; fill:none" points="
  194.041,1487.47 194.041,47.2441 
  "/>
<polyline clip-path="url(#clip0500)" style="stroke:#000000; stroke-width:4; stroke-opacity:1; fill:none" points="
  194.041,1487.47 194.041,1470.19 
  "/>
<polyline clip-path="url(#clip0500)" style="stroke:#000000; stroke-width:4; stroke-opacity:1; fill:none" points="
  733.72,1487.47 733.72,1470.19 
  "/>
<polyline clip-path="url(#clip0500)" style="stroke:#000000; stroke-width:4; stroke-opacity:1; fill:none" points="
  1273.4,1487.47 1273.4,1470.19 
  "/>
<polyline clip-path="url(#clip0500)" style="stroke:#000000; stroke-width:4; stroke-opacity:1; fill:none" points="
  1813.08,1487.47 1813.08,1470.19 
  "/>
<polyline clip-path="url(#clip0500)" style="stroke:#000000; stroke-width:4; stroke-opacity:1; fill:none" points="
  2352.76,1487.47 2352.76,1470.19 
  "/>
<polyline clip-path="url(#clip0500)" style="stroke:#000000; stroke-width:4; stroke-opacity:1; fill:none" points="
  194.041,1318.55 219.946,1318.55 
  "/>
<polyline clip-path="url(#clip0500)" style="stroke:#000000; stroke-width:4; stroke-opacity:1; fill:none" points="
  194.041,983.477 219.946,983.477 
  "/>
<polyline clip-path="url(#clip0500)" style="stroke:#000000; stroke-width:4; stroke-opacity:1; fill:none" points="
  194.041,648.399 219.946,648.399 
  "/>
<polyline clip-path="url(#clip0500)" style="stroke:#000000; stroke-width:4; stroke-opacity:1; fill:none" points="
  194.041,313.321 219.946,313.321 
  "/>
<g clip-path="url(#clip0500)">
<text style="fill:#000000; fill-opacity:1; font-family:Arial,Helvetica Neue,Helvetica,sans-serif; font-size:48px; text-anchor:middle;" transform="rotate(0, 194.041, 1541.47)" x="194.041" y="1541.47">0</text>
</g>
<g clip-path="url(#clip0500)">
<text style="fill:#000000; fill-opacity:1; font-family:Arial,Helvetica Neue,Helvetica,sans-serif; font-size:48px; text-anchor:middle;" transform="rotate(0, 733.72, 1541.47)" x="733.72" y="1541.47">50</text>
</g>
<g clip-path="url(#clip0500)">
<text style="fill:#000000; fill-opacity:1; font-family:Arial,Helvetica Neue,Helvetica,sans-serif; font-size:48px; text-anchor:middle;" transform="rotate(0, 1273.4, 1541.47)" x="1273.4" y="1541.47">100</text>
</g>
<g clip-path="url(#clip0500)">
<text style="fill:#000000; fill-opacity:1; font-family:Arial,Helvetica Neue,Helvetica,sans-serif; font-size:48px; text-anchor:middle;" transform="rotate(0, 1813.08, 1541.47)" x="1813.08" y="1541.47">150</text>
</g>
<g clip-path="url(#clip0500)">
<text style="fill:#000000; fill-opacity:1; font-family:Arial,Helvetica Neue,Helvetica,sans-serif; font-size:48px; text-anchor:middle;" transform="rotate(0, 2352.76, 1541.47)" x="2352.76" y="1541.47">200</text>
</g>
<g clip-path="url(#clip0500)">
<text style="fill:#000000; fill-opacity:1; font-family:Arial,Helvetica Neue,Helvetica,sans-serif; font-size:48px; text-anchor:end;" transform="rotate(0, 170.041, 1336.05)" x="170.041" y="1336.05">0</text>
</g>
<g clip-path="url(#clip0500)">
<text style="fill:#000000; fill-opacity:1; font-family:Arial,Helvetica Neue,Helvetica,sans-serif; font-size:48px; text-anchor:end;" transform="rotate(0, 170.041, 1000.98)" x="170.041" y="1000.98">500</text>
</g>
<g clip-path="url(#clip0500)">
<text style="fill:#000000; fill-opacity:1; font-family:Arial,Helvetica Neue,Helvetica,sans-serif; font-size:48px; text-anchor:end;" transform="rotate(0, 170.041, 665.899)" x="170.041" y="665.899">1000</text>
</g>
<g clip-path="url(#clip0500)">
<text style="fill:#000000; fill-opacity:1; font-family:Arial,Helvetica Neue,Helvetica,sans-serif; font-size:48px; text-anchor:end;" transform="rotate(0, 170.041, 330.821)" x="170.041" y="330.821">1500</text>
</g>
<polyline clip-path="url(#clip0502)" style="stroke:#000000; stroke-width:4; stroke-opacity:1; fill:none" points="
  204.835,1149.72 215.629,1150.15 226.422,1150.5 237.216,1150.72 248.009,1150.99 258.803,1151.39 269.596,1151.9 280.39,1152.24 291.184,1152.63 301.977,1152.88 
  312.771,1153.13 323.564,1153.04 334.358,1152.78 345.151,1152.49 355.945,1152.51 366.739,1152.38 377.532,1152.2 388.326,1152.02 399.119,1151.79 409.913,1151.54 
  420.706,1151.24 431.5,1150.94 442.294,1150.72 453.087,1150.68 463.881,1150.69 474.674,1150.61 485.468,1150.53 496.262,1150.4 507.055,1150.3 517.849,1150.14 
  528.642,1149.98 539.436,1149.65 550.229,1149.08 561.023,1148.27 571.817,1147.21 582.61,1145.85 593.404,1144.22 604.197,1142.43 614.991,1140.55 625.784,1138.5 
  636.578,1136.33 647.372,1134.04 658.165,1131.82 668.959,1129.62 679.752,1127.47 690.546,1125.16 701.339,1122.72 712.133,1120.02 722.927,1117.36 733.72,1114.59 
  744.514,1111.98 755.307,1109.11 766.101,1106.21 776.894,1103.19 787.688,1100.03 798.482,1096.85 809.275,1093.43 820.069,1089.67 830.862,1085.9 841.656,1082.05 
  852.449,1078.25 863.243,1074.56 874.037,1070.68 884.83,1066.53 895.624,1061.92 906.417,1057.29 917.211,1052.41 928.004,1047.57 938.798,1042.33 949.592,1037.35 
  960.385,1032.13 971.179,1026.88 981.972,1021.51 992.766,1015.77 1003.56,1009.82 1014.35,1003.81 1025.15,997.339 1035.94,990.793 1046.73,984.18 1057.53,977.407 
  1068.32,970.374 1079.11,963.074 1089.91,955.31 1100.7,947.573 1111.5,939.342 1122.29,931.143 1133.08,923.218 1143.88,914.749 1154.67,906.146 1165.46,897.799 
  1176.26,888.696 1187.05,879.527 1197.84,870.092 1208.64,860.673 1219.43,851.579 1230.22,841.985 1241.02,832.606 1251.81,823.358 1262.61,813.306 1273.4,803.36 
  1284.19,793.513 1294.99,783.128 1305.78,773.599 1316.57,764.735 1327.37,755.69 1338.16,746.943 1348.95,738.158 1359.75,728.896 1370.54,720.234 1381.33,710.717 
  1392.13,701.228 1402.92,692.387 1413.72,683.445 1424.51,674.369 1435.3,665.185 1446.1,655.902 1456.89,646.341 1467.68,636.373 1478.48,625.856 1489.27,615.309 
  1500.06,604.308 1510.86,593.489 1521.65,582.203 1532.44,570.282 1543.24,558.102 1554.03,545.22 1564.83,531.43 1575.62,517.284 1586.41,502.021 1597.21,486.057 
  1608,470.775 1618.79,454.54 1629.59,436.856 1640.38,418.557 1651.17,398.757 1661.97,376.679 1672.76,352.541 1683.55,325.473 1694.35,296.219 1705.14,262.562 
  1715.94,222.482 1726.73,173.073 1737.52,104.356 1748.32,96.0666 1759.11,92.5202 1769.9,90.3549 1780.7,89.1952 1791.49,88.5567 1802.28,88.0053 1813.08,88.0541 
  1823.87,88.1088 1834.66,88.3015 1845.46,88.9061 1856.25,89.2763 1867.05,89.8215 1877.84,91.0215 1888.63,91.7961 1899.43,92.8857 1910.22,94.2859 1921.01,95.1599 
  1931.81,96.6182 1942.6,98.2152 1953.39,99.1025 1964.19,100.61 1974.98,102.04 1985.77,102.814 1996.57,104.632 2007.36,105.657 2018.16,106.519 2028.95,108.336 
  2039.74,109.084 2050.54,109.953 2061.33,111.68 2072.12,112.296 2082.92,113.714 2093.71,115.712 2104.5,117.291 2115.3,269.917 2126.09,1446.71 2136.88,782.43 
  
  "/>
<path clip-path="url(#clip0500)" d="
M266.041 251.724 L773.617 251.724 L773.617 130.764 L266.041 130.764  Z
  " fill="#ffffff" fill-rule="evenodd" fill-opacity="1"/>
<polyline clip-path="url(#clip0500)" style="stroke:#000000; stroke-width:4; stroke-opacity:1; fill:none" points="
  266.041,251.724 773.617,251.724 773.617,130.764 266.041,130.764 266.041,251.724 
  "/>
<polyline clip-path="url(#clip0500)" style="stroke:#000000; stroke-width:4; stroke-opacity:1; fill:none" points="
  290.041,191.244 434.041,191.244 
  "/>
<g clip-path="url(#clip0500)">
<text style="fill:#000000; fill-opacity:1; font-family:Arial,Helvetica Neue,Helvetica,sans-serif; font-size:48px; text-anchor:start;" transform="rotate(0, 458.041, 208.744)" x="458.041" y="208.744">Iteration #50</text>
</g>
</svg>
