<?xml version="1.0" encoding="utf-8"?>
<svg xmlns="http://www.w3.org/2000/svg" xmlns:xlink="http://www.w3.org/1999/xlink" width="600" height="400" viewBox="0 0 2400 1600">
<defs>
  <clipPath id="clip5700">
    <rect x="0" y="0" width="2400" height="1600"/>
  </clipPath>
</defs>
<path clip-path="url(#clip5700)" d="
M0 1600 L2400 1600 L2400 0 L0 0  Z
  " fill="#ffffff" fill-rule="evenodd" fill-opacity="1"/>
<defs>
  <clipPath id="clip5701">
    <rect x="480" y="0" width="1681" height="1600"/>
  </clipPath>
</defs>
<path clip-path="url(#clip5700)" d="
M194.041 1487.47 L2352.76 1487.47 L2352.76 47.2441 L194.041 47.2441  Z
  " fill="#ffffff" fill-rule="evenodd" fill-opacity="1"/>
<defs>
  <clipPath id="clip5702">
    <rect x="194" y="47" width="2160" height="1441"/>
  </clipPath>
</defs>
<polyline clip-path="url(#clip5700)" style="stroke:#000000; stroke-width:4; stroke-opacity:1; fill:none" points="
  194.041,1487.47 2352.76,1487.47 
  "/>
<polyline clip-path="url(#clip5700)" style="stroke:#000000; stroke-width:4; stroke-opacity:1; fill:none" points="
  194.041,1487.47 194.041,47.2441 
  "/>
<polyline clip-path="url(#clip5700)" style="stroke:#000000; stroke-width:4; stroke-opacity:1; fill:none" points="
  194.041,1487.47 194.041,1470.19 
  "/>
<polyline clip-path="url(#clip5700)" style="stroke:#000000; stroke-width:4; stroke-opacity:1; fill:none" points="
  733.72,1487.47 733.72,1470.19 
  "/>
<polyline clip-path="url(#clip5700)" style="stroke:#000000; stroke-width:4; stroke-opacity:1; fill:none" points="
  1273.4,1487.47 1273.4,1470.19 
  "/>
<polyline clip-path="url(#clip5700)" style="stroke:#000000; stroke-width:4; stroke-opacity:1; fill:none" points="
  1813.08,1487.47 1813.08,1470.19 
  "/>
<polyline clip-path="url(#clip5700)" style="stroke:#000000; stroke-width:4; stroke-opacity:1; fill:none" points="
  2352.76,1487.47 2352.76,1470.19 
  "/>
<polyline clip-path="url(#clip5700)" style="stroke:#000000; stroke-width:4; stroke-opacity:1; fill:none" points="
  194.041,1487.47 219.946,1487.47 
  "/>
<polyline clip-path="url(#clip5700)" style="stroke:#000000; stroke-width:4; stroke-opacity:1; fill:none" points="
  194.041,1007.4 219.946,1007.4 
  "/>
<polyline clip-path="url(#clip5700)" style="stroke:#000000; stroke-width:4; stroke-opacity:1; fill:none" points="
  194.041,527.321 219.946,527.321 
  "/>
<polyline clip-path="url(#clip5700)" style="stroke:#000000; stroke-width:4; stroke-opacity:1; fill:none" points="
  194.041,47.2441 219.946,47.2441 
  "/>
<g clip-path="url(#clip5700)">
<text style="fill:#000000; fill-opacity:1; font-family:Arial,Helvetica Neue,Helvetica,sans-serif; font-size:48px; text-anchor:middle;" transform="rotate(0, 194.041, 1541.47)" x="194.041" y="1541.47">0</text>
</g>
<g clip-path="url(#clip5700)">
<text style="fill:#000000; fill-opacity:1; font-family:Arial,Helvetica Neue,Helvetica,sans-serif; font-size:48px; text-anchor:middle;" transform="rotate(0, 733.72, 1541.47)" x="733.72" y="1541.47">50</text>
</g>
<g clip-path="url(#clip5700)">
<text style="fill:#000000; fill-opacity:1; font-family:Arial,Helvetica Neue,Helvetica,sans-serif; font-size:48px; text-anchor:middle;" transform="rotate(0, 1273.4, 1541.47)" x="1273.4" y="1541.47">100</text>
</g>
<g clip-path="url(#clip5700)">
<text style="fill:#000000; fill-opacity:1; font-family:Arial,Helvetica Neue,Helvetica,sans-serif; font-size:48px; text-anchor:middle;" transform="rotate(0, 1813.08, 1541.47)" x="1813.08" y="1541.47">150</text>
</g>
<g clip-path="url(#clip5700)">
<text style="fill:#000000; fill-opacity:1; font-family:Arial,Helvetica Neue,Helvetica,sans-serif; font-size:48px; text-anchor:middle;" transform="rotate(0, 2352.76, 1541.47)" x="2352.76" y="1541.47">200</text>
</g>
<g clip-path="url(#clip5700)">
<text style="fill:#000000; fill-opacity:1; font-family:Arial,Helvetica Neue,Helvetica,sans-serif; font-size:48px; text-anchor:end;" transform="rotate(0, 170.041, 1504.97)" x="170.041" y="1504.97">0</text>
</g>
<g clip-path="url(#clip5700)">
<text style="fill:#000000; fill-opacity:1; font-family:Arial,Helvetica Neue,Helvetica,sans-serif; font-size:48px; text-anchor:end;" transform="rotate(0, 170.041, 1024.9)" x="170.041" y="1024.9">500</text>
</g>
<g clip-path="url(#clip5700)">
<text style="fill:#000000; fill-opacity:1; font-family:Arial,Helvetica Neue,Helvetica,sans-serif; font-size:48px; text-anchor:end;" transform="rotate(0, 170.041, 544.821)" x="170.041" y="544.821">1000</text>
</g>
<g clip-path="url(#clip5700)">
<text style="fill:#000000; fill-opacity:1; font-family:Arial,Helvetica Neue,Helvetica,sans-serif; font-size:48px; text-anchor:end;" transform="rotate(0, 170.041, 64.7441)" x="170.041" y="64.7441">1500</text>
</g>
<polyline clip-path="url(#clip5702)" style="stroke:#000000; stroke-width:4; stroke-opacity:1; fill:none" points="
  204.835,1206.8 215.629,1208.72 226.422,1211.17 237.216,1212.79 248.009,1214.53 258.803,1217.32 269.596,1220.84 280.39,1223.69 291.184,1226.45 301.977,1229.06 
  312.771,1231.28 323.564,1232.13 334.358,1231.33 345.151,1231.23 355.945,1232.87 366.739,1233.73 377.532,1234.72 388.326,1235.54 399.119,1236.54 409.913,1237.45 
  420.706,1238.48 431.5,1239.61 442.294,1241.46 453.087,1244.69 463.881,1248.37 474.674,1251.89 485.468,1255.57 496.262,1259.42 507.055,1263.49 517.849,1267.76 
  528.642,1272.07 539.436,1275.96 550.229,1278.9 561.023,1281.03 571.817,1282.1 582.61,1282.26 593.404,1281.56 604.197,1280.52 614.991,1279.86 625.784,1278.74 
  636.578,1278.05 647.372,1192.21 658.165,1192.04 668.959,1192.27 679.752,1192.82 690.546,1193.01 701.339,1192.82 712.133,1191.98 722.927,1191.4 733.72,1191.15 
  744.514,1191.49 755.307,1191.59 766.101,1191.73 776.894,1191.9 787.688,1192.16 798.482,1192.62 809.275,1192.92 820.069,1192.34 830.862,1192.33 841.656,1192.88 
  852.449,1194.33 863.243,1196.43 874.037,1199.24 884.83,1201.29 895.624,1202.88 906.417,1205.13 917.211,1207.69 928.004,1210.59 938.798,1214.24 949.592,1218.83 
  960.385,1223.86 971.179,1229.95 981.972,1236.09 992.766,1242.53 1003.56,1249.25 1014.35,1256.21 1025.15,1263.36 1035.94,1270.72 1046.73,1278.4 1057.53,1286.35 
  1068.32,1294.3 1079.11,685.442 1089.91,691.251 1100.7,695.872 1111.5,699.406 1122.29,702.546 1133.08,705.243 1143.88,707.366 1154.67,709.068 1165.46,710.491 
  1176.26,711.524 1187.05,712.117 1197.84,712.423 1208.64,712.643 1219.43,712.76 1230.22,712.477 1241.02,712.158 1251.81,711.564 1262.61,710.443 1273.4,708.906 
  1284.19,707.036 1294.99,704.449 1305.78,701.902 1316.57,699.514 1327.37,696.599 1338.16,692.852 1348.95,688.405 1359.75,682.107 1370.54,674.323 1381.33,662.684 
  1392.13,646.459 1402.92,625.655 1413.72,598.976 1424.51,561.2 1435.3,515.192 1446.1,470.01 1456.89,429.197 1467.68,396.116 1478.48,368.502 1489.27,343.289 
  1500.06,317.843 1510.86,293.411 1521.65,291.242 1532.44,290.738 1543.24,290.791 1554.03,290.999 1564.83,291.249 1575.62,291.418 1586.41,291.639 1597.21,291.871 
  1608,292.097 1618.79,292.239 1629.59,292.386 1640.38,292.54 1651.17,292.723 1661.97,292.744 1672.76,292.716 1683.55,292.818 1694.35,292.953 1705.14,292.904 
  1715.94,292.872 1726.73,292.924 1737.52,292.955 1748.32,292.928 1759.11,292.854 1769.9,292.873 1780.7,292.967 1791.49,292.922 1802.28,292.817 1813.08,292.894 
  1823.87,292.953 1834.66,995.154 1845.46,994.97 1856.25,995.064 1867.05,995.257 1877.84,995.293 1888.63,995.35 1899.43,995.501 1910.22,995.7 1921.01,995.857 
  1931.81,995.989 1942.6,996.116 1953.39,1206.38 1964.19,1206.64 1974.98,1206.77 1985.77,1206.8 1996.57,1207.04 2007.36,1207.33 2018.16,1207.44 2028.95,1207.44 
  2039.74,1207.67 2050.54,1207.99 2061.33,1208.13 2072.12,1208.09 2082.92,1208.34 2093.71,1208.69 2104.5,1209.09 2115.3,1215.68 2126.09,1669.74 2136.88,1439.47 
  
  "/>
</svg>
