<?xml version="1.0" encoding="utf-8"?>
<svg xmlns="http://www.w3.org/2000/svg" xmlns:xlink="http://www.w3.org/1999/xlink" width="600" height="400" viewBox="0 0 2400 1600">
<defs>
  <clipPath id="clip6900">
    <rect x="0" y="0" width="2400" height="1600"/>
  </clipPath>
</defs>
<path clip-path="url(#clip6900)" d="
M0 1600 L2400 1600 L2400 0 L0 0  Z
  " fill="#ffffff" fill-rule="evenodd" fill-opacity="1"/>
<defs>
  <clipPath id="clip6901">
    <rect x="480" y="0" width="1681" height="1600"/>
  </clipPath>
</defs>
<path clip-path="url(#clip6900)" d="
M194.041 1487.47 L2352.76 1487.47 L2352.76 47.2441 L194.041 47.2441  Z
  " fill="#ffffff" fill-rule="evenodd" fill-opacity="1"/>
<defs>
  <clipPath id="clip6902">
    <rect x="194" y="47" width="2160" height="1441"/>
  </clipPath>
</defs>
<polyline clip-path="url(#clip6900)" style="stroke:#000000; stroke-width:4; stroke-opacity:1; fill:none" points="
  194.041,1487.47 2352.76,1487.47 
  "/>
<polyline clip-path="url(#clip6900)" style="stroke:#000000; stroke-width:4; stroke-opacity:1; fill:none" points="
  194.041,1487.47 194.041,47.2441 
  "/>
<polyline clip-path="url(#clip6900)" style="stroke:#000000; stroke-width:4; stroke-opacity:1; fill:none" points="
  194.041,1487.47 194.041,1470.19 
  "/>
<polyline clip-path="url(#clip6900)" style="stroke:#000000; stroke-width:4; stroke-opacity:1; fill:none" points="
  733.72,1487.47 733.72,1470.19 
  "/>
<polyline clip-path="url(#clip6900)" style="stroke:#000000; stroke-width:4; stroke-opacity:1; fill:none" points="
  1273.4,1487.47 1273.4,1470.19 
  "/>
<polyline clip-path="url(#clip6900)" style="stroke:#000000; stroke-width:4; stroke-opacity:1; fill:none" points="
  1813.08,1487.47 1813.08,1470.19 
  "/>
<polyline clip-path="url(#clip6900)" style="stroke:#000000; stroke-width:4; stroke-opacity:1; fill:none" points="
  2352.76,1487.47 2352.76,1470.19 
  "/>
<polyline clip-path="url(#clip6900)" style="stroke:#000000; stroke-width:4; stroke-opacity:1; fill:none" points="
  194.041,1487.47 219.946,1487.47 
  "/>
<polyline clip-path="url(#clip6900)" style="stroke:#000000; stroke-width:4; stroke-opacity:1; fill:none" points="
  194.041,1007.4 219.946,1007.4 
  "/>
<polyline clip-path="url(#clip6900)" style="stroke:#000000; stroke-width:4; stroke-opacity:1; fill:none" points="
  194.041,527.321 219.946,527.321 
  "/>
<polyline clip-path="url(#clip6900)" style="stroke:#000000; stroke-width:4; stroke-opacity:1; fill:none" points="
  194.041,47.2441 219.946,47.2441 
  "/>
<g clip-path="url(#clip6900)">
<text style="fill:#000000; fill-opacity:1; font-family:Arial,Helvetica Neue,Helvetica,sans-serif; font-size:48px; text-anchor:middle;" transform="rotate(0, 194.041, 1541.47)" x="194.041" y="1541.47">0</text>
</g>
<g clip-path="url(#clip6900)">
<text style="fill:#000000; fill-opacity:1; font-family:Arial,Helvetica Neue,Helvetica,sans-serif; font-size:48px; text-anchor:middle;" transform="rotate(0, 733.72, 1541.47)" x="733.72" y="1541.47">50</text>
</g>
<g clip-path="url(#clip6900)">
<text style="fill:#000000; fill-opacity:1; font-family:Arial,Helvetica Neue,Helvetica,sans-serif; font-size:48px; text-anchor:middle;" transform="rotate(0, 1273.4, 1541.47)" x="1273.4" y="1541.47">100</text>
</g>
<g clip-path="url(#clip6900)">
<text style="fill:#000000; fill-opacity:1; font-family:Arial,Helvetica Neue,Helvetica,sans-serif; font-size:48px; text-anchor:middle;" transform="rotate(0, 1813.08, 1541.47)" x="1813.08" y="1541.47">150</text>
</g>
<g clip-path="url(#clip6900)">
<text style="fill:#000000; fill-opacity:1; font-family:Arial,Helvetica Neue,Helvetica,sans-serif; font-size:48px; text-anchor:middle;" transform="rotate(0, 2352.76, 1541.47)" x="2352.76" y="1541.47">200</text>
</g>
<g clip-path="url(#clip6900)">
<text style="fill:#000000; fill-opacity:1; font-family:Arial,Helvetica Neue,Helvetica,sans-serif; font-size:48px; text-anchor:end;" transform="rotate(0, 170.041, 1504.97)" x="170.041" y="1504.97">0</text>
</g>
<g clip-path="url(#clip6900)">
<text style="fill:#000000; fill-opacity:1; font-family:Arial,Helvetica Neue,Helvetica,sans-serif; font-size:48px; text-anchor:end;" transform="rotate(0, 170.041, 1024.9)" x="170.041" y="1024.9">500</text>
</g>
<g clip-path="url(#clip6900)">
<text style="fill:#000000; fill-opacity:1; font-family:Arial,Helvetica Neue,Helvetica,sans-serif; font-size:48px; text-anchor:end;" transform="rotate(0, 170.041, 544.821)" x="170.041" y="544.821">1000</text>
</g>
<g clip-path="url(#clip6900)">
<text style="fill:#000000; fill-opacity:1; font-family:Arial,Helvetica Neue,Helvetica,sans-serif; font-size:48px; text-anchor:end;" transform="rotate(0, 170.041, 64.7441)" x="170.041" y="64.7441">1500</text>
</g>
<polyline clip-path="url(#clip6902)" style="stroke:#000000; stroke-width:4; stroke-opacity:1; fill:none" points="
  204.835,1175.45 215.629,1184.14 226.422,1194.41 237.216,1199.36 248.009,1204.22 258.803,1213.92 269.596,1227.03 280.39,1236.15 291.184,1244.43 301.977,1251.89 
  312.771,1257.14 323.564,1255.15 334.358,1244.63 345.151,1237.47 355.945,1239.28 366.739,1237.17 377.532,1234.98 388.326,1232.36 399.119,1229.69 409.913,1226.77 
  420.706,1223.82 431.5,1221.16 442.294,1221.88 453.087,1229.42 463.881,1239.23 474.674,1247.85 485.468,1257.3 496.262,1267.77 507.055,1279.5 517.849,1292.7 
  528.642,1306.83 539.436,1319.04 550.229,1327.11 561.023,1331.66 571.817,1331.58 582.61,1327.43 593.404,1319.16 604.197,1309.94 614.991,1303.14 625.784,1294.42 
  636.578,1288.17 647.372,1196.89 658.165,1193.88 668.959,1193.18 679.752,1194.34 690.546,1193.59 701.339,1190.53 712.133,1183.97 722.927,1178.54 733.72,1174.72 
  744.514,1173.76 755.307,1171.02 766.101,1168.03 776.894,1164.76 787.688,1161.3 798.482,1158.3 809.275,1153.59 820.069,1143.43 830.862,1135.4 841.656,1129.36 
  852.449,1127.02 863.243,1127.18 874.037,1130.07 884.83,1127.53 895.624,1121.37 906.417,1117.62 917.211,1114.35 928.004,1111.72 938.798,1111.97 949.592,1116.55 
  960.385,1122.83 971.179,1134.85 981.972,1146.81 992.766,1160.83 1003.56,1177.28 1014.35,1196.23 1025.15,1217.85 1035.94,1242.62 1046.73,1272.32 1057.53,1306.93 
  1068.32,1344.44 1079.11,768.764 1089.91,796.716 1100.7,816.43 1111.5,830.756 1122.29,842.81 1133.08,853.634 1143.88,861.094 1154.67,866.166 1165.46,871.23 
  1176.26,873.104 1187.05,872.568 1197.84,870.753 1208.64,869.239 1219.43,868.006 1230.22,864.481 1241.02,862.081 1251.81,858.551 1262.61,851.549 1273.4,842.945 
  1284.19,833.406 1294.99,820.093 1305.78,810.699 1316.57,807.317 1327.37,804.396 1338.16,800.655 1348.95,798.909 1359.75,792.461 1370.54,788.741 1381.33,775.674 
  1392.13,756.721 1402.92,741.91 1413.72,730.296 1424.51,694.217 1435.3,635.62 1446.1,570.677 1456.89,490.026 1467.68,413.382 1478.48,344.177 1489.27,281.03 
  1500.06,224.558 1510.86,176.437 1521.65,150.067 1532.44,128.164 1543.24,108.962 1554.03,90.3646 1564.83,73.9224 1575.62,59.0035 1586.41,45.0786 1597.21,33.0543 
  1608,24.249 1618.79,15.9758 1629.59,8.12416 1640.38,1.09419 1651.17,-5.32422 1661.97,-11.8826 1672.76,-17.9776 1683.55,-23.6354 1694.35,-28.4122 1705.14,-33.204 
  1715.94,-37.7187 1726.73,-42.1023 1737.52,-46.0067 1748.32,-49.6061 1759.11,-53.081 1769.9,-56.1455 1780.7,-58.8428 1791.49,-61.1718 1802.28,-63.6765 1813.08,-65.5209 
  1823.87,-66.9845 1834.66,634.112 1845.46,632.558 1856.25,631.867 1867.05,632.291 1877.84,631.992 1888.63,632.883 1899.43,634.209 1910.22,635.641 1921.01,636.927 
  1931.81,638.877 1942.6,640.979 1953.39,853.04 1964.19,854.681 1974.98,856.595 1985.77,858.339 1996.57,860.167 2007.36,861.969 2018.16,863.683 2028.95,865.065 
  2039.74,866.782 2050.54,868.601 2061.33,870.11 2072.12,871.676 2082.92,874.157 2093.71,876.49 2104.5,880.305 2115.3,948.938 2126.09,1997.35 2136.88,1439.47 
  
  "/>
</svg>
