<?xml version="1.0" encoding="utf-8"?>
<svg xmlns="http://www.w3.org/2000/svg" xmlns:xlink="http://www.w3.org/1999/xlink" width="600" height="400" viewBox="0 0 2400 1600">
<defs>
  <clipPath id="clip7500">
    <rect x="0" y="0" width="2400" height="1600"/>
  </clipPath>
</defs>
<path clip-path="url(#clip7500)" d="
M0 1600 L2400 1600 L2400 0 L0 0  Z
  " fill="#ffffff" fill-rule="evenodd" fill-opacity="1"/>
<defs>
  <clipPath id="clip7501">
    <rect x="480" y="0" width="1681" height="1600"/>
  </clipPath>
</defs>
<path clip-path="url(#clip7500)" d="
M194.041 1487.47 L2352.76 1487.47 L2352.76 47.2441 L194.041 47.2441  Z
  " fill="#ffffff" fill-rule="evenodd" fill-opacity="1"/>
<defs>
  <clipPath id="clip7502">
    <rect x="194" y="47" width="2160" height="1441"/>
  </clipPath>
</defs>
<polyline clip-path="url(#clip7500)" style="stroke:#000000; stroke-width:4; stroke-opacity:1; fill:none" points="
  194.041,1487.47 2352.76,1487.47 
  "/>
<polyline clip-path="url(#clip7500)" style="stroke:#000000; stroke-width:4; stroke-opacity:1; fill:none" points="
  194.041,1487.47 194.041,47.2441 
  "/>
<polyline clip-path="url(#clip7500)" style="stroke:#000000; stroke-width:4; stroke-opacity:1; fill:none" points="
  194.041,1487.47 194.041,1470.19 
  "/>
<polyline clip-path="url(#clip7500)" style="stroke:#000000; stroke-width:4; stroke-opacity:1; fill:none" points="
  733.72,1487.47 733.72,1470.19 
  "/>
<polyline clip-path="url(#clip7500)" style="stroke:#000000; stroke-width:4; stroke-opacity:1; fill:none" points="
  1273.4,1487.47 1273.4,1470.19 
  "/>
<polyline clip-path="url(#clip7500)" style="stroke:#000000; stroke-width:4; stroke-opacity:1; fill:none" points="
  1813.08,1487.47 1813.08,1470.19 
  "/>
<polyline clip-path="url(#clip7500)" style="stroke:#000000; stroke-width:4; stroke-opacity:1; fill:none" points="
  2352.76,1487.47 2352.76,1470.19 
  "/>
<polyline clip-path="url(#clip7500)" style="stroke:#000000; stroke-width:4; stroke-opacity:1; fill:none" points="
  194.041,1487.47 219.946,1487.47 
  "/>
<polyline clip-path="url(#clip7500)" style="stroke:#000000; stroke-width:4; stroke-opacity:1; fill:none" points="
  194.041,1007.4 219.946,1007.4 
  "/>
<polyline clip-path="url(#clip7500)" style="stroke:#000000; stroke-width:4; stroke-opacity:1; fill:none" points="
  194.041,527.321 219.946,527.321 
  "/>
<polyline clip-path="url(#clip7500)" style="stroke:#000000; stroke-width:4; stroke-opacity:1; fill:none" points="
  194.041,47.2441 219.946,47.2441 
  "/>
<g clip-path="url(#clip7500)">
<text style="fill:#000000; fill-opacity:1; font-family:Arial,Helvetica Neue,Helvetica,sans-serif; font-size:48px; text-anchor:middle;" transform="rotate(0, 194.041, 1541.47)" x="194.041" y="1541.47">0</text>
</g>
<g clip-path="url(#clip7500)">
<text style="fill:#000000; fill-opacity:1; font-family:Arial,Helvetica Neue,Helvetica,sans-serif; font-size:48px; text-anchor:middle;" transform="rotate(0, 733.72, 1541.47)" x="733.72" y="1541.47">50</text>
</g>
<g clip-path="url(#clip7500)">
<text style="fill:#000000; fill-opacity:1; font-family:Arial,Helvetica Neue,Helvetica,sans-serif; font-size:48px; text-anchor:middle;" transform="rotate(0, 1273.4, 1541.47)" x="1273.4" y="1541.47">100</text>
</g>
<g clip-path="url(#clip7500)">
<text style="fill:#000000; fill-opacity:1; font-family:Arial,Helvetica Neue,Helvetica,sans-serif; font-size:48px; text-anchor:middle;" transform="rotate(0, 1813.08, 1541.47)" x="1813.08" y="1541.47">150</text>
</g>
<g clip-path="url(#clip7500)">
<text style="fill:#000000; fill-opacity:1; font-family:Arial,Helvetica Neue,Helvetica,sans-serif; font-size:48px; text-anchor:middle;" transform="rotate(0, 2352.76, 1541.47)" x="2352.76" y="1541.47">200</text>
</g>
<g clip-path="url(#clip7500)">
<text style="fill:#000000; fill-opacity:1; font-family:Arial,Helvetica Neue,Helvetica,sans-serif; font-size:48px; text-anchor:end;" transform="rotate(0, 170.041, 1504.97)" x="170.041" y="1504.97">0</text>
</g>
<g clip-path="url(#clip7500)">
<text style="fill:#000000; fill-opacity:1; font-family:Arial,Helvetica Neue,Helvetica,sans-serif; font-size:48px; text-anchor:end;" transform="rotate(0, 170.041, 1024.9)" x="170.041" y="1024.9">500</text>
</g>
<g clip-path="url(#clip7500)">
<text style="fill:#000000; fill-opacity:1; font-family:Arial,Helvetica Neue,Helvetica,sans-serif; font-size:48px; text-anchor:end;" transform="rotate(0, 170.041, 544.821)" x="170.041" y="544.821">1000</text>
</g>
<g clip-path="url(#clip7500)">
<text style="fill:#000000; fill-opacity:1; font-family:Arial,Helvetica Neue,Helvetica,sans-serif; font-size:48px; text-anchor:end;" transform="rotate(0, 170.041, 64.7441)" x="170.041" y="64.7441">1500</text>
</g>
<polyline clip-path="url(#clip7502)" style="stroke:#000000; stroke-width:4; stroke-opacity:1; fill:none" points="
  204.835,1163.65 215.629,1176.22 226.422,1190.76 237.216,1196.71 248.009,1202.28 258.803,1215.1 269.596,1233.12 280.39,1245.01 291.184,1255.74 301.977,1265.46 
  312.771,1272.09 323.564,1267.94 334.358,1250.87 345.151,1239.14 355.945,1241.3 366.739,1237.46 377.532,1233.39 388.326,1228.66 399.119,1223.65 409.913,1218.12 
  420.706,1212.27 431.5,1206.55 442.294,1205.67 453.087,1214.9 463.881,1227.32 474.674,1237.65 485.468,1249.08 496.262,1262.03 507.055,1276.95 517.849,1294.27 
  528.642,1313.33 539.436,1329.85 550.229,1340.46 561.023,1346.24 571.817,1345.47 582.61,1339.02 593.404,1326.73 604.197,1313.45 614.991,1304.29 625.784,1292.5 
  636.578,1284.74 647.372,1192.15 658.165,1189.65 668.959,1190.8 679.752,1194.93 690.546,1196.2 701.339,1194.01 712.133,1186.51 722.927,1180.83 733.72,1177.64 
  744.514,1178.9 755.307,1177.37 766.101,1175.42 776.894,1173.04 787.688,1170.27 798.482,1168.14 809.275,1163.23 820.069,1149.71 830.862,1139.21 841.656,1131.4 
  852.449,1128.87 863.243,1129.68 874.037,1134.2 884.83,1129.78 895.624,1119.18 906.417,1111.66 917.211,1104.1 928.004,1096.66 938.798,1092.71 949.592,1094.41 
  960.385,1097.69 971.179,1108.82 981.972,1118.9 992.766,1131.31 1003.56,1146.72 1014.35,1165.45 1025.15,1187.98 1035.94,1215.22 1046.73,1250.46 1057.53,1294.05 
  1068.32,1343.25 1079.11,782.393 1089.91,819.219 1100.7,843.566 1111.5,860.29 1122.29,874.062 1133.08,886.705 1143.88,894.438 1154.67,898.826 1165.46,903.745 
  1176.26,903.598 1187.05,900.012 1197.84,894.398 1208.64,889.769 1219.43,885.935 1230.22,878.518 1241.02,873.42 1251.81,866.659 1262.61,854.103 1273.4,839.203 
  1284.19,823.045 1294.99,800.677 1305.78,785.615 1316.57,781.614 1327.37,779.038 1338.16,775.792 1348.95,777.005 1359.75,771.683 1370.54,773.574 1381.33,763.237 
  1392.13,748.866 1402.92,750.426 1413.72,769.572 1424.51,764.883 1435.3,736.92 1446.1,698.793 1456.89,625.425 1467.68,543.535 1478.48,461.145 1489.27,380.323 
  1500.06,306.869 1510.86,244.978 1521.65,201.597 1532.44,163.284 1543.24,128.54 1554.03,93.63 1564.83,62.3466 1575.62,33.4929 1586.41,6.27521 1597.21,-17.3137 
  1608,-34.6116 1618.79,-50.7451 1629.59,-66.3378 1640.38,-80.2158 1651.17,-92.9395 1661.97,-105.946 1672.76,-117.977 1683.55,-129.124 1694.35,-138.688 1705.14,-148.035 
  1715.94,-157.005 1726.73,-165.476 1737.52,-173.115 1748.32,-180.233 1759.11,-186.916 1769.9,-192.783 1780.7,-197.97 1791.49,-202.665 1802.28,-207.321 1813.08,-210.849 
  1823.87,-213.806 1834.66,486.147 1845.46,483.509 1856.25,482.013 1867.05,482.431 1877.84,481.885 1888.63,483.32 1899.43,485.496 1910.22,487.911 1921.01,490.18 
  1931.81,493.334 1942.6,496.996 1953.39,710.601 1964.19,713.293 1974.98,716.386 1985.77,719.401 1996.57,722.582 2007.36,725.484 2018.16,728.191 2028.95,730.677 
  2039.74,733.526 2050.54,736.426 2061.33,738.729 2072.12,741.551 2082.92,745.491 2093.71,749.357 2104.5,755.65 2115.3,864.037 2126.09,2121.65 2136.88,1439.47 
  
  "/>
</svg>
