<?xml version="1.0" encoding="utf-8"?>
<svg xmlns="http://www.w3.org/2000/svg" xmlns:xlink="http://www.w3.org/1999/xlink" width="600" height="400" viewBox="0 0 2400 1600">
<defs>
  <clipPath id="clip6300">
    <rect x="0" y="0" width="2400" height="1600"/>
  </clipPath>
</defs>
<path clip-path="url(#clip6300)" d="
M0 1600 L2400 1600 L2400 0 L0 0  Z
  " fill="#ffffff" fill-rule="evenodd" fill-opacity="1"/>
<defs>
  <clipPath id="clip6301">
    <rect x="480" y="0" width="1681" height="1600"/>
  </clipPath>
</defs>
<path clip-path="url(#clip6300)" d="
M194.041 1487.47 L2352.76 1487.47 L2352.76 47.2441 L194.041 47.2441  Z
  " fill="#ffffff" fill-rule="evenodd" fill-opacity="1"/>
<defs>
  <clipPath id="clip6302">
    <rect x="194" y="47" width="2160" height="1441"/>
  </clipPath>
</defs>
<polyline clip-path="url(#clip6300)" style="stroke:#000000; stroke-width:4; stroke-opacity:1; fill:none" points="
  194.041,1487.47 2352.76,1487.47 
  "/>
<polyline clip-path="url(#clip6300)" style="stroke:#000000; stroke-width:4; stroke-opacity:1; fill:none" points="
  194.041,1487.47 194.041,47.2441 
  "/>
<polyline clip-path="url(#clip6300)" style="stroke:#000000; stroke-width:4; stroke-opacity:1; fill:none" points="
  194.041,1487.47 194.041,1470.19 
  "/>
<polyline clip-path="url(#clip6300)" style="stroke:#000000; stroke-width:4; stroke-opacity:1; fill:none" points="
  733.72,1487.47 733.72,1470.19 
  "/>
<polyline clip-path="url(#clip6300)" style="stroke:#000000; stroke-width:4; stroke-opacity:1; fill:none" points="
  1273.4,1487.47 1273.4,1470.19 
  "/>
<polyline clip-path="url(#clip6300)" style="stroke:#000000; stroke-width:4; stroke-opacity:1; fill:none" points="
  1813.08,1487.47 1813.08,1470.19 
  "/>
<polyline clip-path="url(#clip6300)" style="stroke:#000000; stroke-width:4; stroke-opacity:1; fill:none" points="
  2352.76,1487.47 2352.76,1470.19 
  "/>
<polyline clip-path="url(#clip6300)" style="stroke:#000000; stroke-width:4; stroke-opacity:1; fill:none" points="
  194.041,1487.47 219.946,1487.47 
  "/>
<polyline clip-path="url(#clip6300)" style="stroke:#000000; stroke-width:4; stroke-opacity:1; fill:none" points="
  194.041,1007.4 219.946,1007.4 
  "/>
<polyline clip-path="url(#clip6300)" style="stroke:#000000; stroke-width:4; stroke-opacity:1; fill:none" points="
  194.041,527.321 219.946,527.321 
  "/>
<polyline clip-path="url(#clip6300)" style="stroke:#000000; stroke-width:4; stroke-opacity:1; fill:none" points="
  194.041,47.2441 219.946,47.2441 
  "/>
<g clip-path="url(#clip6300)">
<text style="fill:#000000; fill-opacity:1; font-family:Arial,Helvetica Neue,Helvetica,sans-serif; font-size:48px; text-anchor:middle;" transform="rotate(0, 194.041, 1541.47)" x="194.041" y="1541.47">0</text>
</g>
<g clip-path="url(#clip6300)">
<text style="fill:#000000; fill-opacity:1; font-family:Arial,Helvetica Neue,Helvetica,sans-serif; font-size:48px; text-anchor:middle;" transform="rotate(0, 733.72, 1541.47)" x="733.72" y="1541.47">50</text>
</g>
<g clip-path="url(#clip6300)">
<text style="fill:#000000; fill-opacity:1; font-family:Arial,Helvetica Neue,Helvetica,sans-serif; font-size:48px; text-anchor:middle;" transform="rotate(0, 1273.4, 1541.47)" x="1273.4" y="1541.47">100</text>
</g>
<g clip-path="url(#clip6300)">
<text style="fill:#000000; fill-opacity:1; font-family:Arial,Helvetica Neue,Helvetica,sans-serif; font-size:48px; text-anchor:middle;" transform="rotate(0, 1813.08, 1541.47)" x="1813.08" y="1541.47">150</text>
</g>
<g clip-path="url(#clip6300)">
<text style="fill:#000000; fill-opacity:1; font-family:Arial,Helvetica Neue,Helvetica,sans-serif; font-size:48px; text-anchor:middle;" transform="rotate(0, 2352.76, 1541.47)" x="2352.76" y="1541.47">200</text>
</g>
<g clip-path="url(#clip6300)">
<text style="fill:#000000; fill-opacity:1; font-family:Arial,Helvetica Neue,Helvetica,sans-serif; font-size:48px; text-anchor:end;" transform="rotate(0, 170.041, 1504.97)" x="170.041" y="1504.97">0</text>
</g>
<g clip-path="url(#clip6300)">
<text style="fill:#000000; fill-opacity:1; font-family:Arial,Helvetica Neue,Helvetica,sans-serif; font-size:48px; text-anchor:end;" transform="rotate(0, 170.041, 1024.9)" x="170.041" y="1024.9">500</text>
</g>
<g clip-path="url(#clip6300)">
<text style="fill:#000000; fill-opacity:1; font-family:Arial,Helvetica Neue,Helvetica,sans-serif; font-size:48px; text-anchor:end;" transform="rotate(0, 170.041, 544.821)" x="170.041" y="544.821">1000</text>
</g>
<g clip-path="url(#clip6300)">
<text style="fill:#000000; fill-opacity:1; font-family:Arial,Helvetica Neue,Helvetica,sans-serif; font-size:48px; text-anchor:end;" transform="rotate(0, 170.041, 64.7441)" x="170.041" y="64.7441">1500</text>
</g>
<polyline clip-path="url(#clip6302)" style="stroke:#000000; stroke-width:4; stroke-opacity:1; fill:none" points="
  204.835,1191.84 215.629,1196.9 226.422,1203.04 237.216,1206.48 248.009,1210 258.803,1216.27 269.596,1224.45 280.39,1230.51 291.184,1236.11 301.977,1241.21 
  312.771,1245.05 323.564,1244.88 334.358,1240 345.151,1236.93 355.945,1238.73 366.739,1238.36 377.532,1238.03 388.326,1237.4 399.119,1236.88 409.913,1236.21 
  420.706,1235.62 431.5,1235.27 442.294,1236.83 453.087,1242.23 463.881,1248.89 474.674,1254.97 485.468,1261.5 496.262,1268.55 507.055,1276.22 517.849,1284.59 
  528.642,1293.3 539.436,1300.79 550.229,1305.83 561.023,1308.7 571.817,1308.82 582.61,1306.46 593.404,1301.7 604.197,1296.19 614.991,1291.83 625.784,1286.27 
  636.578,1281.95 647.372,1192.47 658.165,1189.76 668.959,1188.25 679.752,1187.71 690.546,1186.11 701.339,1183.26 712.133,1178.53 722.927,1174.43 733.72,1171.25 
  744.514,1169.68 755.307,1167.25 766.101,1164.78 776.894,1162.27 787.688,1159.81 798.482,1157.73 809.275,1154.93 820.069,1149.38 830.862,1145.21 841.656,1142.41 
  852.449,1141.92 863.243,1143.1 874.037,1146.12 884.83,1146.5 895.624,1145.29 906.417,1145.76 917.211,1146.88 928.004,1148.77 938.798,1152.63 949.592,1159.3 
  960.385,1167.29 971.179,1178.75 981.972,1190.45 992.766,1203.5 1003.56,1217.96 1014.35,1233.78 1025.15,1250.93 1035.94,1269.53 1046.73,1290.31 1057.53,1313.08 
  1068.32,1336.7 1079.11,744.77 1089.91,762.249 1100.7,775.366 1111.5,785.323 1122.29,793.904 1133.08,801.482 1143.88,807.205 1154.67,811.508 1165.46,815.602 
  1176.26,818.064 1187.05,819.16 1197.84,819.621 1208.64,819.98 1219.43,820.339 1230.22,819.499 1241.02,818.968 1251.81,817.784 1262.61,814.945 1273.4,811.158 
  1284.19,806.727 1294.99,800.379 1305.78,795.357 1316.57,792.427 1327.37,789.115 1338.16,784.709 1348.95,780.256 1359.75,772.379 1370.54,763.739 1381.33,747.911 
  1392.13,724.977 1402.92,697.855 1413.72,664.506 1424.51,609.538 1435.3,537.281 1446.1,464.992 1456.89,394.597 1467.68,336.681 1478.48,289.403 1489.27,248.563 
  1500.06,211.234 1510.86,178.044 1521.65,167.495 1532.44,159.867 1543.24,153.604 1554.03,147.767 1564.83,142.655 1575.62,138.042 1586.41,133.793 1597.21,130.122 
  1608,127.48 1618.79,124.91 1629.59,122.55 1640.38,120.406 1651.17,118.433 1661.97,116.355 1672.76,114.43 1683.55,112.621 1694.35,111.175 1705.14,109.538 
  1715.94,108.145 1726.73,106.676 1737.52,105.389 1748.32,104.203 1759.11,103.021 1769.9,101.952 1780.7,101.118 1791.49,100.348 1802.28,99.4215 1813.08,98.821 
  1823.87,98.4026 1834.66,800.227 1845.46,799.615 1856.25,799.443 1867.05,799.698 1877.84,799.718 1888.63,800.128 1899.43,800.751 1910.22,801.375 1921.01,801.961 
  1931.81,802.838 1942.6,803.801 1953.39,1014.67 1964.19,1015.44 1974.98,1016.37 1985.77,1017.08 1996.57,1017.88 2007.36,1018.74 2018.16,1019.57 2028.95,1020.13 
  2039.74,1020.91 2050.54,1021.79 2061.33,1022.57 2072.12,1023.23 2082.92,1024.32 2093.71,1025.4 2104.5,1027.17 2115.3,1060.31 2126.09,1851 2136.88,1439.47 
  
  "/>
</svg>
