<?xml version="1.0" encoding="utf-8"?>
<svg xmlns="http://www.w3.org/2000/svg" xmlns:xlink="http://www.w3.org/1999/xlink" width="600" height="400" viewBox="0 0 2400 1600">
<defs>
  <clipPath id="clip6000">
    <rect x="0" y="0" width="2400" height="1600"/>
  </clipPath>
</defs>
<path clip-path="url(#clip6000)" d="
M0 1600 L2400 1600 L2400 0 L0 0  Z
  " fill="#ffffff" fill-rule="evenodd" fill-opacity="1"/>
<defs>
  <clipPath id="clip6001">
    <rect x="480" y="0" width="1681" height="1600"/>
  </clipPath>
</defs>
<path clip-path="url(#clip6000)" d="
M195.389 1487.47 L2352.76 1487.47 L2352.76 47.2441 L195.389 47.2441  Z
  " fill="#ffffff" fill-rule="evenodd" fill-opacity="1"/>
<defs>
  <clipPath id="clip6002">
    <rect x="195" y="47" width="2158" height="1441"/>
  </clipPath>
</defs>
<polyline clip-path="url(#clip6000)" style="stroke:#000000; stroke-width:4; stroke-opacity:1; fill:none" points="
  195.389,1487.47 2352.76,1487.47 
  "/>
<polyline clip-path="url(#clip6000)" style="stroke:#000000; stroke-width:4; stroke-opacity:1; fill:none" points="
  195.389,1487.47 195.389,47.2441 
  "/>
<polyline clip-path="url(#clip6000)" style="stroke:#000000; stroke-width:4; stroke-opacity:1; fill:none" points="
  195.389,1487.47 195.389,1470.19 
  "/>
<polyline clip-path="url(#clip6000)" style="stroke:#000000; stroke-width:4; stroke-opacity:1; fill:none" points="
  734.731,1487.47 734.731,1470.19 
  "/>
<polyline clip-path="url(#clip6000)" style="stroke:#000000; stroke-width:4; stroke-opacity:1; fill:none" points="
  1274.07,1487.47 1274.07,1470.19 
  "/>
<polyline clip-path="url(#clip6000)" style="stroke:#000000; stroke-width:4; stroke-opacity:1; fill:none" points="
  1813.41,1487.47 1813.41,1470.19 
  "/>
<polyline clip-path="url(#clip6000)" style="stroke:#000000; stroke-width:4; stroke-opacity:1; fill:none" points="
  2352.76,1487.47 2352.76,1470.19 
  "/>
<polyline clip-path="url(#clip6000)" style="stroke:#000000; stroke-width:4; stroke-opacity:1; fill:none" points="
  195.389,1487.47 221.278,1487.47 
  "/>
<polyline clip-path="url(#clip6000)" style="stroke:#000000; stroke-width:4; stroke-opacity:1; fill:none" points="
  195.389,1199.43 221.278,1199.43 
  "/>
<polyline clip-path="url(#clip6000)" style="stroke:#000000; stroke-width:4; stroke-opacity:1; fill:none" points="
  195.389,911.382 221.278,911.382 
  "/>
<polyline clip-path="url(#clip6000)" style="stroke:#000000; stroke-width:4; stroke-opacity:1; fill:none" points="
  195.389,623.336 221.278,623.336 
  "/>
<polyline clip-path="url(#clip6000)" style="stroke:#000000; stroke-width:4; stroke-opacity:1; fill:none" points="
  195.389,335.29 221.278,335.29 
  "/>
<polyline clip-path="url(#clip6000)" style="stroke:#000000; stroke-width:4; stroke-opacity:1; fill:none" points="
  195.389,47.2441 221.278,47.2441 
  "/>
<g clip-path="url(#clip6000)">
<text style="fill:#000000; fill-opacity:1; font-family:Arial,Helvetica Neue,Helvetica,sans-serif; font-size:48px; text-anchor:middle;" transform="rotate(0, 195.389, 1541.47)" x="195.389" y="1541.47">0</text>
</g>
<g clip-path="url(#clip6000)">
<text style="fill:#000000; fill-opacity:1; font-family:Arial,Helvetica Neue,Helvetica,sans-serif; font-size:48px; text-anchor:middle;" transform="rotate(0, 734.731, 1541.47)" x="734.731" y="1541.47">50</text>
</g>
<g clip-path="url(#clip6000)">
<text style="fill:#000000; fill-opacity:1; font-family:Arial,Helvetica Neue,Helvetica,sans-serif; font-size:48px; text-anchor:middle;" transform="rotate(0, 1274.07, 1541.47)" x="1274.07" y="1541.47">100</text>
</g>
<g clip-path="url(#clip6000)">
<text style="fill:#000000; fill-opacity:1; font-family:Arial,Helvetica Neue,Helvetica,sans-serif; font-size:48px; text-anchor:middle;" transform="rotate(0, 1813.41, 1541.47)" x="1813.41" y="1541.47">150</text>
</g>
<g clip-path="url(#clip6000)">
<text style="fill:#000000; fill-opacity:1; font-family:Arial,Helvetica Neue,Helvetica,sans-serif; font-size:48px; text-anchor:middle;" transform="rotate(0, 2352.76, 1541.47)" x="2352.76" y="1541.47">200</text>
</g>
<g clip-path="url(#clip6000)">
<text style="fill:#000000; fill-opacity:1; font-family:Arial,Helvetica Neue,Helvetica,sans-serif; font-size:48px; text-anchor:end;" transform="rotate(0, 171.389, 1504.97)" x="171.389" y="1504.97">-200</text>
</g>
<g clip-path="url(#clip6000)">
<text style="fill:#000000; fill-opacity:1; font-family:Arial,Helvetica Neue,Helvetica,sans-serif; font-size:48px; text-anchor:end;" transform="rotate(0, 171.389, 1216.93)" x="171.389" y="1216.93">-150</text>
</g>
<g clip-path="url(#clip6000)">
<text style="fill:#000000; fill-opacity:1; font-family:Arial,Helvetica Neue,Helvetica,sans-serif; font-size:48px; text-anchor:end;" transform="rotate(0, 171.389, 928.882)" x="171.389" y="928.882">-100</text>
</g>
<g clip-path="url(#clip6000)">
<text style="fill:#000000; fill-opacity:1; font-family:Arial,Helvetica Neue,Helvetica,sans-serif; font-size:48px; text-anchor:end;" transform="rotate(0, 171.389, 640.836)" x="171.389" y="640.836">-50</text>
</g>
<g clip-path="url(#clip6000)">
<text style="fill:#000000; fill-opacity:1; font-family:Arial,Helvetica Neue,Helvetica,sans-serif; font-size:48px; text-anchor:end;" transform="rotate(0, 171.389, 352.79)" x="171.389" y="352.79">0</text>
</g>
<g clip-path="url(#clip6000)">
<text style="fill:#000000; fill-opacity:1; font-family:Arial,Helvetica Neue,Helvetica,sans-serif; font-size:48px; text-anchor:end;" transform="rotate(0, 171.389, 64.7441)" x="171.389" y="64.7441">50</text>
</g>
<polyline clip-path="url(#clip6002)" style="stroke:#000000; stroke-width:4; stroke-opacity:1; fill:none" stroke-dasharray="16, 10" points="
  206.176,139.419 216.963,145.032 227.75,154.648 238.537,164.053 249.323,173.16 260.11,182.169 270.897,191.041 281.684,199.572 292.471,207.75 303.258,215.72 
  314.044,223.501 324.831,231.029 335.618,238.337 346.405,245.72 357.192,253.264 367.979,260.738 378.765,268.11 389.552,275.463 400.339,282.803 411.126,290.092 
  421.913,297.336 432.7,304.57 443.486,311.796 454.273,318.987 465.06,326.057 475.847,332.908 486.634,339.541 497.421,345.968 508.207,352.178 518.994,358.156 
  529.781,363.877 540.568,369.322 551.355,374.516 562.142,379.486 572.928,384.278 583.715,388.967 594.502,393.657 605.289,398.423 616.076,403.294 626.863,408.233 
  637.649,413.315 648.436,417.671 659.223,423.925 670.01,431.377 680.797,438.918 691.584,446.429 702.37,453.858 713.157,461.228 723.944,468.672 734.731,476.225 
  745.518,483.788 756.305,491.282 767.091,498.763 777.878,506.329 788.665,513.88 799.452,521.358 810.239,528.784 821.026,536.268 831.812,543.829 842.599,551.372 
  853.386,558.879 864.173,566.433 874.96,574.025 885.747,581.422 896.533,588.61 907.32,595.768 918.107,603.016 928.894,610.163 939.681,617.122 950.468,623.946 
  961.254,630.765 972.041,637.438 982.828,643.75 993.615,649.71 1004.4,655.511 1015.19,661.109 1025.98,666.282 1036.76,670.997 1047.55,675.417 1058.34,679.613 
  1069.12,683.31 1079.91,681.941 1090.7,689.877 1101.48,703.416 1112.27,716.56 1123.06,729.099 1133.84,741.17 1144.63,753.073 1155.42,764.715 1166.2,775.916 
  1176.99,786.713 1187.78,797.417 1198.56,808.067 1209.35,818.385 1220.14,828.345 1230.93,838.199 1241.71,848.14 1252.5,857.82 1263.29,867.129 1274.07,876.292 
  1284.86,885.641 1295.65,894.842 1306.43,903.732 1317.22,912.466 1328.01,921.397 1338.79,930.263 1349.58,938.791 1360.37,947.049 1371.15,955.48 1381.94,963.987 
  1392.73,972.238 1403.51,980.317 1414.3,988.658 1425.09,997.341 1435.88,1006.07 1446.66,1015 1457.45,1024.52 1468.24,1034.93 1479.02,1045.58 1489.81,1056.15 
  1500.6,1066.82 1511.38,1077.92 1522.17,1088.98 1532.96,1099.57 1543.74,1109.81 1554.53,1120.19 1565.32,1130.29 1576.1,1139.78 1586.89,1148.83 1597.68,1158.03 
  1608.46,1167.04 1619.25,1175.44 1630.04,1183.37 1640.82,1191.44 1651.61,1199.43 1662.4,1206.83 1673.19,1213.74 1683.97,1220.77 1694.76,1227.83 1705.55,1234.35 
  1716.33,1240.36 1727.12,1246.45 1737.91,1252.68 1748.69,1258.42 1759.48,1263.64 1770.27,1268.9 1781.05,1274.39 1791.84,1279.45 1802.63,1283.97 1813.41,1288.49 
  1824.2,1293.33 1834.99,1298.64 1845.77,1301.57 1856.56,1303.3 1867.35,1305.51 1878.14,1307.6 1888.92,1309.25 1899.71,1310.76 1910.5,1312.76 1921.28,1314.78 
  1932.07,1316.36 1942.86,1317.71 1953.64,1319.71 1964.43,1321.38 1975.22,1322.39 1986,1323.08 1996.79,1324.06 2007.58,1325.4 2018.36,1326.44 2029.15,1327.1 
  2039.94,1327.9 2050.72,1329.18 2061.51,1330.25 2072.3,1330.91 2083.09,1331.55 2093.87,1332.74 2104.66,1333.84 2115.45,1334.54 2126.23,1335.85 
  "/>
<polyline clip-path="url(#clip6002)" style="stroke:#000000; stroke-width:4; stroke-opacity:1; fill:none" points="
  206.176,139.419 216.963,147.906 227.75,162.278 238.537,169.402 249.323,176.527 260.11,186.476 270.897,199.988 281.684,207.113 292.471,214.237 303.258,221.362 
  314.044,228.486 324.831,233.031 335.618,233.031 346.405,235.98 357.192,250.842 367.979,257.966 378.765,265.091 389.552,272.215 400.339,279.339 411.126,286.464 
  421.913,293.588 432.7,300.712 443.486,308.39 454.273,320.12 465.06,331.298 475.847,338.423 486.634,345.547 497.421,352.672 508.207,359.796 518.994,366.92 
  529.781,374.045 540.568,380.002 551.355,382.753 562.142,385.505 572.928,386.881 583.715,388.256 594.502,389.632 605.289,391.008 616.076,398.058 626.863,401.314 
  637.649,408.254 648.436,412.492 659.223,420.783 670.01,429.811 680.797,440.007 691.584,447.131 702.37,454.194 713.157,458.309 723.944,465.433 734.731,472.557 
  745.518,482.753 756.305,489.877 767.091,497.002 777.878,504.126 788.665,511.25 799.452,518.375 810.239,526.666 821.026,529.552 831.812,536.677 842.599,544.108 
  853.386,553.997 864.173,562.411 874.96,573.097 885.747,579.239 896.533,582.494 907.32,589.618 918.107,596.743 928.894,603.867 939.681,610.991 950.468,621.187 
  961.254,627.881 972.041,638.506 982.828,645.631 993.615,652.755 1004.4,659.879 1015.19,667.004 1025.98,674.128 1036.76,681.253 1047.55,688.807 1058.34,698.572 
  1069.12,705.697 1079.91,712.821 1090.7,719.945 1101.48,727.07 1112.27,734.194 1123.06,742.117 1133.84,752.804 1144.63,761.709 1155.42,768.035 1166.2,779.029 
  1176.99,786.153 1187.78,793.278 1198.56,800.402 1209.35,809.184 1220.14,820.793 1230.93,827.917 1241.71,838.173 1252.5,848.307 1263.29,855.432 1274.07,862.556 
  1284.86,872.752 1295.65,879.324 1306.43,889.952 1317.22,904.201 1328.01,916.604 1338.79,925.14 1349.58,936.992 1360.37,943.439 1371.15,954.311 1381.94,961.435 
  1392.73,968.56 1403.51,978.263 1414.3,990.734 1425.09,999.15 1435.88,1005.97 1446.66,1016.47 1457.45,1023.59 1468.24,1030.72 1479.02,1037.84 1489.81,1044.96 
  1500.6,1051.66 1511.38,1062.28 1522.17,1069.41 1532.96,1076.53 1543.74,1085.19 1554.53,1090.78 1565.32,1097.91 1576.1,1105.03 1586.89,1111.72 1597.68,1117.14 
  1608.46,1129.23 1619.25,1139.67 1630.04,1146.79 1640.82,1153.73 1651.61,1163.8 1662.4,1168.16 1673.19,1175.29 1683.97,1180.64 1694.76,1189.54 1705.55,1196.67 
  1716.33,1203.61 1727.12,1207.85 1737.91,1214.97 1748.69,1222.09 1759.48,1229.21 1770.27,1236.34 1781.05,1243.53 1791.84,1253.66 1802.63,1261.83 1813.41,1270.98 
  1824.2,1279.09 1834.99,1293.89 1845.77,1304.58 1856.56,1314.84 1867.35,1325.65 1878.14,1347.01 1888.92,1367.65 1899.71,1382.57 1910.5,1393.44 1921.28,1401.18 
  1932.07,1414.63 1942.86,1421.45 1953.64,1427.6 1964.43,1420.65 1975.22,1424.52 1986,1424.52 1996.79,1424.52 2007.58,1424.52 2018.36,1424.52 2029.15,1424.52 
  2039.94,1424.52 2050.72,1424.52 2061.51,1425.07 2072.3,1427.6 2083.09,1427.6 2093.87,1427.6 2104.66,1427.6 2115.45,1427.58 2126.23,1427.6 
  "/>
<path clip-path="url(#clip6000)" d="
M1746.42 312.204 L2280.76 312.204 L2280.76 130.764 L1746.42 130.764  Z
  " fill="#ffffff" fill-rule="evenodd" fill-opacity="1"/>
<polyline clip-path="url(#clip6000)" style="stroke:#000000; stroke-width:4; stroke-opacity:1; fill:none" points="
  1746.42,312.204 2280.76,312.204 2280.76,130.764 1746.42,130.764 1746.42,312.204 
  "/>
<polyline clip-path="url(#clip6000)" style="stroke:#000000; stroke-width:4; stroke-opacity:1; fill:none" stroke-dasharray="16, 10" points="
  1770.42,191.244 1914.42,191.244 
  "/>
<g clip-path="url(#clip6000)">
<text style="fill:#000000; fill-opacity:1; font-family:Arial,Helvetica Neue,Helvetica,sans-serif; font-size:48px; text-anchor:start;" transform="rotate(0, 1938.42, 208.744)" x="1938.42" y="208.744">Iteration #100</text>
</g>
<polyline clip-path="url(#clip6000)" style="stroke:#000000; stroke-width:4; stroke-opacity:1; fill:none" points="
  1770.42,251.724 1914.42,251.724 
  "/>
<g clip-path="url(#clip6000)">
<text style="fill:#000000; fill-opacity:1; font-family:Arial,Helvetica Neue,Helvetica,sans-serif; font-size:48px; text-anchor:start;" transform="rotate(0, 1938.42, 269.224)" x="1938.42" y="269.224">Test data</text>
</g>
</svg>
