<?xml version="1.0" encoding="utf-8"?>
<svg xmlns="http://www.w3.org/2000/svg" xmlns:xlink="http://www.w3.org/1999/xlink" width="600" height="400" viewBox="0 0 2400 1600">
<defs>
  <clipPath id="clip8900">
    <rect x="0" y="0" width="2400" height="1600"/>
  </clipPath>
</defs>
<path clip-path="url(#clip8900)" d="
M0 1600 L2400 1600 L2400 0 L0 0  Z
  " fill="#ffffff" fill-rule="evenodd" fill-opacity="1"/>
<defs>
  <clipPath id="clip8901">
    <rect x="480" y="0" width="1681" height="1600"/>
  </clipPath>
</defs>
<path clip-path="url(#clip8900)" d="
M195.389 1487.47 L2352.76 1487.47 L2352.76 47.2441 L195.389 47.2441  Z
  " fill="#ffffff" fill-rule="evenodd" fill-opacity="1"/>
<defs>
  <clipPath id="clip8902">
    <rect x="195" y="47" width="2158" height="1441"/>
  </clipPath>
</defs>
<polyline clip-path="url(#clip8900)" style="stroke:#000000; stroke-width:4; stroke-opacity:1; fill:none" points="
  195.389,1487.47 2352.76,1487.47 
  "/>
<polyline clip-path="url(#clip8900)" style="stroke:#000000; stroke-width:4; stroke-opacity:1; fill:none" points="
  195.389,1487.47 195.389,47.2441 
  "/>
<polyline clip-path="url(#clip8900)" style="stroke:#000000; stroke-width:4; stroke-opacity:1; fill:none" points="
  195.389,1487.47 195.389,1470.19 
  "/>
<polyline clip-path="url(#clip8900)" style="stroke:#000000; stroke-width:4; stroke-opacity:1; fill:none" points="
  734.731,1487.47 734.731,1470.19 
  "/>
<polyline clip-path="url(#clip8900)" style="stroke:#000000; stroke-width:4; stroke-opacity:1; fill:none" points="
  1274.07,1487.47 1274.07,1470.19 
  "/>
<polyline clip-path="url(#clip8900)" style="stroke:#000000; stroke-width:4; stroke-opacity:1; fill:none" points="
  1813.41,1487.47 1813.41,1470.19 
  "/>
<polyline clip-path="url(#clip8900)" style="stroke:#000000; stroke-width:4; stroke-opacity:1; fill:none" points="
  2352.76,1487.47 2352.76,1470.19 
  "/>
<polyline clip-path="url(#clip8900)" style="stroke:#000000; stroke-width:4; stroke-opacity:1; fill:none" points="
  195.389,1304.55 221.278,1304.55 
  "/>
<polyline clip-path="url(#clip8900)" style="stroke:#000000; stroke-width:4; stroke-opacity:1; fill:none" points="
  195.389,1118.51 221.278,1118.51 
  "/>
<polyline clip-path="url(#clip8900)" style="stroke:#000000; stroke-width:4; stroke-opacity:1; fill:none" points="
  195.389,932.467 221.278,932.467 
  "/>
<polyline clip-path="url(#clip8900)" style="stroke:#000000; stroke-width:4; stroke-opacity:1; fill:none" points="
  195.389,746.428 221.278,746.428 
  "/>
<polyline clip-path="url(#clip8900)" style="stroke:#000000; stroke-width:4; stroke-opacity:1; fill:none" points="
  195.389,560.388 221.278,560.388 
  "/>
<polyline clip-path="url(#clip8900)" style="stroke:#000000; stroke-width:4; stroke-opacity:1; fill:none" points="
  195.389,374.349 221.278,374.349 
  "/>
<polyline clip-path="url(#clip8900)" style="stroke:#000000; stroke-width:4; stroke-opacity:1; fill:none" points="
  195.389,188.309 221.278,188.309 
  "/>
<g clip-path="url(#clip8900)">
<text style="fill:#000000; fill-opacity:1; font-family:Arial,Helvetica Neue,Helvetica,sans-serif; font-size:48px; text-anchor:middle;" transform="rotate(0, 195.389, 1541.47)" x="195.389" y="1541.47">0</text>
</g>
<g clip-path="url(#clip8900)">
<text style="fill:#000000; fill-opacity:1; font-family:Arial,Helvetica Neue,Helvetica,sans-serif; font-size:48px; text-anchor:middle;" transform="rotate(0, 734.731, 1541.47)" x="734.731" y="1541.47">50</text>
</g>
<g clip-path="url(#clip8900)">
<text style="fill:#000000; fill-opacity:1; font-family:Arial,Helvetica Neue,Helvetica,sans-serif; font-size:48px; text-anchor:middle;" transform="rotate(0, 1274.07, 1541.47)" x="1274.07" y="1541.47">100</text>
</g>
<g clip-path="url(#clip8900)">
<text style="fill:#000000; fill-opacity:1; font-family:Arial,Helvetica Neue,Helvetica,sans-serif; font-size:48px; text-anchor:middle;" transform="rotate(0, 1813.41, 1541.47)" x="1813.41" y="1541.47">150</text>
</g>
<g clip-path="url(#clip8900)">
<text style="fill:#000000; fill-opacity:1; font-family:Arial,Helvetica Neue,Helvetica,sans-serif; font-size:48px; text-anchor:middle;" transform="rotate(0, 2352.76, 1541.47)" x="2352.76" y="1541.47">200</text>
</g>
<g clip-path="url(#clip8900)">
<text style="fill:#000000; fill-opacity:1; font-family:Arial,Helvetica Neue,Helvetica,sans-serif; font-size:48px; text-anchor:end;" transform="rotate(0, 171.389, 1322.05)" x="171.389" y="1322.05">-500</text>
</g>
<g clip-path="url(#clip8900)">
<text style="fill:#000000; fill-opacity:1; font-family:Arial,Helvetica Neue,Helvetica,sans-serif; font-size:48px; text-anchor:end;" transform="rotate(0, 171.389, 1136.01)" x="171.389" y="1136.01">0</text>
</g>
<g clip-path="url(#clip8900)">
<text style="fill:#000000; fill-opacity:1; font-family:Arial,Helvetica Neue,Helvetica,sans-serif; font-size:48px; text-anchor:end;" transform="rotate(0, 171.389, 949.967)" x="171.389" y="949.967">500</text>
</g>
<g clip-path="url(#clip8900)">
<text style="fill:#000000; fill-opacity:1; font-family:Arial,Helvetica Neue,Helvetica,sans-serif; font-size:48px; text-anchor:end;" transform="rotate(0, 171.389, 763.928)" x="171.389" y="763.928">1000</text>
</g>
<g clip-path="url(#clip8900)">
<text style="fill:#000000; fill-opacity:1; font-family:Arial,Helvetica Neue,Helvetica,sans-serif; font-size:48px; text-anchor:end;" transform="rotate(0, 171.389, 577.888)" x="171.389" y="577.888">1500</text>
</g>
<g clip-path="url(#clip8900)">
<text style="fill:#000000; fill-opacity:1; font-family:Arial,Helvetica Neue,Helvetica,sans-serif; font-size:48px; text-anchor:end;" transform="rotate(0, 171.389, 391.849)" x="171.389" y="391.849">2000</text>
</g>
<g clip-path="url(#clip8900)">
<text style="fill:#000000; fill-opacity:1; font-family:Arial,Helvetica Neue,Helvetica,sans-serif; font-size:48px; text-anchor:end;" transform="rotate(0, 171.389, 205.809)" x="171.389" y="205.809">2500</text>
</g>
<polyline clip-path="url(#clip8902)" style="stroke:#000000; stroke-width:4; stroke-opacity:1; fill:none" points="
  206.176,997.511 216.963,999.651 227.75,1002 238.537,1003.36 249.323,1004.83 260.11,1007.3 270.897,1010.33 281.684,1012.61 292.471,1014.73 303.258,1016.66 
  314.044,1018.09 324.831,1018.02 335.618,1016.39 346.405,1015.57 357.192,1016.26 367.979,1016.24 378.765,1016.17 389.552,1016.05 400.339,1015.89 411.126,1015.7 
  421.913,1015.5 432.7,1015.4 443.486,1016.07 454.273,1018.08 465.06,1020.51 475.847,1022.72 486.634,1025.09 497.421,1027.65 508.207,1030.45 518.994,1033.52 
  529.781,1036.7 540.568,1039.34 551.355,1040.95 562.142,1041.6 572.928,1041 583.715,1039.22 594.502,1036.25 605.289,1032.88 616.076,1029.62 626.863,1025.72 
  637.649,1021.82 648.436,1017.66 659.223,1014.48 670.01,1012.2 680.797,1010.52 691.584,1008.57 702.37,1006.15 713.157,1003.11 723.944,1000.46 734.731,998.424 
  745.518,997.159 756.305,995.564 767.091,993.994 777.878,992.455 788.665,990.922 799.452,989.599 810.239,987.646 821.026,984.36 831.812,981.582 842.599,979.453 
  853.386,978.287 864.173,977.864 874.96,977.993 885.747,976.277 896.533,973.418 907.32,970.912 918.107,968.244 928.894,965.328 939.681,963.008 950.468,961.36 
  961.254,959.799 972.041,959.249 982.828,957.89 993.615,956.222 1004.4,954.252 1015.19,951.95 1025.98,949.217 1036.76,946.316 1047.55,943.865 1058.34,942.045 
  1069.12,939.089 1079.91,935.674 1090.7,931.533 1101.48,926.785 1112.27,921.516 1123.06,917.158 1133.84,913.983 1144.63,909.758 1155.42,905.257 1166.2,901.784 
  1176.99,896.427 1187.78,889.804 1198.56,882.917 1209.35,877.127 1220.14,872.205 1230.93,865.894 1241.71,861.305 1252.5,855.827 1263.29,848.307 1274.07,840.336 
  1284.86,832.37 1295.65,823.037 1306.43,817.333 1317.22,815.29 1328.01,813.224 1338.79,811.285 1349.58,809.585 1360.37,806.743 1371.15,804.413 1381.94,799.919 
  1392.73,794.975 1403.51,792.848 1414.3,792.144 1425.09,789.568 1435.88,786.477 1446.66,784.51 1457.45,780.193 1468.24,774.585 1479.02,767.831 1489.81,759.38 
  1500.6,751.446 1511.38,744.177 1522.17,734.87 1532.96,724.689 1543.74,713.553 1554.53,699.262 1565.32,684.112 1576.1,666.893 1586.89,647.13 1597.68,627.117 
  1608.46,610.679 1619.25,593.192 1630.04,572.304 1640.82,551.087 1651.61,527.884 1662.4,499.742 1673.19,468.54 1683.97,433.954 1694.76,396.58 1705.55,355.874 
  1716.33,315.31 1727.12,292.262 1737.91,270.857 1748.69,249.351 1759.48,228.646 1770.27,207.809 1781.05,188.877 1791.84,170.861 1802.63,154.499 1813.41,138.297 
  1824.2,124.918 1834.99,114.287 1845.77,102.964 1856.56,95.2694 1867.35,88.0053 1878.14,88.0126 1888.92,88.4461 1899.71,92.784 1910.5,94.7214 1921.28,102.241 
  1932.07,108.847 1942.86,117.496 1953.64,126.293 1964.43,130.192 1975.22,138.99 1986,143.548 1996.79,150.839 2007.58,154.622 2018.36,161.283 2029.15,163.681 
  2039.94,169.24 2050.72,171.598 2061.51,175.787 2072.3,183.189 2083.09,184.662 2093.87,196.795 2104.66,202.897 2115.45,698.267 2126.23,1446.71 
  "/>
<path clip-path="url(#clip8900)" d="
M267.389 251.724 L801.727 251.724 L801.727 130.764 L267.389 130.764  Z
  " fill="#ffffff" fill-rule="evenodd" fill-opacity="1"/>
<polyline clip-path="url(#clip8900)" style="stroke:#000000; stroke-width:4; stroke-opacity:1; fill:none" points="
  267.389,251.724 801.727,251.724 801.727,130.764 267.389,130.764 267.389,251.724 
  "/>
<polyline clip-path="url(#clip8900)" style="stroke:#000000; stroke-width:4; stroke-opacity:1; fill:none" points="
  291.389,191.244 435.389,191.244 
  "/>
<g clip-path="url(#clip8900)">
<text style="fill:#000000; fill-opacity:1; font-family:Arial,Helvetica Neue,Helvetica,sans-serif; font-size:48px; text-anchor:start;" transform="rotate(0, 459.389, 208.744)" x="459.389" y="208.744">Iteration #180</text>
</g>
</svg>
