<?xml version="1.0" encoding="utf-8"?>
<svg xmlns="http://www.w3.org/2000/svg" xmlns:xlink="http://www.w3.org/1999/xlink" width="600" height="400" viewBox="0 0 2400 1600">
<defs>
  <clipPath id="clip8500">
    <rect x="0" y="0" width="2400" height="1600"/>
  </clipPath>
</defs>
<path clip-path="url(#clip8500)" d="
M0 1600 L2400 1600 L2400 0 L0 0  Z
  " fill="#ffffff" fill-rule="evenodd" fill-opacity="1"/>
<defs>
  <clipPath id="clip8501">
    <rect x="480" y="0" width="1681" height="1600"/>
  </clipPath>
</defs>
<path clip-path="url(#clip8500)" d="
M222.152 1487.47 L2352.76 1487.47 L2352.76 47.2441 L222.152 47.2441  Z
  " fill="#ffffff" fill-rule="evenodd" fill-opacity="1"/>
<defs>
  <clipPath id="clip8502">
    <rect x="222" y="47" width="2132" height="1441"/>
  </clipPath>
</defs>
<polyline clip-path="url(#clip8500)" style="stroke:#000000; stroke-width:4; stroke-opacity:1; fill:none" points="
  222.152,1487.47 2352.76,1487.47 
  "/>
<polyline clip-path="url(#clip8500)" style="stroke:#000000; stroke-width:4; stroke-opacity:1; fill:none" points="
  222.152,1487.47 222.152,47.2441 
  "/>
<polyline clip-path="url(#clip8500)" style="stroke:#000000; stroke-width:4; stroke-opacity:1; fill:none" points="
  222.152,1487.47 222.152,1470.19 
  "/>
<polyline clip-path="url(#clip8500)" style="stroke:#000000; stroke-width:4; stroke-opacity:1; fill:none" points="
  754.803,1487.47 754.803,1470.19 
  "/>
<polyline clip-path="url(#clip8500)" style="stroke:#000000; stroke-width:4; stroke-opacity:1; fill:none" points="
  1287.45,1487.47 1287.45,1470.19 
  "/>
<polyline clip-path="url(#clip8500)" style="stroke:#000000; stroke-width:4; stroke-opacity:1; fill:none" points="
  1820.1,1487.47 1820.1,1470.19 
  "/>
<polyline clip-path="url(#clip8500)" style="stroke:#000000; stroke-width:4; stroke-opacity:1; fill:none" points="
  2352.76,1487.47 2352.76,1470.19 
  "/>
<polyline clip-path="url(#clip8500)" style="stroke:#000000; stroke-width:4; stroke-opacity:1; fill:none" points="
  222.152,1342.14 247.719,1342.14 
  "/>
<polyline clip-path="url(#clip8500)" style="stroke:#000000; stroke-width:4; stroke-opacity:1; fill:none" points="
  222.152,1073.75 247.719,1073.75 
  "/>
<polyline clip-path="url(#clip8500)" style="stroke:#000000; stroke-width:4; stroke-opacity:1; fill:none" points="
  222.152,805.368 247.719,805.368 
  "/>
<polyline clip-path="url(#clip8500)" style="stroke:#000000; stroke-width:4; stroke-opacity:1; fill:none" points="
  222.152,536.983 247.719,536.983 
  "/>
<polyline clip-path="url(#clip8500)" style="stroke:#000000; stroke-width:4; stroke-opacity:1; fill:none" points="
  222.152,268.598 247.719,268.598 
  "/>
<g clip-path="url(#clip8500)">
<text style="fill:#000000; fill-opacity:1; font-family:Arial,Helvetica Neue,Helvetica,sans-serif; font-size:48px; text-anchor:middle;" transform="rotate(0, 222.152, 1541.47)" x="222.152" y="1541.47">0</text>
</g>
<g clip-path="url(#clip8500)">
<text style="fill:#000000; fill-opacity:1; font-family:Arial,Helvetica Neue,Helvetica,sans-serif; font-size:48px; text-anchor:middle;" transform="rotate(0, 754.803, 1541.47)" x="754.803" y="1541.47">50</text>
</g>
<g clip-path="url(#clip8500)">
<text style="fill:#000000; fill-opacity:1; font-family:Arial,Helvetica Neue,Helvetica,sans-serif; font-size:48px; text-anchor:middle;" transform="rotate(0, 1287.45, 1541.47)" x="1287.45" y="1541.47">100</text>
</g>
<g clip-path="url(#clip8500)">
<text style="fill:#000000; fill-opacity:1; font-family:Arial,Helvetica Neue,Helvetica,sans-serif; font-size:48px; text-anchor:middle;" transform="rotate(0, 1820.1, 1541.47)" x="1820.1" y="1541.47">150</text>
</g>
<g clip-path="url(#clip8500)">
<text style="fill:#000000; fill-opacity:1; font-family:Arial,Helvetica Neue,Helvetica,sans-serif; font-size:48px; text-anchor:middle;" transform="rotate(0, 2352.76, 1541.47)" x="2352.76" y="1541.47">200</text>
</g>
<g clip-path="url(#clip8500)">
<text style="fill:#000000; fill-opacity:1; font-family:Arial,Helvetica Neue,Helvetica,sans-serif; font-size:48px; text-anchor:end;" transform="rotate(0, 198.152, 1359.64)" x="198.152" y="1359.64">-1000</text>
</g>
<g clip-path="url(#clip8500)">
<text style="fill:#000000; fill-opacity:1; font-family:Arial,Helvetica Neue,Helvetica,sans-serif; font-size:48px; text-anchor:end;" transform="rotate(0, 198.152, 1091.25)" x="198.152" y="1091.25">0</text>
</g>
<g clip-path="url(#clip8500)">
<text style="fill:#000000; fill-opacity:1; font-family:Arial,Helvetica Neue,Helvetica,sans-serif; font-size:48px; text-anchor:end;" transform="rotate(0, 198.152, 822.868)" x="198.152" y="822.868">1000</text>
</g>
<g clip-path="url(#clip8500)">
<text style="fill:#000000; fill-opacity:1; font-family:Arial,Helvetica Neue,Helvetica,sans-serif; font-size:48px; text-anchor:end;" transform="rotate(0, 198.152, 554.483)" x="198.152" y="554.483">2000</text>
</g>
<g clip-path="url(#clip8500)">
<text style="fill:#000000; fill-opacity:1; font-family:Arial,Helvetica Neue,Helvetica,sans-serif; font-size:48px; text-anchor:end;" transform="rotate(0, 198.152, 286.098)" x="198.152" y="286.098">3000</text>
</g>
<polyline clip-path="url(#clip8502)" style="stroke:#000000; stroke-width:4; stroke-opacity:1; fill:none" points="
  232.805,978.401 243.458,982.157 254.111,985.996 264.764,987.76 275.417,989.531 286.07,993.173 296.723,997.809 307.376,1000.99 318.029,1003.85 328.682,1006.43 
  339.335,1008.13 349.988,1007 360.641,1002.91 371.294,1000.44 381.947,1000.95 392.6,1000.09 403.253,999.116 413.906,998.014 424.559,996.799 435.212,995.466 
  445.865,994.025 456.518,992.674 467.171,992.712 477.824,995.275 488.477,998.541 499.13,1001.33 509.783,1004.44 520.436,1007.95 531.089,1012.01 541.742,1016.73 
  552.395,1021.89 563.048,1026.29 573.701,1029.01 584.354,1030.26 595.007,1029.49 605.66,1026.85 616.313,1022.27 626.966,1017.33 637.619,1012.95 648.272,1007.57 
  658.925,1002.43 669.578,996.937 680.232,993.472 690.885,991.849 701.538,991.403 712.191,990.472 722.844,988.63 733.497,985.568 744.15,983.239 754.803,982.065 
  765.456,982.34 776.109,981.918 786.762,981.503 797.415,981.092 808.068,980.683 818.721,980.666 829.374,979.431 840.027,975.528 850.68,972.647 861.333,970.902 
  871.986,970.985 882.639,972.441 893.292,974.97 903.945,973.941 914.598,970.705 925.251,968.268 935.904,965.48 946.557,962.255 957.21,960.125 967.863,959.308 
  978.516,958.591 989.169,959.922 999.822,959.657 1010.48,958.951 1021.13,957.759 1031.78,956.08 1042.43,953.771 1053.09,951.216 1063.74,949.838 1074.39,949.78 
  1085.05,947.872 1095.7,945.236 1106.35,941.584 1117.01,936.914 1127.66,931.554 1138.31,928.059 1148.96,927.137 1159.62,924.273 1170.27,921.136 1180.92,920.223 
  1191.58,915.835 1202.23,909.366 1212.88,902.294 1223.54,897.722 1234.19,894.603 1244.84,889.074 1255.49,886.659 1266.15,882.797 1276.8,874.753 1287.45,865.978 
  1298.11,856.815 1308.76,844.946 1319.41,839.542 1330.07,840.79 1340.72,841.742 1351.37,842.478 1362.02,843.831 1372.68,842.586 1383.33,842.763 1393.98,838.553 
  1404.64,833.908 1415.29,834.663 1425.94,838.733 1436.6,839.277 1447.25,839.769 1457.9,842.834 1468.56,842.362 1479.21,840.323 1489.86,836.977 1500.51,831.604 
  1511.17,827.996 1521.82,827.201 1532.47,823.332 1543.13,819.284 1553.78,814.51 1564.43,805.085 1575.09,795.13 1585.74,782.622 1596.39,766.055 1607.04,750.307 
  1617.7,742.853 1628.35,734.281 1639,720.557 1649.66,707.168 1660.31,691.569 1670.96,667.581 1681.62,639.605 1692.27,607.199 1702.92,572.836 1713.57,533.135 
  1724.23,489.487 1734.88,454.398 1745.53,419.808 1756.19,383.739 1766.84,347.211 1777.49,310.044 1788.15,275.028 1798.8,242.47 1809.45,211.266 1820.1,181.481 
  1830.76,155.777 1841.41,136.162 1852.06,115.83 1862.72,100.491 1873.37,88.5003 1884.02,88.0053 1894.68,91.3094 1905.33,97.9923 1915.98,104.697 1926.64,115.76 
  1937.29,130.732 1947.94,145.29 1958.59,161.623 1969.25,168.778 1979.9,183.64 1990.55,192.094 2001.21,203.227 2011.86,210.997 2022.51,219.729 2033.17,225.862 
  2043.82,231.331 2054.47,237.999 2065.12,241.3 2075.78,253.95 2086.43,256.701 2097.08,271.564 2107.74,286.157 2118.39,694.776 2129.04,1446.71 
  "/>
<path clip-path="url(#clip8500)" d="
M294.152 251.724 L828.489 251.724 L828.489 130.764 L294.152 130.764  Z
  " fill="#ffffff" fill-rule="evenodd" fill-opacity="1"/>
<polyline clip-path="url(#clip8500)" style="stroke:#000000; stroke-width:4; stroke-opacity:1; fill:none" points="
  294.152,251.724 828.489,251.724 828.489,130.764 294.152,130.764 294.152,251.724 
  "/>
<polyline clip-path="url(#clip8500)" style="stroke:#000000; stroke-width:4; stroke-opacity:1; fill:none" points="
  318.152,191.244 462.152,191.244 
  "/>
<g clip-path="url(#clip8500)">
<text style="fill:#000000; fill-opacity:1; font-family:Arial,Helvetica Neue,Helvetica,sans-serif; font-size:48px; text-anchor:start;" transform="rotate(0, 486.152, 208.744)" x="486.152" y="208.744">Iteration #340</text>
</g>
</svg>
