<?xml version="1.0" encoding="utf-8"?>
<svg xmlns="http://www.w3.org/2000/svg" xmlns:xlink="http://www.w3.org/1999/xlink" width="600" height="400" viewBox="0 0 2400 1600">
<defs>
  <clipPath id="clip0700">
    <rect x="0" y="0" width="2400" height="1600"/>
  </clipPath>
</defs>
<path clip-path="url(#clip0700)" d="
M0 1600 L2400 1600 L2400 0 L0 0  Z
  " fill="#ffffff" fill-rule="evenodd" fill-opacity="1"/>
<defs>
  <clipPath id="clip0701">
    <rect x="480" y="0" width="1681" height="1600"/>
  </clipPath>
</defs>
<path clip-path="url(#clip0700)" d="
M222.152 1487.47 L2352.76 1487.47 L2352.76 47.2441 L222.152 47.2441  Z
  " fill="#ffffff" fill-rule="evenodd" fill-opacity="1"/>
<defs>
  <clipPath id="clip0702">
    <rect x="222" y="47" width="2132" height="1441"/>
  </clipPath>
</defs>
<polyline clip-path="url(#clip0700)" style="stroke:#000000; stroke-width:4; stroke-opacity:1; fill:none" points="
  222.152,1487.47 2352.76,1487.47 
  "/>
<polyline clip-path="url(#clip0700)" style="stroke:#000000; stroke-width:4; stroke-opacity:1; fill:none" points="
  222.152,1487.47 222.152,47.2441 
  "/>
<polyline clip-path="url(#clip0700)" style="stroke:#000000; stroke-width:4; stroke-opacity:1; fill:none" points="
  222.152,1487.47 222.152,1470.19 
  "/>
<polyline clip-path="url(#clip0700)" style="stroke:#000000; stroke-width:4; stroke-opacity:1; fill:none" points="
  754.803,1487.47 754.803,1470.19 
  "/>
<polyline clip-path="url(#clip0700)" style="stroke:#000000; stroke-width:4; stroke-opacity:1; fill:none" points="
  1287.45,1487.47 1287.45,1470.19 
  "/>
<polyline clip-path="url(#clip0700)" style="stroke:#000000; stroke-width:4; stroke-opacity:1; fill:none" points="
  1820.1,1487.47 1820.1,1470.19 
  "/>
<polyline clip-path="url(#clip0700)" style="stroke:#000000; stroke-width:4; stroke-opacity:1; fill:none" points="
  2352.76,1487.47 2352.76,1470.19 
  "/>
<polyline clip-path="url(#clip0700)" style="stroke:#000000; stroke-width:4; stroke-opacity:1; fill:none" points="
  222.152,1447.82 247.719,1447.82 
  "/>
<polyline clip-path="url(#clip0700)" style="stroke:#000000; stroke-width:4; stroke-opacity:1; fill:none" points="
  222.152,1104.08 247.719,1104.08 
  "/>
<polyline clip-path="url(#clip0700)" style="stroke:#000000; stroke-width:4; stroke-opacity:1; fill:none" points="
  222.152,760.342 247.719,760.342 
  "/>
<polyline clip-path="url(#clip0700)" style="stroke:#000000; stroke-width:4; stroke-opacity:1; fill:none" points="
  222.152,416.604 247.719,416.604 
  "/>
<polyline clip-path="url(#clip0700)" style="stroke:#000000; stroke-width:4; stroke-opacity:1; fill:none" points="
  222.152,72.8665 247.719,72.8665 
  "/>
<g clip-path="url(#clip0700)">
<text style="fill:#000000; fill-opacity:1; font-family:Arial,Helvetica Neue,Helvetica,sans-serif; font-size:48px; text-anchor:middle;" transform="rotate(0, 222.152, 1541.47)" x="222.152" y="1541.47">0</text>
</g>
<g clip-path="url(#clip0700)">
<text style="fill:#000000; fill-opacity:1; font-family:Arial,Helvetica Neue,Helvetica,sans-serif; font-size:48px; text-anchor:middle;" transform="rotate(0, 754.803, 1541.47)" x="754.803" y="1541.47">50</text>
</g>
<g clip-path="url(#clip0700)">
<text style="fill:#000000; fill-opacity:1; font-family:Arial,Helvetica Neue,Helvetica,sans-serif; font-size:48px; text-anchor:middle;" transform="rotate(0, 1287.45, 1541.47)" x="1287.45" y="1541.47">100</text>
</g>
<g clip-path="url(#clip0700)">
<text style="fill:#000000; fill-opacity:1; font-family:Arial,Helvetica Neue,Helvetica,sans-serif; font-size:48px; text-anchor:middle;" transform="rotate(0, 1820.1, 1541.47)" x="1820.1" y="1541.47">150</text>
</g>
<g clip-path="url(#clip0700)">
<text style="fill:#000000; fill-opacity:1; font-family:Arial,Helvetica Neue,Helvetica,sans-serif; font-size:48px; text-anchor:middle;" transform="rotate(0, 2352.76, 1541.47)" x="2352.76" y="1541.47">200</text>
</g>
<g clip-path="url(#clip0700)">
<text style="fill:#000000; fill-opacity:1; font-family:Arial,Helvetica Neue,Helvetica,sans-serif; font-size:48px; text-anchor:end;" transform="rotate(0, 198.152, 1465.32)" x="198.152" y="1465.32">-1000</text>
</g>
<g clip-path="url(#clip0700)">
<text style="fill:#000000; fill-opacity:1; font-family:Arial,Helvetica Neue,Helvetica,sans-serif; font-size:48px; text-anchor:end;" transform="rotate(0, 198.152, 1121.58)" x="198.152" y="1121.58">0</text>
</g>
<g clip-path="url(#clip0700)">
<text style="fill:#000000; fill-opacity:1; font-family:Arial,Helvetica Neue,Helvetica,sans-serif; font-size:48px; text-anchor:end;" transform="rotate(0, 198.152, 777.842)" x="198.152" y="777.842">1000</text>
</g>
<g clip-path="url(#clip0700)">
<text style="fill:#000000; fill-opacity:1; font-family:Arial,Helvetica Neue,Helvetica,sans-serif; font-size:48px; text-anchor:end;" transform="rotate(0, 198.152, 434.104)" x="198.152" y="434.104">2000</text>
</g>
<g clip-path="url(#clip0700)">
<text style="fill:#000000; fill-opacity:1; font-family:Arial,Helvetica Neue,Helvetica,sans-serif; font-size:48px; text-anchor:end;" transform="rotate(0, 198.152, 90.3665)" x="198.152" y="90.3665">3000</text>
</g>
<polyline clip-path="url(#clip0702)" style="stroke:#000000; stroke-width:4; stroke-opacity:1; fill:none" points="
  232.805,989.933 243.458,992.4 254.111,995.064 264.764,996.552 275.417,998.124 286.07,1000.88 296.723,1004.26 307.376,1006.76 318.029,1009.06 328.682,1011.13 
  339.335,1012.64 349.988,1012.37 360.641,1010.27 371.294,1009.12 381.947,1009.76 392.6,1009.57 403.253,1009.31 413.906,1008.99 424.559,1008.62 435.212,1008.2 
  445.865,1007.77 456.518,1007.45 467.171,1008.03 477.824,1010.19 488.477,1012.82 499.13,1015.21 509.783,1017.79 520.436,1020.62 531.089,1023.74 541.742,1027.2 
  552.395,1030.83 563.048,1033.86 573.701,1035.73 584.354,1036.52 595.007,1035.88 605.66,1033.92 616.313,1030.6 626.966,1026.88 637.619,1023.33 648.272,1019.07 
  658.925,1014.85 669.578,1010.35 680.232,1007.04 690.885,1004.81 701.538,1003.31 712.191,1001.5 722.844,999.155 733.497,996.087 744.15,993.48 754.803,991.607 
  765.456,990.645 776.109,989.298 786.762,987.982 797.415,986.701 808.068,985.432 818.721,984.412 829.374,982.656 840.027,979.319 850.68,976.593 861.333,974.615 
  871.986,973.774 882.639,973.8 893.292,974.477 903.945,972.986 914.598,970.147 925.251,967.741 935.904,965.137 946.557,962.251 957.21,960.059 967.863,958.664 
  978.516,957.365 989.169,957.273 999.822,956.225 1010.48,954.838 1021.13,953.11 1031.78,951.013 1042.43,948.443 1053.09,945.683 1063.74,943.505 1074.39,942.079 
  1085.05,939.376 1095.7,936.15 1106.35,932.134 1117.01,927.424 1127.66,922.158 1138.31,917.981 1148.96,915.248 1159.62,911.297 1170.27,907.067 1180.92,904.087 
  1191.58,898.916 1202.23,892.327 1212.88,885.406 1223.54,879.858 1234.19,875.291 1244.84,869.163 1255.49,865.022 1266.15,859.903 1276.8,852.354 1287.45,844.32 
  1298.11,836.244 1308.76,826.595 1319.41,821.158 1330.07,819.998 1340.72,818.821 1351.37,817.745 1362.02,817.021 1372.68,814.907 1383.33,813.508 1393.98,809.546 
  1404.64,805.164 1415.29,804.109 1425.94,804.857 1436.6,803.425 1447.25,801.571 1457.9,801.101 1468.56,798.04 1479.21,793.607 1489.86,787.962 1500.51,780.523 
  1511.17,773.788 1521.82,768.084 1532.47,760.087 1543.13,751.282 1553.78,741.492 1564.43,728.197 1575.09,714.023 1585.74,697.615 1596.39,678.32 1607.04,658.908 
  1617.7,643.894 1628.35,627.76 1639,607.852 1649.66,587.68 1660.31,565.449 1670.96,537.618 1681.62,506.58 1692.27,471.988 1702.92,434.838 1713.57,394.045 
  1724.23,352.638 1734.88,326.677 1745.53,302.177 1756.19,277.404 1766.84,253.23 1777.49,228.952 1788.15,206.628 1798.8,185.576 1809.45,166.17 1820.1,147.203 
  1830.76,131.299 1841.41,118.797 1852.06,105.7 1862.72,96.3319 1873.37,88.1662 1884.02,88.0053 1894.68,88.9787 1905.33,93.7415 1915.98,96.6325 1926.64,104.897 
  1937.29,113.277 1947.94,123.047 1958.59,133.432 1969.25,138.149 1979.9,148.14 1990.55,153.617 2001.21,161.778 2011.86,166.362 2022.51,173.629 2033.17,176.783 
  2043.82,182.435 2054.47,185.755 2065.12,189.82 2075.78,198.407 2086.43,200.232 2097.08,213.112 2107.74,221.08 2118.39,668.478 2129.04,1446.71 
  "/>
<path clip-path="url(#clip0700)" d="
M294.152 251.724 L828.489 251.724 L828.489 130.764 L294.152 130.764  Z
  " fill="#ffffff" fill-rule="evenodd" fill-opacity="1"/>
<polyline clip-path="url(#clip0700)" style="stroke:#000000; stroke-width:4; stroke-opacity:1; fill:none" points="
  294.152,251.724 828.489,251.724 828.489,130.764 294.152,130.764 294.152,251.724 
  "/>
<polyline clip-path="url(#clip0700)" style="stroke:#000000; stroke-width:4; stroke-opacity:1; fill:none" points="
  318.152,191.244 462.152,191.244 
  "/>
<g clip-path="url(#clip0700)">
<text style="fill:#000000; fill-opacity:1; font-family:Arial,Helvetica Neue,Helvetica,sans-serif; font-size:48px; text-anchor:start;" transform="rotate(0, 486.152, 208.744)" x="486.152" y="208.744">Iteration #210</text>
</g>
</svg>
