<?xml version="1.0" encoding="utf-8"?>
<svg xmlns="http://www.w3.org/2000/svg" xmlns:xlink="http://www.w3.org/1999/xlink" width="600" height="400" viewBox="0 0 2400 1600">
<defs>
  <clipPath id="clip2900">
    <rect x="0" y="0" width="2400" height="1600"/>
  </clipPath>
</defs>
<path clip-path="url(#clip2900)" d="
M0 1600 L2400 1600 L2400 0 L0 0  Z
  " fill="#ffffff" fill-rule="evenodd" fill-opacity="1"/>
<defs>
  <clipPath id="clip2901">
    <rect x="480" y="0" width="1681" height="1600"/>
  </clipPath>
</defs>
<path clip-path="url(#clip2900)" d="
M194.041 1487.47 L2352.76 1487.47 L2352.76 47.2441 L194.041 47.2441  Z
  " fill="#ffffff" fill-rule="evenodd" fill-opacity="1"/>
<defs>
  <clipPath id="clip2902">
    <rect x="194" y="47" width="2160" height="1441"/>
  </clipPath>
</defs>
<polyline clip-path="url(#clip2900)" style="stroke:#000000; stroke-width:4; stroke-opacity:1; fill:none" points="
  194.041,1487.47 2352.76,1487.47 
  "/>
<polyline clip-path="url(#clip2900)" style="stroke:#000000; stroke-width:4; stroke-opacity:1; fill:none" points="
  194.041,1487.47 194.041,47.2441 
  "/>
<polyline clip-path="url(#clip2900)" style="stroke:#000000; stroke-width:4; stroke-opacity:1; fill:none" points="
  194.041,1487.47 194.041,1470.19 
  "/>
<polyline clip-path="url(#clip2900)" style="stroke:#000000; stroke-width:4; stroke-opacity:1; fill:none" points="
  733.72,1487.47 733.72,1470.19 
  "/>
<polyline clip-path="url(#clip2900)" style="stroke:#000000; stroke-width:4; stroke-opacity:1; fill:none" points="
  1273.4,1487.47 1273.4,1470.19 
  "/>
<polyline clip-path="url(#clip2900)" style="stroke:#000000; stroke-width:4; stroke-opacity:1; fill:none" points="
  1813.08,1487.47 1813.08,1470.19 
  "/>
<polyline clip-path="url(#clip2900)" style="stroke:#000000; stroke-width:4; stroke-opacity:1; fill:none" points="
  2352.76,1487.47 2352.76,1470.19 
  "/>
<polyline clip-path="url(#clip2900)" style="stroke:#000000; stroke-width:4; stroke-opacity:1; fill:none" points="
  194.041,1230 219.946,1230 
  "/>
<polyline clip-path="url(#clip2900)" style="stroke:#000000; stroke-width:4; stroke-opacity:1; fill:none" points="
  194.041,954.554 219.946,954.554 
  "/>
<polyline clip-path="url(#clip2900)" style="stroke:#000000; stroke-width:4; stroke-opacity:1; fill:none" points="
  194.041,679.112 219.946,679.112 
  "/>
<polyline clip-path="url(#clip2900)" style="stroke:#000000; stroke-width:4; stroke-opacity:1; fill:none" points="
  194.041,403.669 219.946,403.669 
  "/>
<polyline clip-path="url(#clip2900)" style="stroke:#000000; stroke-width:4; stroke-opacity:1; fill:none" points="
  194.041,128.226 219.946,128.226 
  "/>
<g clip-path="url(#clip2900)">
<text style="fill:#000000; fill-opacity:1; font-family:Arial,Helvetica Neue,Helvetica,sans-serif; font-size:48px; text-anchor:middle;" transform="rotate(0, 194.041, 1541.47)" x="194.041" y="1541.47">0</text>
</g>
<g clip-path="url(#clip2900)">
<text style="fill:#000000; fill-opacity:1; font-family:Arial,Helvetica Neue,Helvetica,sans-serif; font-size:48px; text-anchor:middle;" transform="rotate(0, 733.72, 1541.47)" x="733.72" y="1541.47">50</text>
</g>
<g clip-path="url(#clip2900)">
<text style="fill:#000000; fill-opacity:1; font-family:Arial,Helvetica Neue,Helvetica,sans-serif; font-size:48px; text-anchor:middle;" transform="rotate(0, 1273.4, 1541.47)" x="1273.4" y="1541.47">100</text>
</g>
<g clip-path="url(#clip2900)">
<text style="fill:#000000; fill-opacity:1; font-family:Arial,Helvetica Neue,Helvetica,sans-serif; font-size:48px; text-anchor:middle;" transform="rotate(0, 1813.08, 1541.47)" x="1813.08" y="1541.47">150</text>
</g>
<g clip-path="url(#clip2900)">
<text style="fill:#000000; fill-opacity:1; font-family:Arial,Helvetica Neue,Helvetica,sans-serif; font-size:48px; text-anchor:middle;" transform="rotate(0, 2352.76, 1541.47)" x="2352.76" y="1541.47">200</text>
</g>
<g clip-path="url(#clip2900)">
<text style="fill:#000000; fill-opacity:1; font-family:Arial,Helvetica Neue,Helvetica,sans-serif; font-size:48px; text-anchor:end;" transform="rotate(0, 170.041, 1247.5)" x="170.041" y="1247.5">0</text>
</g>
<g clip-path="url(#clip2900)">
<text style="fill:#000000; fill-opacity:1; font-family:Arial,Helvetica Neue,Helvetica,sans-serif; font-size:48px; text-anchor:end;" transform="rotate(0, 170.041, 972.054)" x="170.041" y="972.054">500</text>
</g>
<g clip-path="url(#clip2900)">
<text style="fill:#000000; fill-opacity:1; font-family:Arial,Helvetica Neue,Helvetica,sans-serif; font-size:48px; text-anchor:end;" transform="rotate(0, 170.041, 696.612)" x="170.041" y="696.612">1000</text>
</g>
<g clip-path="url(#clip2900)">
<text style="fill:#000000; fill-opacity:1; font-family:Arial,Helvetica Neue,Helvetica,sans-serif; font-size:48px; text-anchor:end;" transform="rotate(0, 170.041, 421.169)" x="170.041" y="421.169">1500</text>
</g>
<g clip-path="url(#clip2900)">
<text style="fill:#000000; fill-opacity:1; font-family:Arial,Helvetica Neue,Helvetica,sans-serif; font-size:48px; text-anchor:end;" transform="rotate(0, 170.041, 145.726)" x="170.041" y="145.726">2000</text>
</g>
<polyline clip-path="url(#clip2902)" style="stroke:#000000; stroke-width:4; stroke-opacity:1; fill:none" points="
  204.835,1071.71 215.629,1072.6 226.422,1073.61 237.216,1074.27 248.009,1075 258.803,1076.15 269.596,1077.52 280.39,1078.62 291.184,1079.68 301.977,1080.65 
  312.771,1081.46 323.564,1081.68 334.358,1081.31 345.151,1081.25 355.945,1081.76 366.739,1081.99 377.532,1082.2 388.326,1082.39 399.119,1082.57 409.913,1082.72 
  420.706,1082.87 431.5,1083.05 442.294,1083.52 453.087,1084.47 463.881,1085.57 474.674,1086.57 485.468,1087.61 496.262,1088.68 507.055,1089.81 517.849,1090.98 
  528.642,1092.14 539.436,1093.04 550.229,1093.47 561.023,1093.47 571.817,1092.92 582.61,1091.84 593.404,1090.23 604.197,1088.37 614.991,1086.49 625.784,1084.27 
  636.578,1081.98 647.372,1079.52 658.165,1077.37 668.959,1075.46 679.752,1073.75 690.546,1071.84 701.339,1069.71 712.133,1067.29 722.927,1064.95 733.72,1062.79 
  744.514,1060.86 755.307,1058.75 766.101,1056.58 776.894,1054.39 787.688,1052.12 798.482,1049.88 809.275,1047.32 820.069,1044.23 830.862,1041.21 841.656,1038.44 
  852.449,1035.92 863.243,1033.65 874.037,1031.5 884.83,1028.58 895.624,1025.15 906.417,1021.74 917.211,1018.21 928.004,1014.47 938.798,1010.89 949.592,1007.46 
  960.385,1004 971.179,1000.77 981.972,997.184 992.766,993.291 1003.56,989.211 1014.35,984.832 1025.15,980.144 1035.94,975.29 1046.73,970.384 1057.53,965.644 
  1068.32,960.219 1079.11,954.526 1089.91,948.297 1100.7,941.74 1111.5,934.724 1122.29,927.977 1133.08,921.437 1143.88,914.408 1154.67,907.039 1165.46,899.946 
  1176.26,891.961 1187.05,883.231 1197.84,874.428 1208.64,865.717 1219.43,857.431 1230.22,848.283 1241.02,839.905 1251.81,830.873 1262.61,821.126 1273.4,810.967 
  1284.19,800.942 1294.99,790.124 1305.78,780.836 1316.57,772.907 1327.37,764.862 1338.16,756.971 1348.95,748.915 1359.75,740.604 1370.54,732.161 1381.33,723.036 
  1392.13,713.446 1402.92,705.039 1413.72,696.851 1424.51,688.118 1435.3,678.751 1446.1,669.94 1456.89,659.906 1467.68,649.223 1478.48,638.01 1489.27,625.766 
  1500.06,613.821 1510.86,601.606 1521.65,588.644 1532.44,574.929 1543.24,560.745 1554.03,544.903 1564.83,528.574 1575.62,510.952 1586.41,492.101 1597.21,472.683 
  1608,454.182 1618.79,434.95 1629.59,413.425 1640.38,391.288 1651.17,367.236 1661.97,339.956 1672.76,309.674 1683.55,275.794 1694.35,237.63 1705.14,196.409 
  1715.94,157.942 1726.73,148.213 1737.52,140.304 1748.32,133.145 1759.11,126.673 1769.9,120.425 1780.7,114.962 1791.49,109.822 1802.28,105.428 1813.08,100.822 
  1823.87,97.4908 1834.66,94.5002 1845.46,91.7614 1856.25,89.8344 1867.05,88.0053 1877.84,88.3686 1888.63,88.7226 1899.43,90.489 1910.22,91.159 1921.01,94.1714 
  1931.81,95.9847 1942.6,99.7757 1953.39,102.084 1964.19,104.172 1974.98,107.045 1985.77,109.165 1996.57,111.768 2007.36,113.647 2018.16,116.233 2028.95,117.225 
  2039.74,120.111 2050.54,120.501 2061.33,123.81 2072.12,125.171 2082.92,127.922 2093.71,131.349 2104.5,135.929 2115.3,626.904 2126.09,1446.71 
  "/>
<path clip-path="url(#clip2900)" d="
M266.041 251.724 L773.617 251.724 L773.617 130.764 L266.041 130.764  Z
  " fill="#ffffff" fill-rule="evenodd" fill-opacity="1"/>
<polyline clip-path="url(#clip2900)" style="stroke:#000000; stroke-width:4; stroke-opacity:1; fill:none" points="
  266.041,251.724 773.617,251.724 773.617,130.764 266.041,130.764 266.041,251.724 
  "/>
<polyline clip-path="url(#clip2900)" style="stroke:#000000; stroke-width:4; stroke-opacity:1; fill:none" points="
  290.041,191.244 434.041,191.244 
  "/>
<g clip-path="url(#clip2900)">
<text style="fill:#000000; fill-opacity:1; font-family:Arial,Helvetica Neue,Helvetica,sans-serif; font-size:48px; text-anchor:start;" transform="rotate(0, 458.041, 208.744)" x="458.041" y="208.744">Iteration #80</text>
</g>
</svg>
