<?xml version="1.0" encoding="utf-8"?>
<svg xmlns="http://www.w3.org/2000/svg" xmlns:xlink="http://www.w3.org/1999/xlink" width="600" height="400" viewBox="0 0 2400 1600">
<defs>
  <clipPath id="clip9100">
    <rect x="0" y="0" width="2400" height="1600"/>
  </clipPath>
</defs>
<path clip-path="url(#clip9100)" d="
M0 1600 L2400 1600 L2400 0 L0 0  Z
  " fill="#ffffff" fill-rule="evenodd" fill-opacity="1"/>
<defs>
  <clipPath id="clip9101">
    <rect x="480" y="0" width="1681" height="1600"/>
  </clipPath>
</defs>
<path clip-path="url(#clip9100)" d="
M222.152 1487.47 L2352.76 1487.47 L2352.76 47.2441 L222.152 47.2441  Z
  " fill="#ffffff" fill-rule="evenodd" fill-opacity="1"/>
<defs>
  <clipPath id="clip9102">
    <rect x="222" y="47" width="2132" height="1441"/>
  </clipPath>
</defs>
<polyline clip-path="url(#clip9100)" style="stroke:#000000; stroke-width:4; stroke-opacity:1; fill:none" points="
  222.152,1487.47 2352.76,1487.47 
  "/>
<polyline clip-path="url(#clip9100)" style="stroke:#000000; stroke-width:4; stroke-opacity:1; fill:none" points="
  222.152,1487.47 222.152,47.2441 
  "/>
<polyline clip-path="url(#clip9100)" style="stroke:#000000; stroke-width:4; stroke-opacity:1; fill:none" points="
  222.152,1487.47 222.152,1470.19 
  "/>
<polyline clip-path="url(#clip9100)" style="stroke:#000000; stroke-width:4; stroke-opacity:1; fill:none" points="
  754.803,1487.47 754.803,1470.19 
  "/>
<polyline clip-path="url(#clip9100)" style="stroke:#000000; stroke-width:4; stroke-opacity:1; fill:none" points="
  1287.45,1487.47 1287.45,1470.19 
  "/>
<polyline clip-path="url(#clip9100)" style="stroke:#000000; stroke-width:4; stroke-opacity:1; fill:none" points="
  1820.1,1487.47 1820.1,1470.19 
  "/>
<polyline clip-path="url(#clip9100)" style="stroke:#000000; stroke-width:4; stroke-opacity:1; fill:none" points="
  2352.76,1487.47 2352.76,1470.19 
  "/>
<polyline clip-path="url(#clip9100)" style="stroke:#000000; stroke-width:4; stroke-opacity:1; fill:none" points="
  222.152,1337.05 247.719,1337.05 
  "/>
<polyline clip-path="url(#clip9100)" style="stroke:#000000; stroke-width:4; stroke-opacity:1; fill:none" points="
  222.152,1072.6 247.719,1072.6 
  "/>
<polyline clip-path="url(#clip9100)" style="stroke:#000000; stroke-width:4; stroke-opacity:1; fill:none" points="
  222.152,808.145 247.719,808.145 
  "/>
<polyline clip-path="url(#clip9100)" style="stroke:#000000; stroke-width:4; stroke-opacity:1; fill:none" points="
  222.152,543.692 247.719,543.692 
  "/>
<polyline clip-path="url(#clip9100)" style="stroke:#000000; stroke-width:4; stroke-opacity:1; fill:none" points="
  222.152,279.239 247.719,279.239 
  "/>
<g clip-path="url(#clip9100)">
<text style="fill:#000000; fill-opacity:1; font-family:Arial,Helvetica Neue,Helvetica,sans-serif; font-size:48px; text-anchor:middle;" transform="rotate(0, 222.152, 1541.47)" x="222.152" y="1541.47">0</text>
</g>
<g clip-path="url(#clip9100)">
<text style="fill:#000000; fill-opacity:1; font-family:Arial,Helvetica Neue,Helvetica,sans-serif; font-size:48px; text-anchor:middle;" transform="rotate(0, 754.803, 1541.47)" x="754.803" y="1541.47">50</text>
</g>
<g clip-path="url(#clip9100)">
<text style="fill:#000000; fill-opacity:1; font-family:Arial,Helvetica Neue,Helvetica,sans-serif; font-size:48px; text-anchor:middle;" transform="rotate(0, 1287.45, 1541.47)" x="1287.45" y="1541.47">100</text>
</g>
<g clip-path="url(#clip9100)">
<text style="fill:#000000; fill-opacity:1; font-family:Arial,Helvetica Neue,Helvetica,sans-serif; font-size:48px; text-anchor:middle;" transform="rotate(0, 1820.1, 1541.47)" x="1820.1" y="1541.47">150</text>
</g>
<g clip-path="url(#clip9100)">
<text style="fill:#000000; fill-opacity:1; font-family:Arial,Helvetica Neue,Helvetica,sans-serif; font-size:48px; text-anchor:middle;" transform="rotate(0, 2352.76, 1541.47)" x="2352.76" y="1541.47">200</text>
</g>
<g clip-path="url(#clip9100)">
<text style="fill:#000000; fill-opacity:1; font-family:Arial,Helvetica Neue,Helvetica,sans-serif; font-size:48px; text-anchor:end;" transform="rotate(0, 198.152, 1354.55)" x="198.152" y="1354.55">-1000</text>
</g>
<g clip-path="url(#clip9100)">
<text style="fill:#000000; fill-opacity:1; font-family:Arial,Helvetica Neue,Helvetica,sans-serif; font-size:48px; text-anchor:end;" transform="rotate(0, 198.152, 1090.1)" x="198.152" y="1090.1">0</text>
</g>
<g clip-path="url(#clip9100)">
<text style="fill:#000000; fill-opacity:1; font-family:Arial,Helvetica Neue,Helvetica,sans-serif; font-size:48px; text-anchor:end;" transform="rotate(0, 198.152, 825.645)" x="198.152" y="825.645">1000</text>
</g>
<g clip-path="url(#clip9100)">
<text style="fill:#000000; fill-opacity:1; font-family:Arial,Helvetica Neue,Helvetica,sans-serif; font-size:48px; text-anchor:end;" transform="rotate(0, 198.152, 561.192)" x="198.152" y="561.192">2000</text>
</g>
<g clip-path="url(#clip9100)">
<text style="fill:#000000; fill-opacity:1; font-family:Arial,Helvetica Neue,Helvetica,sans-serif; font-size:48px; text-anchor:end;" transform="rotate(0, 198.152, 296.739)" x="198.152" y="296.739">3000</text>
</g>
<polyline clip-path="url(#clip9102)" style="stroke:#000000; stroke-width:4; stroke-opacity:1; fill:none" points="
  232.805,978.221 243.458,982.068 254.111,985.988 264.764,987.76 275.417,989.531 286.07,993.227 296.723,997.947 307.376,1001.17 318.029,1004.06 328.682,1006.68 
  339.335,1008.4 349.988,1007.21 360.641,1002.97 371.294,1000.41 381.947,1000.93 392.6,1000.03 403.253,999.02 413.906,997.874 424.559,996.609 435.212,995.217 
  445.865,993.707 456.518,992.281 467.171,992.277 477.824,994.866 488.477,998.17 499.13,1000.98 509.783,1004.1 520.436,1007.65 531.089,1011.76 541.742,1016.55 
  552.395,1021.81 563.048,1026.29 573.701,1029.06 584.354,1030.35 595.007,1029.56 605.66,1026.88 616.313,1022.22 626.966,1017.2 637.619,1012.77 648.272,1007.33 
  658.925,1002.15 669.578,996.598 680.232,993.139 690.885,991.577 701.538,991.222 712.191,990.364 722.844,988.564 733.497,985.502 744.15,983.189 754.803,982.061 
  765.456,982.419 776.109,982.052 786.762,981.69 797.415,981.326 808.068,980.963 818.721,981.003 829.374,979.789 840.027,975.823 850.68,972.91 861.333,971.161 
  871.986,971.293 882.639,972.834 893.292,975.483 903.945,974.467 914.598,971.182 925.251,968.725 935.904,965.908 946.557,962.641 957.21,960.499 967.863,959.708 
  978.516,959.015 989.169,960.434 999.822,960.206 1010.48,959.532 1021.13,958.36 1031.78,956.694 1042.43,954.387 1053.09,951.832 1063.74,950.496 1074.39,950.53 
  1085.05,948.668 1095.7,946.069 1106.35,942.435 1117.01,937.764 1127.66,932.39 1138.31,928.943 1148.96,928.152 1159.62,925.367 1170.27,922.308 1180.92,921.552 
  1191.58,917.225 1202.23,910.768 1212.88,903.692 1223.54,899.2 1234.19,896.204 1244.84,890.724 1255.49,888.454 1266.15,884.697 1276.8,876.628 1287.45,867.804 
  1298.11,858.566 1308.76,846.519 1319.41,841.103 1330.07,842.505 1340.72,843.575 1351.37,844.396 1362.02,845.841 1372.68,844.591 1383.33,844.805 1393.98,840.491 
  1404.64,835.723 1415.29,836.515 1425.94,840.718 1436.6,841.295 1447.25,841.832 1457.9,845.038 1468.56,844.626 1479.21,842.636 1489.86,839.333 1500.51,833.984 
  1511.17,830.488 1521.82,829.941 1532.47,826.273 1543.13,822.478 1553.78,817.999 1564.43,808.788 1575.09,799.101 1585.74,786.845 1596.39,770.465 1607.04,754.988 
  1617.7,748.127 1628.35,740.165 1639,726.966 1649.66,714.174 1660.31,699.182 1670.96,675.604 1681.62,647.988 1692.27,615.885 1702.92,581.866 1713.57,542.376 
  1724.23,498.68 1734.88,463.095 1745.53,427.919 1756.19,391.151 1766.84,353.823 1777.49,315.778 1788.15,279.898 1798.8,246.517 1809.45,214.502 1820.1,183.913 
  1830.76,157.536 1841.41,137.378 1852.06,116.533 1862.72,100.775 1873.37,88.4864 1884.02,88.0053 1894.68,91.435 1905.33,98.3309 1915.98,105.238 1926.64,116.559 
  1937.29,131.929 1947.94,146.855 1958.59,163.606 1969.25,170.885 1979.9,186.134 1990.55,194.681 2001.21,206.142 2011.86,213.902 2022.51,222.936 2033.17,229.149 
  2043.82,234.586 2054.47,241.524 2065.12,244.753 2075.78,257.589 2086.43,260.462 2097.08,275.424 2107.74,290.266 2118.39,716.306 2129.04,1446.71 
  "/>
<path clip-path="url(#clip9100)" d="
M294.152 251.724 L828.489 251.724 L828.489 130.764 L294.152 130.764  Z
  " fill="#ffffff" fill-rule="evenodd" fill-opacity="1"/>
<polyline clip-path="url(#clip9100)" style="stroke:#000000; stroke-width:4; stroke-opacity:1; fill:none" points="
  294.152,251.724 828.489,251.724 828.489,130.764 294.152,130.764 294.152,251.724 
  "/>
<polyline clip-path="url(#clip9100)" style="stroke:#000000; stroke-width:4; stroke-opacity:1; fill:none" points="
  318.152,191.244 462.152,191.244 
  "/>
<g clip-path="url(#clip9100)">
<text style="fill:#000000; fill-opacity:1; font-family:Arial,Helvetica Neue,Helvetica,sans-serif; font-size:48px; text-anchor:start;" transform="rotate(0, 486.152, 208.744)" x="486.152" y="208.744">Iteration #350</text>
</g>
</svg>
