<?xml version="1.0" encoding="utf-8"?>
<svg xmlns="http://www.w3.org/2000/svg" xmlns:xlink="http://www.w3.org/1999/xlink" width="600" height="400" viewBox="0 0 2400 1600">
<defs>
  <clipPath id="clip9900">
    <rect x="0" y="0" width="2400" height="1600"/>
  </clipPath>
</defs>
<path clip-path="url(#clip9900)" d="
M0 1600 L2400 1600 L2400 0 L0 0  Z
  " fill="#ffffff" fill-rule="evenodd" fill-opacity="1"/>
<defs>
  <clipPath id="clip9901">
    <rect x="480" y="0" width="1681" height="1600"/>
  </clipPath>
</defs>
<path clip-path="url(#clip9900)" d="
M194.041 1487.47 L2352.76 1487.47 L2352.76 47.2441 L194.041 47.2441  Z
  " fill="#ffffff" fill-rule="evenodd" fill-opacity="1"/>
<defs>
  <clipPath id="clip9902">
    <rect x="194" y="47" width="2160" height="1441"/>
  </clipPath>
</defs>
<polyline clip-path="url(#clip9900)" style="stroke:#000000; stroke-width:4; stroke-opacity:1; fill:none" points="
  194.041,1487.47 2352.76,1487.47 
  "/>
<polyline clip-path="url(#clip9900)" style="stroke:#000000; stroke-width:4; stroke-opacity:1; fill:none" points="
  194.041,1487.47 194.041,47.2441 
  "/>
<polyline clip-path="url(#clip9900)" style="stroke:#000000; stroke-width:4; stroke-opacity:1; fill:none" points="
  194.041,1487.47 194.041,1470.19 
  "/>
<polyline clip-path="url(#clip9900)" style="stroke:#000000; stroke-width:4; stroke-opacity:1; fill:none" points="
  733.72,1487.47 733.72,1470.19 
  "/>
<polyline clip-path="url(#clip9900)" style="stroke:#000000; stroke-width:4; stroke-opacity:1; fill:none" points="
  1273.4,1487.47 1273.4,1470.19 
  "/>
<polyline clip-path="url(#clip9900)" style="stroke:#000000; stroke-width:4; stroke-opacity:1; fill:none" points="
  1813.08,1487.47 1813.08,1470.19 
  "/>
<polyline clip-path="url(#clip9900)" style="stroke:#000000; stroke-width:4; stroke-opacity:1; fill:none" points="
  2352.76,1487.47 2352.76,1470.19 
  "/>
<polyline clip-path="url(#clip9900)" style="stroke:#000000; stroke-width:4; stroke-opacity:1; fill:none" points="
  194.041,1398.75 219.946,1398.75 
  "/>
<polyline clip-path="url(#clip9900)" style="stroke:#000000; stroke-width:4; stroke-opacity:1; fill:none" points="
  194.041,1190.87 219.946,1190.87 
  "/>
<polyline clip-path="url(#clip9900)" style="stroke:#000000; stroke-width:4; stroke-opacity:1; fill:none" points="
  194.041,982.995 219.946,982.995 
  "/>
<polyline clip-path="url(#clip9900)" style="stroke:#000000; stroke-width:4; stroke-opacity:1; fill:none" points="
  194.041,775.119 219.946,775.119 
  "/>
<polyline clip-path="url(#clip9900)" style="stroke:#000000; stroke-width:4; stroke-opacity:1; fill:none" points="
  194.041,567.244 219.946,567.244 
  "/>
<polyline clip-path="url(#clip9900)" style="stroke:#000000; stroke-width:4; stroke-opacity:1; fill:none" points="
  194.041,359.369 219.946,359.369 
  "/>
<polyline clip-path="url(#clip9900)" style="stroke:#000000; stroke-width:4; stroke-opacity:1; fill:none" points="
  194.041,151.493 219.946,151.493 
  "/>
<g clip-path="url(#clip9900)">
<text style="fill:#000000; fill-opacity:1; font-family:Arial,Helvetica Neue,Helvetica,sans-serif; font-size:48px; text-anchor:middle;" transform="rotate(0, 194.041, 1541.47)" x="194.041" y="1541.47">0</text>
</g>
<g clip-path="url(#clip9900)">
<text style="fill:#000000; fill-opacity:1; font-family:Arial,Helvetica Neue,Helvetica,sans-serif; font-size:48px; text-anchor:middle;" transform="rotate(0, 733.72, 1541.47)" x="733.72" y="1541.47">50</text>
</g>
<g clip-path="url(#clip9900)">
<text style="fill:#000000; fill-opacity:1; font-family:Arial,Helvetica Neue,Helvetica,sans-serif; font-size:48px; text-anchor:middle;" transform="rotate(0, 1273.4, 1541.47)" x="1273.4" y="1541.47">100</text>
</g>
<g clip-path="url(#clip9900)">
<text style="fill:#000000; fill-opacity:1; font-family:Arial,Helvetica Neue,Helvetica,sans-serif; font-size:48px; text-anchor:middle;" transform="rotate(0, 1813.08, 1541.47)" x="1813.08" y="1541.47">150</text>
</g>
<g clip-path="url(#clip9900)">
<text style="fill:#000000; fill-opacity:1; font-family:Arial,Helvetica Neue,Helvetica,sans-serif; font-size:48px; text-anchor:middle;" transform="rotate(0, 2352.76, 1541.47)" x="2352.76" y="1541.47">200</text>
</g>
<g clip-path="url(#clip9900)">
<text style="fill:#000000; fill-opacity:1; font-family:Arial,Helvetica Neue,Helvetica,sans-serif; font-size:48px; text-anchor:end;" transform="rotate(0, 170.041, 1416.25)" x="170.041" y="1416.25">200</text>
</g>
<g clip-path="url(#clip9900)">
<text style="fill:#000000; fill-opacity:1; font-family:Arial,Helvetica Neue,Helvetica,sans-serif; font-size:48px; text-anchor:end;" transform="rotate(0, 170.041, 1208.37)" x="170.041" y="1208.37">400</text>
</g>
<g clip-path="url(#clip9900)">
<text style="fill:#000000; fill-opacity:1; font-family:Arial,Helvetica Neue,Helvetica,sans-serif; font-size:48px; text-anchor:end;" transform="rotate(0, 170.041, 1000.49)" x="170.041" y="1000.49">600</text>
</g>
<g clip-path="url(#clip9900)">
<text style="fill:#000000; fill-opacity:1; font-family:Arial,Helvetica Neue,Helvetica,sans-serif; font-size:48px; text-anchor:end;" transform="rotate(0, 170.041, 792.619)" x="170.041" y="792.619">800</text>
</g>
<g clip-path="url(#clip9900)">
<text style="fill:#000000; fill-opacity:1; font-family:Arial,Helvetica Neue,Helvetica,sans-serif; font-size:48px; text-anchor:end;" transform="rotate(0, 170.041, 584.744)" x="170.041" y="584.744">1000</text>
</g>
<g clip-path="url(#clip9900)">
<text style="fill:#000000; fill-opacity:1; font-family:Arial,Helvetica Neue,Helvetica,sans-serif; font-size:48px; text-anchor:end;" transform="rotate(0, 170.041, 376.869)" x="170.041" y="376.869">1200</text>
</g>
<g clip-path="url(#clip9900)">
<text style="fill:#000000; fill-opacity:1; font-family:Arial,Helvetica Neue,Helvetica,sans-serif; font-size:48px; text-anchor:end;" transform="rotate(0, 170.041, 168.993)" x="170.041" y="168.993">1400</text>
</g>
<polyline clip-path="url(#clip9902)" style="stroke:#000000; stroke-width:4; stroke-opacity:1; fill:none" points="
  204.835,1306.77 215.629,1307.12 226.422,1307.22 237.216,1307.35 248.009,1307.5 258.803,1307.71 269.596,1307.96 280.39,1308.17 291.184,1308.4 301.977,1308.59 
  312.771,1308.8 323.564,1308.91 334.358,1308.96 345.151,1309.04 355.945,1309.18 366.739,1309.29 377.532,1309.39 388.326,1309.48 399.119,1309.56 409.913,1309.63 
  420.706,1309.69 431.5,1309.74 442.294,1309.82 453.087,1309.94 463.881,1310.07 474.674,1310.18 485.468,1310.26 496.262,1310.35 507.055,1310.41 517.849,1310.47 
  528.642,1310.5 539.436,1310.49 550.229,1310.38 561.023,1310.22 571.817,1309.95 582.61,1309.61 593.404,1309.14 604.197,1308.65 614.991,1308.1 625.784,1307.5 
  636.578,1306.83 647.372,1306.12 658.165,1305.42 668.959,1304.68 679.752,1303.99 690.546,1303.15 701.339,1302.32 712.133,1301.35 722.927,1300.39 733.72,1299.36 
  744.514,1298.36 755.307,1297.23 766.101,1296.09 776.894,1294.85 787.688,1293.57 798.482,1292.21 809.275,1290.76 820.069,1289.18 830.862,1287.46 841.656,1285.82 
  852.449,1284.02 863.243,1282.28 874.037,1280.39 884.83,1278.38 895.624,1276.13 906.417,1273.83 917.211,1271.36 928.004,1268.81 938.798,1266.12 949.592,1263.38 
  960.385,1260.51 971.179,1257.49 981.972,1254.39 992.766,1250.96 1003.56,1247.52 1014.35,1243.69 1025.15,1239.81 1035.94,1235.61 1046.73,1231.31 1057.53,1226.8 
  1068.32,1222.01 1079.11,1216.93 1089.91,1211.58 1100.7,1205.89 1111.5,1199.9 1122.29,1193.75 1133.08,1187.34 1143.88,1180.71 1154.67,1173.57 1165.46,1166.45 
  1176.26,1158.67 1187.05,1150.47 1197.84,1142.03 1208.64,1133.24 1219.43,1124.4 1230.22,1114.92 1241.02,1105.5 1251.81,1095.49 1262.61,1085.05 1273.4,1074.12 
  1284.19,1063.07 1294.99,1051.24 1305.78,1039.91 1316.57,1028.7 1327.37,1017.25 1338.16,1005.7 1348.95,993.711 1359.75,981.631 1370.54,969.009 1381.33,956.074 
  1392.13,942.533 1402.92,929.415 1413.72,916.019 1424.51,902.348 1435.3,887.897 1446.1,873.741 1456.89,858.52 1467.68,842.725 1478.48,826.472 1489.27,809.067 
  1500.06,791.871 1510.86,773.765 1521.65,755.135 1532.44,735.435 1543.24,715.13 1554.03,693.094 1564.83,670.256 1575.62,645.827 1586.41,619.721 1597.21,592.533 
  1608,564.903 1618.79,536.094 1629.59,503.911 1640.38,470.284 1651.17,433.275 1661.97,391.521 1672.76,344.588 1683.55,290.949 1694.35,229.216 1705.14,161.759 
  1715.94,100.635 1726.73,94.2326 1737.52,90.9178 1748.32,89.2577 1759.11,88.2999 1769.9,88.0053 1780.7,88.0143 1791.49,88.3176 1802.28,88.85 1813.08,89.3706 
  1823.87,90.1718 1834.66,90.7607 1845.46,91.6622 1856.25,92.299 1867.05,93.1292 1877.84,93.7557 1888.63,94.3101 1899.43,94.9398 1910.22,95.4163 1921.01,96.0187 
  1931.81,96.2392 1942.6,96.988 1953.39,96.9613 1964.19,97.8527 1974.98,97.8603 1985.77,98.6478 1996.57,98.8399 2007.36,99.4821 2018.16,99.8094 2028.95,100.298 
  2039.74,100.802 2050.54,101.171 2061.33,101.893 2072.12,101.883 2082.92,103.036 2093.71,102.779 2104.5,104.946 2115.3,444.836 2126.09,1446.71 
  "/>
<path clip-path="url(#clip9900)" d="
M266.041 251.724 L773.617 251.724 L773.617 130.764 L266.041 130.764  Z
  " fill="#ffffff" fill-rule="evenodd" fill-opacity="1"/>
<polyline clip-path="url(#clip9900)" style="stroke:#000000; stroke-width:4; stroke-opacity:1; fill:none" points="
  266.041,251.724 773.617,251.724 773.617,130.764 266.041,130.764 266.041,251.724 
  "/>
<polyline clip-path="url(#clip9900)" style="stroke:#000000; stroke-width:4; stroke-opacity:1; fill:none" points="
  290.041,191.244 434.041,191.244 
  "/>
<g clip-path="url(#clip9900)">
<text style="fill:#000000; fill-opacity:1; font-family:Arial,Helvetica Neue,Helvetica,sans-serif; font-size:48px; text-anchor:start;" transform="rotate(0, 458.041, 208.744)" x="458.041" y="208.744">Iteration #30</text>
</g>
</svg>
