<?xml version="1.0" encoding="utf-8"?>
<svg xmlns="http://www.w3.org/2000/svg" xmlns:xlink="http://www.w3.org/1999/xlink" width="600" height="400" viewBox="0 0 2400 1600">
<defs>
  <clipPath id="clip9500">
    <rect x="0" y="0" width="2400" height="1600"/>
  </clipPath>
</defs>
<path clip-path="url(#clip9500)" d="
M0 1600 L2400 1600 L2400 0 L0 0  Z
  " fill="#ffffff" fill-rule="evenodd" fill-opacity="1"/>
<defs>
  <clipPath id="clip9501">
    <rect x="480" y="0" width="1681" height="1600"/>
  </clipPath>
</defs>
<path clip-path="url(#clip9500)" d="
M222.152 1487.47 L2352.76 1487.47 L2352.76 47.2441 L222.152 47.2441  Z
  " fill="#ffffff" fill-rule="evenodd" fill-opacity="1"/>
<defs>
  <clipPath id="clip9502">
    <rect x="222" y="47" width="2132" height="1441"/>
  </clipPath>
</defs>
<polyline clip-path="url(#clip9500)" style="stroke:#000000; stroke-width:4; stroke-opacity:1; fill:none" points="
  222.152,1487.47 2352.76,1487.47 
  "/>
<polyline clip-path="url(#clip9500)" style="stroke:#000000; stroke-width:4; stroke-opacity:1; fill:none" points="
  222.152,1487.47 222.152,47.2441 
  "/>
<polyline clip-path="url(#clip9500)" style="stroke:#000000; stroke-width:4; stroke-opacity:1; fill:none" points="
  222.152,1487.47 222.152,1470.19 
  "/>
<polyline clip-path="url(#clip9500)" style="stroke:#000000; stroke-width:4; stroke-opacity:1; fill:none" points="
  754.803,1487.47 754.803,1470.19 
  "/>
<polyline clip-path="url(#clip9500)" style="stroke:#000000; stroke-width:4; stroke-opacity:1; fill:none" points="
  1287.45,1487.47 1287.45,1470.19 
  "/>
<polyline clip-path="url(#clip9500)" style="stroke:#000000; stroke-width:4; stroke-opacity:1; fill:none" points="
  1820.1,1487.47 1820.1,1470.19 
  "/>
<polyline clip-path="url(#clip9500)" style="stroke:#000000; stroke-width:4; stroke-opacity:1; fill:none" points="
  2352.76,1487.47 2352.76,1470.19 
  "/>
<polyline clip-path="url(#clip9500)" style="stroke:#000000; stroke-width:4; stroke-opacity:1; fill:none" points="
  222.152,1475.04 247.719,1475.04 
  "/>
<polyline clip-path="url(#clip9500)" style="stroke:#000000; stroke-width:4; stroke-opacity:1; fill:none" points="
  222.152,1113.15 247.719,1113.15 
  "/>
<polyline clip-path="url(#clip9500)" style="stroke:#000000; stroke-width:4; stroke-opacity:1; fill:none" points="
  222.152,751.259 247.719,751.259 
  "/>
<polyline clip-path="url(#clip9500)" style="stroke:#000000; stroke-width:4; stroke-opacity:1; fill:none" points="
  222.152,389.369 247.719,389.369 
  "/>
<g clip-path="url(#clip9500)">
<text style="fill:#000000; fill-opacity:1; font-family:Arial,Helvetica Neue,Helvetica,sans-serif; font-size:48px; text-anchor:middle;" transform="rotate(0, 222.152, 1541.47)" x="222.152" y="1541.47">0</text>
</g>
<g clip-path="url(#clip9500)">
<text style="fill:#000000; fill-opacity:1; font-family:Arial,Helvetica Neue,Helvetica,sans-serif; font-size:48px; text-anchor:middle;" transform="rotate(0, 754.803, 1541.47)" x="754.803" y="1541.47">50</text>
</g>
<g clip-path="url(#clip9500)">
<text style="fill:#000000; fill-opacity:1; font-family:Arial,Helvetica Neue,Helvetica,sans-serif; font-size:48px; text-anchor:middle;" transform="rotate(0, 1287.45, 1541.47)" x="1287.45" y="1541.47">100</text>
</g>
<g clip-path="url(#clip9500)">
<text style="fill:#000000; fill-opacity:1; font-family:Arial,Helvetica Neue,Helvetica,sans-serif; font-size:48px; text-anchor:middle;" transform="rotate(0, 1820.1, 1541.47)" x="1820.1" y="1541.47">150</text>
</g>
<g clip-path="url(#clip9500)">
<text style="fill:#000000; fill-opacity:1; font-family:Arial,Helvetica Neue,Helvetica,sans-serif; font-size:48px; text-anchor:middle;" transform="rotate(0, 2352.76, 1541.47)" x="2352.76" y="1541.47">200</text>
</g>
<g clip-path="url(#clip9500)">
<text style="fill:#000000; fill-opacity:1; font-family:Arial,Helvetica Neue,Helvetica,sans-serif; font-size:48px; text-anchor:end;" transform="rotate(0, 198.152, 1492.54)" x="198.152" y="1492.54">-1000</text>
</g>
<g clip-path="url(#clip9500)">
<text style="fill:#000000; fill-opacity:1; font-family:Arial,Helvetica Neue,Helvetica,sans-serif; font-size:48px; text-anchor:end;" transform="rotate(0, 198.152, 1130.65)" x="198.152" y="1130.65">0</text>
</g>
<g clip-path="url(#clip9500)">
<text style="fill:#000000; fill-opacity:1; font-family:Arial,Helvetica Neue,Helvetica,sans-serif; font-size:48px; text-anchor:end;" transform="rotate(0, 198.152, 768.759)" x="198.152" y="768.759">1000</text>
</g>
<g clip-path="url(#clip9500)">
<text style="fill:#000000; fill-opacity:1; font-family:Arial,Helvetica Neue,Helvetica,sans-serif; font-size:48px; text-anchor:end;" transform="rotate(0, 198.152, 406.869)" x="198.152" y="406.869">2000</text>
</g>
<polyline clip-path="url(#clip9502)" style="stroke:#000000; stroke-width:4; stroke-opacity:1; fill:none" points="
  232.805,994.598 243.458,996.849 254.111,999.302 264.764,1000.71 275.417,1002.22 286.07,1004.79 296.723,1007.94 307.376,1010.3 318.029,1012.48 328.682,1014.46 
  339.335,1015.92 349.988,1015.78 360.641,1014.01 371.294,1013.07 381.947,1013.75 392.6,1013.67 403.253,1013.54 413.906,1013.35 424.559,1013.13 435.212,1012.87 
  445.865,1012.59 456.518,1012.42 467.171,1013.06 477.824,1015.13 488.477,1017.63 499.13,1019.9 509.783,1022.35 520.436,1025.01 531.089,1027.92 541.742,1031.13 
  552.395,1034.46 563.048,1037.24 573.701,1038.93 584.354,1039.63 595.007,1039.02 605.66,1037.18 616.313,1034.09 626.966,1030.6 637.619,1027.24 648.272,1023.21 
  658.925,1019.2 669.578,1014.92 680.232,1011.69 690.885,1009.43 701.538,1007.8 712.191,1005.89 722.844,1003.49 733.497,1000.44 744.15,997.798 754.803,995.814 
  765.456,994.648 776.109,993.135 786.762,991.649 797.415,990.196 808.068,988.752 818.721,987.531 829.374,985.646 840.027,982.345 850.68,979.587 861.333,977.511 
  871.986,976.457 882.639,976.189 893.292,976.506 903.945,974.87 914.598,972.023 925.251,969.555 935.904,966.914 946.557,964.013 957.21,961.742 967.863,960.185 
  978.516,958.718 989.169,958.328 999.822,957.08 1010.48,955.513 1021.13,953.63 1031.78,951.403 1042.43,948.732 1053.09,945.884 1063.74,943.529 1074.39,941.846 
  1085.05,938.98 1095.7,935.632 1106.35,931.537 1117.01,926.806 1127.66,921.542 1138.31,917.248 1148.96,914.225 1159.62,910.095 1170.27,905.689 1180.92,902.386 
  1191.58,897.096 1202.23,890.49 1212.88,883.597 1223.54,877.896 1234.19,873.099 1244.84,866.859 1255.49,862.43 1266.15,857.083 1276.8,849.567 1287.45,841.59 
  1298.11,833.604 1308.76,824.186 1319.41,818.594 1330.07,816.872 1340.72,815.133 1351.37,813.514 1362.02,812.174 1372.68,809.61 1383.33,807.628 1393.98,803.349 
  1404.64,798.631 1415.29,796.9 1425.94,796.72 1436.6,794.562 1447.25,791.921 1457.9,790.488 1468.56,786.622 1479.21,781.435 1489.86,775.076 1500.51,766.985 
  1511.17,759.467 1521.82,752.734 1532.47,743.872 1543.13,734.154 1553.78,723.465 1564.43,709.499 1575.09,694.663 1585.74,677.699 1596.39,658.073 1607.04,638.238 
  1617.7,622.248 1628.35,605.184 1639,584.596 1649.66,563.696 1660.31,540.788 1670.96,512.722 1681.62,481.551 1692.27,446.944 1702.92,409.634 1713.57,368.894 
  1724.23,328.045 1734.88,303.988 1745.53,281.515 1756.19,258.886 1766.84,236.993 1777.49,214.99 1788.15,194.898 1798.8,175.864 1809.45,158.447 1820.1,141.321 
  1830.76,127.09 1841.41,115.808 1852.06,103.885 1862.72,95.6246 1873.37,88.0474 1884.02,88.0053 1894.68,88.6214 1905.33,93.0663 1915.98,95.3638 1926.64,103.098 
  1937.29,110.315 1947.94,119.358 1958.59,128.688 1969.25,132.865 1979.9,142.049 1990.55,146.937 2001.21,154.518 2011.86,158.602 2022.51,165.448 2033.17,168.115 
  2043.82,173.706 2054.47,176.389 2065.12,180.54 2075.78,188.367 2086.43,189.959 2097.08,202.383 2107.74,209.051 2118.39,682.314 2129.04,1446.71 
  "/>
<path clip-path="url(#clip9500)" d="
M294.152 251.724 L828.489 251.724 L828.489 130.764 L294.152 130.764  Z
  " fill="#ffffff" fill-rule="evenodd" fill-opacity="1"/>
<polyline clip-path="url(#clip9500)" style="stroke:#000000; stroke-width:4; stroke-opacity:1; fill:none" points="
  294.152,251.724 828.489,251.724 828.489,130.764 294.152,130.764 294.152,251.724 
  "/>
<polyline clip-path="url(#clip9500)" style="stroke:#000000; stroke-width:4; stroke-opacity:1; fill:none" points="
  318.152,191.244 462.152,191.244 
  "/>
<g clip-path="url(#clip9500)">
<text style="fill:#000000; fill-opacity:1; font-family:Arial,Helvetica Neue,Helvetica,sans-serif; font-size:48px; text-anchor:start;" transform="rotate(0, 486.152, 208.744)" x="486.152" y="208.744">Iteration #190</text>
</g>
</svg>
