<?xml version="1.0" encoding="utf-8"?>
<svg xmlns="http://www.w3.org/2000/svg" xmlns:xlink="http://www.w3.org/1999/xlink" width="600" height="400" viewBox="0 0 2400 1600">
<defs>
  <clipPath id="clip2500">
    <rect x="0" y="0" width="2400" height="1600"/>
  </clipPath>
</defs>
<path clip-path="url(#clip2500)" d="
M0 1600 L2400 1600 L2400 0 L0 0  Z
  " fill="#ffffff" fill-rule="evenodd" fill-opacity="1"/>
<defs>
  <clipPath id="clip2501">
    <rect x="480" y="0" width="1681" height="1600"/>
  </clipPath>
</defs>
<path clip-path="url(#clip2500)" d="
M222.152 1487.47 L2352.76 1487.47 L2352.76 47.2441 L222.152 47.2441  Z
  " fill="#ffffff" fill-rule="evenodd" fill-opacity="1"/>
<defs>
  <clipPath id="clip2502">
    <rect x="222" y="47" width="2132" height="1441"/>
  </clipPath>
</defs>
<polyline clip-path="url(#clip2500)" style="stroke:#000000; stroke-width:4; stroke-opacity:1; fill:none" points="
  222.152,1487.47 2352.76,1487.47 
  "/>
<polyline clip-path="url(#clip2500)" style="stroke:#000000; stroke-width:4; stroke-opacity:1; fill:none" points="
  222.152,1487.47 222.152,47.2441 
  "/>
<polyline clip-path="url(#clip2500)" style="stroke:#000000; stroke-width:4; stroke-opacity:1; fill:none" points="
  222.152,1487.47 222.152,1470.19 
  "/>
<polyline clip-path="url(#clip2500)" style="stroke:#000000; stroke-width:4; stroke-opacity:1; fill:none" points="
  754.803,1487.47 754.803,1470.19 
  "/>
<polyline clip-path="url(#clip2500)" style="stroke:#000000; stroke-width:4; stroke-opacity:1; fill:none" points="
  1287.45,1487.47 1287.45,1470.19 
  "/>
<polyline clip-path="url(#clip2500)" style="stroke:#000000; stroke-width:4; stroke-opacity:1; fill:none" points="
  1820.1,1487.47 1820.1,1470.19 
  "/>
<polyline clip-path="url(#clip2500)" style="stroke:#000000; stroke-width:4; stroke-opacity:1; fill:none" points="
  2352.76,1487.47 2352.76,1470.19 
  "/>
<polyline clip-path="url(#clip2500)" style="stroke:#000000; stroke-width:4; stroke-opacity:1; fill:none" points="
  222.152,1414.43 247.719,1414.43 
  "/>
<polyline clip-path="url(#clip2500)" style="stroke:#000000; stroke-width:4; stroke-opacity:1; fill:none" points="
  222.152,1093.53 247.719,1093.53 
  "/>
<polyline clip-path="url(#clip2500)" style="stroke:#000000; stroke-width:4; stroke-opacity:1; fill:none" points="
  222.152,772.627 247.719,772.627 
  "/>
<polyline clip-path="url(#clip2500)" style="stroke:#000000; stroke-width:4; stroke-opacity:1; fill:none" points="
  222.152,451.728 247.719,451.728 
  "/>
<polyline clip-path="url(#clip2500)" style="stroke:#000000; stroke-width:4; stroke-opacity:1; fill:none" points="
  222.152,130.829 247.719,130.829 
  "/>
<g clip-path="url(#clip2500)">
<text style="fill:#000000; fill-opacity:1; font-family:Arial,Helvetica Neue,Helvetica,sans-serif; font-size:48px; text-anchor:middle;" transform="rotate(0, 222.152, 1541.47)" x="222.152" y="1541.47">0</text>
</g>
<g clip-path="url(#clip2500)">
<text style="fill:#000000; fill-opacity:1; font-family:Arial,Helvetica Neue,Helvetica,sans-serif; font-size:48px; text-anchor:middle;" transform="rotate(0, 754.803, 1541.47)" x="754.803" y="1541.47">50</text>
</g>
<g clip-path="url(#clip2500)">
<text style="fill:#000000; fill-opacity:1; font-family:Arial,Helvetica Neue,Helvetica,sans-serif; font-size:48px; text-anchor:middle;" transform="rotate(0, 1287.45, 1541.47)" x="1287.45" y="1541.47">100</text>
</g>
<g clip-path="url(#clip2500)">
<text style="fill:#000000; fill-opacity:1; font-family:Arial,Helvetica Neue,Helvetica,sans-serif; font-size:48px; text-anchor:middle;" transform="rotate(0, 1820.1, 1541.47)" x="1820.1" y="1541.47">150</text>
</g>
<g clip-path="url(#clip2500)">
<text style="fill:#000000; fill-opacity:1; font-family:Arial,Helvetica Neue,Helvetica,sans-serif; font-size:48px; text-anchor:middle;" transform="rotate(0, 2352.76, 1541.47)" x="2352.76" y="1541.47">200</text>
</g>
<g clip-path="url(#clip2500)">
<text style="fill:#000000; fill-opacity:1; font-family:Arial,Helvetica Neue,Helvetica,sans-serif; font-size:48px; text-anchor:end;" transform="rotate(0, 198.152, 1431.93)" x="198.152" y="1431.93">-1000</text>
</g>
<g clip-path="url(#clip2500)">
<text style="fill:#000000; fill-opacity:1; font-family:Arial,Helvetica Neue,Helvetica,sans-serif; font-size:48px; text-anchor:end;" transform="rotate(0, 198.152, 1111.03)" x="198.152" y="1111.03">0</text>
</g>
<g clip-path="url(#clip2500)">
<text style="fill:#000000; fill-opacity:1; font-family:Arial,Helvetica Neue,Helvetica,sans-serif; font-size:48px; text-anchor:end;" transform="rotate(0, 198.152, 790.127)" x="198.152" y="790.127">1000</text>
</g>
<g clip-path="url(#clip2500)">
<text style="fill:#000000; fill-opacity:1; font-family:Arial,Helvetica Neue,Helvetica,sans-serif; font-size:48px; text-anchor:end;" transform="rotate(0, 198.152, 469.228)" x="198.152" y="469.228">2000</text>
</g>
<g clip-path="url(#clip2500)">
<text style="fill:#000000; fill-opacity:1; font-family:Arial,Helvetica Neue,Helvetica,sans-serif; font-size:48px; text-anchor:end;" transform="rotate(0, 198.152, 148.329)" x="198.152" y="148.329">3000</text>
</g>
<polyline clip-path="url(#clip2502)" style="stroke:#000000; stroke-width:4; stroke-opacity:1; fill:none" points="
  232.805,985.034 243.458,987.816 254.111,990.777 264.764,992.361 275.417,994.013 286.07,997.007 296.723,1000.71 307.376,1003.4 318.029,1005.85 328.682,1008.06 
  339.335,1009.61 349.988,1009.14 360.641,1006.56 371.294,1005.09 381.947,1005.67 392.6,1005.3 403.253,1004.85 413.906,1004.32 424.559,1003.73 435.212,1003.09 
  445.865,1002.41 456.518,1001.85 467.171,1002.31 477.824,1004.59 488.477,1007.4 499.13,1009.92 509.783,1012.67 520.436,1015.71 531.089,1019.11 541.742,1022.91 
  552.395,1026.95 563.048,1030.34 573.701,1032.43 584.354,1033.35 595.007,1032.68 605.66,1030.55 616.313,1026.9 626.966,1022.85 637.619,1019.06 648.272,1014.48 
  658.925,1009.98 669.578,1005.2 680.232,1001.8 690.885,999.671 701.538,998.376 712.191,996.747 722.844,994.499 733.497,991.425 744.15,988.883 754.803,987.183 
  765.456,986.527 776.109,985.424 786.762,984.352 797.415,983.314 808.068,982.29 818.721,981.551 829.374,979.964 840.027,976.549 850.68,973.842 861.333,971.977 
  871.986,971.414 882.639,971.84 893.292,973.015 903.945,971.696 914.598,968.828 925.251,966.473 935.904,963.883 946.557,960.976 957.21,958.858 967.863,957.659 
  978.516,956.562 989.169,956.866 999.822,956.066 1010.48,954.902 1021.13,953.358 1031.78,951.413 1042.43,948.954 1053.09,946.288 1063.74,944.339 1074.39,943.267 
  1085.05,940.78 1095.7,937.715 1106.35,933.798 1117.01,929.108 1127.66,923.825 1138.31,919.812 1148.96,917.5 1159.62,913.805 1170.27,909.827 1180.92,907.318 
  1191.58,902.316 1202.23,895.739 1212.88,888.764 1223.54,883.425 1234.19,879.178 1244.84,873.182 1255.49,869.436 1266.15,864.606 1276.8,856.953 1287.45,848.765 
  1298.11,840.474 1308.76,830.376 1319.41,825.048 1330.07,824.578 1340.72,824.07 1351.37,823.615 1362.02,823.606 1372.68,821.948 1383.33,821.189 1393.98,817.466 
  1404.64,813.339 1415.29,813.045 1425.94,814.919 1436.6,814.319 1447.25,813.385 1457.9,814.115 1468.56,812.024 1479.21,808.511 1489.86,803.739 1500.51,797.107 
  1511.17,791.399 1521.82,787.113 1532.47,780.321 1543.13,772.824 1553.78,764.361 1564.43,752.077 1575.09,738.945 1585.74,723.448 1596.39,704.754 1607.04,686.103 
  1617.7,672.713 1628.35,658.144 1639,639.451 1649.66,620.576 1660.31,599.571 1670.96,572.301 1681.62,541.645 1692.27,507.236 1702.92,470.445 1713.57,429.654 
  1724.23,387.483 1734.88,358.946 1745.53,331.658 1756.19,303.895 1766.84,276.508 1777.49,248.977 1788.15,223.48 1798.8,199.541 1809.45,177.274 1820.1,155.643 
  1830.76,137.324 1841.41,123.11 1852.06,108.27 1862.72,97.3405 1873.37,88.3369 1884.02,88.0053 1894.68,89.4677 1905.33,94.8138 1915.98,98.5315 1926.64,107.615 
  1937.29,117.562 1947.94,128.512 1958.59,140.323 1969.25,145.808 1979.9,156.938 1990.55,163.217 2001.21,172.214 2011.86,177.52 2022.51,185.374 2033.17,189.004 
  2043.82,194.976 2054.47,198.968 2065.12,203.114 2075.78,212.622 2086.43,214.544 2097.08,228.336 2107.74,238.029 2118.39,660.491 2129.04,1446.71 
  "/>
<path clip-path="url(#clip2500)" d="
M294.152 251.724 L828.489 251.724 L828.489 130.764 L294.152 130.764  Z
  " fill="#ffffff" fill-rule="evenodd" fill-opacity="1"/>
<polyline clip-path="url(#clip2500)" style="stroke:#000000; stroke-width:4; stroke-opacity:1; fill:none" points="
  294.152,251.724 828.489,251.724 828.489,130.764 294.152,130.764 294.152,251.724 
  "/>
<polyline clip-path="url(#clip2500)" style="stroke:#000000; stroke-width:4; stroke-opacity:1; fill:none" points="
  318.152,191.244 462.152,191.244 
  "/>
<g clip-path="url(#clip2500)">
<text style="fill:#000000; fill-opacity:1; font-family:Arial,Helvetica Neue,Helvetica,sans-serif; font-size:48px; text-anchor:start;" transform="rotate(0, 486.152, 208.744)" x="486.152" y="208.744">Iteration #240</text>
</g>
</svg>
