<?xml version="1.0" encoding="utf-8"?>
<svg xmlns="http://www.w3.org/2000/svg" xmlns:xlink="http://www.w3.org/1999/xlink" width="600" height="400" viewBox="0 0 2400 1600">
<defs>
  <clipPath id="clip7300">
    <rect x="0" y="0" width="2400" height="1600"/>
  </clipPath>
</defs>
<path clip-path="url(#clip7300)" d="
M0 1600 L2400 1600 L2400 0 L0 0  Z
  " fill="#ffffff" fill-rule="evenodd" fill-opacity="1"/>
<defs>
  <clipPath id="clip7301">
    <rect x="480" y="0" width="1681" height="1600"/>
  </clipPath>
</defs>
<path clip-path="url(#clip7300)" d="
M222.152 1487.47 L2352.76 1487.47 L2352.76 47.2441 L222.152 47.2441  Z
  " fill="#ffffff" fill-rule="evenodd" fill-opacity="1"/>
<defs>
  <clipPath id="clip7302">
    <rect x="222" y="47" width="2132" height="1441"/>
  </clipPath>
</defs>
<polyline clip-path="url(#clip7300)" style="stroke:#000000; stroke-width:4; stroke-opacity:1; fill:none" points="
  222.152,1487.47 2352.76,1487.47 
  "/>
<polyline clip-path="url(#clip7300)" style="stroke:#000000; stroke-width:4; stroke-opacity:1; fill:none" points="
  222.152,1487.47 222.152,47.2441 
  "/>
<polyline clip-path="url(#clip7300)" style="stroke:#000000; stroke-width:4; stroke-opacity:1; fill:none" points="
  222.152,1487.47 222.152,1470.19 
  "/>
<polyline clip-path="url(#clip7300)" style="stroke:#000000; stroke-width:4; stroke-opacity:1; fill:none" points="
  754.803,1487.47 754.803,1470.19 
  "/>
<polyline clip-path="url(#clip7300)" style="stroke:#000000; stroke-width:4; stroke-opacity:1; fill:none" points="
  1287.45,1487.47 1287.45,1470.19 
  "/>
<polyline clip-path="url(#clip7300)" style="stroke:#000000; stroke-width:4; stroke-opacity:1; fill:none" points="
  1820.1,1487.47 1820.1,1470.19 
  "/>
<polyline clip-path="url(#clip7300)" style="stroke:#000000; stroke-width:4; stroke-opacity:1; fill:none" points="
  2352.76,1487.47 2352.76,1470.19 
  "/>
<polyline clip-path="url(#clip7300)" style="stroke:#000000; stroke-width:4; stroke-opacity:1; fill:none" points="
  222.152,1353.2 247.719,1353.2 
  "/>
<polyline clip-path="url(#clip7300)" style="stroke:#000000; stroke-width:4; stroke-opacity:1; fill:none" points="
  222.152,1076.38 247.719,1076.38 
  "/>
<polyline clip-path="url(#clip7300)" style="stroke:#000000; stroke-width:4; stroke-opacity:1; fill:none" points="
  222.152,799.562 247.719,799.562 
  "/>
<polyline clip-path="url(#clip7300)" style="stroke:#000000; stroke-width:4; stroke-opacity:1; fill:none" points="
  222.152,522.743 247.719,522.743 
  "/>
<polyline clip-path="url(#clip7300)" style="stroke:#000000; stroke-width:4; stroke-opacity:1; fill:none" points="
  222.152,245.923 247.719,245.923 
  "/>
<g clip-path="url(#clip7300)">
<text style="fill:#000000; fill-opacity:1; font-family:Arial,Helvetica Neue,Helvetica,sans-serif; font-size:48px; text-anchor:middle;" transform="rotate(0, 222.152, 1541.47)" x="222.152" y="1541.47">0</text>
</g>
<g clip-path="url(#clip7300)">
<text style="fill:#000000; fill-opacity:1; font-family:Arial,Helvetica Neue,Helvetica,sans-serif; font-size:48px; text-anchor:middle;" transform="rotate(0, 754.803, 1541.47)" x="754.803" y="1541.47">50</text>
</g>
<g clip-path="url(#clip7300)">
<text style="fill:#000000; fill-opacity:1; font-family:Arial,Helvetica Neue,Helvetica,sans-serif; font-size:48px; text-anchor:middle;" transform="rotate(0, 1287.45, 1541.47)" x="1287.45" y="1541.47">100</text>
</g>
<g clip-path="url(#clip7300)">
<text style="fill:#000000; fill-opacity:1; font-family:Arial,Helvetica Neue,Helvetica,sans-serif; font-size:48px; text-anchor:middle;" transform="rotate(0, 1820.1, 1541.47)" x="1820.1" y="1541.47">150</text>
</g>
<g clip-path="url(#clip7300)">
<text style="fill:#000000; fill-opacity:1; font-family:Arial,Helvetica Neue,Helvetica,sans-serif; font-size:48px; text-anchor:middle;" transform="rotate(0, 2352.76, 1541.47)" x="2352.76" y="1541.47">200</text>
</g>
<g clip-path="url(#clip7300)">
<text style="fill:#000000; fill-opacity:1; font-family:Arial,Helvetica Neue,Helvetica,sans-serif; font-size:48px; text-anchor:end;" transform="rotate(0, 198.152, 1370.7)" x="198.152" y="1370.7">-1000</text>
</g>
<g clip-path="url(#clip7300)">
<text style="fill:#000000; fill-opacity:1; font-family:Arial,Helvetica Neue,Helvetica,sans-serif; font-size:48px; text-anchor:end;" transform="rotate(0, 198.152, 1093.88)" x="198.152" y="1093.88">0</text>
</g>
<g clip-path="url(#clip7300)">
<text style="fill:#000000; fill-opacity:1; font-family:Arial,Helvetica Neue,Helvetica,sans-serif; font-size:48px; text-anchor:end;" transform="rotate(0, 198.152, 817.062)" x="198.152" y="817.062">1000</text>
</g>
<g clip-path="url(#clip7300)">
<text style="fill:#000000; fill-opacity:1; font-family:Arial,Helvetica Neue,Helvetica,sans-serif; font-size:48px; text-anchor:end;" transform="rotate(0, 198.152, 540.243)" x="198.152" y="540.243">2000</text>
</g>
<g clip-path="url(#clip7300)">
<text style="fill:#000000; fill-opacity:1; font-family:Arial,Helvetica Neue,Helvetica,sans-serif; font-size:48px; text-anchor:end;" transform="rotate(0, 198.152, 263.423)" x="198.152" y="263.423">3000</text>
</g>
<polyline clip-path="url(#clip7302)" style="stroke:#000000; stroke-width:4; stroke-opacity:1; fill:none" points="
  232.805,978.933 243.458,982.502 254.111,986.178 264.764,987.921 275.417,989.684 286.07,993.213 296.723,997.677 307.376,1000.77 318.029,1003.56 328.682,1006.07 
  339.335,1007.74 349.988,1006.73 360.641,1002.93 371.294,1000.64 381.947,1001.15 392.6,1000.37 403.253,999.481 413.906,998.475 424.559,997.369 435.212,996.159 
  445.865,994.86 456.518,993.66 467.171,993.783 477.824,996.293 488.477,999.48 499.13,1002.24 509.783,1005.29 520.436,1008.73 531.089,1012.68 541.742,1017.25 
  552.395,1022.21 563.048,1026.42 573.701,1029.04 584.354,1030.23 595.007,1029.48 605.66,1026.93 616.313,1022.53 626.966,1017.74 637.619,1013.45 648.272,1008.21 
  658.925,1003.17 669.578,997.795 680.232,994.323 690.885,992.584 701.538,991.957 712.191,990.88 722.844,988.955 733.497,985.892 744.15,983.526 754.803,982.257 
  765.456,982.361 776.109,981.82 786.762,981.295 797.415,980.78 808.068,980.271 818.721,980.132 829.374,978.85 840.027,975.066 850.68,972.244 861.333,970.498 
  871.986,970.479 882.639,971.757 893.292,974.041 903.945,972.979 914.598,969.838 925.251,967.436 935.904,964.705 946.557,961.562 957.21,959.452 967.863,958.581 
  978.516,957.809 989.169,958.961 999.822,958.612 1010.48,957.84 1021.13,956.599 1031.78,954.889 1042.43,952.569 1053.09,950.011 1063.74,948.538 1074.39,948.293 
  1085.05,946.286 1095.7,943.575 1106.35,939.88 1117.01,935.211 1127.66,929.874 1138.31,926.279 1148.96,925.088 1159.62,922.062 1170.27,918.764 1180.92,917.531 
  1191.58,913.019 1202.23,906.521 1212.88,899.46 1223.54,894.725 1234.19,891.369 1244.84,885.737 1255.49,883.04 1266.15,878.973 1276.8,870.989 1287.45,862.321 
  1298.11,853.318 1308.76,841.81 1319.41,836.432 1330.07,837.37 1340.72,838.074 1351.37,838.635 1362.02,839.784 1372.68,838.539 1383.33,838.618 1393.98,834.603 
  1404.64,830.173 1415.29,830.836 1425.94,834.603 1436.6,835.055 1447.25,835.416 1457.9,838.161 1468.56,837.527 1479.21,835.344 1489.86,831.872 1500.51,826.396 
  1511.17,822.522 1521.82,821.175 1532.47,816.862 1543.13,812.253 1553.78,806.852 1564.43,796.954 1575.09,786.435 1585.74,773.388 1596.39,756.424 1607.04,740.114 
  1617.7,731.46 1628.35,721.661 1639,706.884 1649.66,692.318 1660.31,675.522 1670.96,650.75 1681.62,622.091 1692.27,589.131 1702.92,554.134 1713.57,514.066 
  1724.23,470.572 1734.88,436.557 1745.53,403.212 1756.19,368.604 1766.84,333.741 1777.49,298.363 1788.15,265.138 1798.8,234.215 1809.45,204.707 1820.1,176.504 
  1830.76,152.205 1841.41,133.683 1852.06,114.316 1862.72,99.9161 1873.37,88.4761 1884.02,88.0053 1894.68,90.9808 1905.33,97.3357 1915.98,103.524 1926.64,114.132 
  1937.29,128.27 1947.94,142.004 1958.59,157.627 1969.25,164.402 1979.9,178.608 1990.55,186.673 2001.21,197.356 2011.86,204.834 2022.51,213.276 2033.17,219.132 
  2043.82,224.447 2054.47,230.81 2065.12,234.253 2075.78,246.367 2086.43,248.798 2097.08,263.717 2107.74,277.529 2118.39,656.095 2129.04,1446.71 
  "/>
<path clip-path="url(#clip7300)" d="
M294.152 251.724 L828.489 251.724 L828.489 130.764 L294.152 130.764  Z
  " fill="#ffffff" fill-rule="evenodd" fill-opacity="1"/>
<polyline clip-path="url(#clip7300)" style="stroke:#000000; stroke-width:4; stroke-opacity:1; fill:none" points="
  294.152,251.724 828.489,251.724 828.489,130.764 294.152,130.764 294.152,251.724 
  "/>
<polyline clip-path="url(#clip7300)" style="stroke:#000000; stroke-width:4; stroke-opacity:1; fill:none" points="
  318.152,191.244 462.152,191.244 
  "/>
<g clip-path="url(#clip7300)">
<text style="fill:#000000; fill-opacity:1; font-family:Arial,Helvetica Neue,Helvetica,sans-serif; font-size:48px; text-anchor:start;" transform="rotate(0, 486.152, 208.744)" x="486.152" y="208.744">Iteration #320</text>
</g>
</svg>
