<?xml version="1.0" encoding="utf-8"?>
<svg xmlns="http://www.w3.org/2000/svg" xmlns:xlink="http://www.w3.org/1999/xlink" width="600" height="400" viewBox="0 0 2400 1600">
<defs>
  <clipPath id="clip2300">
    <rect x="0" y="0" width="2400" height="1600"/>
  </clipPath>
</defs>
<path clip-path="url(#clip2300)" d="
M0 1600 L2400 1600 L2400 0 L0 0  Z
  " fill="#ffffff" fill-rule="evenodd" fill-opacity="1"/>
<defs>
  <clipPath id="clip2301">
    <rect x="480" y="0" width="1681" height="1600"/>
  </clipPath>
</defs>
<path clip-path="url(#clip2300)" d="
M194.041 1487.47 L2352.76 1487.47 L2352.76 47.2441 L194.041 47.2441  Z
  " fill="#ffffff" fill-rule="evenodd" fill-opacity="1"/>
<defs>
  <clipPath id="clip2302">
    <rect x="194" y="47" width="2160" height="1441"/>
  </clipPath>
</defs>
<polyline clip-path="url(#clip2300)" style="stroke:#000000; stroke-width:4; stroke-opacity:1; fill:none" points="
  194.041,1487.47 2352.76,1487.47 
  "/>
<polyline clip-path="url(#clip2300)" style="stroke:#000000; stroke-width:4; stroke-opacity:1; fill:none" points="
  194.041,1487.47 194.041,47.2441 
  "/>
<polyline clip-path="url(#clip2300)" style="stroke:#000000; stroke-width:4; stroke-opacity:1; fill:none" points="
  194.041,1487.47 194.041,1470.19 
  "/>
<polyline clip-path="url(#clip2300)" style="stroke:#000000; stroke-width:4; stroke-opacity:1; fill:none" points="
  733.72,1487.47 733.72,1470.19 
  "/>
<polyline clip-path="url(#clip2300)" style="stroke:#000000; stroke-width:4; stroke-opacity:1; fill:none" points="
  1273.4,1487.47 1273.4,1470.19 
  "/>
<polyline clip-path="url(#clip2300)" style="stroke:#000000; stroke-width:4; stroke-opacity:1; fill:none" points="
  1813.08,1487.47 1813.08,1470.19 
  "/>
<polyline clip-path="url(#clip2300)" style="stroke:#000000; stroke-width:4; stroke-opacity:1; fill:none" points="
  2352.76,1487.47 2352.76,1470.19 
  "/>
<polyline clip-path="url(#clip2300)" style="stroke:#000000; stroke-width:4; stroke-opacity:1; fill:none" points="
  194.041,1252.86 219.946,1252.86 
  "/>
<polyline clip-path="url(#clip2300)" style="stroke:#000000; stroke-width:4; stroke-opacity:1; fill:none" points="
  194.041,961.319 219.946,961.319 
  "/>
<polyline clip-path="url(#clip2300)" style="stroke:#000000; stroke-width:4; stroke-opacity:1; fill:none" points="
  194.041,669.778 219.946,669.778 
  "/>
<polyline clip-path="url(#clip2300)" style="stroke:#000000; stroke-width:4; stroke-opacity:1; fill:none" points="
  194.041,378.237 219.946,378.237 
  "/>
<polyline clip-path="url(#clip2300)" style="stroke:#000000; stroke-width:4; stroke-opacity:1; fill:none" points="
  194.041,86.6959 219.946,86.6959 
  "/>
<g clip-path="url(#clip2300)">
<text style="fill:#000000; fill-opacity:1; font-family:Arial,Helvetica Neue,Helvetica,sans-serif; font-size:48px; text-anchor:middle;" transform="rotate(0, 194.041, 1541.47)" x="194.041" y="1541.47">0</text>
</g>
<g clip-path="url(#clip2300)">
<text style="fill:#000000; fill-opacity:1; font-family:Arial,Helvetica Neue,Helvetica,sans-serif; font-size:48px; text-anchor:middle;" transform="rotate(0, 733.72, 1541.47)" x="733.72" y="1541.47">50</text>
</g>
<g clip-path="url(#clip2300)">
<text style="fill:#000000; fill-opacity:1; font-family:Arial,Helvetica Neue,Helvetica,sans-serif; font-size:48px; text-anchor:middle;" transform="rotate(0, 1273.4, 1541.47)" x="1273.4" y="1541.47">100</text>
</g>
<g clip-path="url(#clip2300)">
<text style="fill:#000000; fill-opacity:1; font-family:Arial,Helvetica Neue,Helvetica,sans-serif; font-size:48px; text-anchor:middle;" transform="rotate(0, 1813.08, 1541.47)" x="1813.08" y="1541.47">150</text>
</g>
<g clip-path="url(#clip2300)">
<text style="fill:#000000; fill-opacity:1; font-family:Arial,Helvetica Neue,Helvetica,sans-serif; font-size:48px; text-anchor:middle;" transform="rotate(0, 2352.76, 1541.47)" x="2352.76" y="1541.47">200</text>
</g>
<g clip-path="url(#clip2300)">
<text style="fill:#000000; fill-opacity:1; font-family:Arial,Helvetica Neue,Helvetica,sans-serif; font-size:48px; text-anchor:end;" transform="rotate(0, 170.041, 1270.36)" x="170.041" y="1270.36">0</text>
</g>
<g clip-path="url(#clip2300)">
<text style="fill:#000000; fill-opacity:1; font-family:Arial,Helvetica Neue,Helvetica,sans-serif; font-size:48px; text-anchor:end;" transform="rotate(0, 170.041, 978.819)" x="170.041" y="978.819">500</text>
</g>
<g clip-path="url(#clip2300)">
<text style="fill:#000000; fill-opacity:1; font-family:Arial,Helvetica Neue,Helvetica,sans-serif; font-size:48px; text-anchor:end;" transform="rotate(0, 170.041, 687.278)" x="170.041" y="687.278">1000</text>
</g>
<g clip-path="url(#clip2300)">
<text style="fill:#000000; fill-opacity:1; font-family:Arial,Helvetica Neue,Helvetica,sans-serif; font-size:48px; text-anchor:end;" transform="rotate(0, 170.041, 395.737)" x="170.041" y="395.737">1500</text>
</g>
<g clip-path="url(#clip2300)">
<text style="fill:#000000; fill-opacity:1; font-family:Arial,Helvetica Neue,Helvetica,sans-serif; font-size:48px; text-anchor:end;" transform="rotate(0, 170.041, 104.196)" x="170.041" y="104.196">2000</text>
</g>
<polyline clip-path="url(#clip2302)" style="stroke:#000000; stroke-width:4; stroke-opacity:1; fill:none" points="
  204.835,1094.2 215.629,1094.96 226.422,1095.78 237.216,1096.32 248.009,1096.92 258.803,1097.86 269.596,1098.97 280.39,1099.86 291.184,1100.72 301.977,1101.5 
  312.771,1102.15 323.564,1102.3 334.358,1101.98 345.151,1101.9 355.945,1102.28 366.739,1102.43 377.532,1102.56 388.326,1102.66 399.119,1102.74 409.913,1102.8 
  420.706,1102.85 431.5,1102.91 442.294,1103.2 453.087,1103.88 463.881,1104.67 474.674,1105.37 485.468,1106.08 496.262,1106.82 507.055,1107.59 517.849,1108.38 
  528.642,1109.14 539.436,1109.68 550.229,1109.82 561.023,1109.59 571.817,1108.88 582.61,1107.74 593.404,1106.13 604.197,1104.31 614.991,1102.44 625.784,1100.28 
  636.578,1098.04 647.372,1095.63 658.165,1093.45 668.959,1091.45 679.752,1089.59 690.546,1087.53 701.339,1085.28 712.133,1082.76 722.927,1080.28 733.72,1077.91 
  744.514,1075.72 755.307,1073.34 766.101,1070.89 776.894,1068.38 787.688,1065.79 798.482,1063.18 809.275,1060.27 820.069,1056.91 830.862,1053.54 841.656,1050.37 
  852.449,1047.35 863.243,1044.52 874.037,1041.73 884.83,1038.27 895.624,1034.36 906.417,1030.41 917.211,1026.34 928.004,1022.03 938.798,1017.83 949.592,1013.69 
  960.385,1009.5 971.179,1005.43 981.972,1001.05 992.766,996.345 1003.56,991.457 1014.35,986.267 1025.15,980.766 1035.94,975.104 1046.73,969.32 1057.53,963.666 
  1068.32,957.359 1079.11,950.828 1089.91,943.767 1100.7,936.434 1111.5,928.642 1122.29,921.075 1133.08,913.614 1143.88,905.744 1154.67,897.548 1165.46,889.561 
  1176.26,880.822 1187.05,871.404 1197.84,861.981 1208.64,852.544 1219.43,843.536 1230.22,833.723 1241.02,824.634 1251.81,814.916 1262.61,804.69 1273.4,794.06 
  1284.19,783.619 1294.99,772.475 1305.78,762.645 1316.57,753.955 1327.37,745.149 1338.16,736.546 1348.95,727.741 1359.75,718.832 1370.54,709.731 1381.33,700.162 
  1392.13,690.144 1402.92,681.185 1413.72,672.324 1424.51,663.119 1435.3,653.301 1446.1,644.014 1456.89,633.673 1467.68,622.784 1478.48,611.485 1489.27,599.239 
  1500.06,587.327 1510.86,575.054 1521.65,562.215 1532.44,548.649 1543.24,534.693 1554.03,519.236 1564.83,503.344 1575.62,486.238 1586.41,468.015 1597.21,449.193 
  1608,430.99 1618.79,412.079 1629.59,390.927 1640.38,369.106 1651.17,345.314 1661.97,318.38 1672.76,288.355 1683.55,254.587 1694.35,216.243 1705.14,174.751 
  1715.94,136.315 1726.73,128.469 1737.52,122.428 1748.32,117.25 1759.11,112.692 1769.9,108.393 1780.7,104.726 1791.49,101.302 1802.28,98.4992 1813.08,95.4719 
  1823.87,93.4714 1834.66,91.5686 1845.46,90.071 1856.25,88.8521 1867.05,88.0053 1877.84,88.4973 1888.63,89.0651 1899.43,90.665 1910.22,91.383 1921.01,93.9015 
  1931.81,95.3768 1942.6,98.5426 1953.39,100.24 1964.19,102.351 1974.98,104.463 1985.77,106.421 1996.57,108.443 2007.36,110.225 2018.16,112.345 2028.95,113.31 
  2039.74,115.743 2050.54,116.143 2061.33,119.082 2072.12,119.917 2082.92,122.789 2093.71,124.782 2104.5,129.949 2115.3,637.912 2126.09,1446.71 
  "/>
<path clip-path="url(#clip2300)" d="
M266.041 251.724 L773.617 251.724 L773.617 130.764 L266.041 130.764  Z
  " fill="#ffffff" fill-rule="evenodd" fill-opacity="1"/>
<polyline clip-path="url(#clip2300)" style="stroke:#000000; stroke-width:4; stroke-opacity:1; fill:none" points="
  266.041,251.724 773.617,251.724 773.617,130.764 266.041,130.764 266.041,251.724 
  "/>
<polyline clip-path="url(#clip2300)" style="stroke:#000000; stroke-width:4; stroke-opacity:1; fill:none" points="
  290.041,191.244 434.041,191.244 
  "/>
<g clip-path="url(#clip2300)">
<text style="fill:#000000; fill-opacity:1; font-family:Arial,Helvetica Neue,Helvetica,sans-serif; font-size:48px; text-anchor:start;" transform="rotate(0, 458.041, 208.744)" x="458.041" y="208.744">Iteration #70</text>
</g>
</svg>
