<?xml version="1.0" encoding="utf-8"?>
<svg xmlns="http://www.w3.org/2000/svg" xmlns:xlink="http://www.w3.org/1999/xlink" width="600" height="400" viewBox="0 0 2400 1600">
<defs>
  <clipPath id="clip0100">
    <rect x="0" y="0" width="2400" height="1600"/>
  </clipPath>
</defs>
<path clip-path="url(#clip0100)" d="
M0 1600 L2400 1600 L2400 0 L0 0  Z
  " fill="#ffffff" fill-rule="evenodd" fill-opacity="1"/>
<defs>
  <clipPath id="clip0101">
    <rect x="480" y="0" width="1681" height="1600"/>
  </clipPath>
</defs>
<path clip-path="url(#clip0100)" d="
M222.152 1487.47 L2352.76 1487.47 L2352.76 47.2441 L222.152 47.2441  Z
  " fill="#ffffff" fill-rule="evenodd" fill-opacity="1"/>
<defs>
  <clipPath id="clip0102">
    <rect x="222" y="47" width="2132" height="1441"/>
  </clipPath>
</defs>
<polyline clip-path="url(#clip0100)" style="stroke:#000000; stroke-width:4; stroke-opacity:1; fill:none" points="
  222.152,1487.47 2352.76,1487.47 
  "/>
<polyline clip-path="url(#clip0100)" style="stroke:#000000; stroke-width:4; stroke-opacity:1; fill:none" points="
  222.152,1487.47 222.152,47.2441 
  "/>
<polyline clip-path="url(#clip0100)" style="stroke:#000000; stroke-width:4; stroke-opacity:1; fill:none" points="
  222.152,1487.47 222.152,1470.19 
  "/>
<polyline clip-path="url(#clip0100)" style="stroke:#000000; stroke-width:4; stroke-opacity:1; fill:none" points="
  754.803,1487.47 754.803,1470.19 
  "/>
<polyline clip-path="url(#clip0100)" style="stroke:#000000; stroke-width:4; stroke-opacity:1; fill:none" points="
  1287.45,1487.47 1287.45,1470.19 
  "/>
<polyline clip-path="url(#clip0100)" style="stroke:#000000; stroke-width:4; stroke-opacity:1; fill:none" points="
  1820.1,1487.47 1820.1,1470.19 
  "/>
<polyline clip-path="url(#clip0100)" style="stroke:#000000; stroke-width:4; stroke-opacity:1; fill:none" points="
  2352.76,1487.47 2352.76,1470.19 
  "/>
<polyline clip-path="url(#clip0100)" style="stroke:#000000; stroke-width:4; stroke-opacity:1; fill:none" points="
  222.152,1460.89 247.719,1460.89 
  "/>
<polyline clip-path="url(#clip0100)" style="stroke:#000000; stroke-width:4; stroke-opacity:1; fill:none" points="
  222.152,1108.4 247.719,1108.4 
  "/>
<polyline clip-path="url(#clip0100)" style="stroke:#000000; stroke-width:4; stroke-opacity:1; fill:none" points="
  222.152,755.91 247.719,755.91 
  "/>
<polyline clip-path="url(#clip0100)" style="stroke:#000000; stroke-width:4; stroke-opacity:1; fill:none" points="
  222.152,403.423 247.719,403.423 
  "/>
<polyline clip-path="url(#clip0100)" style="stroke:#000000; stroke-width:4; stroke-opacity:1; fill:none" points="
  222.152,50.9348 247.719,50.9348 
  "/>
<g clip-path="url(#clip0100)">
<text style="fill:#000000; fill-opacity:1; font-family:Arial,Helvetica Neue,Helvetica,sans-serif; font-size:48px; text-anchor:middle;" transform="rotate(0, 222.152, 1541.47)" x="222.152" y="1541.47">0</text>
</g>
<g clip-path="url(#clip0100)">
<text style="fill:#000000; fill-opacity:1; font-family:Arial,Helvetica Neue,Helvetica,sans-serif; font-size:48px; text-anchor:middle;" transform="rotate(0, 754.803, 1541.47)" x="754.803" y="1541.47">50</text>
</g>
<g clip-path="url(#clip0100)">
<text style="fill:#000000; fill-opacity:1; font-family:Arial,Helvetica Neue,Helvetica,sans-serif; font-size:48px; text-anchor:middle;" transform="rotate(0, 1287.45, 1541.47)" x="1287.45" y="1541.47">100</text>
</g>
<g clip-path="url(#clip0100)">
<text style="fill:#000000; fill-opacity:1; font-family:Arial,Helvetica Neue,Helvetica,sans-serif; font-size:48px; text-anchor:middle;" transform="rotate(0, 1820.1, 1541.47)" x="1820.1" y="1541.47">150</text>
</g>
<g clip-path="url(#clip0100)">
<text style="fill:#000000; fill-opacity:1; font-family:Arial,Helvetica Neue,Helvetica,sans-serif; font-size:48px; text-anchor:middle;" transform="rotate(0, 2352.76, 1541.47)" x="2352.76" y="1541.47">200</text>
</g>
<g clip-path="url(#clip0100)">
<text style="fill:#000000; fill-opacity:1; font-family:Arial,Helvetica Neue,Helvetica,sans-serif; font-size:48px; text-anchor:end;" transform="rotate(0, 198.152, 1478.39)" x="198.152" y="1478.39">-1000</text>
</g>
<g clip-path="url(#clip0100)">
<text style="fill:#000000; fill-opacity:1; font-family:Arial,Helvetica Neue,Helvetica,sans-serif; font-size:48px; text-anchor:end;" transform="rotate(0, 198.152, 1125.9)" x="198.152" y="1125.9">0</text>
</g>
<g clip-path="url(#clip0100)">
<text style="fill:#000000; fill-opacity:1; font-family:Arial,Helvetica Neue,Helvetica,sans-serif; font-size:48px; text-anchor:end;" transform="rotate(0, 198.152, 773.41)" x="198.152" y="773.41">1000</text>
</g>
<g clip-path="url(#clip0100)">
<text style="fill:#000000; fill-opacity:1; font-family:Arial,Helvetica Neue,Helvetica,sans-serif; font-size:48px; text-anchor:end;" transform="rotate(0, 198.152, 420.923)" x="198.152" y="420.923">2000</text>
</g>
<g clip-path="url(#clip0100)">
<text style="fill:#000000; fill-opacity:1; font-family:Arial,Helvetica Neue,Helvetica,sans-serif; font-size:48px; text-anchor:end;" transform="rotate(0, 198.152, 68.4348)" x="198.152" y="68.4348">3000</text>
</g>
<polyline clip-path="url(#clip0102)" style="stroke:#000000; stroke-width:4; stroke-opacity:1; fill:none" points="
  232.805,992.12 243.458,994.481 254.111,997.04 264.764,998.492 275.417,1000.03 286.07,1002.7 296.723,1005.96 307.376,1008.4 318.029,1010.64 328.682,1012.67 
  339.335,1014.15 349.988,1013.95 360.641,1012.01 371.294,1010.97 381.947,1011.63 392.6,1011.49 403.253,1011.3 413.906,1011.05 424.559,1010.75 435.212,1010.41 
  445.865,1010.06 456.518,1009.81 467.171,1010.42 477.824,1012.54 488.477,1015.11 499.13,1017.44 509.783,1019.96 520.436,1022.71 531.089,1025.73 541.742,1029.07 
  552.395,1032.55 563.048,1035.46 573.701,1037.24 584.354,1037.98 595.007,1037.36 605.66,1035.46 616.313,1032.25 626.966,1028.64 637.619,1025.19 648.272,1021.04 
  658.925,1016.92 669.578,1012.53 680.232,1009.26 690.885,1007.01 701.538,1005.44 712.191,1003.58 722.844,1001.2 733.497,998.142 744.15,995.516 754.803,993.587 
  765.456,992.522 776.109,991.092 786.762,989.691 797.415,988.324 808.068,986.969 818.721,985.85 829.374,984.03 840.027,980.712 850.68,977.972 861.333,975.947 
  871.986,975.001 882.639,974.883 893.292,975.383 903.945,973.822 914.598,970.981 925.251,968.547 935.904,965.927 946.557,963.037 957.21,960.808 967.863,959.335 
  978.516,957.955 989.169,957.718 999.822,956.573 1010.48,955.1 1021.13,953.298 1031.78,951.139 1042.43,948.521 1053.09,945.719 1063.74,943.456 1074.39,941.904 
  1085.05,939.122 1095.7,935.837 1106.35,931.783 1117.01,927.063 1127.66,921.799 1138.31,917.564 1148.96,914.688 1159.62,910.649 1170.27,906.333 1180.92,903.192 
  1191.58,897.964 1202.23,891.367 1212.88,884.462 1223.54,878.84 1234.19,874.161 1244.84,867.98 1255.49,863.699 1266.15,858.471 1276.8,850.943 1287.45,842.945 
  1298.11,834.919 1308.76,825.395 1319.41,819.89 1330.07,818.462 1340.72,817.016 1351.37,815.684 1362.02,814.667 1372.68,812.346 1383.33,810.673 1393.98,806.57 
  1404.64,802.038 1415.29,800.663 1425.94,800.967 1436.6,799.19 1447.25,796.961 1457.9,796.026 1468.56,792.579 1479.21,787.783 1489.86,781.793 1500.51,774.038 
  1511.17,766.922 1521.82,760.709 1532.47,752.285 1543.13,743.026 1553.78,732.787 1564.43,719.153 1575.09,704.643 1585.74,687.949 1596.39,668.48 1607.04,648.845 
  1617.7,633.33 1628.35,616.717 1639,596.454 1649.66,575.902 1660.31,553.317 1670.96,525.354 1681.62,494.236 1692.27,459.626 1702.92,422.388 1713.57,381.616 
  1724.23,340.484 1734.88,315.453 1745.53,291.951 1756.19,268.23 1766.84,245.183 1777.49,222.028 1788.15,200.813 1798.8,180.749 1809.45,162.334 1820.1,144.28 
  1830.76,129.195 1841.41,117.316 1852.06,104.775 1862.72,95.976 1873.37,88.0808 1884.02,88.0053 1894.68,88.7624 1905.33,93.3981 1915.98,95.9739 1926.64,103.989 
  1937.29,111.809 1947.94,121.166 1958.59,131.078 1969.25,135.496 1979.9,145.121 1990.55,150.278 2001.21,158.205 2011.86,162.477 2022.51,169.581 2033.17,172.491 
  2043.82,178.074 2054.47,181.149 2065.12,185.198 2075.78,193.449 2086.43,195.115 2097.08,207.857 2107.74,215.055 2118.39,686.6 2129.04,1446.71 
  "/>
<path clip-path="url(#clip0100)" d="
M294.152 251.724 L828.489 251.724 L828.489 130.764 L294.152 130.764  Z
  " fill="#ffffff" fill-rule="evenodd" fill-opacity="1"/>
<polyline clip-path="url(#clip0100)" style="stroke:#000000; stroke-width:4; stroke-opacity:1; fill:none" points="
  294.152,251.724 828.489,251.724 828.489,130.764 294.152,130.764 294.152,251.724 
  "/>
<polyline clip-path="url(#clip0100)" style="stroke:#000000; stroke-width:4; stroke-opacity:1; fill:none" points="
  318.152,191.244 462.152,191.244 
  "/>
<g clip-path="url(#clip0100)">
<text style="fill:#000000; fill-opacity:1; font-family:Arial,Helvetica Neue,Helvetica,sans-serif; font-size:48px; text-anchor:start;" transform="rotate(0, 486.152, 208.744)" x="486.152" y="208.744">Iteration #200</text>
</g>
</svg>
