<?xml version="1.0" encoding="utf-8"?>
<svg xmlns="http://www.w3.org/2000/svg" xmlns:xlink="http://www.w3.org/1999/xlink" width="600" height="400" viewBox="0 0 2400 1600">
<defs>
  <clipPath id="clip5500">
    <rect x="0" y="0" width="2400" height="1600"/>
  </clipPath>
</defs>
<path clip-path="url(#clip5500)" d="
M0 1600 L2400 1600 L2400 0 L0 0  Z
  " fill="#ffffff" fill-rule="evenodd" fill-opacity="1"/>
<defs>
  <clipPath id="clip5501">
    <rect x="480" y="0" width="1681" height="1600"/>
  </clipPath>
</defs>
<path clip-path="url(#clip5500)" d="
M222.152 1487.47 L2352.76 1487.47 L2352.76 47.2441 L222.152 47.2441  Z
  " fill="#ffffff" fill-rule="evenodd" fill-opacity="1"/>
<defs>
  <clipPath id="clip5502">
    <rect x="222" y="47" width="2132" height="1441"/>
  </clipPath>
</defs>
<polyline clip-path="url(#clip5500)" style="stroke:#000000; stroke-width:4; stroke-opacity:1; fill:none" points="
  222.152,1487.47 2352.76,1487.47 
  "/>
<polyline clip-path="url(#clip5500)" style="stroke:#000000; stroke-width:4; stroke-opacity:1; fill:none" points="
  222.152,1487.47 222.152,47.2441 
  "/>
<polyline clip-path="url(#clip5500)" style="stroke:#000000; stroke-width:4; stroke-opacity:1; fill:none" points="
  222.152,1487.47 222.152,1470.19 
  "/>
<polyline clip-path="url(#clip5500)" style="stroke:#000000; stroke-width:4; stroke-opacity:1; fill:none" points="
  754.803,1487.47 754.803,1470.19 
  "/>
<polyline clip-path="url(#clip5500)" style="stroke:#000000; stroke-width:4; stroke-opacity:1; fill:none" points="
  1287.45,1487.47 1287.45,1470.19 
  "/>
<polyline clip-path="url(#clip5500)" style="stroke:#000000; stroke-width:4; stroke-opacity:1; fill:none" points="
  1820.1,1487.47 1820.1,1470.19 
  "/>
<polyline clip-path="url(#clip5500)" style="stroke:#000000; stroke-width:4; stroke-opacity:1; fill:none" points="
  2352.76,1487.47 2352.76,1470.19 
  "/>
<polyline clip-path="url(#clip5500)" style="stroke:#000000; stroke-width:4; stroke-opacity:1; fill:none" points="
  222.152,1372.64 247.719,1372.64 
  "/>
<polyline clip-path="url(#clip5500)" style="stroke:#000000; stroke-width:4; stroke-opacity:1; fill:none" points="
  222.152,1081.47 247.719,1081.47 
  "/>
<polyline clip-path="url(#clip5500)" style="stroke:#000000; stroke-width:4; stroke-opacity:1; fill:none" points="
  222.152,790.301 247.719,790.301 
  "/>
<polyline clip-path="url(#clip5500)" style="stroke:#000000; stroke-width:4; stroke-opacity:1; fill:none" points="
  222.152,499.134 247.719,499.134 
  "/>
<polyline clip-path="url(#clip5500)" style="stroke:#000000; stroke-width:4; stroke-opacity:1; fill:none" points="
  222.152,207.966 247.719,207.966 
  "/>
<g clip-path="url(#clip5500)">
<text style="fill:#000000; fill-opacity:1; font-family:Arial,Helvetica Neue,Helvetica,sans-serif; font-size:48px; text-anchor:middle;" transform="rotate(0, 222.152, 1541.47)" x="222.152" y="1541.47">0</text>
</g>
<g clip-path="url(#clip5500)">
<text style="fill:#000000; fill-opacity:1; font-family:Arial,Helvetica Neue,Helvetica,sans-serif; font-size:48px; text-anchor:middle;" transform="rotate(0, 754.803, 1541.47)" x="754.803" y="1541.47">50</text>
</g>
<g clip-path="url(#clip5500)">
<text style="fill:#000000; fill-opacity:1; font-family:Arial,Helvetica Neue,Helvetica,sans-serif; font-size:48px; text-anchor:middle;" transform="rotate(0, 1287.45, 1541.47)" x="1287.45" y="1541.47">100</text>
</g>
<g clip-path="url(#clip5500)">
<text style="fill:#000000; fill-opacity:1; font-family:Arial,Helvetica Neue,Helvetica,sans-serif; font-size:48px; text-anchor:middle;" transform="rotate(0, 1820.1, 1541.47)" x="1820.1" y="1541.47">150</text>
</g>
<g clip-path="url(#clip5500)">
<text style="fill:#000000; fill-opacity:1; font-family:Arial,Helvetica Neue,Helvetica,sans-serif; font-size:48px; text-anchor:middle;" transform="rotate(0, 2352.76, 1541.47)" x="2352.76" y="1541.47">200</text>
</g>
<g clip-path="url(#clip5500)">
<text style="fill:#000000; fill-opacity:1; font-family:Arial,Helvetica Neue,Helvetica,sans-serif; font-size:48px; text-anchor:end;" transform="rotate(0, 198.152, 1390.14)" x="198.152" y="1390.14">-1000</text>
</g>
<g clip-path="url(#clip5500)">
<text style="fill:#000000; fill-opacity:1; font-family:Arial,Helvetica Neue,Helvetica,sans-serif; font-size:48px; text-anchor:end;" transform="rotate(0, 198.152, 1098.97)" x="198.152" y="1098.97">0</text>
</g>
<g clip-path="url(#clip5500)">
<text style="fill:#000000; fill-opacity:1; font-family:Arial,Helvetica Neue,Helvetica,sans-serif; font-size:48px; text-anchor:end;" transform="rotate(0, 198.152, 807.801)" x="198.152" y="807.801">1000</text>
</g>
<g clip-path="url(#clip5500)">
<text style="fill:#000000; fill-opacity:1; font-family:Arial,Helvetica Neue,Helvetica,sans-serif; font-size:48px; text-anchor:end;" transform="rotate(0, 198.152, 516.634)" x="198.152" y="516.634">2000</text>
</g>
<g clip-path="url(#clip5500)">
<text style="fill:#000000; fill-opacity:1; font-family:Arial,Helvetica Neue,Helvetica,sans-serif; font-size:48px; text-anchor:end;" transform="rotate(0, 198.152, 225.466)" x="198.152" y="225.466">3000</text>
</g>
<polyline clip-path="url(#clip5502)" style="stroke:#000000; stroke-width:4; stroke-opacity:1; fill:none" points="
  232.805,980.428 243.458,983.709 254.111,987.129 264.764,988.828 275.417,990.565 286.07,993.91 296.723,998.104 307.376,1001.06 318.029,1003.73 328.682,1006.13 
  339.335,1007.76 349.988,1006.94 360.641,1003.59 371.294,1001.59 381.947,1002.11 392.6,1001.46 403.253,1000.73 413.906,999.883 424.559,998.956 435.212,997.947 
  445.865,996.872 456.518,995.906 467.171,996.157 477.824,998.586 488.477,1001.65 499.13,1004.33 509.783,1007.29 520.436,1010.61 531.089,1014.38 541.742,1018.68 
  552.395,1023.32 563.048,1027.25 573.701,1029.68 584.354,1030.78 595.007,1030.06 605.66,1027.66 616.313,1023.52 626.966,1018.99 637.619,1014.86 648.272,1009.84 
  658.925,1004.98 669.578,999.797 680.232,996.33 690.885,994.428 701.538,993.538 712.191,992.246 722.844,990.195 733.497,987.128 744.15,984.699 754.803,983.278 
  765.456,983.109 776.109,982.375 786.762,981.664 797.415,980.975 808.068,980.295 818.721,979.955 829.374,978.582 840.027,974.959 850.68,972.204 861.333,970.44 
  871.986,970.246 882.639,971.234 893.292,973.132 903.945,972 914.598,968.987 925.251,966.624 935.904,963.969 946.557,960.935 957.21,958.846 967.863,957.875 
  978.516,957.009 989.169,957.869 999.822,957.38 1010.48,956.486 1021.13,955.156 1031.78,953.38 1042.43,951.028 1053.09,948.45 1063.74,946.815 1074.39,946.278 
  1085.05,944.103 1095.7,941.272 1106.35,937.499 1117.01,932.828 1127.66,927.513 1138.31,923.767 1148.96,922.155 1159.62,918.884 1170.27,915.329 1180.92,913.616 
  1191.58,908.913 1202.23,902.374 1212.88,895.334 1223.54,890.357 1234.19,886.657 1244.84,880.874 1255.49,877.776 1266.15,873.407 1276.8,865.543 1287.45,857.041 
  1298.11,848.309 1308.76,837.336 1319.41,832.006 1330.07,832.454 1340.72,832.766 1351.37,833.017 1362.02,833.815 1372.68,832.511 1383.33,832.376 1393.98,828.588 
  1404.64,824.392 1415.29,824.839 1425.94,828.038 1436.6,828.26 1447.25,828.291 1457.9,830.454 1468.56,829.433 1479.21,826.92 1489.86,823.116 1500.51,817.363 
  1511.17,812.95 1521.82,810.641 1532.47,805.533 1543.13,799.954 1553.78,793.51 1564.43,782.792 1575.09,771.356 1585.74,757.421 1596.39,739.827 1607.04,722.625 
  1617.7,712.172 1628.35,700.526 1639,684.205 1649.66,667.918 1660.31,649.413 1670.96,623.558 1681.62,593.997 1692.27,560.338 1702.92,524.52 1713.57,484.043 
  1724.23,440.903 1734.88,408.723 1745.53,377.423 1756.19,345.201 1766.84,312.963 1777.49,280.398 1788.15,249.96 1798.8,221.529 1809.45,194.706 1820.1,168.845 
  1830.76,146.786 1841.41,129.792 1852.06,112.11 1862.72,98.9234 1873.37,88.4356 1884.02,88.0053 1894.68,90.2972 1905.33,96.447 1915.98,101.615 1926.64,111.787 
  1937.29,124.253 1947.94,137.149 1958.59,151.26 1969.25,157.711 1979.9,170.771 1990.55,178.106 2001.21,188.388 2011.86,194.811 2022.51,203.442 2033.17,208.149 
  2043.82,213.988 2054.47,219.35 2065.12,223.356 2075.78,234.297 2086.43,236.201 2097.08,251.501 2107.74,263.432 2118.39,676.049 2129.04,1446.71 
  "/>
<path clip-path="url(#clip5500)" d="
M294.152 251.724 L828.489 251.724 L828.489 130.764 L294.152 130.764  Z
  " fill="#ffffff" fill-rule="evenodd" fill-opacity="1"/>
<polyline clip-path="url(#clip5500)" style="stroke:#000000; stroke-width:4; stroke-opacity:1; fill:none" points="
  294.152,251.724 828.489,251.724 828.489,130.764 294.152,130.764 294.152,251.724 
  "/>
<polyline clip-path="url(#clip5500)" style="stroke:#000000; stroke-width:4; stroke-opacity:1; fill:none" points="
  318.152,191.244 462.152,191.244 
  "/>
<g clip-path="url(#clip5500)">
<text style="fill:#000000; fill-opacity:1; font-family:Arial,Helvetica Neue,Helvetica,sans-serif; font-size:48px; text-anchor:start;" transform="rotate(0, 486.152, 208.744)" x="486.152" y="208.744">Iteration #290</text>
</g>
</svg>
