<?xml version="1.0" encoding="utf-8"?>
<svg xmlns="http://www.w3.org/2000/svg" xmlns:xlink="http://www.w3.org/1999/xlink" width="600" height="400" viewBox="0 0 2400 1600">
<defs>
  <clipPath id="clip4300">
    <rect x="0" y="0" width="2400" height="1600"/>
  </clipPath>
</defs>
<path clip-path="url(#clip4300)" d="
M0 1600 L2400 1600 L2400 0 L0 0  Z
  " fill="#ffffff" fill-rule="evenodd" fill-opacity="1"/>
<defs>
  <clipPath id="clip4301">
    <rect x="480" y="0" width="1681" height="1600"/>
  </clipPath>
</defs>
<path clip-path="url(#clip4300)" d="
M222.152 1487.47 L2352.76 1487.47 L2352.76 47.2441 L222.152 47.2441  Z
  " fill="#ffffff" fill-rule="evenodd" fill-opacity="1"/>
<defs>
  <clipPath id="clip4302">
    <rect x="222" y="47" width="2132" height="1441"/>
  </clipPath>
</defs>
<polyline clip-path="url(#clip4300)" style="stroke:#000000; stroke-width:4; stroke-opacity:1; fill:none" points="
  222.152,1487.47 2352.76,1487.47 
  "/>
<polyline clip-path="url(#clip4300)" style="stroke:#000000; stroke-width:4; stroke-opacity:1; fill:none" points="
  222.152,1487.47 222.152,47.2441 
  "/>
<polyline clip-path="url(#clip4300)" style="stroke:#000000; stroke-width:4; stroke-opacity:1; fill:none" points="
  222.152,1487.47 222.152,1470.19 
  "/>
<polyline clip-path="url(#clip4300)" style="stroke:#000000; stroke-width:4; stroke-opacity:1; fill:none" points="
  754.803,1487.47 754.803,1470.19 
  "/>
<polyline clip-path="url(#clip4300)" style="stroke:#000000; stroke-width:4; stroke-opacity:1; fill:none" points="
  1287.45,1487.47 1287.45,1470.19 
  "/>
<polyline clip-path="url(#clip4300)" style="stroke:#000000; stroke-width:4; stroke-opacity:1; fill:none" points="
  1820.1,1487.47 1820.1,1470.19 
  "/>
<polyline clip-path="url(#clip4300)" style="stroke:#000000; stroke-width:4; stroke-opacity:1; fill:none" points="
  2352.76,1487.47 2352.76,1470.19 
  "/>
<polyline clip-path="url(#clip4300)" style="stroke:#000000; stroke-width:4; stroke-opacity:1; fill:none" points="
  222.152,1387.71 247.719,1387.71 
  "/>
<polyline clip-path="url(#clip4300)" style="stroke:#000000; stroke-width:4; stroke-opacity:1; fill:none" points="
  222.152,1085.66 247.719,1085.66 
  "/>
<polyline clip-path="url(#clip4300)" style="stroke:#000000; stroke-width:4; stroke-opacity:1; fill:none" points="
  222.152,783.613 247.719,783.613 
  "/>
<polyline clip-path="url(#clip4300)" style="stroke:#000000; stroke-width:4; stroke-opacity:1; fill:none" points="
  222.152,481.567 247.719,481.567 
  "/>
<polyline clip-path="url(#clip4300)" style="stroke:#000000; stroke-width:4; stroke-opacity:1; fill:none" points="
  222.152,179.521 247.719,179.521 
  "/>
<g clip-path="url(#clip4300)">
<text style="fill:#000000; fill-opacity:1; font-family:Arial,Helvetica Neue,Helvetica,sans-serif; font-size:48px; text-anchor:middle;" transform="rotate(0, 222.152, 1541.47)" x="222.152" y="1541.47">0</text>
</g>
<g clip-path="url(#clip4300)">
<text style="fill:#000000; fill-opacity:1; font-family:Arial,Helvetica Neue,Helvetica,sans-serif; font-size:48px; text-anchor:middle;" transform="rotate(0, 754.803, 1541.47)" x="754.803" y="1541.47">50</text>
</g>
<g clip-path="url(#clip4300)">
<text style="fill:#000000; fill-opacity:1; font-family:Arial,Helvetica Neue,Helvetica,sans-serif; font-size:48px; text-anchor:middle;" transform="rotate(0, 1287.45, 1541.47)" x="1287.45" y="1541.47">100</text>
</g>
<g clip-path="url(#clip4300)">
<text style="fill:#000000; fill-opacity:1; font-family:Arial,Helvetica Neue,Helvetica,sans-serif; font-size:48px; text-anchor:middle;" transform="rotate(0, 1820.1, 1541.47)" x="1820.1" y="1541.47">150</text>
</g>
<g clip-path="url(#clip4300)">
<text style="fill:#000000; fill-opacity:1; font-family:Arial,Helvetica Neue,Helvetica,sans-serif; font-size:48px; text-anchor:middle;" transform="rotate(0, 2352.76, 1541.47)" x="2352.76" y="1541.47">200</text>
</g>
<g clip-path="url(#clip4300)">
<text style="fill:#000000; fill-opacity:1; font-family:Arial,Helvetica Neue,Helvetica,sans-serif; font-size:48px; text-anchor:end;" transform="rotate(0, 198.152, 1405.21)" x="198.152" y="1405.21">-1000</text>
</g>
<g clip-path="url(#clip4300)">
<text style="fill:#000000; fill-opacity:1; font-family:Arial,Helvetica Neue,Helvetica,sans-serif; font-size:48px; text-anchor:end;" transform="rotate(0, 198.152, 1103.16)" x="198.152" y="1103.16">0</text>
</g>
<g clip-path="url(#clip4300)">
<text style="fill:#000000; fill-opacity:1; font-family:Arial,Helvetica Neue,Helvetica,sans-serif; font-size:48px; text-anchor:end;" transform="rotate(0, 198.152, 801.113)" x="198.152" y="801.113">1000</text>
</g>
<g clip-path="url(#clip4300)">
<text style="fill:#000000; fill-opacity:1; font-family:Arial,Helvetica Neue,Helvetica,sans-serif; font-size:48px; text-anchor:end;" transform="rotate(0, 198.152, 499.067)" x="198.152" y="499.067">2000</text>
</g>
<g clip-path="url(#clip4300)">
<text style="fill:#000000; fill-opacity:1; font-family:Arial,Helvetica Neue,Helvetica,sans-serif; font-size:48px; text-anchor:end;" transform="rotate(0, 198.152, 197.021)" x="198.152" y="197.021">3000</text>
</g>
<polyline clip-path="url(#clip4302)" style="stroke:#000000; stroke-width:4; stroke-opacity:1; fill:none" points="
  232.805,981.89 243.458,984.974 254.111,988.216 264.764,989.875 275.417,991.585 286.07,994.796 296.723,998.8 307.376,1001.66 318.029,1004.24 328.682,1006.57 
  339.335,1008.16 349.988,1007.48 360.641,1004.44 371.294,1002.65 381.947,1003.19 392.6,1002.64 403.253,1002.01 413.906,1001.29 424.559,1000.49 435.212,999.625 
  445.865,998.706 456.518,997.9 467.171,998.237 477.824,1000.61 488.477,1003.57 499.13,1006.2 509.783,1009.09 520.436,1012.31 531.089,1015.93 541.742,1020.05 
  552.395,1024.46 563.048,1028.18 573.701,1030.48 584.354,1031.51 595.007,1030.81 605.66,1028.51 616.313,1024.57 626.966,1020.22 637.619,1016.21 648.272,1011.36 
  658.925,1006.63 669.578,1001.6 680.232,998.146 690.885,996.146 701.538,995.087 712.191,993.656 722.844,991.524 733.497,988.453 744.15,985.979 754.803,984.45 
  765.456,984.09 776.109,983.216 786.762,982.368 797.415,981.548 808.068,980.74 818.721,980.251 829.374,978.802 840.027,975.273 850.68,972.548 861.333,970.756 
  871.986,970.427 882.639,971.204 893.292,972.826 903.945,971.633 914.598,968.69 925.251,966.341 935.904,963.723 946.557,960.75 957.21,958.661 967.863,957.61 
  978.516,956.666 989.169,957.315 999.822,956.716 1010.48,955.725 1021.13,954.322 1031.78,952.488 1042.43,950.104 1053.09,947.498 1063.74,945.746 1074.39,945.002 
  1085.05,942.708 1095.7,939.787 1106.35,935.958 1117.01,931.282 1127.66,925.979 1138.31,922.128 1148.96,920.235 1159.62,916.796 1170.27,913.069 1180.92,911.037 
  1191.58,906.209 1202.23,899.652 1212.88,892.631 1223.54,887.505 1234.19,883.58 1244.84,877.709 1255.49,874.348 1266.15,869.792 1276.8,862.012 1287.45,853.635 
  1298.11,845.085 1308.76,834.469 1319.41,829.159 1330.07,829.26 1340.72,829.279 1351.37,829.282 1362.02,829.803 1372.68,828.402 1383.33,828.071 1393.98,824.363 
  1404.64,820.254 1415.29,820.47 1425.94,823.208 1436.6,823.176 1447.25,822.892 1457.9,824.56 1468.56,823.183 1479.21,820.346 1489.86,816.22 1500.51,810.185 
  1511.17,805.314 1521.82,802.275 1532.47,796.544 1543.13,790.244 1553.78,783.029 1564.43,771.71 1575.09,759.614 1585.74,745.06 1596.39,727.024 1607.04,709.227 
  1617.7,697.583 1628.35,684.731 1639,667.425 1649.66,650.05 1660.31,630.486 1670.96,603.999 1681.62,573.937 1692.27,539.91 1702.92,503.644 1713.57,462.99 
  1724.23,420.183 1734.88,389.371 1745.53,359.581 1756.19,329.073 1766.84,298.697 1777.49,268.101 1788.15,239.579 1798.8,212.909 1809.45,187.885 1820.1,163.663 
  1830.76,143.096 1841.41,127.162 1852.06,110.66 1862.72,98.29 1873.37,88.4413 1884.02,88.0053 1894.68,89.9677 1905.33,95.8227 1915.98,100.413 1926.64,110.19 
  1937.29,121.595 1947.94,133.825 1958.59,146.934 1969.25,153.123 1979.9,165.328 1990.55,172.348 2001.21,182.086 2011.86,188.077 2022.51,196.459 2033.17,200.61 
  2043.82,206.734 2054.47,211.351 2065.12,215.584 2075.78,225.888 2086.43,227.707 2097.08,242.627 2107.74,253.663 2118.39,674.957 2129.04,1446.71 
  "/>
<path clip-path="url(#clip4300)" d="
M294.152 251.724 L828.489 251.724 L828.489 130.764 L294.152 130.764  Z
  " fill="#ffffff" fill-rule="evenodd" fill-opacity="1"/>
<polyline clip-path="url(#clip4300)" style="stroke:#000000; stroke-width:4; stroke-opacity:1; fill:none" points="
  294.152,251.724 828.489,251.724 828.489,130.764 294.152,130.764 294.152,251.724 
  "/>
<polyline clip-path="url(#clip4300)" style="stroke:#000000; stroke-width:4; stroke-opacity:1; fill:none" points="
  318.152,191.244 462.152,191.244 
  "/>
<g clip-path="url(#clip4300)">
<text style="fill:#000000; fill-opacity:1; font-family:Arial,Helvetica Neue,Helvetica,sans-serif; font-size:48px; text-anchor:start;" transform="rotate(0, 486.152, 208.744)" x="486.152" y="208.744">Iteration #270</text>
</g>
</svg>
