<?xml version="1.0" encoding="utf-8"?>
<svg xmlns="http://www.w3.org/2000/svg" xmlns:xlink="http://www.w3.org/1999/xlink" width="600" height="400" viewBox="0 0 2400 1600">
<defs>
  <clipPath id="clip9700">
    <rect x="0" y="0" width="2400" height="1600"/>
  </clipPath>
</defs>
<path clip-path="url(#clip9700)" d="
M0 1600 L2400 1600 L2400 0 L0 0  Z
  " fill="#ffffff" fill-rule="evenodd" fill-opacity="1"/>
<defs>
  <clipPath id="clip9701">
    <rect x="480" y="0" width="1681" height="1600"/>
  </clipPath>
</defs>
<path clip-path="url(#clip9700)" d="
M222.152 1487.47 L2352.76 1487.47 L2352.76 47.2441 L222.152 47.2441  Z
  " fill="#ffffff" fill-rule="evenodd" fill-opacity="1"/>
<defs>
  <clipPath id="clip9702">
    <rect x="222" y="47" width="2132" height="1441"/>
  </clipPath>
</defs>
<polyline clip-path="url(#clip9700)" style="stroke:#000000; stroke-width:4; stroke-opacity:1; fill:none" points="
  222.152,1487.47 2352.76,1487.47 
  "/>
<polyline clip-path="url(#clip9700)" style="stroke:#000000; stroke-width:4; stroke-opacity:1; fill:none" points="
  222.152,1487.47 222.152,47.2441 
  "/>
<polyline clip-path="url(#clip9700)" style="stroke:#000000; stroke-width:4; stroke-opacity:1; fill:none" points="
  222.152,1487.47 222.152,1470.19 
  "/>
<polyline clip-path="url(#clip9700)" style="stroke:#000000; stroke-width:4; stroke-opacity:1; fill:none" points="
  754.803,1487.47 754.803,1470.19 
  "/>
<polyline clip-path="url(#clip9700)" style="stroke:#000000; stroke-width:4; stroke-opacity:1; fill:none" points="
  1287.45,1487.47 1287.45,1470.19 
  "/>
<polyline clip-path="url(#clip9700)" style="stroke:#000000; stroke-width:4; stroke-opacity:1; fill:none" points="
  1820.1,1487.47 1820.1,1470.19 
  "/>
<polyline clip-path="url(#clip9700)" style="stroke:#000000; stroke-width:4; stroke-opacity:1; fill:none" points="
  2352.76,1487.47 2352.76,1470.19 
  "/>
<polyline clip-path="url(#clip9700)" style="stroke:#000000; stroke-width:4; stroke-opacity:1; fill:none" points="
  222.152,1332.2 247.719,1332.2 
  "/>
<polyline clip-path="url(#clip9700)" style="stroke:#000000; stroke-width:4; stroke-opacity:1; fill:none" points="
  222.152,1071.52 247.719,1071.52 
  "/>
<polyline clip-path="url(#clip9700)" style="stroke:#000000; stroke-width:4; stroke-opacity:1; fill:none" points="
  222.152,810.831 247.719,810.831 
  "/>
<polyline clip-path="url(#clip9700)" style="stroke:#000000; stroke-width:4; stroke-opacity:1; fill:none" points="
  222.152,550.144 247.719,550.144 
  "/>
<polyline clip-path="url(#clip9700)" style="stroke:#000000; stroke-width:4; stroke-opacity:1; fill:none" points="
  222.152,289.458 247.719,289.458 
  "/>
<g clip-path="url(#clip9700)">
<text style="fill:#000000; fill-opacity:1; font-family:Arial,Helvetica Neue,Helvetica,sans-serif; font-size:48px; text-anchor:middle;" transform="rotate(0, 222.152, 1541.47)" x="222.152" y="1541.47">0</text>
</g>
<g clip-path="url(#clip9700)">
<text style="fill:#000000; fill-opacity:1; font-family:Arial,Helvetica Neue,Helvetica,sans-serif; font-size:48px; text-anchor:middle;" transform="rotate(0, 754.803, 1541.47)" x="754.803" y="1541.47">50</text>
</g>
<g clip-path="url(#clip9700)">
<text style="fill:#000000; fill-opacity:1; font-family:Arial,Helvetica Neue,Helvetica,sans-serif; font-size:48px; text-anchor:middle;" transform="rotate(0, 1287.45, 1541.47)" x="1287.45" y="1541.47">100</text>
</g>
<g clip-path="url(#clip9700)">
<text style="fill:#000000; fill-opacity:1; font-family:Arial,Helvetica Neue,Helvetica,sans-serif; font-size:48px; text-anchor:middle;" transform="rotate(0, 1820.1, 1541.47)" x="1820.1" y="1541.47">150</text>
</g>
<g clip-path="url(#clip9700)">
<text style="fill:#000000; fill-opacity:1; font-family:Arial,Helvetica Neue,Helvetica,sans-serif; font-size:48px; text-anchor:middle;" transform="rotate(0, 2352.76, 1541.47)" x="2352.76" y="1541.47">200</text>
</g>
<g clip-path="url(#clip9700)">
<text style="fill:#000000; fill-opacity:1; font-family:Arial,Helvetica Neue,Helvetica,sans-serif; font-size:48px; text-anchor:end;" transform="rotate(0, 198.152, 1349.7)" x="198.152" y="1349.7">-1000</text>
</g>
<g clip-path="url(#clip9700)">
<text style="fill:#000000; fill-opacity:1; font-family:Arial,Helvetica Neue,Helvetica,sans-serif; font-size:48px; text-anchor:end;" transform="rotate(0, 198.152, 1089.02)" x="198.152" y="1089.02">0</text>
</g>
<g clip-path="url(#clip9700)">
<text style="fill:#000000; fill-opacity:1; font-family:Arial,Helvetica Neue,Helvetica,sans-serif; font-size:48px; text-anchor:end;" transform="rotate(0, 198.152, 828.331)" x="198.152" y="828.331">1000</text>
</g>
<g clip-path="url(#clip9700)">
<text style="fill:#000000; fill-opacity:1; font-family:Arial,Helvetica Neue,Helvetica,sans-serif; font-size:48px; text-anchor:end;" transform="rotate(0, 198.152, 567.644)" x="198.152" y="567.644">2000</text>
</g>
<g clip-path="url(#clip9700)">
<text style="fill:#000000; fill-opacity:1; font-family:Arial,Helvetica Neue,Helvetica,sans-serif; font-size:48px; text-anchor:end;" transform="rotate(0, 198.152, 306.958)" x="198.152" y="306.958">3000</text>
</g>
<polyline clip-path="url(#clip9702)" style="stroke:#000000; stroke-width:4; stroke-opacity:1; fill:none" points="
  232.805,978.07 243.458,982.008 254.111,986.006 264.764,987.784 275.417,989.554 286.07,993.302 296.723,998.103 307.376,1001.36 318.029,1004.29 328.682,1006.94 
  339.335,1008.68 349.988,1007.43 360.641,1003.05 371.294,1000.41 381.947,1000.94 392.6,1000 403.253,998.954 413.906,997.766 424.559,996.452 435.212,995.004 
  445.865,993.427 456.518,991.928 467.171,991.883 477.824,994.497 488.477,997.838 499.13,1000.66 509.783,1003.8 520.436,1007.38 531.089,1011.53 541.742,1016.4 
  552.395,1021.75 563.048,1026.31 573.701,1029.14 584.354,1030.45 595.007,1029.65 605.66,1026.92 616.313,1022.18 626.966,1017.09 637.619,1012.62 648.272,1007.12 
  658.925,1001.89 669.578,996.29 680.232,992.839 690.885,991.339 701.538,991.076 712.191,990.291 722.844,988.532 733.497,985.469 744.15,983.172 754.803,982.087 
  765.456,982.527 776.109,982.214 786.762,981.901 797.415,981.583 808.068,981.264 818.721,981.359 829.374,980.164 840.027,976.132 850.68,973.187 861.333,971.432 
  871.986,971.61 882.639,973.234 893.292,976.001 903.945,974.997 914.598,971.662 925.251,969.184 935.904,966.338 946.557,963.028 957.21,960.875 967.863,960.108 
  978.516,959.438 989.169,960.942 999.822,960.751 1010.48,960.106 1021.13,958.953 1031.78,957.299 1042.43,954.991 1053.09,952.434 1063.74,951.14 1074.39,951.264 
  1085.05,949.445 1095.7,946.882 1106.35,943.265 1117.01,938.591 1127.66,933.202 1138.31,929.801 1148.96,929.141 1159.62,926.432 1170.27,923.448 1180.92,922.848 
  1191.58,918.581 1202.23,912.135 1212.88,905.056 1223.54,900.644 1234.19,897.77 1244.84,892.341 1255.49,890.218 1266.15,886.567 1276.8,878.477 1287.45,869.606 
  1298.11,860.296 1308.76,848.074 1319.41,842.646 1330.07,844.202 1340.72,845.389 1351.37,846.292 1362.02,847.825 1372.68,846.567 1383.33,846.814 1393.98,842.391 
  1404.64,837.493 1415.29,838.315 1425.94,842.644 1436.6,843.243 1447.25,843.815 1457.9,847.151 1468.56,846.787 1479.21,844.834 1489.86,841.559 1500.51,836.22 
  1511.17,832.822 1521.82,832.508 1532.47,829.026 1543.13,825.468 1553.78,821.27 1564.43,812.259 1575.09,802.828 1585.74,790.814 1596.39,774.613 1607.04,759.397 
  1617.7,753.123 1628.35,745.768 1639,733.093 1649.66,720.9 1660.31,706.521 1670.96,683.362 1681.62,656.121 1692.27,624.338 1702.92,590.679 1713.57,551.419 
  1724.23,507.694 1734.88,471.64 1745.53,435.906 1756.19,398.462 1766.84,360.353 1777.49,321.447 1788.15,284.715 1798.8,250.524 1809.45,217.705 1820.1,186.318 
  1830.76,159.275 1841.41,138.578 1852.06,117.236 1862.72,101.043 1873.37,88.4705 1884.02,88.0053 1894.68,91.5497 1905.33,98.6614 1915.98,105.749 1926.64,117.35 
  1937.29,133.129 1947.94,148.371 1958.59,165.573 1969.25,172.943 1979.9,188.603 1990.55,197.191 2001.21,209.036 2011.86,216.736 2022.51,226.118 2033.17,232.383 
  2043.82,237.742 2054.47,245.049 2065.12,248.113 2075.78,261.158 2086.43,264.118 2097.08,279.21 2107.74,294.283 2118.39,730.746 2129.04,1446.71 
  "/>
<path clip-path="url(#clip9700)" d="
M294.152 251.724 L828.489 251.724 L828.489 130.764 L294.152 130.764  Z
  " fill="#ffffff" fill-rule="evenodd" fill-opacity="1"/>
<polyline clip-path="url(#clip9700)" style="stroke:#000000; stroke-width:4; stroke-opacity:1; fill:none" points="
  294.152,251.724 828.489,251.724 828.489,130.764 294.152,130.764 294.152,251.724 
  "/>
<polyline clip-path="url(#clip9700)" style="stroke:#000000; stroke-width:4; stroke-opacity:1; fill:none" points="
  318.152,191.244 462.152,191.244 
  "/>
<g clip-path="url(#clip9700)">
<text style="fill:#000000; fill-opacity:1; font-family:Arial,Helvetica Neue,Helvetica,sans-serif; font-size:48px; text-anchor:start;" transform="rotate(0, 486.152, 208.744)" x="486.152" y="208.744">Iteration #360</text>
</g>
</svg>
