<?xml version="1.0" encoding="utf-8"?>
<svg xmlns="http://www.w3.org/2000/svg" xmlns:xlink="http://www.w3.org/1999/xlink" width="600" height="400" viewBox="0 0 2400 1600">
<defs>
  <clipPath id="clip0300">
    <rect x="0" y="0" width="2400" height="1600"/>
  </clipPath>
</defs>
<path clip-path="url(#clip0300)" d="
M0 1600 L2400 1600 L2400 0 L0 0  Z
  " fill="#ffffff" fill-rule="evenodd" fill-opacity="1"/>
<defs>
  <clipPath id="clip0301">
    <rect x="480" y="0" width="1681" height="1600"/>
  </clipPath>
</defs>
<path clip-path="url(#clip0300)" d="
M222.152 1487.47 L2352.76 1487.47 L2352.76 47.2441 L222.152 47.2441  Z
  " fill="#ffffff" fill-rule="evenodd" fill-opacity="1"/>
<defs>
  <clipPath id="clip0302">
    <rect x="222" y="47" width="2132" height="1441"/>
  </clipPath>
</defs>
<polyline clip-path="url(#clip0300)" style="stroke:#000000; stroke-width:4; stroke-opacity:1; fill:none" points="
  222.152,1487.47 2352.76,1487.47 
  "/>
<polyline clip-path="url(#clip0300)" style="stroke:#000000; stroke-width:4; stroke-opacity:1; fill:none" points="
  222.152,1487.47 222.152,47.2441 
  "/>
<polyline clip-path="url(#clip0300)" style="stroke:#000000; stroke-width:4; stroke-opacity:1; fill:none" points="
  222.152,1487.47 222.152,1470.19 
  "/>
<polyline clip-path="url(#clip0300)" style="stroke:#000000; stroke-width:4; stroke-opacity:1; fill:none" points="
  754.803,1487.47 754.803,1470.19 
  "/>
<polyline clip-path="url(#clip0300)" style="stroke:#000000; stroke-width:4; stroke-opacity:1; fill:none" points="
  1287.45,1487.47 1287.45,1470.19 
  "/>
<polyline clip-path="url(#clip0300)" style="stroke:#000000; stroke-width:4; stroke-opacity:1; fill:none" points="
  1820.1,1487.47 1820.1,1470.19 
  "/>
<polyline clip-path="url(#clip0300)" style="stroke:#000000; stroke-width:4; stroke-opacity:1; fill:none" points="
  2352.76,1487.47 2352.76,1470.19 
  "/>
<polyline clip-path="url(#clip0300)" style="stroke:#000000; stroke-width:4; stroke-opacity:1; fill:none" points="
  222.152,1327.58 247.719,1327.58 
  "/>
<polyline clip-path="url(#clip0300)" style="stroke:#000000; stroke-width:4; stroke-opacity:1; fill:none" points="
  222.152,1070.51 247.719,1070.51 
  "/>
<polyline clip-path="url(#clip0300)" style="stroke:#000000; stroke-width:4; stroke-opacity:1; fill:none" points="
  222.152,813.433 247.719,813.433 
  "/>
<polyline clip-path="url(#clip0300)" style="stroke:#000000; stroke-width:4; stroke-opacity:1; fill:none" points="
  222.152,556.357 247.719,556.357 
  "/>
<polyline clip-path="url(#clip0300)" style="stroke:#000000; stroke-width:4; stroke-opacity:1; fill:none" points="
  222.152,299.282 247.719,299.282 
  "/>
<g clip-path="url(#clip0300)">
<text style="fill:#000000; fill-opacity:1; font-family:Arial,Helvetica Neue,Helvetica,sans-serif; font-size:48px; text-anchor:middle;" transform="rotate(0, 222.152, 1541.47)" x="222.152" y="1541.47">0</text>
</g>
<g clip-path="url(#clip0300)">
<text style="fill:#000000; fill-opacity:1; font-family:Arial,Helvetica Neue,Helvetica,sans-serif; font-size:48px; text-anchor:middle;" transform="rotate(0, 754.803, 1541.47)" x="754.803" y="1541.47">50</text>
</g>
<g clip-path="url(#clip0300)">
<text style="fill:#000000; fill-opacity:1; font-family:Arial,Helvetica Neue,Helvetica,sans-serif; font-size:48px; text-anchor:middle;" transform="rotate(0, 1287.45, 1541.47)" x="1287.45" y="1541.47">100</text>
</g>
<g clip-path="url(#clip0300)">
<text style="fill:#000000; fill-opacity:1; font-family:Arial,Helvetica Neue,Helvetica,sans-serif; font-size:48px; text-anchor:middle;" transform="rotate(0, 1820.1, 1541.47)" x="1820.1" y="1541.47">150</text>
</g>
<g clip-path="url(#clip0300)">
<text style="fill:#000000; fill-opacity:1; font-family:Arial,Helvetica Neue,Helvetica,sans-serif; font-size:48px; text-anchor:middle;" transform="rotate(0, 2352.76, 1541.47)" x="2352.76" y="1541.47">200</text>
</g>
<g clip-path="url(#clip0300)">
<text style="fill:#000000; fill-opacity:1; font-family:Arial,Helvetica Neue,Helvetica,sans-serif; font-size:48px; text-anchor:end;" transform="rotate(0, 198.152, 1345.08)" x="198.152" y="1345.08">-1000</text>
</g>
<g clip-path="url(#clip0300)">
<text style="fill:#000000; fill-opacity:1; font-family:Arial,Helvetica Neue,Helvetica,sans-serif; font-size:48px; text-anchor:end;" transform="rotate(0, 198.152, 1088.01)" x="198.152" y="1088.01">0</text>
</g>
<g clip-path="url(#clip0300)">
<text style="fill:#000000; fill-opacity:1; font-family:Arial,Helvetica Neue,Helvetica,sans-serif; font-size:48px; text-anchor:end;" transform="rotate(0, 198.152, 830.933)" x="198.152" y="830.933">1000</text>
</g>
<g clip-path="url(#clip0300)">
<text style="fill:#000000; fill-opacity:1; font-family:Arial,Helvetica Neue,Helvetica,sans-serif; font-size:48px; text-anchor:end;" transform="rotate(0, 198.152, 573.857)" x="198.152" y="573.857">2000</text>
</g>
<g clip-path="url(#clip0300)">
<text style="fill:#000000; fill-opacity:1; font-family:Arial,Helvetica Neue,Helvetica,sans-serif; font-size:48px; text-anchor:end;" transform="rotate(0, 198.152, 316.782)" x="198.152" y="316.782">3000</text>
</g>
<polyline clip-path="url(#clip0302)" style="stroke:#000000; stroke-width:4; stroke-opacity:1; fill:none" points="
  232.805,977.952 243.458,981.98 254.111,986.054 264.764,987.836 275.417,989.604 286.07,993.402 296.723,998.283 307.376,1001.58 318.029,1004.55 328.682,1007.23 
  339.335,1008.99 349.988,1007.68 360.641,1003.15 371.294,1000.43 381.947,1000.97 392.6,1000 403.253,998.921 413.906,997.693 424.559,996.333 435.212,994.83 
  445.865,993.188 456.518,991.617 467.171,991.531 477.824,994.17 488.477,997.547 499.13,1000.38 509.783,1003.54 520.436,1007.15 531.089,1011.34 541.742,1016.27 
  552.395,1021.71 563.048,1026.36 573.701,1029.23 584.354,1030.57 595.007,1029.76 605.66,1026.99 616.313,1022.16 626.966,1017 637.619,1012.5 648.272,1006.94 
  658.925,1001.67 669.578,996.018 680.232,992.577 690.885,991.139 701.538,990.968 712.191,990.257 722.844,988.538 733.497,985.474 744.15,983.191 754.803,982.149 
  765.456,982.668 776.109,982.407 786.762,982.141 797.415,981.867 808.068,981.589 818.721,981.737 829.374,980.56 840.027,976.461 850.68,973.481 861.333,971.719 
  871.986,971.942 882.639,973.647 893.292,976.531 903.945,975.537 914.598,972.151 925.251,969.653 935.904,966.777 946.557,963.423 957.21,961.258 967.863,960.515 
  978.516,959.867 989.169,961.456 999.822,961.3 1010.48,960.682 1021.13,959.546 1031.78,957.903 1042.43,955.593 1053.09,953.033 1063.74,951.778 1074.39,951.991 
  1085.05,950.214 1095.7,947.684 1106.35,944.082 1117.01,939.405 1127.66,933.998 1138.31,930.642 1148.96,930.11 1159.62,927.475 1170.27,924.565 1180.92,924.119 
  1191.58,919.91 1202.23,913.475 1212.88,906.392 1223.54,902.059 1234.19,899.308 1244.84,893.93 1255.49,891.955 1266.15,888.411 1276.8,880.302 1287.45,871.387 
  1298.11,862.01 1308.76,849.614 1319.41,844.177 1330.07,845.887 1340.72,847.19 1351.37,848.172 1362.02,849.792 1372.68,848.522 1383.33,848.798 1393.98,844.262 
  1404.64,839.23 1415.29,840.076 1425.94,844.521 1436.6,845.135 1447.25,845.731 1457.9,849.188 1468.56,848.861 1479.21,846.933 1489.86,843.675 1500.51,838.334 
  1511.17,835.02 1521.82,834.923 1532.47,831.613 1543.13,828.277 1553.78,824.346 1564.43,815.52 1575.09,806.333 1585.74,794.548 1596.39,778.517 1607.04,763.554 
  1617.7,757.861 1628.35,751.106 1639,738.954 1649.66,727.362 1660.31,713.601 1670.96,690.869 1681.62,664.014 1692.27,632.565 1702.92,599.284 1713.57,560.27 
  1724.23,516.537 1734.88,480.04 1745.53,443.772 1756.19,405.676 1766.84,366.806 1777.49,327.055 1788.15,289.486 1798.8,254.493 1809.45,220.879 1820.1,188.7 
  1830.76,161 1841.41,139.753 1852.06,117.934 1862.72,101.304 1873.37,88.4516 1884.02,88.0053 1894.68,91.658 1905.33,98.9792 1915.98,106.253 1926.64,118.133 
  1937.29,134.309 1947.94,149.866 1958.59,167.497 1969.25,174.974 1979.9,191.016 1990.55,199.684 2001.21,211.867 2011.86,219.529 2022.51,229.232 2033.17,235.57 
  2043.82,240.824 2054.47,248.525 2065.12,251.403 2075.78,264.65 2086.43,267.679 2097.08,282.92 2107.74,298.219 2118.39,739.66 2129.04,1446.71 
  "/>
<path clip-path="url(#clip0300)" d="
M294.152 251.724 L828.489 251.724 L828.489 130.764 L294.152 130.764  Z
  " fill="#ffffff" fill-rule="evenodd" fill-opacity="1"/>
<polyline clip-path="url(#clip0300)" style="stroke:#000000; stroke-width:4; stroke-opacity:1; fill:none" points="
  294.152,251.724 828.489,251.724 828.489,130.764 294.152,130.764 294.152,251.724 
  "/>
<polyline clip-path="url(#clip0300)" style="stroke:#000000; stroke-width:4; stroke-opacity:1; fill:none" points="
  318.152,191.244 462.152,191.244 
  "/>
<g clip-path="url(#clip0300)">
<text style="fill:#000000; fill-opacity:1; font-family:Arial,Helvetica Neue,Helvetica,sans-serif; font-size:48px; text-anchor:start;" transform="rotate(0, 486.152, 208.744)" x="486.152" y="208.744">Iteration #370</text>
</g>
</svg>
