<?xml version="1.0" encoding="utf-8"?>
<svg xmlns="http://www.w3.org/2000/svg" xmlns:xlink="http://www.w3.org/1999/xlink" width="600" height="400" viewBox="0 0 2400 1600">
<defs>
  <clipPath id="clip6100">
    <rect x="0" y="0" width="2400" height="1600"/>
  </clipPath>
</defs>
<path clip-path="url(#clip6100)" d="
M0 1600 L2400 1600 L2400 0 L0 0  Z
  " fill="#ffffff" fill-rule="evenodd" fill-opacity="1"/>
<defs>
  <clipPath id="clip6101">
    <rect x="480" y="0" width="1681" height="1600"/>
  </clipPath>
</defs>
<path clip-path="url(#clip6100)" d="
M222.152 1487.47 L2352.76 1487.47 L2352.76 47.2441 L222.152 47.2441  Z
  " fill="#ffffff" fill-rule="evenodd" fill-opacity="1"/>
<defs>
  <clipPath id="clip6102">
    <rect x="222" y="47" width="2132" height="1441"/>
  </clipPath>
</defs>
<polyline clip-path="url(#clip6100)" style="stroke:#000000; stroke-width:4; stroke-opacity:1; fill:none" points="
  222.152,1487.47 2352.76,1487.47 
  "/>
<polyline clip-path="url(#clip6100)" style="stroke:#000000; stroke-width:4; stroke-opacity:1; fill:none" points="
  222.152,1487.47 222.152,47.2441 
  "/>
<polyline clip-path="url(#clip6100)" style="stroke:#000000; stroke-width:4; stroke-opacity:1; fill:none" points="
  222.152,1487.47 222.152,1470.19 
  "/>
<polyline clip-path="url(#clip6100)" style="stroke:#000000; stroke-width:4; stroke-opacity:1; fill:none" points="
  754.803,1487.47 754.803,1470.19 
  "/>
<polyline clip-path="url(#clip6100)" style="stroke:#000000; stroke-width:4; stroke-opacity:1; fill:none" points="
  1287.45,1487.47 1287.45,1470.19 
  "/>
<polyline clip-path="url(#clip6100)" style="stroke:#000000; stroke-width:4; stroke-opacity:1; fill:none" points="
  1820.1,1487.47 1820.1,1470.19 
  "/>
<polyline clip-path="url(#clip6100)" style="stroke:#000000; stroke-width:4; stroke-opacity:1; fill:none" points="
  2352.76,1487.47 2352.76,1470.19 
  "/>
<polyline clip-path="url(#clip6100)" style="stroke:#000000; stroke-width:4; stroke-opacity:1; fill:none" points="
  222.152,1365.77 247.719,1365.77 
  "/>
<polyline clip-path="url(#clip6100)" style="stroke:#000000; stroke-width:4; stroke-opacity:1; fill:none" points="
  222.152,1079.63 247.719,1079.63 
  "/>
<polyline clip-path="url(#clip6100)" style="stroke:#000000; stroke-width:4; stroke-opacity:1; fill:none" points="
  222.152,793.481 247.719,793.481 
  "/>
<polyline clip-path="url(#clip6100)" style="stroke:#000000; stroke-width:4; stroke-opacity:1; fill:none" points="
  222.152,507.337 247.719,507.337 
  "/>
<polyline clip-path="url(#clip6100)" style="stroke:#000000; stroke-width:4; stroke-opacity:1; fill:none" points="
  222.152,221.192 247.719,221.192 
  "/>
<g clip-path="url(#clip6100)">
<text style="fill:#000000; fill-opacity:1; font-family:Arial,Helvetica Neue,Helvetica,sans-serif; font-size:48px; text-anchor:middle;" transform="rotate(0, 222.152, 1541.47)" x="222.152" y="1541.47">0</text>
</g>
<g clip-path="url(#clip6100)">
<text style="fill:#000000; fill-opacity:1; font-family:Arial,Helvetica Neue,Helvetica,sans-serif; font-size:48px; text-anchor:middle;" transform="rotate(0, 754.803, 1541.47)" x="754.803" y="1541.47">50</text>
</g>
<g clip-path="url(#clip6100)">
<text style="fill:#000000; fill-opacity:1; font-family:Arial,Helvetica Neue,Helvetica,sans-serif; font-size:48px; text-anchor:middle;" transform="rotate(0, 1287.45, 1541.47)" x="1287.45" y="1541.47">100</text>
</g>
<g clip-path="url(#clip6100)">
<text style="fill:#000000; fill-opacity:1; font-family:Arial,Helvetica Neue,Helvetica,sans-serif; font-size:48px; text-anchor:middle;" transform="rotate(0, 1820.1, 1541.47)" x="1820.1" y="1541.47">150</text>
</g>
<g clip-path="url(#clip6100)">
<text style="fill:#000000; fill-opacity:1; font-family:Arial,Helvetica Neue,Helvetica,sans-serif; font-size:48px; text-anchor:middle;" transform="rotate(0, 2352.76, 1541.47)" x="2352.76" y="1541.47">200</text>
</g>
<g clip-path="url(#clip6100)">
<text style="fill:#000000; fill-opacity:1; font-family:Arial,Helvetica Neue,Helvetica,sans-serif; font-size:48px; text-anchor:end;" transform="rotate(0, 198.152, 1383.27)" x="198.152" y="1383.27">-1000</text>
</g>
<g clip-path="url(#clip6100)">
<text style="fill:#000000; fill-opacity:1; font-family:Arial,Helvetica Neue,Helvetica,sans-serif; font-size:48px; text-anchor:end;" transform="rotate(0, 198.152, 1097.13)" x="198.152" y="1097.13">0</text>
</g>
<g clip-path="url(#clip6100)">
<text style="fill:#000000; fill-opacity:1; font-family:Arial,Helvetica Neue,Helvetica,sans-serif; font-size:48px; text-anchor:end;" transform="rotate(0, 198.152, 810.981)" x="198.152" y="810.981">1000</text>
</g>
<g clip-path="url(#clip6100)">
<text style="fill:#000000; fill-opacity:1; font-family:Arial,Helvetica Neue,Helvetica,sans-serif; font-size:48px; text-anchor:end;" transform="rotate(0, 198.152, 524.837)" x="198.152" y="524.837">2000</text>
</g>
<g clip-path="url(#clip6100)">
<text style="fill:#000000; fill-opacity:1; font-family:Arial,Helvetica Neue,Helvetica,sans-serif; font-size:48px; text-anchor:end;" transform="rotate(0, 198.152, 238.692)" x="198.152" y="238.692">3000</text>
</g>
<polyline clip-path="url(#clip6102)" style="stroke:#000000; stroke-width:4; stroke-opacity:1; fill:none" points="
  232.805,979.844 243.458,983.223 254.111,986.73 264.764,988.445 275.417,990.193 286.07,993.601 296.723,997.887 307.376,1000.89 318.029,1003.6 328.682,1006.04 
  339.335,1007.68 349.988,1006.8 360.641,1003.29 371.294,1001.2 381.947,1001.71 392.6,1001.02 403.253,1000.23 413.906,999.327 424.559,998.339 435.212,997.261 
  445.865,996.109 456.518,995.064 467.171,995.273 477.824,997.729 488.477,1000.83 499.13,1003.54 509.783,1006.54 520.436,1009.9 531.089,1013.73 541.742,1018.13 
  552.395,1022.88 563.048,1026.9 573.701,1029.4 584.354,1030.53 595.007,1029.79 605.66,1027.35 616.313,1023.12 626.966,1018.5 637.619,1014.31 648.272,1009.22 
  658.925,1004.29 669.578,999.044 680.232,995.573 690.885,993.723 701.538,992.919 712.191,991.698 722.844,989.689 733.497,986.624 744.15,984.217 754.803,982.848 
  765.456,982.771 776.109,982.104 786.762,981.457 797.415,980.829 808.068,980.209 818.721,979.939 829.374,978.599 840.027,974.925 850.68,972.151 861.333,970.395 
  871.986,970.263 882.639,971.35 893.292,973.381 903.945,972.275 914.598,969.222 925.251,966.848 935.904,964.169 946.557,961.101 957.21,959.008 967.863,958.072 
  978.516,957.24 989.169,958.201 999.822,957.761 1010.48,956.911 1021.13,955.613 1031.78,953.861 1042.43,951.522 1053.09,948.953 1063.74,947.374 1074.39,946.937 
  1085.05,944.819 1095.7,942.03 1106.35,938.284 1117.01,933.615 1127.66,928.293 1138.31,924.598 1148.96,923.128 1159.62,919.939 1170.27,916.471 1180.92,914.917 
  1191.58,910.278 1202.23,903.751 1212.88,896.703 1223.54,891.805 1234.19,888.218 1244.84,882.484 1255.49,879.518 1266.15,875.247 1276.8,867.341 1287.45,858.782 
  1298.11,849.957 1308.76,838.806 1319.41,833.461 1330.07,834.076 1340.72,834.523 1351.37,834.884 1362.02,835.806 1372.68,834.532 1383.33,834.477 1393.98,830.626 
  1404.64,826.363 1415.29,826.898 1425.94,830.302 1436.6,830.618 1447.25,830.777 1457.9,833.152 1468.56,832.279 1479.21,829.895 1489.86,826.221 1500.51,820.578 
  1511.17,816.364 1521.82,814.393 1532.47,809.568 1543.13,804.328 1553.78,798.248 1564.43,787.814 1575.09,776.695 1585.74,763.063 1596.39,745.685 1607.04,728.781 
  1617.7,718.928 1628.35,707.894 1639,692.081 1649.66,676.358 1660.31,658.408 1670.96,632.898 1681.62,603.618 1692.27,570.173 1702.92,534.609 1713.57,494.249 
  1724.23,450.971 1734.88,418.151 1745.53,386.142 1756.19,353.099 1766.84,319.965 1777.49,286.441 1788.15,255.066 1798.8,225.785 1809.45,198.064 1820.1,171.406 
  1830.76,148.6 1841.41,131.096 1852.06,112.826 1862.72,99.2523 1873.37,88.4357 1884.02,88.0053 1894.68,90.4996 1905.33,96.7449 1915.98,102.229 1926.64,112.571 
  1937.29,125.603 1947.94,138.761 1958.59,153.416 1969.25,159.946 1979.9,173.412 1990.55,180.973 2001.21,191.447 2011.86,198.16 2022.51,206.797 2033.17,211.862 
  2043.82,217.47 2054.47,223.223 2065.12,227.084 2075.78,238.386 2086.43,240.411 2097.08,255.717 2107.74,268.202 2118.39,671.169 2129.04,1446.71 
  "/>
<path clip-path="url(#clip6100)" d="
M294.152 251.724 L828.489 251.724 L828.489 130.764 L294.152 130.764  Z
  " fill="#ffffff" fill-rule="evenodd" fill-opacity="1"/>
<polyline clip-path="url(#clip6100)" style="stroke:#000000; stroke-width:4; stroke-opacity:1; fill:none" points="
  294.152,251.724 828.489,251.724 828.489,130.764 294.152,130.764 294.152,251.724 
  "/>
<polyline clip-path="url(#clip6100)" style="stroke:#000000; stroke-width:4; stroke-opacity:1; fill:none" points="
  318.152,191.244 462.152,191.244 
  "/>
<g clip-path="url(#clip6100)">
<text style="fill:#000000; fill-opacity:1; font-family:Arial,Helvetica Neue,Helvetica,sans-serif; font-size:48px; text-anchor:start;" transform="rotate(0, 486.152, 208.744)" x="486.152" y="208.744">Iteration #300</text>
</g>
</svg>
