<?xml version="1.0" encoding="utf-8"?>
<svg xmlns="http://www.w3.org/2000/svg" xmlns:xlink="http://www.w3.org/1999/xlink" width="600" height="400" viewBox="0 0 2400 1600">
<defs>
  <clipPath id="clip3500">
    <rect x="0" y="0" width="2400" height="1600"/>
  </clipPath>
</defs>
<path clip-path="url(#clip3500)" d="
M0 1600 L2400 1600 L2400 0 L0 0  Z
  " fill="#ffffff" fill-rule="evenodd" fill-opacity="1"/>
<defs>
  <clipPath id="clip3501">
    <rect x="480" y="0" width="1681" height="1600"/>
  </clipPath>
</defs>
<path clip-path="url(#clip3500)" d="
M195.389 1487.47 L2352.76 1487.47 L2352.76 47.2441 L195.389 47.2441  Z
  " fill="#ffffff" fill-rule="evenodd" fill-opacity="1"/>
<defs>
  <clipPath id="clip3502">
    <rect x="195" y="47" width="2158" height="1441"/>
  </clipPath>
</defs>
<polyline clip-path="url(#clip3500)" style="stroke:#000000; stroke-width:4; stroke-opacity:1; fill:none" points="
  195.389,1487.47 2352.76,1487.47 
  "/>
<polyline clip-path="url(#clip3500)" style="stroke:#000000; stroke-width:4; stroke-opacity:1; fill:none" points="
  195.389,1487.47 195.389,47.2441 
  "/>
<polyline clip-path="url(#clip3500)" style="stroke:#000000; stroke-width:4; stroke-opacity:1; fill:none" points="
  195.389,1487.47 195.389,1470.19 
  "/>
<polyline clip-path="url(#clip3500)" style="stroke:#000000; stroke-width:4; stroke-opacity:1; fill:none" points="
  734.731,1487.47 734.731,1470.19 
  "/>
<polyline clip-path="url(#clip3500)" style="stroke:#000000; stroke-width:4; stroke-opacity:1; fill:none" points="
  1274.07,1487.47 1274.07,1470.19 
  "/>
<polyline clip-path="url(#clip3500)" style="stroke:#000000; stroke-width:4; stroke-opacity:1; fill:none" points="
  1813.41,1487.47 1813.41,1470.19 
  "/>
<polyline clip-path="url(#clip3500)" style="stroke:#000000; stroke-width:4; stroke-opacity:1; fill:none" points="
  2352.76,1487.47 2352.76,1470.19 
  "/>
<polyline clip-path="url(#clip3500)" style="stroke:#000000; stroke-width:4; stroke-opacity:1; fill:none" points="
  195.389,1472.28 221.278,1472.28 
  "/>
<polyline clip-path="url(#clip3500)" style="stroke:#000000; stroke-width:4; stroke-opacity:1; fill:none" points="
  195.389,1210.81 221.278,1210.81 
  "/>
<polyline clip-path="url(#clip3500)" style="stroke:#000000; stroke-width:4; stroke-opacity:1; fill:none" points="
  195.389,949.327 221.278,949.327 
  "/>
<polyline clip-path="url(#clip3500)" style="stroke:#000000; stroke-width:4; stroke-opacity:1; fill:none" points="
  195.389,687.848 221.278,687.848 
  "/>
<polyline clip-path="url(#clip3500)" style="stroke:#000000; stroke-width:4; stroke-opacity:1; fill:none" points="
  195.389,426.369 221.278,426.369 
  "/>
<polyline clip-path="url(#clip3500)" style="stroke:#000000; stroke-width:4; stroke-opacity:1; fill:none" points="
  195.389,164.889 221.278,164.889 
  "/>
<g clip-path="url(#clip3500)">
<text style="fill:#000000; fill-opacity:1; font-family:Arial,Helvetica Neue,Helvetica,sans-serif; font-size:48px; text-anchor:middle;" transform="rotate(0, 195.389, 1541.47)" x="195.389" y="1541.47">0</text>
</g>
<g clip-path="url(#clip3500)">
<text style="fill:#000000; fill-opacity:1; font-family:Arial,Helvetica Neue,Helvetica,sans-serif; font-size:48px; text-anchor:middle;" transform="rotate(0, 734.731, 1541.47)" x="734.731" y="1541.47">50</text>
</g>
<g clip-path="url(#clip3500)">
<text style="fill:#000000; fill-opacity:1; font-family:Arial,Helvetica Neue,Helvetica,sans-serif; font-size:48px; text-anchor:middle;" transform="rotate(0, 1274.07, 1541.47)" x="1274.07" y="1541.47">100</text>
</g>
<g clip-path="url(#clip3500)">
<text style="fill:#000000; fill-opacity:1; font-family:Arial,Helvetica Neue,Helvetica,sans-serif; font-size:48px; text-anchor:middle;" transform="rotate(0, 1813.41, 1541.47)" x="1813.41" y="1541.47">150</text>
</g>
<g clip-path="url(#clip3500)">
<text style="fill:#000000; fill-opacity:1; font-family:Arial,Helvetica Neue,Helvetica,sans-serif; font-size:48px; text-anchor:middle;" transform="rotate(0, 2352.76, 1541.47)" x="2352.76" y="1541.47">200</text>
</g>
<g clip-path="url(#clip3500)">
<text style="fill:#000000; fill-opacity:1; font-family:Arial,Helvetica Neue,Helvetica,sans-serif; font-size:48px; text-anchor:end;" transform="rotate(0, 171.389, 1489.78)" x="171.389" y="1489.78">-500</text>
</g>
<g clip-path="url(#clip3500)">
<text style="fill:#000000; fill-opacity:1; font-family:Arial,Helvetica Neue,Helvetica,sans-serif; font-size:48px; text-anchor:end;" transform="rotate(0, 171.389, 1228.31)" x="171.389" y="1228.31">0</text>
</g>
<g clip-path="url(#clip3500)">
<text style="fill:#000000; fill-opacity:1; font-family:Arial,Helvetica Neue,Helvetica,sans-serif; font-size:48px; text-anchor:end;" transform="rotate(0, 171.389, 966.827)" x="171.389" y="966.827">500</text>
</g>
<g clip-path="url(#clip3500)">
<text style="fill:#000000; fill-opacity:1; font-family:Arial,Helvetica Neue,Helvetica,sans-serif; font-size:48px; text-anchor:end;" transform="rotate(0, 171.389, 705.348)" x="171.389" y="705.348">1000</text>
</g>
<g clip-path="url(#clip3500)">
<text style="fill:#000000; fill-opacity:1; font-family:Arial,Helvetica Neue,Helvetica,sans-serif; font-size:48px; text-anchor:end;" transform="rotate(0, 171.389, 443.869)" x="171.389" y="443.869">1500</text>
</g>
<g clip-path="url(#clip3500)">
<text style="fill:#000000; fill-opacity:1; font-family:Arial,Helvetica Neue,Helvetica,sans-serif; font-size:48px; text-anchor:end;" transform="rotate(0, 171.389, 182.389)" x="171.389" y="182.389">2000</text>
</g>
<polyline clip-path="url(#clip3502)" style="stroke:#000000; stroke-width:4; stroke-opacity:1; fill:none" points="
  206.176,1054.05 216.963,1055.07 227.75,1056.25 238.537,1057.01 249.323,1057.86 260.11,1059.19 270.897,1060.79 281.684,1062.06 292.471,1063.29 303.258,1064.41 
  314.044,1065.35 324.831,1065.59 335.618,1065.15 346.405,1065.05 357.192,1065.64 367.979,1065.91 378.765,1066.16 389.552,1066.38 400.339,1066.59 411.126,1066.78 
  421.913,1066.97 432.7,1067.19 443.486,1067.77 454.273,1068.92 465.06,1070.26 475.847,1071.48 486.634,1072.74 497.421,1074.07 508.207,1075.47 518.994,1076.93 
  529.781,1078.39 540.568,1079.55 551.355,1080.18 562.142,1080.32 572.928,1079.82 583.715,1078.72 594.502,1077.01 605.289,1075.03 616.076,1073.03 626.863,1070.66 
  637.649,1068.23 648.436,1065.61 659.223,1063.37 670.01,1061.45 680.797,1059.77 691.584,1057.89 702.37,1055.76 713.157,1053.31 723.944,1050.98 734.731,1048.88 
  745.518,1047.09 756.305,1045.09 767.091,1043.07 777.878,1041.02 788.665,1038.93 799.452,1036.88 810.239,1034.5 821.026,1031.51 831.812,1028.65 842.599,1026.09 
  853.386,1023.88 864.173,1021.98 874.96,1020.26 885.747,1017.66 896.533,1014.51 907.32,1011.42 918.107,1008.22 928.894,1004.82 939.681,1001.65 950.468,998.693 
  961.254,995.735 972.041,993.1 982.828,990.079 993.615,986.765 1004.4,983.259 1015.19,979.463 1025.98,975.356 1036.76,971.089 1047.55,966.835 1058.34,962.797 
  1069.12,958.038 1079.91,952.988 1090.7,947.391 1101.48,941.431 1112.27,935.013 1123.06,928.924 1133.84,923.15 1144.63,916.821 1155.42,910.154 1166.2,903.838 
  1176.99,896.512 1187.78,888.384 1198.56,880.141 1209.35,872.098 1220.14,864.503 1230.93,855.991 1241.71,848.322 1252.5,839.974 1263.29,830.741 1274.07,821.088 
  1284.86,811.532 1295.65,801.11 1306.43,792.435 1317.22,785.346 1328.01,778.146 1338.79,771.072 1349.58,763.867 1360.37,756.28 1371.15,748.617 1381.94,740.079 
  1392.73,731.062 1403.51,723.366 1414.3,716.002 1425.09,707.91 1435.88,699.173 1446.66,691.013 1457.45,681.478 1468.24,671.193 1479.02,660.269 1489.81,648.228 
  1500.6,636.462 1511.38,624.509 1522.17,611.633 1532.96,597.978 1543.74,583.772 1554.53,567.745 1565.32,551.174 1576.1,533.225 1586.89,513.921 1597.68,494.077 
  1608.46,475.432 1619.25,456.03 1630.04,434.256 1640.82,411.917 1651.61,387.695 1662.4,360.131 1673.19,329.622 1683.97,295.623 1694.76,257.592 1705.55,216.546 
  1716.33,177.98 1727.12,166.502 1737.91,156.871 1748.69,147.869 1759.48,139.614 1770.27,131.543 1781.05,124.406 1791.84,117.672 1802.63,111.78 1813.41,105.715 
  1824.2,101.127 1834.99,97.1513 1845.77,93.2726 1856.56,90.6336 1867.35,88.0053 1878.14,88.2464 1888.92,88.4492 1899.71,90.5091 1910.5,91.128 1921.28,94.6739 
  1932.07,96.8423 1942.86,101.232 1953.64,104.225 1964.43,106.334 1975.22,109.959 1986,112.285 1996.79,115.448 2007.58,117.458 2018.36,120.505 2029.15,121.588 
  2039.94,124.888 2050.72,125.309 2061.51,128.955 2072.3,130.936 2083.09,133.483 2093.87,138.405 2104.66,142.392 2115.45,625.335 2126.23,1446.71 
  "/>
<path clip-path="url(#clip3500)" d="
M267.389 251.724 L774.964 251.724 L774.964 130.764 L267.389 130.764  Z
  " fill="#ffffff" fill-rule="evenodd" fill-opacity="1"/>
<polyline clip-path="url(#clip3500)" style="stroke:#000000; stroke-width:4; stroke-opacity:1; fill:none" points="
  267.389,251.724 774.964,251.724 774.964,130.764 267.389,130.764 267.389,251.724 
  "/>
<polyline clip-path="url(#clip3500)" style="stroke:#000000; stroke-width:4; stroke-opacity:1; fill:none" points="
  291.389,191.244 435.389,191.244 
  "/>
<g clip-path="url(#clip3500)">
<text style="fill:#000000; fill-opacity:1; font-family:Arial,Helvetica Neue,Helvetica,sans-serif; font-size:48px; text-anchor:start;" transform="rotate(0, 459.389, 208.744)" x="459.389" y="208.744">Iteration #90</text>
</g>
</svg>
