<?xml version="1.0" encoding="utf-8"?>
<svg xmlns="http://www.w3.org/2000/svg" xmlns:xlink="http://www.w3.org/1999/xlink" width="600" height="400" viewBox="0 0 2400 1600">
<defs>
  <clipPath id="clip3700">
    <rect x="0" y="0" width="2400" height="1600"/>
  </clipPath>
</defs>
<path clip-path="url(#clip3700)" d="
M0 1600 L2400 1600 L2400 0 L0 0  Z
  " fill="#ffffff" fill-rule="evenodd" fill-opacity="1"/>
<defs>
  <clipPath id="clip3701">
    <rect x="480" y="0" width="1681" height="1600"/>
  </clipPath>
</defs>
<path clip-path="url(#clip3700)" d="
M222.152 1487.47 L2352.76 1487.47 L2352.76 47.2441 L222.152 47.2441  Z
  " fill="#ffffff" fill-rule="evenodd" fill-opacity="1"/>
<defs>
  <clipPath id="clip3702">
    <rect x="222" y="47" width="2132" height="1441"/>
  </clipPath>
</defs>
<polyline clip-path="url(#clip3700)" style="stroke:#000000; stroke-width:4; stroke-opacity:1; fill:none" points="
  222.152,1487.47 2352.76,1487.47 
  "/>
<polyline clip-path="url(#clip3700)" style="stroke:#000000; stroke-width:4; stroke-opacity:1; fill:none" points="
  222.152,1487.47 222.152,47.2441 
  "/>
<polyline clip-path="url(#clip3700)" style="stroke:#000000; stroke-width:4; stroke-opacity:1; fill:none" points="
  222.152,1487.47 222.152,1470.19 
  "/>
<polyline clip-path="url(#clip3700)" style="stroke:#000000; stroke-width:4; stroke-opacity:1; fill:none" points="
  754.803,1487.47 754.803,1470.19 
  "/>
<polyline clip-path="url(#clip3700)" style="stroke:#000000; stroke-width:4; stroke-opacity:1; fill:none" points="
  1287.45,1487.47 1287.45,1470.19 
  "/>
<polyline clip-path="url(#clip3700)" style="stroke:#000000; stroke-width:4; stroke-opacity:1; fill:none" points="
  1820.1,1487.47 1820.1,1470.19 
  "/>
<polyline clip-path="url(#clip3700)" style="stroke:#000000; stroke-width:4; stroke-opacity:1; fill:none" points="
  2352.76,1487.47 2352.76,1470.19 
  "/>
<polyline clip-path="url(#clip3700)" style="stroke:#000000; stroke-width:4; stroke-opacity:1; fill:none" points="
  222.152,1396.01 247.719,1396.01 
  "/>
<polyline clip-path="url(#clip3700)" style="stroke:#000000; stroke-width:4; stroke-opacity:1; fill:none" points="
  222.152,1088.05 247.719,1088.05 
  "/>
<polyline clip-path="url(#clip3700)" style="stroke:#000000; stroke-width:4; stroke-opacity:1; fill:none" points="
  222.152,780.09 247.719,780.09 
  "/>
<polyline clip-path="url(#clip3700)" style="stroke:#000000; stroke-width:4; stroke-opacity:1; fill:none" points="
  222.152,472.128 247.719,472.128 
  "/>
<polyline clip-path="url(#clip3700)" style="stroke:#000000; stroke-width:4; stroke-opacity:1; fill:none" points="
  222.152,164.165 247.719,164.165 
  "/>
<g clip-path="url(#clip3700)">
<text style="fill:#000000; fill-opacity:1; font-family:Arial,Helvetica Neue,Helvetica,sans-serif; font-size:48px; text-anchor:middle;" transform="rotate(0, 222.152, 1541.47)" x="222.152" y="1541.47">0</text>
</g>
<g clip-path="url(#clip3700)">
<text style="fill:#000000; fill-opacity:1; font-family:Arial,Helvetica Neue,Helvetica,sans-serif; font-size:48px; text-anchor:middle;" transform="rotate(0, 754.803, 1541.47)" x="754.803" y="1541.47">50</text>
</g>
<g clip-path="url(#clip3700)">
<text style="fill:#000000; fill-opacity:1; font-family:Arial,Helvetica Neue,Helvetica,sans-serif; font-size:48px; text-anchor:middle;" transform="rotate(0, 1287.45, 1541.47)" x="1287.45" y="1541.47">100</text>
</g>
<g clip-path="url(#clip3700)">
<text style="fill:#000000; fill-opacity:1; font-family:Arial,Helvetica Neue,Helvetica,sans-serif; font-size:48px; text-anchor:middle;" transform="rotate(0, 1820.1, 1541.47)" x="1820.1" y="1541.47">150</text>
</g>
<g clip-path="url(#clip3700)">
<text style="fill:#000000; fill-opacity:1; font-family:Arial,Helvetica Neue,Helvetica,sans-serif; font-size:48px; text-anchor:middle;" transform="rotate(0, 2352.76, 1541.47)" x="2352.76" y="1541.47">200</text>
</g>
<g clip-path="url(#clip3700)">
<text style="fill:#000000; fill-opacity:1; font-family:Arial,Helvetica Neue,Helvetica,sans-serif; font-size:48px; text-anchor:end;" transform="rotate(0, 198.152, 1413.51)" x="198.152" y="1413.51">-1000</text>
</g>
<g clip-path="url(#clip3700)">
<text style="fill:#000000; fill-opacity:1; font-family:Arial,Helvetica Neue,Helvetica,sans-serif; font-size:48px; text-anchor:end;" transform="rotate(0, 198.152, 1105.55)" x="198.152" y="1105.55">0</text>
</g>
<g clip-path="url(#clip3700)">
<text style="fill:#000000; fill-opacity:1; font-family:Arial,Helvetica Neue,Helvetica,sans-serif; font-size:48px; text-anchor:end;" transform="rotate(0, 198.152, 797.59)" x="198.152" y="797.59">1000</text>
</g>
<g clip-path="url(#clip3700)">
<text style="fill:#000000; fill-opacity:1; font-family:Arial,Helvetica Neue,Helvetica,sans-serif; font-size:48px; text-anchor:end;" transform="rotate(0, 198.152, 489.628)" x="198.152" y="489.628">2000</text>
</g>
<g clip-path="url(#clip3700)">
<text style="fill:#000000; fill-opacity:1; font-family:Arial,Helvetica Neue,Helvetica,sans-serif; font-size:48px; text-anchor:end;" transform="rotate(0, 198.152, 181.665)" x="198.152" y="181.665">3000</text>
</g>
<polyline clip-path="url(#clip3702)" style="stroke:#000000; stroke-width:4; stroke-opacity:1; fill:none" points="
  232.805,982.798 243.458,985.783 254.111,988.933 264.764,990.569 275.417,992.262 286.07,995.403 296.723,999.309 307.376,1002.11 318.029,1004.66 328.682,1006.94 
  339.335,1008.52 349.988,1007.91 360.641,1005.02 371.294,1003.33 381.947,1003.89 392.6,1003.4 403.253,1002.83 413.906,1002.16 424.559,1001.44 435.212,1000.64 
  445.865,999.805 456.518,999.079 467.171,999.459 477.824,1001.8 488.477,1004.72 499.13,1007.31 509.783,1010.16 520.436,1013.32 531.089,1016.87 541.742,1020.89 
  552.395,1025.17 563.048,1028.79 573.701,1031.02 584.354,1032.02 595.007,1031.33 605.66,1029.08 616.313,1025.23 626.966,1020.98 637.619,1017.04 648.272,1012.28 
  658.925,1007.62 669.578,1002.67 680.232,999.231 690.885,997.185 701.538,996.045 712.191,994.546 722.844,992.374 733.497,989.301 744.15,986.805 754.803,985.22 
  765.456,984.763 776.109,983.814 786.762,982.894 797.415,982.005 808.068,981.128 818.721,980.558 829.374,979.067 840.027,975.58 850.68,972.864 861.333,971.052 
  871.986,970.65 882.639,971.315 893.292,972.793 903.945,971.562 914.598,968.649 925.251,966.302 935.904,963.697 946.557,960.75 957.21,958.656 967.863,957.56 
  978.516,956.57 989.169,957.109 999.822,956.447 1010.48,955.403 1021.13,953.957 1031.78,952.089 1042.43,949.684 1053.09,947.061 1063.74,945.246 1074.39,944.396 
  1085.05,942.039 1095.7,939.072 1106.35,935.214 1117.01,930.534 1127.66,925.237 1138.31,921.333 1148.96,919.3 1159.62,915.775 1170.27,911.964 1180.92,909.772 
  1191.58,904.885 1202.23,898.319 1212.88,891.312 1223.54,886.113 1234.19,882.08 1244.84,876.166 1255.49,872.676 1266.15,868.028 1276.8,860.292 1287.45,851.978 
  1298.11,843.517 1308.76,833.078 1319.41,827.769 1330.07,827.689 1340.72,827.545 1351.37,827.409 1362.02,827.77 1372.68,826.301 1383.33,825.846 1393.98,822.155 
  1404.64,818.062 1415.29,818.133 1425.94,820.607 1436.6,820.413 1447.25,819.938 1457.9,821.321 1468.56,819.731 1479.21,816.695 1489.86,812.378 1500.51,806.166 
  1511.17,801.037 1521.82,797.602 1532.47,791.534 1543.13,784.85 1553.78,777.23 1564.43,765.597 1575.09,753.16 1585.74,738.292 1596.39,720.035 1607.04,701.945 
  1617.7,689.71 1628.35,676.273 1639,658.488 1649.66,640.595 1660.31,620.528 1670.96,593.757 1681.62,563.475 1692.27,529.298 1702.92,492.836 1713.57,452.121 
  1724.23,409.508 1734.88,379.423 1745.53,350.435 1756.19,320.818 1766.84,291.412 1777.49,261.822 1788.15,234.287 1798.8,208.511 1809.45,184.404 1820.1,161.024 
  1830.76,141.209 1841.41,125.836 1852.06,109.872 1862.72,97.9829 1873.37,88.4159 1884.02,88.0053 1894.68,89.7943 1905.33,95.5086 1915.98,99.7809 1926.64,109.358 
  1937.29,120.265 1947.94,132.085 1958.59,144.758 1969.25,150.729 1979.9,162.57 1990.55,169.371 2001.21,178.862 2011.86,184.621 2022.51,192.852 2033.17,196.795 
  2043.82,202.911 2054.47,207.302 2065.12,211.525 2075.78,221.562 2086.43,223.378 2097.08,238.017 2107.74,248.57 2118.39,673.675 2129.04,1446.71 
  "/>
<path clip-path="url(#clip3700)" d="
M294.152 251.724 L828.489 251.724 L828.489 130.764 L294.152 130.764  Z
  " fill="#ffffff" fill-rule="evenodd" fill-opacity="1"/>
<polyline clip-path="url(#clip3700)" style="stroke:#000000; stroke-width:4; stroke-opacity:1; fill:none" points="
  294.152,251.724 828.489,251.724 828.489,130.764 294.152,130.764 294.152,251.724 
  "/>
<polyline clip-path="url(#clip3700)" style="stroke:#000000; stroke-width:4; stroke-opacity:1; fill:none" points="
  318.152,191.244 462.152,191.244 
  "/>
<g clip-path="url(#clip3700)">
<text style="fill:#000000; fill-opacity:1; font-family:Arial,Helvetica Neue,Helvetica,sans-serif; font-size:48px; text-anchor:start;" transform="rotate(0, 486.152, 208.744)" x="486.152" y="208.744">Iteration #260</text>
</g>
</svg>
