<?xml version="1.0" encoding="utf-8"?>
<svg xmlns="http://www.w3.org/2000/svg" xmlns:xlink="http://www.w3.org/1999/xlink" width="600" height="400" viewBox="0 0 2400 1600">
<defs>
  <clipPath id="clip3100">
    <rect x="0" y="0" width="2400" height="1600"/>
  </clipPath>
</defs>
<path clip-path="url(#clip3100)" d="
M0 1600 L2400 1600 L2400 0 L0 0  Z
  " fill="#ffffff" fill-rule="evenodd" fill-opacity="1"/>
<defs>
  <clipPath id="clip3101">
    <rect x="480" y="0" width="1681" height="1600"/>
  </clipPath>
</defs>
<path clip-path="url(#clip3100)" d="
M222.152 1487.47 L2352.76 1487.47 L2352.76 47.2441 L222.152 47.2441  Z
  " fill="#ffffff" fill-rule="evenodd" fill-opacity="1"/>
<defs>
  <clipPath id="clip3102">
    <rect x="222" y="47" width="2132" height="1441"/>
  </clipPath>
</defs>
<polyline clip-path="url(#clip3100)" style="stroke:#000000; stroke-width:4; stroke-opacity:1; fill:none" points="
  222.152,1487.47 2352.76,1487.47 
  "/>
<polyline clip-path="url(#clip3100)" style="stroke:#000000; stroke-width:4; stroke-opacity:1; fill:none" points="
  222.152,1487.47 222.152,47.2441 
  "/>
<polyline clip-path="url(#clip3100)" style="stroke:#000000; stroke-width:4; stroke-opacity:1; fill:none" points="
  222.152,1487.47 222.152,1470.19 
  "/>
<polyline clip-path="url(#clip3100)" style="stroke:#000000; stroke-width:4; stroke-opacity:1; fill:none" points="
  754.803,1487.47 754.803,1470.19 
  "/>
<polyline clip-path="url(#clip3100)" style="stroke:#000000; stroke-width:4; stroke-opacity:1; fill:none" points="
  1287.45,1487.47 1287.45,1470.19 
  "/>
<polyline clip-path="url(#clip3100)" style="stroke:#000000; stroke-width:4; stroke-opacity:1; fill:none" points="
  1820.1,1487.47 1820.1,1470.19 
  "/>
<polyline clip-path="url(#clip3100)" style="stroke:#000000; stroke-width:4; stroke-opacity:1; fill:none" points="
  2352.76,1487.47 2352.76,1470.19 
  "/>
<polyline clip-path="url(#clip3100)" style="stroke:#000000; stroke-width:4; stroke-opacity:1; fill:none" points="
  222.152,1404.87 247.719,1404.87 
  "/>
<polyline clip-path="url(#clip3100)" style="stroke:#000000; stroke-width:4; stroke-opacity:1; fill:none" points="
  222.152,1090.65 247.719,1090.65 
  "/>
<polyline clip-path="url(#clip3100)" style="stroke:#000000; stroke-width:4; stroke-opacity:1; fill:none" points="
  222.152,776.423 247.719,776.423 
  "/>
<polyline clip-path="url(#clip3100)" style="stroke:#000000; stroke-width:4; stroke-opacity:1; fill:none" points="
  222.152,462.197 247.719,462.197 
  "/>
<polyline clip-path="url(#clip3100)" style="stroke:#000000; stroke-width:4; stroke-opacity:1; fill:none" points="
  222.152,147.972 247.719,147.972 
  "/>
<g clip-path="url(#clip3100)">
<text style="fill:#000000; fill-opacity:1; font-family:Arial,Helvetica Neue,Helvetica,sans-serif; font-size:48px; text-anchor:middle;" transform="rotate(0, 222.152, 1541.47)" x="222.152" y="1541.47">0</text>
</g>
<g clip-path="url(#clip3100)">
<text style="fill:#000000; fill-opacity:1; font-family:Arial,Helvetica Neue,Helvetica,sans-serif; font-size:48px; text-anchor:middle;" transform="rotate(0, 754.803, 1541.47)" x="754.803" y="1541.47">50</text>
</g>
<g clip-path="url(#clip3100)">
<text style="fill:#000000; fill-opacity:1; font-family:Arial,Helvetica Neue,Helvetica,sans-serif; font-size:48px; text-anchor:middle;" transform="rotate(0, 1287.45, 1541.47)" x="1287.45" y="1541.47">100</text>
</g>
<g clip-path="url(#clip3100)">
<text style="fill:#000000; fill-opacity:1; font-family:Arial,Helvetica Neue,Helvetica,sans-serif; font-size:48px; text-anchor:middle;" transform="rotate(0, 1820.1, 1541.47)" x="1820.1" y="1541.47">150</text>
</g>
<g clip-path="url(#clip3100)">
<text style="fill:#000000; fill-opacity:1; font-family:Arial,Helvetica Neue,Helvetica,sans-serif; font-size:48px; text-anchor:middle;" transform="rotate(0, 2352.76, 1541.47)" x="2352.76" y="1541.47">200</text>
</g>
<g clip-path="url(#clip3100)">
<text style="fill:#000000; fill-opacity:1; font-family:Arial,Helvetica Neue,Helvetica,sans-serif; font-size:48px; text-anchor:end;" transform="rotate(0, 198.152, 1422.37)" x="198.152" y="1422.37">-1000</text>
</g>
<g clip-path="url(#clip3100)">
<text style="fill:#000000; fill-opacity:1; font-family:Arial,Helvetica Neue,Helvetica,sans-serif; font-size:48px; text-anchor:end;" transform="rotate(0, 198.152, 1108.15)" x="198.152" y="1108.15">0</text>
</g>
<g clip-path="url(#clip3100)">
<text style="fill:#000000; fill-opacity:1; font-family:Arial,Helvetica Neue,Helvetica,sans-serif; font-size:48px; text-anchor:end;" transform="rotate(0, 198.152, 793.923)" x="198.152" y="793.923">1000</text>
</g>
<g clip-path="url(#clip3100)">
<text style="fill:#000000; fill-opacity:1; font-family:Arial,Helvetica Neue,Helvetica,sans-serif; font-size:48px; text-anchor:end;" transform="rotate(0, 198.152, 479.697)" x="198.152" y="479.697">2000</text>
</g>
<g clip-path="url(#clip3100)">
<text style="fill:#000000; fill-opacity:1; font-family:Arial,Helvetica Neue,Helvetica,sans-serif; font-size:48px; text-anchor:end;" transform="rotate(0, 198.152, 165.472)" x="198.152" y="165.472">3000</text>
</g>
<polyline clip-path="url(#clip3102)" style="stroke:#000000; stroke-width:4; stroke-opacity:1; fill:none" points="
  232.805,983.826 243.458,986.709 254.111,989.765 264.764,991.377 275.417,993.051 286.07,996.119 296.723,999.925 307.376,1002.67 318.029,1005.17 328.682,1007.42 
  339.335,1008.99 349.988,1008.44 360.641,1005.71 371.294,1004.13 381.947,1004.69 392.6,1004.26 403.253,1003.75 413.906,1003.15 424.559,1002.5 435.212,1001.78 
  445.865,1001.02 456.518,1000.38 467.171,1000.8 477.824,1003.1 488.477,1005.97 499.13,1008.53 509.783,1011.33 520.436,1014.43 531.089,1017.91 541.742,1021.83 
  552.395,1025.98 563.048,1029.49 573.701,1031.65 584.354,1032.61 595.007,1031.93 605.66,1029.74 616.313,1025.99 626.966,1021.84 637.619,1017.97 648.272,1013.3 
  658.925,1008.72 669.578,1003.85 680.232,1000.43 690.885,998.34 701.538,997.121 712.191,995.557 722.844,993.346 733.497,990.272 744.15,987.753 754.803,986.111 
  765.456,985.555 776.109,984.53 786.762,983.535 797.415,982.573 808.068,981.624 818.721,980.972 829.374,979.435 840.027,975.985 850.68,973.276 861.333,971.44 
  871.986,970.96 882.639,971.508 893.292,972.837 903.945,971.565 914.598,968.676 925.251,966.327 935.904,963.732 946.557,960.807 957.21,958.704 967.863,957.559 
  978.516,956.517 989.169,956.941 999.822,956.214 1010.48,955.111 1021.13,953.619 1031.78,951.714 1042.43,949.285 1053.09,946.641 1063.74,944.762 1074.39,943.801 
  1085.05,941.381 1095.7,938.365 1106.35,934.478 1117.01,929.794 1127.66,924.504 1138.31,920.545 1148.96,918.372 1159.62,914.763 1170.27,910.867 1180.92,908.517 
  1191.58,903.572 1202.23,897 1212.88,890.008 1223.54,884.739 1234.19,880.598 1244.84,874.643 1255.49,871.025 1266.15,866.287 1276.8,858.592 1287.45,850.343 
  1298.11,841.969 1308.76,831.703 1319.41,826.389 1330.07,826.118 1340.72,825.8 1351.37,825.512 1362.02,825.698 1372.68,824.143 1383.33,823.548 1393.98,819.851 
  1404.64,815.754 1415.29,815.654 1425.94,817.842 1436.6,817.458 1447.25,816.768 1457.9,817.839 1468.56,816.011 1479.21,812.75 1489.86,808.217 1500.51,801.808 
  1511.17,796.4 1521.82,792.55 1532.47,786.128 1543.13,779.046 1553.78,771.009 1564.43,759.054 1575.09,746.271 1585.74,731.089 1596.39,712.611 1607.04,694.237 
  1617.7,681.42 1628.35,667.41 1639,649.163 1649.66,630.769 1660.31,610.223 1670.96,583.19 1681.62,552.712 1692.27,518.408 1702.92,481.773 1713.57,441.012 
  1724.23,398.614 1734.88,369.288 1745.53,341.134 1756.19,312.434 1766.84,284.022 1777.49,255.457 1788.15,228.924 1798.8,204.068 1809.45,180.874 1820.1,158.363 
  1830.76,139.287 1841.41,124.496 1852.06,109.101 1862.72,97.6693 1873.37,88.406 1884.02,88.0053 1894.68,89.6448 1905.33,95.1733 1915.98,99.1723 1926.64,108.505 
  1937.29,118.944 1947.94,130.323 1958.59,142.558 1969.25,148.314 1979.9,159.762 1990.55,166.353 2001.21,175.554 2011.86,181.129 2022.51,189.15 2033.17,192.938 
  2043.82,199.002 2054.47,203.165 2065.12,207.402 2075.78,217.112 2086.43,219.119 2097.08,233.161 2107.74,243.401 2118.39,662.436 2129.04,1446.71 
  "/>
<path clip-path="url(#clip3100)" d="
M294.152 251.724 L828.489 251.724 L828.489 130.764 L294.152 130.764  Z
  " fill="#ffffff" fill-rule="evenodd" fill-opacity="1"/>
<polyline clip-path="url(#clip3100)" style="stroke:#000000; stroke-width:4; stroke-opacity:1; fill:none" points="
  294.152,251.724 828.489,251.724 828.489,130.764 294.152,130.764 294.152,251.724 
  "/>
<polyline clip-path="url(#clip3100)" style="stroke:#000000; stroke-width:4; stroke-opacity:1; fill:none" points="
  318.152,191.244 462.152,191.244 
  "/>
<g clip-path="url(#clip3100)">
<text style="fill:#000000; fill-opacity:1; font-family:Arial,Helvetica Neue,Helvetica,sans-serif; font-size:48px; text-anchor:start;" transform="rotate(0, 486.152, 208.744)" x="486.152" y="208.744">Iteration #250</text>
</g>
</svg>
