<?xml version="1.0" encoding="utf-8"?>
<svg xmlns="http://www.w3.org/2000/svg" xmlns:xlink="http://www.w3.org/1999/xlink" width="600" height="400" viewBox="0 0 2400 1600">
<defs>
  <clipPath id="clip4900">
    <rect x="0" y="0" width="2400" height="1600"/>
  </clipPath>
</defs>
<path clip-path="url(#clip4900)" d="
M0 1600 L2400 1600 L2400 0 L0 0  Z
  " fill="#ffffff" fill-rule="evenodd" fill-opacity="1"/>
<defs>
  <clipPath id="clip4901">
    <rect x="480" y="0" width="1681" height="1600"/>
  </clipPath>
</defs>
<path clip-path="url(#clip4900)" d="
M222.152 1487.47 L2352.76 1487.47 L2352.76 47.2441 L222.152 47.2441  Z
  " fill="#ffffff" fill-rule="evenodd" fill-opacity="1"/>
<defs>
  <clipPath id="clip4902">
    <rect x="222" y="47" width="2132" height="1441"/>
  </clipPath>
</defs>
<polyline clip-path="url(#clip4900)" style="stroke:#000000; stroke-width:4; stroke-opacity:1; fill:none" points="
  222.152,1487.47 2352.76,1487.47 
  "/>
<polyline clip-path="url(#clip4900)" style="stroke:#000000; stroke-width:4; stroke-opacity:1; fill:none" points="
  222.152,1487.47 222.152,47.2441 
  "/>
<polyline clip-path="url(#clip4900)" style="stroke:#000000; stroke-width:4; stroke-opacity:1; fill:none" points="
  222.152,1487.47 222.152,1470.19 
  "/>
<polyline clip-path="url(#clip4900)" style="stroke:#000000; stroke-width:4; stroke-opacity:1; fill:none" points="
  754.803,1487.47 754.803,1470.19 
  "/>
<polyline clip-path="url(#clip4900)" style="stroke:#000000; stroke-width:4; stroke-opacity:1; fill:none" points="
  1287.45,1487.47 1287.45,1470.19 
  "/>
<polyline clip-path="url(#clip4900)" style="stroke:#000000; stroke-width:4; stroke-opacity:1; fill:none" points="
  1820.1,1487.47 1820.1,1470.19 
  "/>
<polyline clip-path="url(#clip4900)" style="stroke:#000000; stroke-width:4; stroke-opacity:1; fill:none" points="
  2352.76,1487.47 2352.76,1470.19 
  "/>
<polyline clip-path="url(#clip4900)" style="stroke:#000000; stroke-width:4; stroke-opacity:1; fill:none" points="
  222.152,1379.94 247.719,1379.94 
  "/>
<polyline clip-path="url(#clip4900)" style="stroke:#000000; stroke-width:4; stroke-opacity:1; fill:none" points="
  222.152,1083.48 247.719,1083.48 
  "/>
<polyline clip-path="url(#clip4900)" style="stroke:#000000; stroke-width:4; stroke-opacity:1; fill:none" points="
  222.152,787.022 247.719,787.022 
  "/>
<polyline clip-path="url(#clip4900)" style="stroke:#000000; stroke-width:4; stroke-opacity:1; fill:none" points="
  222.152,490.561 247.719,490.561 
  "/>
<polyline clip-path="url(#clip4900)" style="stroke:#000000; stroke-width:4; stroke-opacity:1; fill:none" points="
  222.152,194.1 247.719,194.1 
  "/>
<g clip-path="url(#clip4900)">
<text style="fill:#000000; fill-opacity:1; font-family:Arial,Helvetica Neue,Helvetica,sans-serif; font-size:48px; text-anchor:middle;" transform="rotate(0, 222.152, 1541.47)" x="222.152" y="1541.47">0</text>
</g>
<g clip-path="url(#clip4900)">
<text style="fill:#000000; fill-opacity:1; font-family:Arial,Helvetica Neue,Helvetica,sans-serif; font-size:48px; text-anchor:middle;" transform="rotate(0, 754.803, 1541.47)" x="754.803" y="1541.47">50</text>
</g>
<g clip-path="url(#clip4900)">
<text style="fill:#000000; fill-opacity:1; font-family:Arial,Helvetica Neue,Helvetica,sans-serif; font-size:48px; text-anchor:middle;" transform="rotate(0, 1287.45, 1541.47)" x="1287.45" y="1541.47">100</text>
</g>
<g clip-path="url(#clip4900)">
<text style="fill:#000000; fill-opacity:1; font-family:Arial,Helvetica Neue,Helvetica,sans-serif; font-size:48px; text-anchor:middle;" transform="rotate(0, 1820.1, 1541.47)" x="1820.1" y="1541.47">150</text>
</g>
<g clip-path="url(#clip4900)">
<text style="fill:#000000; fill-opacity:1; font-family:Arial,Helvetica Neue,Helvetica,sans-serif; font-size:48px; text-anchor:middle;" transform="rotate(0, 2352.76, 1541.47)" x="2352.76" y="1541.47">200</text>
</g>
<g clip-path="url(#clip4900)">
<text style="fill:#000000; fill-opacity:1; font-family:Arial,Helvetica Neue,Helvetica,sans-serif; font-size:48px; text-anchor:end;" transform="rotate(0, 198.152, 1397.44)" x="198.152" y="1397.44">-1000</text>
</g>
<g clip-path="url(#clip4900)">
<text style="fill:#000000; fill-opacity:1; font-family:Arial,Helvetica Neue,Helvetica,sans-serif; font-size:48px; text-anchor:end;" transform="rotate(0, 198.152, 1100.98)" x="198.152" y="1100.98">0</text>
</g>
<g clip-path="url(#clip4900)">
<text style="fill:#000000; fill-opacity:1; font-family:Arial,Helvetica Neue,Helvetica,sans-serif; font-size:48px; text-anchor:end;" transform="rotate(0, 198.152, 804.522)" x="198.152" y="804.522">1000</text>
</g>
<g clip-path="url(#clip4900)">
<text style="fill:#000000; fill-opacity:1; font-family:Arial,Helvetica Neue,Helvetica,sans-serif; font-size:48px; text-anchor:end;" transform="rotate(0, 198.152, 508.061)" x="198.152" y="508.061">2000</text>
</g>
<g clip-path="url(#clip4900)">
<text style="fill:#000000; fill-opacity:1; font-family:Arial,Helvetica Neue,Helvetica,sans-serif; font-size:48px; text-anchor:end;" transform="rotate(0, 198.152, 211.6)" x="198.152" y="211.6">3000</text>
</g>
<polyline clip-path="url(#clip4902)" style="stroke:#000000; stroke-width:4; stroke-opacity:1; fill:none" points="
  232.805,981.115 243.458,984.299 254.111,987.63 264.764,989.31 275.417,991.035 286.07,994.314 296.723,998.414 307.376,1001.32 318.029,1003.95 328.682,1006.31 
  339.335,1007.92 349.988,1007.17 360.641,1003.98 371.294,1002.08 381.947,1002.61 392.6,1002.01 403.253,1001.33 413.906,1000.54 424.559,999.681 435.212,998.741 
  445.865,997.744 456.518,996.857 467.171,997.152 477.824,999.552 488.477,1002.57 499.13,1005.22 509.783,1008.15 520.436,1011.42 531.089,1015.12 541.742,1019.33 
  552.395,1023.85 563.048,1027.68 573.701,1030.05 584.354,1031.11 595.007,1030.4 605.66,1028.05 616.313,1024.01 626.966,1019.57 637.619,1015.5 648.272,1010.56 
  658.925,1005.77 669.578,1000.65 680.232,997.195 690.885,995.242 701.538,994.267 712.191,992.905 722.844,990.813 733.497,987.744 744.15,985.293 754.803,983.818 
  765.456,983.555 776.109,982.751 786.762,981.973 797.415,981.22 808.068,980.478 818.721,980.065 829.374,978.655 840.027,975.082 850.68,972.343 861.333,970.566 
  871.986,970.307 882.639,971.191 893.292,972.954 903.945,971.793 914.598,968.817 925.251,966.462 935.904,963.827 946.557,960.825 957.21,958.738 967.863,957.729 
  978.516,956.826 989.169,957.582 999.822,957.04 1010.48,956.099 1021.13,954.734 1031.78,952.93 1042.43,950.564 1053.09,947.973 1063.74,946.281 1074.39,945.641 
  1085.05,943.407 1095.7,940.533 1106.35,936.732 1117.01,932.059 1127.66,926.749 1138.31,922.952 1148.96,921.199 1159.62,917.844 1170.27,914.203 1180.92,912.331 
  1191.58,907.564 1202.23,901.015 1212.88,893.984 1223.54,888.931 1234.19,885.118 1244.84,879.29 1255.49,876.06 1266.15,871.596 1276.8,863.774 1287.45,855.333 
  1298.11,846.693 1308.76,835.899 1319.41,830.581 1330.07,830.858 1340.72,831.028 1351.37,831.159 1362.02,831.825 1372.68,830.479 1383.33,830.252 1393.98,826.513 
  1404.64,822.368 1415.29,822.71 1425.94,825.687 1436.6,825.794 1447.25,825.679 1457.9,827.606 1468.56,826.417 1479.21,823.755 1489.86,819.8 1500.51,813.917 
  1511.17,809.284 1521.82,806.62 1532.47,801.209 1543.13,795.277 1553.78,788.454 1564.43,777.44 1575.09,765.679 1585.74,751.436 1596.39,733.623 1607.04,716.122 
  1617.7,705.072 1628.35,692.818 1639,675.999 1649.66,659.161 1660.31,640.117 1670.96,613.935 1681.62,584.113 1692.27,550.259 1702.92,514.207 1713.57,473.632 
  1724.23,430.649 1734.88,399.138 1745.53,368.578 1756.19,337.201 1766.84,305.881 1777.49,274.291 1788.15,244.807 1798.8,217.24 1809.45,191.322 1820.1,166.266 
  1830.76,144.955 1841.41,128.484 1852.06,111.406 1862.72,98.6044 1873.37,88.444 1884.02,88.0053 1894.68,90.1163 1905.33,96.1514 1915.98,101.006 1926.64,111.004 
  1937.29,122.912 1947.94,135.513 1958.59,149.099 1969.25,155.45 1979.9,168.068 1990.55,175.23 2001.21,185.284 2011.86,191.448 2022.51,200.017 2033.17,204.388 
  2043.82,210.424 2054.47,215.391 2065.12,219.514 2075.78,230.129 2086.43,231.972 2097.08,247.157 2107.74,258.574 2118.39,681.049 2129.04,1446.71 
  "/>
<path clip-path="url(#clip4900)" d="
M294.152 251.724 L828.489 251.724 L828.489 130.764 L294.152 130.764  Z
  " fill="#ffffff" fill-rule="evenodd" fill-opacity="1"/>
<polyline clip-path="url(#clip4900)" style="stroke:#000000; stroke-width:4; stroke-opacity:1; fill:none" points="
  294.152,251.724 828.489,251.724 828.489,130.764 294.152,130.764 294.152,251.724 
  "/>
<polyline clip-path="url(#clip4900)" style="stroke:#000000; stroke-width:4; stroke-opacity:1; fill:none" points="
  318.152,191.244 462.152,191.244 
  "/>
<g clip-path="url(#clip4900)">
<text style="fill:#000000; fill-opacity:1; font-family:Arial,Helvetica Neue,Helvetica,sans-serif; font-size:48px; text-anchor:start;" transform="rotate(0, 486.152, 208.744)" x="486.152" y="208.744">Iteration #280</text>
</g>
</svg>
