<?xml version="1.0" encoding="utf-8"?>
<svg xmlns="http://www.w3.org/2000/svg" xmlns:xlink="http://www.w3.org/1999/xlink" width="600" height="400" viewBox="0 0 2400 1600">
<defs>
  <clipPath id="clip1100">
    <rect x="0" y="0" width="2400" height="1600"/>
  </clipPath>
</defs>
<path clip-path="url(#clip1100)" d="
M0 1600 L2400 1600 L2400 0 L0 0  Z
  " fill="#ffffff" fill-rule="evenodd" fill-opacity="1"/>
<defs>
  <clipPath id="clip1101">
    <rect x="480" y="0" width="1681" height="1600"/>
  </clipPath>
</defs>
<path clip-path="url(#clip1100)" d="
M194.041 1487.47 L2352.76 1487.47 L2352.76 47.2441 L194.041 47.2441  Z
  " fill="#ffffff" fill-rule="evenodd" fill-opacity="1"/>
<defs>
  <clipPath id="clip1102">
    <rect x="194" y="47" width="2160" height="1441"/>
  </clipPath>
</defs>
<polyline clip-path="url(#clip1100)" style="stroke:#000000; stroke-width:4; stroke-opacity:1; fill:none" points="
  194.041,1487.47 2352.76,1487.47 
  "/>
<polyline clip-path="url(#clip1100)" style="stroke:#000000; stroke-width:4; stroke-opacity:1; fill:none" points="
  194.041,1487.47 194.041,47.2441 
  "/>
<polyline clip-path="url(#clip1100)" style="stroke:#000000; stroke-width:4; stroke-opacity:1; fill:none" points="
  194.041,1487.47 194.041,1470.19 
  "/>
<polyline clip-path="url(#clip1100)" style="stroke:#000000; stroke-width:4; stroke-opacity:1; fill:none" points="
  733.72,1487.47 733.72,1470.19 
  "/>
<polyline clip-path="url(#clip1100)" style="stroke:#000000; stroke-width:4; stroke-opacity:1; fill:none" points="
  1273.4,1487.47 1273.4,1470.19 
  "/>
<polyline clip-path="url(#clip1100)" style="stroke:#000000; stroke-width:4; stroke-opacity:1; fill:none" points="
  1813.08,1487.47 1813.08,1470.19 
  "/>
<polyline clip-path="url(#clip1100)" style="stroke:#000000; stroke-width:4; stroke-opacity:1; fill:none" points="
  2352.76,1487.47 2352.76,1470.19 
  "/>
<polyline clip-path="url(#clip1100)" style="stroke:#000000; stroke-width:4; stroke-opacity:1; fill:none" points="
  194.041,1327.43 219.946,1327.43 
  "/>
<polyline clip-path="url(#clip1100)" style="stroke:#000000; stroke-width:4; stroke-opacity:1; fill:none" points="
  194.041,986.881 219.946,986.881 
  "/>
<polyline clip-path="url(#clip1100)" style="stroke:#000000; stroke-width:4; stroke-opacity:1; fill:none" points="
  194.041,646.329 219.946,646.329 
  "/>
<polyline clip-path="url(#clip1100)" style="stroke:#000000; stroke-width:4; stroke-opacity:1; fill:none" points="
  194.041,305.778 219.946,305.778 
  "/>
<g clip-path="url(#clip1100)">
<text style="fill:#000000; fill-opacity:1; font-family:Arial,Helvetica Neue,Helvetica,sans-serif; font-size:48px; text-anchor:middle;" transform="rotate(0, 194.041, 1541.47)" x="194.041" y="1541.47">0</text>
</g>
<g clip-path="url(#clip1100)">
<text style="fill:#000000; fill-opacity:1; font-family:Arial,Helvetica Neue,Helvetica,sans-serif; font-size:48px; text-anchor:middle;" transform="rotate(0, 733.72, 1541.47)" x="733.72" y="1541.47">50</text>
</g>
<g clip-path="url(#clip1100)">
<text style="fill:#000000; fill-opacity:1; font-family:Arial,Helvetica Neue,Helvetica,sans-serif; font-size:48px; text-anchor:middle;" transform="rotate(0, 1273.4, 1541.47)" x="1273.4" y="1541.47">100</text>
</g>
<g clip-path="url(#clip1100)">
<text style="fill:#000000; fill-opacity:1; font-family:Arial,Helvetica Neue,Helvetica,sans-serif; font-size:48px; text-anchor:middle;" transform="rotate(0, 1813.08, 1541.47)" x="1813.08" y="1541.47">150</text>
</g>
<g clip-path="url(#clip1100)">
<text style="fill:#000000; fill-opacity:1; font-family:Arial,Helvetica Neue,Helvetica,sans-serif; font-size:48px; text-anchor:middle;" transform="rotate(0, 2352.76, 1541.47)" x="2352.76" y="1541.47">200</text>
</g>
<g clip-path="url(#clip1100)">
<text style="fill:#000000; fill-opacity:1; font-family:Arial,Helvetica Neue,Helvetica,sans-serif; font-size:48px; text-anchor:end;" transform="rotate(0, 170.041, 1344.93)" x="170.041" y="1344.93">0</text>
</g>
<g clip-path="url(#clip1100)">
<text style="fill:#000000; fill-opacity:1; font-family:Arial,Helvetica Neue,Helvetica,sans-serif; font-size:48px; text-anchor:end;" transform="rotate(0, 170.041, 1004.38)" x="170.041" y="1004.38">500</text>
</g>
<g clip-path="url(#clip1100)">
<text style="fill:#000000; fill-opacity:1; font-family:Arial,Helvetica Neue,Helvetica,sans-serif; font-size:48px; text-anchor:end;" transform="rotate(0, 170.041, 663.829)" x="170.041" y="663.829">1000</text>
</g>
<g clip-path="url(#clip1100)">
<text style="fill:#000000; fill-opacity:1; font-family:Arial,Helvetica Neue,Helvetica,sans-serif; font-size:48px; text-anchor:end;" transform="rotate(0, 170.041, 323.278)" x="170.041" y="323.278">1500</text>
</g>
<polyline clip-path="url(#clip1102)" style="stroke:#000000; stroke-width:4; stroke-opacity:1; fill:none" points="
  204.835,1145.49 215.629,1145.96 226.422,1146.39 237.216,1146.64 248.009,1146.94 258.803,1147.4 269.596,1147.95 280.39,1148.37 291.184,1148.75 301.977,1149.07 
  312.771,1149.3 323.564,1149.23 334.358,1148.89 345.151,1148.65 355.945,1148.66 366.739,1148.51 377.532,1148.35 388.326,1148.13 399.119,1147.9 409.913,1147.62 
  420.706,1147.32 431.5,1147 442.294,1146.79 453.087,1146.78 463.881,1146.8 474.674,1146.74 485.468,1146.66 496.262,1146.57 507.055,1146.47 517.849,1146.35 
  528.642,1146.18 539.436,1145.85 550.229,1145.25 561.023,1144.41 571.817,1143.26 582.61,1141.82 593.404,1140.07 604.197,1138.16 614.991,1136.17 625.784,1133.97 
  636.578,1131.68 647.372,1129.23 658.165,1126.89 668.959,1124.56 679.752,1122.3 690.546,1119.84 701.339,1117.24 712.133,1114.4 722.927,1111.55 733.72,1108.69 
  744.514,1105.87 755.307,1102.88 766.101,1099.78 776.894,1096.6 787.688,1093.28 798.482,1089.9 809.275,1086.25 820.069,1082.3 830.862,1078.23 841.656,1074.23 
  852.449,1070.22 863.243,1066.25 874.037,1062.25 884.83,1057.73 895.624,1052.92 906.417,1047.93 917.211,1042.84 928.004,1037.48 938.798,1032.14 949.592,1026.7 
  960.385,1021.21 971.179,1015.62 981.972,1009.86 992.766,1003.71 1003.56,997.445 1014.35,990.88 1025.15,984.028 1035.94,977.047 1046.73,969.829 1057.53,962.705 
  1068.32,955.003 1079.11,947.204 1089.91,938.9 1100.7,930.469 1111.5,921.592 1122.29,912.894 1133.08,904.109 1143.88,895.111 1154.67,885.829 1165.46,876.639 
  1176.26,866.997 1187.05,856.806 1197.84,846.768 1208.64,836.507 1219.43,826.697 1230.22,816.192 1241.02,806.335 1251.81,795.875 1262.61,785.328 1273.4,774.362 
  1284.19,763.682 1294.99,752.46 1305.78,742.123 1316.57,732.502 1327.37,722.735 1338.16,713.256 1348.95,703.479 1359.75,693.88 1370.54,683.935 1381.33,673.922 
  1392.13,663.453 1402.92,653.801 1413.72,643.992 1424.51,634.197 1435.3,623.798 1446.1,613.867 1456.89,603.169 1467.68,592.06 1478.48,580.756 1489.27,568.592 
  1500.06,556.814 1510.86,544.465 1521.65,531.844 1532.44,518.473 1543.24,504.839 1554.03,489.885 1564.83,474.553 1575.62,458.057 1586.41,440.554 1597.21,422.34 
  1608,404.14 1618.79,385.206 1629.59,363.972 1640.38,341.887 1651.17,317.572 1661.97,290.06 1672.76,259.08 1683.55,223.794 1694.35,183.098 1705.14,138.806 
  1715.94,98.3696 1726.73,93.9122 1737.52,91.3664 1748.32,89.9057 1759.11,88.9496 1769.9,88.3845 1780.7,88.1021 1791.49,88.0053 1802.28,88.2101 1813.08,88.2261 
  1823.87,88.8016 1834.66,89.0272 1845.46,89.9001 1856.25,90.1465 1867.05,91.1158 1877.84,92.0046 1888.63,93.0348 1899.43,94.3325 1910.22,95.2454 1921.01,96.8426 
  1931.81,97.7928 1942.6,99.7427 1953.39,100.482 1964.19,102.337 1974.98,103.16 1985.77,104.919 1996.57,105.723 2007.36,107.381 2018.16,108.444 2028.95,109.553 
  2039.74,110.897 2050.54,111.728 2061.33,113.39 2072.12,113.943 2082.92,116.34 2093.71,116.453 2104.5,121.72 2115.3,587.37 2126.09,1446.71 
  "/>
<path clip-path="url(#clip1100)" d="
M266.041 251.724 L773.617 251.724 L773.617 130.764 L266.041 130.764  Z
  " fill="#ffffff" fill-rule="evenodd" fill-opacity="1"/>
<polyline clip-path="url(#clip1100)" style="stroke:#000000; stroke-width:4; stroke-opacity:1; fill:none" points="
  266.041,251.724 773.617,251.724 773.617,130.764 266.041,130.764 266.041,251.724 
  "/>
<polyline clip-path="url(#clip1100)" style="stroke:#000000; stroke-width:4; stroke-opacity:1; fill:none" points="
  290.041,191.244 434.041,191.244 
  "/>
<g clip-path="url(#clip1100)">
<text style="fill:#000000; fill-opacity:1; font-family:Arial,Helvetica Neue,Helvetica,sans-serif; font-size:48px; text-anchor:start;" transform="rotate(0, 458.041, 208.744)" x="458.041" y="208.744">Iteration #50</text>
</g>
</svg>
