<?xml version="1.0" encoding="utf-8"?>
<svg xmlns="http://www.w3.org/2000/svg" xmlns:xlink="http://www.w3.org/1999/xlink" width="600" height="400" viewBox="0 0 2400 1600">
<defs>
  <clipPath id="clip1300">
    <rect x="0" y="0" width="2400" height="1600"/>
  </clipPath>
</defs>
<path clip-path="url(#clip1300)" d="
M0 1600 L2400 1600 L2400 0 L0 0  Z
  " fill="#ffffff" fill-rule="evenodd" fill-opacity="1"/>
<defs>
  <clipPath id="clip1301">
    <rect x="480" y="0" width="1681" height="1600"/>
  </clipPath>
</defs>
<path clip-path="url(#clip1300)" d="
M222.152 1487.47 L2352.76 1487.47 L2352.76 47.2441 L222.152 47.2441  Z
  " fill="#ffffff" fill-rule="evenodd" fill-opacity="1"/>
<defs>
  <clipPath id="clip1302">
    <rect x="222" y="47" width="2132" height="1441"/>
  </clipPath>
</defs>
<polyline clip-path="url(#clip1300)" style="stroke:#000000; stroke-width:4; stroke-opacity:1; fill:none" points="
  222.152,1487.47 2352.76,1487.47 
  "/>
<polyline clip-path="url(#clip1300)" style="stroke:#000000; stroke-width:4; stroke-opacity:1; fill:none" points="
  222.152,1487.47 222.152,47.2441 
  "/>
<polyline clip-path="url(#clip1300)" style="stroke:#000000; stroke-width:4; stroke-opacity:1; fill:none" points="
  222.152,1487.47 222.152,1470.19 
  "/>
<polyline clip-path="url(#clip1300)" style="stroke:#000000; stroke-width:4; stroke-opacity:1; fill:none" points="
  754.803,1487.47 754.803,1470.19 
  "/>
<polyline clip-path="url(#clip1300)" style="stroke:#000000; stroke-width:4; stroke-opacity:1; fill:none" points="
  1287.45,1487.47 1287.45,1470.19 
  "/>
<polyline clip-path="url(#clip1300)" style="stroke:#000000; stroke-width:4; stroke-opacity:1; fill:none" points="
  1820.1,1487.47 1820.1,1470.19 
  "/>
<polyline clip-path="url(#clip1300)" style="stroke:#000000; stroke-width:4; stroke-opacity:1; fill:none" points="
  2352.76,1487.47 2352.76,1470.19 
  "/>
<polyline clip-path="url(#clip1300)" style="stroke:#000000; stroke-width:4; stroke-opacity:1; fill:none" points="
  222.152,1435.82 247.719,1435.82 
  "/>
<polyline clip-path="url(#clip1300)" style="stroke:#000000; stroke-width:4; stroke-opacity:1; fill:none" points="
  222.152,1100.21 247.719,1100.21 
  "/>
<polyline clip-path="url(#clip1300)" style="stroke:#000000; stroke-width:4; stroke-opacity:1; fill:none" points="
  222.152,764.606 247.719,764.606 
  "/>
<polyline clip-path="url(#clip1300)" style="stroke:#000000; stroke-width:4; stroke-opacity:1; fill:none" points="
  222.152,428.999 247.719,428.999 
  "/>
<polyline clip-path="url(#clip1300)" style="stroke:#000000; stroke-width:4; stroke-opacity:1; fill:none" points="
  222.152,93.3915 247.719,93.3915 
  "/>
<g clip-path="url(#clip1300)">
<text style="fill:#000000; fill-opacity:1; font-family:Arial,Helvetica Neue,Helvetica,sans-serif; font-size:48px; text-anchor:middle;" transform="rotate(0, 222.152, 1541.47)" x="222.152" y="1541.47">0</text>
</g>
<g clip-path="url(#clip1300)">
<text style="fill:#000000; fill-opacity:1; font-family:Arial,Helvetica Neue,Helvetica,sans-serif; font-size:48px; text-anchor:middle;" transform="rotate(0, 754.803, 1541.47)" x="754.803" y="1541.47">50</text>
</g>
<g clip-path="url(#clip1300)">
<text style="fill:#000000; fill-opacity:1; font-family:Arial,Helvetica Neue,Helvetica,sans-serif; font-size:48px; text-anchor:middle;" transform="rotate(0, 1287.45, 1541.47)" x="1287.45" y="1541.47">100</text>
</g>
<g clip-path="url(#clip1300)">
<text style="fill:#000000; fill-opacity:1; font-family:Arial,Helvetica Neue,Helvetica,sans-serif; font-size:48px; text-anchor:middle;" transform="rotate(0, 1820.1, 1541.47)" x="1820.1" y="1541.47">150</text>
</g>
<g clip-path="url(#clip1300)">
<text style="fill:#000000; fill-opacity:1; font-family:Arial,Helvetica Neue,Helvetica,sans-serif; font-size:48px; text-anchor:middle;" transform="rotate(0, 2352.76, 1541.47)" x="2352.76" y="1541.47">200</text>
</g>
<g clip-path="url(#clip1300)">
<text style="fill:#000000; fill-opacity:1; font-family:Arial,Helvetica Neue,Helvetica,sans-serif; font-size:48px; text-anchor:end;" transform="rotate(0, 198.152, 1453.32)" x="198.152" y="1453.32">-1000</text>
</g>
<g clip-path="url(#clip1300)">
<text style="fill:#000000; fill-opacity:1; font-family:Arial,Helvetica Neue,Helvetica,sans-serif; font-size:48px; text-anchor:end;" transform="rotate(0, 198.152, 1117.71)" x="198.152" y="1117.71">0</text>
</g>
<g clip-path="url(#clip1300)">
<text style="fill:#000000; fill-opacity:1; font-family:Arial,Helvetica Neue,Helvetica,sans-serif; font-size:48px; text-anchor:end;" transform="rotate(0, 198.152, 782.106)" x="198.152" y="782.106">1000</text>
</g>
<g clip-path="url(#clip1300)">
<text style="fill:#000000; fill-opacity:1; font-family:Arial,Helvetica Neue,Helvetica,sans-serif; font-size:48px; text-anchor:end;" transform="rotate(0, 198.152, 446.499)" x="198.152" y="446.499">2000</text>
</g>
<g clip-path="url(#clip1300)">
<text style="fill:#000000; fill-opacity:1; font-family:Arial,Helvetica Neue,Helvetica,sans-serif; font-size:48px; text-anchor:end;" transform="rotate(0, 198.152, 110.892)" x="198.152" y="110.892">3000</text>
</g>
<polyline clip-path="url(#clip1302)" style="stroke:#000000; stroke-width:4; stroke-opacity:1; fill:none" points="
  232.805,988.065 243.458,990.639 254.111,993.403 264.764,994.926 275.417,996.528 286.07,999.363 296.723,1002.85 307.376,1005.42 318.029,1007.78 328.682,1009.9 
  339.335,1011.42 349.988,1011.08 360.641,1008.83 371.294,1007.57 381.947,1008.19 392.6,1007.93 403.253,1007.61 413.906,1007.22 424.559,1006.77 435.212,1006.29 
  445.865,1005.77 456.518,1005.37 467.171,1005.91 477.824,1008.11 488.477,1010.81 499.13,1013.25 509.783,1015.89 520.436,1018.8 531.089,1022.01 541.742,1025.59 
  552.395,1029.36 563.048,1032.52 573.701,1034.46 584.354,1035.29 595.007,1034.65 605.66,1032.63 616.313,1029.2 626.966,1025.36 637.619,1021.73 648.272,1017.35 
  658.925,1013.04 669.578,1008.44 680.232,1005.09 690.885,1002.9 701.538,1001.46 712.191,999.707 722.844,997.391 733.497,994.319 744.15,991.733 754.803,989.917 
  765.456,989.058 776.109,987.793 786.762,986.561 797.415,985.363 808.068,984.179 818.721,983.256 829.374,981.559 840.027,978.2 850.68,975.485 861.333,973.549 
  871.986,972.806 882.639,972.972 893.292,973.821 903.945,972.393 914.598,969.55 925.251,967.166 935.904,964.572 946.557,961.685 957.21,959.523 967.863,958.2 
  978.516,956.974 989.169,957.022 999.822,956.062 1010.48,954.756 1021.13,953.095 1031.78,951.054 1042.43,948.526 1053.09,945.802 1063.74,943.705 1074.39,942.4 
  1085.05,939.773 1095.7,936.603 1106.35,932.621 1117.01,927.919 1127.66,922.648 1138.31,918.527 1148.96,915.935 1159.62,912.07 1170.27,907.925 1180.92,905.102 
  1191.58,899.989 1202.23,893.403 1212.88,886.465 1223.54,880.987 1234.19,876.529 1244.84,870.447 1255.49,866.441 1266.15,861.422 1276.8,853.844 1287.45,845.765 
  1298.11,837.625 1308.76,827.838 1319.41,822.45 1330.07,821.538 1340.72,820.603 1351.37,819.758 1362.02,819.296 1372.68,817.361 1383.33,816.203 1393.98,812.35 
  1404.64,808.083 1415.29,807.314 1425.94,808.47 1436.6,807.348 1447.25,805.833 1457.9,805.795 1468.56,803.087 1479.21,798.989 1489.86,793.661 1500.51,786.514 
  1511.17,780.142 1521.82,774.928 1532.47,767.347 1543.13,758.987 1553.78,749.646 1564.43,736.688 1575.09,722.859 1585.74,706.746 1596.39,687.641 1607.04,668.468 
  1617.7,653.976 1628.35,638.343 1639,618.816 1649.66,599.05 1660.31,577.201 1670.96,549.53 1681.62,518.594 1692.27,484.041 1702.92,446.992 1713.57,406.186 
  1724.23,364.512 1734.88,337.657 1745.53,312.195 1756.19,286.393 1766.84,261.126 1777.49,235.737 1788.15,212.338 1798.8,190.309 1809.45,169.923 1820.1,150.06 
  1830.76,133.345 1841.41,120.246 1852.06,106.564 1862.72,96.677 1873.37,88.2214 1884.02,88.0053 1894.68,89.1578 1905.33,94.0969 1915.98,97.2551 1926.64,105.802 
  1937.29,114.736 1947.94,124.875 1958.59,135.759 1969.25,140.727 1979.9,151.129 1990.55,156.858 2001.21,165.324 2011.86,170.134 2022.51,177.618 2033.17,180.95 
  2043.82,186.692 2054.47,190.266 2065.12,194.323 2075.78,203.281 2086.43,205.13 2097.08,218.314 2107.74,226.858 2118.39,666.757 2129.04,1446.71 
  "/>
<path clip-path="url(#clip1300)" d="
M294.152 251.724 L828.489 251.724 L828.489 130.764 L294.152 130.764  Z
  " fill="#ffffff" fill-rule="evenodd" fill-opacity="1"/>
<polyline clip-path="url(#clip1300)" style="stroke:#000000; stroke-width:4; stroke-opacity:1; fill:none" points="
  294.152,251.724 828.489,251.724 828.489,130.764 294.152,130.764 294.152,251.724 
  "/>
<polyline clip-path="url(#clip1300)" style="stroke:#000000; stroke-width:4; stroke-opacity:1; fill:none" points="
  318.152,191.244 462.152,191.244 
  "/>
<g clip-path="url(#clip1300)">
<text style="fill:#000000; fill-opacity:1; font-family:Arial,Helvetica Neue,Helvetica,sans-serif; font-size:48px; text-anchor:start;" transform="rotate(0, 486.152, 208.744)" x="486.152" y="208.744">Iteration #220</text>
</g>
</svg>
