<?xml version="1.0" encoding="utf-8"?>
<svg xmlns="http://www.w3.org/2000/svg" xmlns:xlink="http://www.w3.org/1999/xlink" width="600" height="400" viewBox="0 0 2400 1600">
<defs>
  <clipPath id="clip7900">
    <rect x="0" y="0" width="2400" height="1600"/>
  </clipPath>
</defs>
<path clip-path="url(#clip7900)" d="
M0 1600 L2400 1600 L2400 0 L0 0  Z
  " fill="#ffffff" fill-rule="evenodd" fill-opacity="1"/>
<defs>
  <clipPath id="clip7901">
    <rect x="480" y="0" width="1681" height="1600"/>
  </clipPath>
</defs>
<path clip-path="url(#clip7900)" d="
M222.152 1487.47 L2352.76 1487.47 L2352.76 47.2441 L222.152 47.2441  Z
  " fill="#ffffff" fill-rule="evenodd" fill-opacity="1"/>
<defs>
  <clipPath id="clip7902">
    <rect x="222" y="47" width="2132" height="1441"/>
  </clipPath>
</defs>
<polyline clip-path="url(#clip7900)" style="stroke:#000000; stroke-width:4; stroke-opacity:1; fill:none" points="
  222.152,1487.47 2352.76,1487.47 
  "/>
<polyline clip-path="url(#clip7900)" style="stroke:#000000; stroke-width:4; stroke-opacity:1; fill:none" points="
  222.152,1487.47 222.152,47.2441 
  "/>
<polyline clip-path="url(#clip7900)" style="stroke:#000000; stroke-width:4; stroke-opacity:1; fill:none" points="
  222.152,1487.47 222.152,1470.19 
  "/>
<polyline clip-path="url(#clip7900)" style="stroke:#000000; stroke-width:4; stroke-opacity:1; fill:none" points="
  754.803,1487.47 754.803,1470.19 
  "/>
<polyline clip-path="url(#clip7900)" style="stroke:#000000; stroke-width:4; stroke-opacity:1; fill:none" points="
  1287.45,1487.47 1287.45,1470.19 
  "/>
<polyline clip-path="url(#clip7900)" style="stroke:#000000; stroke-width:4; stroke-opacity:1; fill:none" points="
  1820.1,1487.47 1820.1,1470.19 
  "/>
<polyline clip-path="url(#clip7900)" style="stroke:#000000; stroke-width:4; stroke-opacity:1; fill:none" points="
  2352.76,1487.47 2352.76,1470.19 
  "/>
<polyline clip-path="url(#clip7900)" style="stroke:#000000; stroke-width:4; stroke-opacity:1; fill:none" points="
  222.152,1347.49 247.719,1347.49 
  "/>
<polyline clip-path="url(#clip7900)" style="stroke:#000000; stroke-width:4; stroke-opacity:1; fill:none" points="
  222.152,1074.99 247.719,1074.99 
  "/>
<polyline clip-path="url(#clip7900)" style="stroke:#000000; stroke-width:4; stroke-opacity:1; fill:none" points="
  222.152,802.497 247.719,802.497 
  "/>
<polyline clip-path="url(#clip7900)" style="stroke:#000000; stroke-width:4; stroke-opacity:1; fill:none" points="
  222.152,530.001 247.719,530.001 
  "/>
<polyline clip-path="url(#clip7900)" style="stroke:#000000; stroke-width:4; stroke-opacity:1; fill:none" points="
  222.152,257.504 247.719,257.504 
  "/>
<g clip-path="url(#clip7900)">
<text style="fill:#000000; fill-opacity:1; font-family:Arial,Helvetica Neue,Helvetica,sans-serif; font-size:48px; text-anchor:middle;" transform="rotate(0, 222.152, 1541.47)" x="222.152" y="1541.47">0</text>
</g>
<g clip-path="url(#clip7900)">
<text style="fill:#000000; fill-opacity:1; font-family:Arial,Helvetica Neue,Helvetica,sans-serif; font-size:48px; text-anchor:middle;" transform="rotate(0, 754.803, 1541.47)" x="754.803" y="1541.47">50</text>
</g>
<g clip-path="url(#clip7900)">
<text style="fill:#000000; fill-opacity:1; font-family:Arial,Helvetica Neue,Helvetica,sans-serif; font-size:48px; text-anchor:middle;" transform="rotate(0, 1287.45, 1541.47)" x="1287.45" y="1541.47">100</text>
</g>
<g clip-path="url(#clip7900)">
<text style="fill:#000000; fill-opacity:1; font-family:Arial,Helvetica Neue,Helvetica,sans-serif; font-size:48px; text-anchor:middle;" transform="rotate(0, 1820.1, 1541.47)" x="1820.1" y="1541.47">150</text>
</g>
<g clip-path="url(#clip7900)">
<text style="fill:#000000; fill-opacity:1; font-family:Arial,Helvetica Neue,Helvetica,sans-serif; font-size:48px; text-anchor:middle;" transform="rotate(0, 2352.76, 1541.47)" x="2352.76" y="1541.47">200</text>
</g>
<g clip-path="url(#clip7900)">
<text style="fill:#000000; fill-opacity:1; font-family:Arial,Helvetica Neue,Helvetica,sans-serif; font-size:48px; text-anchor:end;" transform="rotate(0, 198.152, 1364.99)" x="198.152" y="1364.99">-1000</text>
</g>
<g clip-path="url(#clip7900)">
<text style="fill:#000000; fill-opacity:1; font-family:Arial,Helvetica Neue,Helvetica,sans-serif; font-size:48px; text-anchor:end;" transform="rotate(0, 198.152, 1092.49)" x="198.152" y="1092.49">0</text>
</g>
<g clip-path="url(#clip7900)">
<text style="fill:#000000; fill-opacity:1; font-family:Arial,Helvetica Neue,Helvetica,sans-serif; font-size:48px; text-anchor:end;" transform="rotate(0, 198.152, 819.997)" x="198.152" y="819.997">1000</text>
</g>
<g clip-path="url(#clip7900)">
<text style="fill:#000000; fill-opacity:1; font-family:Arial,Helvetica Neue,Helvetica,sans-serif; font-size:48px; text-anchor:end;" transform="rotate(0, 198.152, 547.501)" x="198.152" y="547.501">2000</text>
</g>
<g clip-path="url(#clip7900)">
<text style="fill:#000000; fill-opacity:1; font-family:Arial,Helvetica Neue,Helvetica,sans-serif; font-size:48px; text-anchor:end;" transform="rotate(0, 198.152, 275.004)" x="198.152" y="275.004">3000</text>
</g>
<polyline clip-path="url(#clip7902)" style="stroke:#000000; stroke-width:4; stroke-opacity:1; fill:none" points="
  232.805,978.621 243.458,982.284 254.111,986.042 264.764,987.797 275.417,989.565 286.07,993.151 296.723,997.702 307.376,1000.84 318.029,1003.67 328.682,1006.21 
  339.335,1007.9 349.988,1006.83 360.641,1002.87 371.294,1000.5 381.947,1001.01 392.6,1000.18 403.253,999.252 413.906,998.197 424.559,997.035 435.212,995.763 
  445.865,994.392 456.518,993.116 467.171,993.196 477.824,995.733 488.477,998.96 499.13,1001.74 509.783,1004.81 520.436,1008.3 531.089,1012.3 541.742,1016.95 
  552.395,1022.01 563.048,1026.31 573.701,1028.98 584.354,1030.21 595.007,1029.44 605.66,1026.85 616.313,1022.36 626.966,1017.49 637.619,1013.15 648.272,1007.84 
  658.925,1002.76 669.578,997.318 680.232,993.849 690.885,992.167 701.538,991.63 712.191,990.626 722.844,988.743 733.497,985.681 744.15,983.334 754.803,982.113 
  765.456,982.304 776.109,981.823 786.762,981.354 797.415,980.893 808.068,980.435 818.721,980.358 829.374,979.101 840.027,975.258 850.68,972.408 861.333,970.664 
  871.986,970.697 882.639,972.065 893.292,974.473 903.945,973.429 914.598,970.24 925.251,967.822 935.904,965.062 946.557,961.88 957.21,959.76 967.863,958.917 
  978.516,958.173 989.169,959.416 999.822,959.11 1010.48,958.372 1021.13,957.156 1031.78,955.463 1042.43,953.15 1053.09,950.594 1063.74,949.17 1074.39,949.019 
  1085.05,947.063 1095.7,944.39 1106.35,940.718 1117.01,936.048 1127.66,930.701 1138.31,927.156 1148.96,926.101 1159.62,923.157 1170.27,919.94 1180.92,918.868 
  1191.58,914.418 1202.23,907.935 1212.88,900.868 1223.54,896.215 1234.19,892.977 1244.84,887.397 1255.49,884.839 1266.15,880.875 1276.8,872.858 1287.45,864.137 
  1298.11,855.051 1308.76,843.363 1319.41,837.971 1330.07,839.065 1340.72,839.894 1351.37,840.545 1362.02,841.799 1372.68,840.556 1383.33,840.689 1393.98,836.578 
  1404.64,832.047 1415.29,832.759 1425.94,836.685 1436.6,837.188 1447.25,837.622 1457.9,840.533 1468.56,839.988 1479.21,837.884 1489.86,834.483 1500.51,829.067 
  1511.17,825.334 1521.82,824.272 1532.47,820.189 1543.13,815.87 1553.78,810.789 1564.43,801.136 1575.09,790.903 1585.74,778.133 1596.39,761.369 1607.04,745.345 
  1617.7,737.292 1628.35,728.108 1639,713.857 1649.66,699.876 1660.31,683.676 1670.96,659.29 1681.62,630.967 1692.27,598.274 1702.92,563.588 1713.57,523.695 
  1724.23,480.115 1734.88,445.549 1745.53,411.571 1756.19,376.22 1766.84,340.516 1777.49,304.239 1788.15,270.107 1798.8,238.372 1809.45,207.999 1820.1,179.017 
  1830.76,153.999 1841.41,134.942 1852.06,115.083 1862.72,100.209 1873.37,88.5018 1884.02,88.0053 1894.68,91.1804 1905.33,97.6527 1915.98,104.135 1926.64,114.943 
  1937.29,129.535 1947.94,143.658 1958.59,159.643 1969.25,166.615 1979.9,181.126 1990.55,189.445 2001.21,200.299 2011.86,207.983 2022.51,216.514 2033.17,222.569 
  2043.82,227.914 2054.47,234.45 2065.12,237.793 2075.78,250.208 2086.43,252.822 2097.08,267.647 2107.74,281.934 2118.39,668.226 2129.04,1446.71 
  "/>
<path clip-path="url(#clip7900)" d="
M294.152 251.724 L828.489 251.724 L828.489 130.764 L294.152 130.764  Z
  " fill="#ffffff" fill-rule="evenodd" fill-opacity="1"/>
<polyline clip-path="url(#clip7900)" style="stroke:#000000; stroke-width:4; stroke-opacity:1; fill:none" points="
  294.152,251.724 828.489,251.724 828.489,130.764 294.152,130.764 294.152,251.724 
  "/>
<polyline clip-path="url(#clip7900)" style="stroke:#000000; stroke-width:4; stroke-opacity:1; fill:none" points="
  318.152,191.244 462.152,191.244 
  "/>
<g clip-path="url(#clip7900)">
<text style="fill:#000000; fill-opacity:1; font-family:Arial,Helvetica Neue,Helvetica,sans-serif; font-size:48px; text-anchor:start;" transform="rotate(0, 486.152, 208.744)" x="486.152" y="208.744">Iteration #330</text>
</g>
</svg>
