<?xml version="1.0" encoding="utf-8"?>
<svg xmlns="http://www.w3.org/2000/svg" xmlns:xlink="http://www.w3.org/1999/xlink" width="600" height="400" viewBox="0 0 2400 1600">
<defs>
  <clipPath id="clip1900">
    <rect x="0" y="0" width="2400" height="1600"/>
  </clipPath>
</defs>
<path clip-path="url(#clip1900)" d="
M0 1600 L2400 1600 L2400 0 L0 0  Z
  " fill="#ffffff" fill-rule="evenodd" fill-opacity="1"/>
<defs>
  <clipPath id="clip1901">
    <rect x="480" y="0" width="1681" height="1600"/>
  </clipPath>
</defs>
<path clip-path="url(#clip1900)" d="
M222.152 1487.47 L2352.76 1487.47 L2352.76 47.2441 L222.152 47.2441  Z
  " fill="#ffffff" fill-rule="evenodd" fill-opacity="1"/>
<defs>
  <clipPath id="clip1902">
    <rect x="222" y="47" width="2132" height="1441"/>
  </clipPath>
</defs>
<polyline clip-path="url(#clip1900)" style="stroke:#000000; stroke-width:4; stroke-opacity:1; fill:none" points="
  222.152,1487.47 2352.76,1487.47 
  "/>
<polyline clip-path="url(#clip1900)" style="stroke:#000000; stroke-width:4; stroke-opacity:1; fill:none" points="
  222.152,1487.47 222.152,47.2441 
  "/>
<polyline clip-path="url(#clip1900)" style="stroke:#000000; stroke-width:4; stroke-opacity:1; fill:none" points="
  222.152,1487.47 222.152,1470.19 
  "/>
<polyline clip-path="url(#clip1900)" style="stroke:#000000; stroke-width:4; stroke-opacity:1; fill:none" points="
  754.803,1487.47 754.803,1470.19 
  "/>
<polyline clip-path="url(#clip1900)" style="stroke:#000000; stroke-width:4; stroke-opacity:1; fill:none" points="
  1287.45,1487.47 1287.45,1470.19 
  "/>
<polyline clip-path="url(#clip1900)" style="stroke:#000000; stroke-width:4; stroke-opacity:1; fill:none" points="
  1820.1,1487.47 1820.1,1470.19 
  "/>
<polyline clip-path="url(#clip1900)" style="stroke:#000000; stroke-width:4; stroke-opacity:1; fill:none" points="
  2352.76,1487.47 2352.76,1470.19 
  "/>
<polyline clip-path="url(#clip1900)" style="stroke:#000000; stroke-width:4; stroke-opacity:1; fill:none" points="
  222.152,1424.69 247.719,1424.69 
  "/>
<polyline clip-path="url(#clip1900)" style="stroke:#000000; stroke-width:4; stroke-opacity:1; fill:none" points="
  222.152,1096.69 247.719,1096.69 
  "/>
<polyline clip-path="url(#clip1900)" style="stroke:#000000; stroke-width:4; stroke-opacity:1; fill:none" points="
  222.152,768.686 247.719,768.686 
  "/>
<polyline clip-path="url(#clip1900)" style="stroke:#000000; stroke-width:4; stroke-opacity:1; fill:none" points="
  222.152,440.686 247.719,440.686 
  "/>
<polyline clip-path="url(#clip1900)" style="stroke:#000000; stroke-width:4; stroke-opacity:1; fill:none" points="
  222.152,112.686 247.719,112.686 
  "/>
<g clip-path="url(#clip1900)">
<text style="fill:#000000; fill-opacity:1; font-family:Arial,Helvetica Neue,Helvetica,sans-serif; font-size:48px; text-anchor:middle;" transform="rotate(0, 222.152, 1541.47)" x="222.152" y="1541.47">0</text>
</g>
<g clip-path="url(#clip1900)">
<text style="fill:#000000; fill-opacity:1; font-family:Arial,Helvetica Neue,Helvetica,sans-serif; font-size:48px; text-anchor:middle;" transform="rotate(0, 754.803, 1541.47)" x="754.803" y="1541.47">50</text>
</g>
<g clip-path="url(#clip1900)">
<text style="fill:#000000; fill-opacity:1; font-family:Arial,Helvetica Neue,Helvetica,sans-serif; font-size:48px; text-anchor:middle;" transform="rotate(0, 1287.45, 1541.47)" x="1287.45" y="1541.47">100</text>
</g>
<g clip-path="url(#clip1900)">
<text style="fill:#000000; fill-opacity:1; font-family:Arial,Helvetica Neue,Helvetica,sans-serif; font-size:48px; text-anchor:middle;" transform="rotate(0, 1820.1, 1541.47)" x="1820.1" y="1541.47">150</text>
</g>
<g clip-path="url(#clip1900)">
<text style="fill:#000000; fill-opacity:1; font-family:Arial,Helvetica Neue,Helvetica,sans-serif; font-size:48px; text-anchor:middle;" transform="rotate(0, 2352.76, 1541.47)" x="2352.76" y="1541.47">200</text>
</g>
<g clip-path="url(#clip1900)">
<text style="fill:#000000; fill-opacity:1; font-family:Arial,Helvetica Neue,Helvetica,sans-serif; font-size:48px; text-anchor:end;" transform="rotate(0, 198.152, 1442.19)" x="198.152" y="1442.19">-1000</text>
</g>
<g clip-path="url(#clip1900)">
<text style="fill:#000000; fill-opacity:1; font-family:Arial,Helvetica Neue,Helvetica,sans-serif; font-size:48px; text-anchor:end;" transform="rotate(0, 198.152, 1114.19)" x="198.152" y="1114.19">0</text>
</g>
<g clip-path="url(#clip1900)">
<text style="fill:#000000; fill-opacity:1; font-family:Arial,Helvetica Neue,Helvetica,sans-serif; font-size:48px; text-anchor:end;" transform="rotate(0, 198.152, 786.186)" x="198.152" y="786.186">1000</text>
</g>
<g clip-path="url(#clip1900)">
<text style="fill:#000000; fill-opacity:1; font-family:Arial,Helvetica Neue,Helvetica,sans-serif; font-size:48px; text-anchor:end;" transform="rotate(0, 198.152, 458.186)" x="198.152" y="458.186">2000</text>
</g>
<g clip-path="url(#clip1900)">
<text style="fill:#000000; fill-opacity:1; font-family:Arial,Helvetica Neue,Helvetica,sans-serif; font-size:48px; text-anchor:end;" transform="rotate(0, 198.152, 130.186)" x="198.152" y="130.186">3000</text>
</g>
<polyline clip-path="url(#clip1902)" style="stroke:#000000; stroke-width:4; stroke-opacity:1; fill:none" points="
  232.805,986.424 243.458,989.102 254.111,991.966 264.764,993.52 275.417,995.149 286.07,998.064 296.723,1001.66 307.376,1004.3 318.029,1006.7 328.682,1008.86 
  339.335,1010.4 349.988,1009.99 360.641,1007.58 371.294,1006.21 381.947,1006.81 392.6,1006.5 403.253,1006.11 413.906,1005.65 424.559,1005.13 435.212,1004.57 
  445.865,1003.97 456.518,1003.49 467.171,1003.99 477.824,1006.23 488.477,1008.99 499.13,1011.47 509.783,1014.17 520.436,1017.15 531.089,1020.45 541.742,1024.15 
  552.395,1028.05 563.048,1031.33 573.701,1033.34 584.354,1034.22 595.007,1033.56 605.66,1031.49 616.313,1027.95 626.966,1024 637.619,1020.29 648.272,1015.81 
  658.925,1011.4 669.578,1006.71 680.232,1003.33 690.885,1001.17 701.538,999.8 712.191,998.109 722.844,995.826 733.497,992.752 744.15,990.188 754.803,988.431 
  765.456,987.673 776.109,986.491 786.762,985.339 797.415,984.223 808.068,983.12 818.721,982.291 829.374,980.651 840.027,977.266 850.68,974.557 861.333,972.659 
  871.986,972.009 882.639,972.308 893.292,973.322 903.945,971.952 914.598,969.099 925.251,966.733 935.904,964.143 946.557,961.249 957.21,959.112 967.863,957.854 
  978.516,956.695 989.169,956.874 999.822,955.998 1010.48,954.765 1021.13,953.166 1031.78,951.175 1042.43,948.685 1053.09,945.991 1063.74,943.971 1074.39,942.784 
  1085.05,940.228 1095.7,937.111 1106.35,933.163 1117.01,928.468 1127.66,923.191 1138.31,919.124 1148.96,916.672 1159.62,912.893 1170.27,908.832 1180.92,906.166 
  1191.58,901.108 1202.23,894.527 1212.88,887.57 1223.54,882.163 1234.19,877.81 1244.84,871.772 1255.49,867.897 1266.15,862.975 1276.8,855.361 1287.45,847.23 
  1298.11,839.019 1308.76,829.081 1319.41,823.73 1330.07,823.046 1340.72,822.335 1351.37,821.694 1362.02,821.471 1372.68,819.686 1383.33,818.742 1393.98,814.967 
  1404.64,810.785 1415.29,810.267 1425.94,811.798 1436.6,810.953 1447.25,809.744 1457.9,810.106 1468.56,807.721 1479.21,803.93 1489.86,798.893 1500.51,792.016 
  1511.17,785.986 1521.82,781.246 1532.47,774.067 1543.13,766.145 1553.78,757.246 1564.43,744.627 1575.09,731.146 1585.74,715.338 1596.39,696.435 1607.04,677.517 
  1617.7,663.568 1628.35,648.458 1639,629.339 1649.66,610.006 1660.31,588.567 1670.96,561.084 1681.62,530.278 1692.27,495.786 1702.92,458.858 1713.57,418.054 
  1724.23,376.126 1734.88,348.414 1745.53,322.022 1756.19,295.229 1766.84,268.888 1777.49,242.423 1788.15,217.962 1798.8,194.976 1809.45,173.631 1820.1,152.889 
  1830.76,135.367 1841.41,121.684 1852.06,107.459 1862.72,97.0168 1873.37,88.3015 1884.02,88.0053 1894.68,89.3602 1905.33,94.4523 1915.98,97.9145 1926.64,106.714 
  1937.29,116.165 1947.94,126.73 1958.59,138.057 1969.25,143.311 1979.9,154.048 1990.55,160.088 2001.21,168.795 2011.86,173.888 2022.51,181.531 2033.17,185.031 
  2043.82,190.902 2054.47,194.648 2065.12,198.796 2075.78,207.985 2086.43,209.975 2097.08,223.329 2107.74,232.575 2118.39,653.459 2129.04,1446.71 
  "/>
<path clip-path="url(#clip1900)" d="
M294.152 251.724 L828.489 251.724 L828.489 130.764 L294.152 130.764  Z
  " fill="#ffffff" fill-rule="evenodd" fill-opacity="1"/>
<polyline clip-path="url(#clip1900)" style="stroke:#000000; stroke-width:4; stroke-opacity:1; fill:none" points="
  294.152,251.724 828.489,251.724 828.489,130.764 294.152,130.764 294.152,251.724 
  "/>
<polyline clip-path="url(#clip1900)" style="stroke:#000000; stroke-width:4; stroke-opacity:1; fill:none" points="
  318.152,191.244 462.152,191.244 
  "/>
<g clip-path="url(#clip1900)">
<text style="fill:#000000; fill-opacity:1; font-family:Arial,Helvetica Neue,Helvetica,sans-serif; font-size:48px; text-anchor:start;" transform="rotate(0, 486.152, 208.744)" x="486.152" y="208.744">Iteration #230</text>
</g>
</svg>
