<?xml version="1.0" encoding="utf-8"?>
<svg xmlns="http://www.w3.org/2000/svg" xmlns:xlink="http://www.w3.org/1999/xlink" width="600" height="400" viewBox="0 0 2400 1600">
<defs>
  <clipPath id="clip7800">
    <rect x="0" y="0" width="2400" height="1600"/>
  </clipPath>
</defs>
<path clip-path="url(#clip7800)" d="
M0 1600 L2400 1600 L2400 0 L0 0  Z
  " fill="#ffffff" fill-rule="evenodd" fill-opacity="1"/>
<defs>
  <clipPath id="clip7801">
    <rect x="480" y="0" width="1681" height="1600"/>
  </clipPath>
</defs>
<path clip-path="url(#clip7800)" d="
M195.389 1487.47 L2352.76 1487.47 L2352.76 47.2441 L195.389 47.2441  Z
  " fill="#ffffff" fill-rule="evenodd" fill-opacity="1"/>
<defs>
  <clipPath id="clip7802">
    <rect x="195" y="47" width="2158" height="1441"/>
  </clipPath>
</defs>
<polyline clip-path="url(#clip7800)" style="stroke:#000000; stroke-width:4; stroke-opacity:1; fill:none" points="
  195.389,1487.47 2352.76,1487.47 
  "/>
<polyline clip-path="url(#clip7800)" style="stroke:#000000; stroke-width:4; stroke-opacity:1; fill:none" points="
  195.389,1487.47 195.389,47.2441 
  "/>
<polyline clip-path="url(#clip7800)" style="stroke:#000000; stroke-width:4; stroke-opacity:1; fill:none" points="
  195.389,1487.47 195.389,1470.19 
  "/>
<polyline clip-path="url(#clip7800)" style="stroke:#000000; stroke-width:4; stroke-opacity:1; fill:none" points="
  734.731,1487.47 734.731,1470.19 
  "/>
<polyline clip-path="url(#clip7800)" style="stroke:#000000; stroke-width:4; stroke-opacity:1; fill:none" points="
  1274.07,1487.47 1274.07,1470.19 
  "/>
<polyline clip-path="url(#clip7800)" style="stroke:#000000; stroke-width:4; stroke-opacity:1; fill:none" points="
  1813.41,1487.47 1813.41,1470.19 
  "/>
<polyline clip-path="url(#clip7800)" style="stroke:#000000; stroke-width:4; stroke-opacity:1; fill:none" points="
  2352.76,1487.47 2352.76,1470.19 
  "/>
<polyline clip-path="url(#clip7800)" style="stroke:#000000; stroke-width:4; stroke-opacity:1; fill:none" points="
  195.389,1487.47 221.278,1487.47 
  "/>
<polyline clip-path="url(#clip7800)" style="stroke:#000000; stroke-width:4; stroke-opacity:1; fill:none" points="
  195.389,1199.43 221.278,1199.43 
  "/>
<polyline clip-path="url(#clip7800)" style="stroke:#000000; stroke-width:4; stroke-opacity:1; fill:none" points="
  195.389,911.382 221.278,911.382 
  "/>
<polyline clip-path="url(#clip7800)" style="stroke:#000000; stroke-width:4; stroke-opacity:1; fill:none" points="
  195.389,623.336 221.278,623.336 
  "/>
<polyline clip-path="url(#clip7800)" style="stroke:#000000; stroke-width:4; stroke-opacity:1; fill:none" points="
  195.389,335.29 221.278,335.29 
  "/>
<polyline clip-path="url(#clip7800)" style="stroke:#000000; stroke-width:4; stroke-opacity:1; fill:none" points="
  195.389,47.2441 221.278,47.2441 
  "/>
<g clip-path="url(#clip7800)">
<text style="fill:#000000; fill-opacity:1; font-family:Arial,Helvetica Neue,Helvetica,sans-serif; font-size:48px; text-anchor:middle;" transform="rotate(0, 195.389, 1541.47)" x="195.389" y="1541.47">0</text>
</g>
<g clip-path="url(#clip7800)">
<text style="fill:#000000; fill-opacity:1; font-family:Arial,Helvetica Neue,Helvetica,sans-serif; font-size:48px; text-anchor:middle;" transform="rotate(0, 734.731, 1541.47)" x="734.731" y="1541.47">50</text>
</g>
<g clip-path="url(#clip7800)">
<text style="fill:#000000; fill-opacity:1; font-family:Arial,Helvetica Neue,Helvetica,sans-serif; font-size:48px; text-anchor:middle;" transform="rotate(0, 1274.07, 1541.47)" x="1274.07" y="1541.47">100</text>
</g>
<g clip-path="url(#clip7800)">
<text style="fill:#000000; fill-opacity:1; font-family:Arial,Helvetica Neue,Helvetica,sans-serif; font-size:48px; text-anchor:middle;" transform="rotate(0, 1813.41, 1541.47)" x="1813.41" y="1541.47">150</text>
</g>
<g clip-path="url(#clip7800)">
<text style="fill:#000000; fill-opacity:1; font-family:Arial,Helvetica Neue,Helvetica,sans-serif; font-size:48px; text-anchor:middle;" transform="rotate(0, 2352.76, 1541.47)" x="2352.76" y="1541.47">200</text>
</g>
<g clip-path="url(#clip7800)">
<text style="fill:#000000; fill-opacity:1; font-family:Arial,Helvetica Neue,Helvetica,sans-serif; font-size:48px; text-anchor:end;" transform="rotate(0, 171.389, 1504.97)" x="171.389" y="1504.97">-200</text>
</g>
<g clip-path="url(#clip7800)">
<text style="fill:#000000; fill-opacity:1; font-family:Arial,Helvetica Neue,Helvetica,sans-serif; font-size:48px; text-anchor:end;" transform="rotate(0, 171.389, 1216.93)" x="171.389" y="1216.93">-150</text>
</g>
<g clip-path="url(#clip7800)">
<text style="fill:#000000; fill-opacity:1; font-family:Arial,Helvetica Neue,Helvetica,sans-serif; font-size:48px; text-anchor:end;" transform="rotate(0, 171.389, 928.882)" x="171.389" y="928.882">-100</text>
</g>
<g clip-path="url(#clip7800)">
<text style="fill:#000000; fill-opacity:1; font-family:Arial,Helvetica Neue,Helvetica,sans-serif; font-size:48px; text-anchor:end;" transform="rotate(0, 171.389, 640.836)" x="171.389" y="640.836">-50</text>
</g>
<g clip-path="url(#clip7800)">
<text style="fill:#000000; fill-opacity:1; font-family:Arial,Helvetica Neue,Helvetica,sans-serif; font-size:48px; text-anchor:end;" transform="rotate(0, 171.389, 352.79)" x="171.389" y="352.79">0</text>
</g>
<g clip-path="url(#clip7800)">
<text style="fill:#000000; fill-opacity:1; font-family:Arial,Helvetica Neue,Helvetica,sans-serif; font-size:48px; text-anchor:end;" transform="rotate(0, 171.389, 64.7441)" x="171.389" y="64.7441">50</text>
</g>
<polyline clip-path="url(#clip7802)" style="stroke:#000000; stroke-width:4; stroke-opacity:1; fill:none" stroke-dasharray="16, 10" points="
  206.176,139.419 216.963,151.628 227.75,174.318 238.537,197.215 249.323,219.593 260.11,241.656 270.897,263.249 281.684,284.469 292.471,305.299 303.258,325.74 
  314.044,345.804 324.831,365.512 335.618,384.82 346.405,403.832 357.192,422.413 367.979,440.751 378.765,458.633 389.552,476.319 400.339,493.532 411.126,510.582 
  421.913,527.161 432.7,543.585 443.486,559.567 454.273,575.374 465.06,590.799 475.847,605.994 486.634,620.899 497.421,635.49 508.207,649.907 518.994,663.907 
  529.781,677.86 540.568,691.289 551.355,704.789 562.142,717.677 572.928,730.722 583.715,743.114 594.502,755.68 605.289,767.635 616.076,779.705 626.863,791.277 
  637.649,802.838 648.436,814.071 659.223,825.12 670.01,836.043 680.797,846.59 691.584,857.217 702.37,867.283 713.157,877.611 723.944,887.234 734.731,897.238 
  745.518,906.477 756.305,916.106 767.091,925.038 777.878,934.254 788.665,942.943 799.452,951.722 810.239,960.214 821.026,968.548 831.812,976.865 842.599,984.765 
  853.386,992.91 864.173,1000.4 874.96,1008.35 885.747,1015.49 896.533,1023.2 907.32,1030.06 918.107,1037.44 928.894,1044.12 939.681,1051.14 950.468,1057.69 
  961.254,1064.32 972.041,1070.79 982.828,1077.02 993.615,1083.41 1004.4,1089.27 1015.19,1095.57 1025.98,1101.1 1036.76,1107.26 1047.55,1112.52 1058.34,1118.46 
  1069.12,1123.55 1079.91,1129.21 1090.7,1134.22 1101.48,1139.53 1112.27,1144.51 1123.06,1149.47 1133.84,1154.45 1144.63,1159.06 1155.42,1164.03 1166.2,1168.32 
  1176.99,1173.24 1187.78,1177.27 1198.56,1182.07 1209.35,1185.92 1220.14,1190.51 1230.93,1194.29 1241.71,1198.59 1252.5,1202.39 1263.29,1206.37 1274.07,1210.22 
  1284.86,1213.87 1295.65,1217.77 1306.43,1221.11 1317.22,1225.03 1328.01,1228.11 1338.79,1231.99 1349.58,1234.89 1360.37,1238.64 1371.15,1241.46 1381.94,1244.97 
  1392.73,1247.83 1403.51,1251.06 1414.3,1253.99 1425.09,1256.91 1435.88,1259.94 1446.66,1262.56 1457.45,1265.68 1468.24,1268.04 1479.02,1271.18 1489.81,1273.34 
  1500.6,1276.42 1511.38,1278.49 1522.17,1281.39 1532.96,1283.5 1543.74,1286.15 1554.53,1288.35 1565.32,1290.72 1576.1,1293.05 1586.89,1295.13 1597.68,1297.58 
  1608.46,1299.39 1619.25,1301.93 1630.04,1303.54 1640.82,1306.08 1651.61,1307.57 1662.4,1309.99 1673.19,1311.5 1683.97,1313.71 1694.76,1315.32 1705.55,1317.27 
  1716.33,1319.03 1727.12,1320.7 1737.91,1322.61 1748.69,1324.02 1759.48,1326.06 1770.27,1327.25 1781.05,1329.35 1791.84,1330.4 1802.63,1332.45 1813.41,1333.48 
  1824.2,1335.36 1834.99,1336.49 1845.77,1338.13 1856.56,1339.42 1867.35,1340.79 1878.14,1342.26 1888.92,1343.37 1899.71,1345 1910.5,1345.88 1921.28,1347.61 
  1932.07,1348.34 1942.86,1350.07 1953.64,1350.74 1964.43,1352.36 1975.22,1353.11 1986,1354.52 1996.79,1355.42 2007.58,1356.58 2018.36,1357.67 2029.15,1358.57 
  2039.94,1359.85 2050.72,1360.51 2061.51,1361.94 2072.3,1362.42 2083.09,1363.9 2093.87,1364.3 2104.66,1365.71 2115.45,1366.15 2126.23,1367.43 
  "/>
<polyline clip-path="url(#clip7802)" style="stroke:#000000; stroke-width:4; stroke-opacity:1; fill:none" points="
  206.176,139.419 216.963,147.906 227.75,162.278 238.537,169.402 249.323,176.527 260.11,186.476 270.897,199.988 281.684,207.113 292.471,214.237 303.258,221.362 
  314.044,228.486 324.831,233.031 335.618,233.031 346.405,235.98 357.192,250.842 367.979,257.966 378.765,265.091 389.552,272.215 400.339,279.339 411.126,286.464 
  421.913,293.588 432.7,300.712 443.486,308.39 454.273,320.12 465.06,331.298 475.847,338.423 486.634,345.547 497.421,352.672 508.207,359.796 518.994,366.92 
  529.781,374.045 540.568,380.002 551.355,382.753 562.142,385.505 572.928,386.881 583.715,388.256 594.502,389.632 605.289,391.008 616.076,398.058 626.863,401.314 
  637.649,408.254 648.436,412.492 659.223,420.783 670.01,429.811 680.797,440.007 691.584,447.131 702.37,454.194 713.157,458.309 723.944,465.433 734.731,472.557 
  745.518,482.753 756.305,489.877 767.091,497.002 777.878,504.126 788.665,511.25 799.452,518.375 810.239,526.666 821.026,529.552 831.812,536.677 842.599,544.108 
  853.386,553.997 864.173,562.411 874.96,573.097 885.747,579.239 896.533,582.494 907.32,589.618 918.107,596.743 928.894,603.867 939.681,610.991 950.468,621.187 
  961.254,627.881 972.041,638.506 982.828,645.631 993.615,652.755 1004.4,659.879 1015.19,667.004 1025.98,674.128 1036.76,681.253 1047.55,688.807 1058.34,698.572 
  1069.12,705.697 1079.91,712.821 1090.7,719.945 1101.48,727.07 1112.27,734.194 1123.06,742.117 1133.84,752.804 1144.63,761.709 1155.42,768.035 1166.2,779.029 
  1176.99,786.153 1187.78,793.278 1198.56,800.402 1209.35,809.184 1220.14,820.793 1230.93,827.917 1241.71,838.173 1252.5,848.307 1263.29,855.432 1274.07,862.556 
  1284.86,872.752 1295.65,879.324 1306.43,889.952 1317.22,904.201 1328.01,916.604 1338.79,925.14 1349.58,936.992 1360.37,943.439 1371.15,954.311 1381.94,961.435 
  1392.73,968.56 1403.51,978.263 1414.3,990.734 1425.09,999.15 1435.88,1005.97 1446.66,1016.47 1457.45,1023.59 1468.24,1030.72 1479.02,1037.84 1489.81,1044.96 
  1500.6,1051.66 1511.38,1062.28 1522.17,1069.41 1532.96,1076.53 1543.74,1085.19 1554.53,1090.78 1565.32,1097.91 1576.1,1105.03 1586.89,1111.72 1597.68,1117.14 
  1608.46,1129.23 1619.25,1139.67 1630.04,1146.79 1640.82,1153.73 1651.61,1163.8 1662.4,1168.16 1673.19,1175.29 1683.97,1180.64 1694.76,1189.54 1705.55,1196.67 
  1716.33,1203.61 1727.12,1207.85 1737.91,1214.97 1748.69,1222.09 1759.48,1229.21 1770.27,1236.34 1781.05,1243.53 1791.84,1253.66 1802.63,1261.83 1813.41,1270.98 
  1824.2,1279.09 1834.99,1293.89 1845.77,1304.58 1856.56,1314.84 1867.35,1325.65 1878.14,1347.01 1888.92,1367.65 1899.71,1382.57 1910.5,1393.44 1921.28,1401.18 
  1932.07,1414.63 1942.86,1421.45 1953.64,1427.6 1964.43,1420.65 1975.22,1424.52 1986,1424.52 1996.79,1424.52 2007.58,1424.52 2018.36,1424.52 2029.15,1424.52 
  2039.94,1424.52 2050.72,1424.52 2061.51,1425.07 2072.3,1427.6 2083.09,1427.6 2093.87,1427.6 2104.66,1427.6 2115.45,1427.58 2126.23,1427.6 
  "/>
<path clip-path="url(#clip7800)" d="
M1799.94 312.204 L2280.76 312.204 L2280.76 130.764 L1799.94 130.764  Z
  " fill="#ffffff" fill-rule="evenodd" fill-opacity="1"/>
<polyline clip-path="url(#clip7800)" style="stroke:#000000; stroke-width:4; stroke-opacity:1; fill:none" points="
  1799.94,312.204 2280.76,312.204 2280.76,130.764 1799.94,130.764 1799.94,312.204 
  "/>
<polyline clip-path="url(#clip7800)" style="stroke:#000000; stroke-width:4; stroke-opacity:1; fill:none" stroke-dasharray="16, 10" points="
  1823.94,191.244 1967.94,191.244 
  "/>
<g clip-path="url(#clip7800)">
<text style="fill:#000000; fill-opacity:1; font-family:Arial,Helvetica Neue,Helvetica,sans-serif; font-size:48px; text-anchor:start;" transform="rotate(0, 1991.94, 208.744)" x="1991.94" y="208.744">Iteration #0</text>
</g>
<polyline clip-path="url(#clip7800)" style="stroke:#000000; stroke-width:4; stroke-opacity:1; fill:none" points="
  1823.94,251.724 1967.94,251.724 
  "/>
<g clip-path="url(#clip7800)">
<text style="fill:#000000; fill-opacity:1; font-family:Arial,Helvetica Neue,Helvetica,sans-serif; font-size:48px; text-anchor:start;" transform="rotate(0, 1991.94, 269.224)" x="1991.94" y="269.224">Test data</text>
</g>
</svg>
