<?xml version="1.0" encoding="utf-8"?>
<svg xmlns="http://www.w3.org/2000/svg" xmlns:xlink="http://www.w3.org/1999/xlink" width="600" height="400" viewBox="0 0 2400 1600">
<defs>
  <clipPath id="clip3600">
    <rect x="0" y="0" width="2400" height="1600"/>
  </clipPath>
</defs>
<path clip-path="url(#clip3600)" d="
M0 1600 L2400 1600 L2400 0 L0 0  Z
  " fill="#ffffff" fill-rule="evenodd" fill-opacity="1"/>
<defs>
  <clipPath id="clip3601">
    <rect x="480" y="0" width="1681" height="1600"/>
  </clipPath>
</defs>
<path clip-path="url(#clip3600)" d="
M222.152 1487.47 L2352.76 1487.47 L2352.76 47.2441 L222.152 47.2441  Z
  " fill="#ffffff" fill-rule="evenodd" fill-opacity="1"/>
<defs>
  <clipPath id="clip3602">
    <rect x="222" y="47" width="2132" height="1441"/>
  </clipPath>
</defs>
<polyline clip-path="url(#clip3600)" style="stroke:#000000; stroke-width:4; stroke-opacity:1; fill:none" points="
  222.152,1487.47 2352.76,1487.47 
  "/>
<polyline clip-path="url(#clip3600)" style="stroke:#000000; stroke-width:4; stroke-opacity:1; fill:none" points="
  222.152,1487.47 222.152,47.2441 
  "/>
<polyline clip-path="url(#clip3600)" style="stroke:#000000; stroke-width:4; stroke-opacity:1; fill:none" points="
  222.152,1487.47 222.152,1470.19 
  "/>
<polyline clip-path="url(#clip3600)" style="stroke:#000000; stroke-width:4; stroke-opacity:1; fill:none" points="
  754.803,1487.47 754.803,1470.19 
  "/>
<polyline clip-path="url(#clip3600)" style="stroke:#000000; stroke-width:4; stroke-opacity:1; fill:none" points="
  1287.45,1487.47 1287.45,1470.19 
  "/>
<polyline clip-path="url(#clip3600)" style="stroke:#000000; stroke-width:4; stroke-opacity:1; fill:none" points="
  1820.1,1487.47 1820.1,1470.19 
  "/>
<polyline clip-path="url(#clip3600)" style="stroke:#000000; stroke-width:4; stroke-opacity:1; fill:none" points="
  2352.76,1487.47 2352.76,1470.19 
  "/>
<polyline clip-path="url(#clip3600)" style="stroke:#000000; stroke-width:4; stroke-opacity:1; fill:none" points="
  222.152,1443.36 247.719,1443.36 
  "/>
<polyline clip-path="url(#clip3600)" style="stroke:#000000; stroke-width:4; stroke-opacity:1; fill:none" points="
  222.152,1105.58 247.719,1105.58 
  "/>
<polyline clip-path="url(#clip3600)" style="stroke:#000000; stroke-width:4; stroke-opacity:1; fill:none" points="
  222.152,767.8 247.719,767.8 
  "/>
<polyline clip-path="url(#clip3600)" style="stroke:#000000; stroke-width:4; stroke-opacity:1; fill:none" points="
  222.152,430.022 247.719,430.022 
  "/>
<polyline clip-path="url(#clip3600)" style="stroke:#000000; stroke-width:4; stroke-opacity:1; fill:none" points="
  222.152,92.2428 247.719,92.2428 
  "/>
<g clip-path="url(#clip3600)">
<text style="fill:#000000; fill-opacity:1; font-family:Arial,Helvetica Neue,Helvetica,sans-serif; font-size:48px; text-anchor:middle;" transform="rotate(0, 222.152, 1541.47)" x="222.152" y="1541.47">0</text>
</g>
<g clip-path="url(#clip3600)">
<text style="fill:#000000; fill-opacity:1; font-family:Arial,Helvetica Neue,Helvetica,sans-serif; font-size:48px; text-anchor:middle;" transform="rotate(0, 754.803, 1541.47)" x="754.803" y="1541.47">50</text>
</g>
<g clip-path="url(#clip3600)">
<text style="fill:#000000; fill-opacity:1; font-family:Arial,Helvetica Neue,Helvetica,sans-serif; font-size:48px; text-anchor:middle;" transform="rotate(0, 1287.45, 1541.47)" x="1287.45" y="1541.47">100</text>
</g>
<g clip-path="url(#clip3600)">
<text style="fill:#000000; fill-opacity:1; font-family:Arial,Helvetica Neue,Helvetica,sans-serif; font-size:48px; text-anchor:middle;" transform="rotate(0, 1820.1, 1541.47)" x="1820.1" y="1541.47">150</text>
</g>
<g clip-path="url(#clip3600)">
<text style="fill:#000000; fill-opacity:1; font-family:Arial,Helvetica Neue,Helvetica,sans-serif; font-size:48px; text-anchor:middle;" transform="rotate(0, 2352.76, 1541.47)" x="2352.76" y="1541.47">200</text>
</g>
<g clip-path="url(#clip3600)">
<text style="fill:#000000; fill-opacity:1; font-family:Arial,Helvetica Neue,Helvetica,sans-serif; font-size:48px; text-anchor:end;" transform="rotate(0, 198.152, 1460.86)" x="198.152" y="1460.86">-1000</text>
</g>
<g clip-path="url(#clip3600)">
<text style="fill:#000000; fill-opacity:1; font-family:Arial,Helvetica Neue,Helvetica,sans-serif; font-size:48px; text-anchor:end;" transform="rotate(0, 198.152, 1123.08)" x="198.152" y="1123.08">0</text>
</g>
<g clip-path="url(#clip3600)">
<text style="fill:#000000; fill-opacity:1; font-family:Arial,Helvetica Neue,Helvetica,sans-serif; font-size:48px; text-anchor:end;" transform="rotate(0, 198.152, 785.3)" x="198.152" y="785.3">1000</text>
</g>
<g clip-path="url(#clip3600)">
<text style="fill:#000000; fill-opacity:1; font-family:Arial,Helvetica Neue,Helvetica,sans-serif; font-size:48px; text-anchor:end;" transform="rotate(0, 198.152, 447.522)" x="198.152" y="447.522">2000</text>
</g>
<g clip-path="url(#clip3600)">
<text style="fill:#000000; fill-opacity:1; font-family:Arial,Helvetica Neue,Helvetica,sans-serif; font-size:48px; text-anchor:end;" transform="rotate(0, 198.152, 109.743)" x="198.152" y="109.743">3000</text>
</g>
<polyline clip-path="url(#clip3602)" style="stroke:#000000; stroke-width:4; stroke-opacity:1; fill:none" points="
  232.805,999.522 243.458,1001.71 254.111,1004.35 264.764,1005.69 275.417,1007.12 286.07,1009.68 296.723,1013.01 307.376,1015.4 318.029,1017.63 328.682,1019.61 
  339.335,1021.1 349.988,1020.87 360.641,1018.72 371.294,1017.33 381.947,1017.95 392.6,1017.7 403.253,1017.37 413.906,1016.99 424.559,1016.55 435.212,1016.07 
  445.865,1015.56 456.518,1015.14 467.171,1015.56 477.824,1017.61 488.477,1020.2 499.13,1022.52 509.783,1025.04 520.436,1027.78 531.089,1030.87 541.742,1034.26 
  552.395,1037.9 563.048,1040.98 573.701,1042.9 584.354,1043.75 595.007,1043.24 605.66,1041.36 616.313,1038.13 626.966,1034.4 637.619,1031.01 648.272,1026.78 
  658.925,1022.69 669.578,1018.25 680.232,1014.95 690.885,1012.84 701.538,1011.47 712.191,1009.81 722.844,1007.69 733.497,1004.69 744.15,1002.24 754.803,1000.4 
  765.456,999.648 776.109,998.421 786.762,997.271 797.415,996.123 808.068,995.001 818.721,994.119 829.374,992.644 840.027,989.388 850.68,986.803 861.333,984.881 
  871.986,984.133 882.639,984.279 893.292,985.134 903.945,983.953 914.598,981.146 925.251,978.95 935.904,976.384 946.557,973.797 957.21,971.486 967.863,970.374 
  978.516,969.065 989.169,969.181 999.822,968.294 1010.48,967.1 1021.13,965.466 1031.78,963.635 1042.43,961.204 1053.09,958.566 1063.74,956.569 1074.39,955.337 
  1085.05,952.874 1095.7,949.909 1106.35,946.084 1117.01,941.673 1127.66,936.649 1138.31,932.521 1148.96,930.185 1159.62,926.546 1170.27,922.386 1180.92,919.949 
  1191.58,915.016 1202.23,908.872 1212.88,902.169 1223.54,896.827 1234.19,892.655 1244.84,886.84 1255.49,882.784 1266.15,878.327 1276.8,870.995 1287.45,863.202 
  1298.11,855.613 1308.76,846.026 1319.41,840.593 1330.07,839.664 1340.72,838.786 1351.37,837.783 1362.02,837.687 1372.68,835.354 1383.33,834.721 1393.98,830.868 
  1404.64,826.695 1415.29,825.871 1425.94,827.093 1436.6,826.057 1447.25,824.792 1457.9,824.828 1468.56,822.549 1479.21,818.991 1489.86,813.941 1500.51,807.767 
  1511.17,801.625 1521.82,797.289 1532.47,790.658 1543.13,783.157 1553.78,774.994 1564.43,763.62 1575.09,751 1585.74,736.83 1596.39,719.621 1607.04,701.936 
  1617.7,689.789 1628.35,676.523 1639,659.78 1649.66,642.977 1660.31,624.91 1670.96,601.009 1681.62,575.064 1692.27,545.553 1702.92,515.57 1713.57,481.398 
  1724.23,440.956 1734.88,392.767 1745.53,334.691 1756.19,305.774 1766.84,278.601 1777.49,251.915 1788.15,226.265 1798.8,203.163 1809.45,180.694 1820.1,159 
  1830.76,140.569 1841.41,125.727 1852.06,111.017 1862.72,99.6218 1873.37,90.1687 1884.02,88.0053 1894.68,90.8589 1905.33,94.01 1915.98,98.339 1926.64,106.081 
  1937.29,115.217 1947.94,126.171 1958.59,137.614 1969.25,142.66 1979.9,151.979 1990.55,160.865 2001.21,165.321 2011.86,173.714 2022.51,180.188 2033.17,182.268 
  2043.82,188.904 2054.47,193.291 2065.12,195.318 2075.78,204.666 2086.43,209.148 2097.08,213.493 2107.74,232.428 2118.39,522.975 2129.04,1446.71 
  "/>
<path clip-path="url(#clip3600)" d="
M294.152 251.724 L828.489 251.724 L828.489 130.764 L294.152 130.764  Z
  " fill="#ffffff" fill-rule="evenodd" fill-opacity="1"/>
<polyline clip-path="url(#clip3600)" style="stroke:#000000; stroke-width:4; stroke-opacity:1; fill:none" points="
  294.152,251.724 828.489,251.724 828.489,130.764 294.152,130.764 294.152,251.724 
  "/>
<polyline clip-path="url(#clip3600)" style="stroke:#000000; stroke-width:4; stroke-opacity:1; fill:none" points="
  318.152,191.244 462.152,191.244 
  "/>
<g clip-path="url(#clip3600)">
<text style="fill:#000000; fill-opacity:1; font-family:Arial,Helvetica Neue,Helvetica,sans-serif; font-size:48px; text-anchor:start;" transform="rotate(0, 486.152, 208.744)" x="486.152" y="208.744">Iteration #220</text>
</g>
</svg>
