<?xml version="1.0" encoding="utf-8"?>
<svg xmlns="http://www.w3.org/2000/svg" xmlns:xlink="http://www.w3.org/1999/xlink" width="600" height="400" viewBox="0 0 2400 1600">
<defs>
  <clipPath id="clip2800">
    <rect x="0" y="0" width="2400" height="1600"/>
  </clipPath>
</defs>
<path clip-path="url(#clip2800)" d="
M0 1600 L2400 1600 L2400 0 L0 0  Z
  " fill="#ffffff" fill-rule="evenodd" fill-opacity="1"/>
<defs>
  <clipPath id="clip2801">
    <rect x="480" y="0" width="1681" height="1600"/>
  </clipPath>
</defs>
<path clip-path="url(#clip2800)" d="
M194.041 1487.47 L2352.76 1487.47 L2352.76 47.2441 L194.041 47.2441  Z
  " fill="#ffffff" fill-rule="evenodd" fill-opacity="1"/>
<defs>
  <clipPath id="clip2802">
    <rect x="194" y="47" width="2160" height="1441"/>
  </clipPath>
</defs>
<polyline clip-path="url(#clip2800)" style="stroke:#000000; stroke-width:4; stroke-opacity:1; fill:none" points="
  194.041,1487.47 2352.76,1487.47 
  "/>
<polyline clip-path="url(#clip2800)" style="stroke:#000000; stroke-width:4; stroke-opacity:1; fill:none" points="
  194.041,1487.47 194.041,47.2441 
  "/>
<polyline clip-path="url(#clip2800)" style="stroke:#000000; stroke-width:4; stroke-opacity:1; fill:none" points="
  194.041,1487.47 194.041,1470.19 
  "/>
<polyline clip-path="url(#clip2800)" style="stroke:#000000; stroke-width:4; stroke-opacity:1; fill:none" points="
  733.72,1487.47 733.72,1470.19 
  "/>
<polyline clip-path="url(#clip2800)" style="stroke:#000000; stroke-width:4; stroke-opacity:1; fill:none" points="
  1273.4,1487.47 1273.4,1470.19 
  "/>
<polyline clip-path="url(#clip2800)" style="stroke:#000000; stroke-width:4; stroke-opacity:1; fill:none" points="
  1813.08,1487.47 1813.08,1470.19 
  "/>
<polyline clip-path="url(#clip2800)" style="stroke:#000000; stroke-width:4; stroke-opacity:1; fill:none" points="
  2352.76,1487.47 2352.76,1470.19 
  "/>
<polyline clip-path="url(#clip2800)" style="stroke:#000000; stroke-width:4; stroke-opacity:1; fill:none" points="
  194.041,1405 219.946,1405 
  "/>
<polyline clip-path="url(#clip2800)" style="stroke:#000000; stroke-width:4; stroke-opacity:1; fill:none" points="
  194.041,1014.18 219.946,1014.18 
  "/>
<polyline clip-path="url(#clip2800)" style="stroke:#000000; stroke-width:4; stroke-opacity:1; fill:none" points="
  194.041,623.354 219.946,623.354 
  "/>
<polyline clip-path="url(#clip2800)" style="stroke:#000000; stroke-width:4; stroke-opacity:1; fill:none" points="
  194.041,232.534 219.946,232.534 
  "/>
<g clip-path="url(#clip2800)">
<text style="fill:#000000; fill-opacity:1; font-family:Arial,Helvetica Neue,Helvetica,sans-serif; font-size:48px; text-anchor:middle;" transform="rotate(0, 194.041, 1541.47)" x="194.041" y="1541.47">0</text>
</g>
<g clip-path="url(#clip2800)">
<text style="fill:#000000; fill-opacity:1; font-family:Arial,Helvetica Neue,Helvetica,sans-serif; font-size:48px; text-anchor:middle;" transform="rotate(0, 733.72, 1541.47)" x="733.72" y="1541.47">50</text>
</g>
<g clip-path="url(#clip2800)">
<text style="fill:#000000; fill-opacity:1; font-family:Arial,Helvetica Neue,Helvetica,sans-serif; font-size:48px; text-anchor:middle;" transform="rotate(0, 1273.4, 1541.47)" x="1273.4" y="1541.47">100</text>
</g>
<g clip-path="url(#clip2800)">
<text style="fill:#000000; fill-opacity:1; font-family:Arial,Helvetica Neue,Helvetica,sans-serif; font-size:48px; text-anchor:middle;" transform="rotate(0, 1813.08, 1541.47)" x="1813.08" y="1541.47">150</text>
</g>
<g clip-path="url(#clip2800)">
<text style="fill:#000000; fill-opacity:1; font-family:Arial,Helvetica Neue,Helvetica,sans-serif; font-size:48px; text-anchor:middle;" transform="rotate(0, 2352.76, 1541.47)" x="2352.76" y="1541.47">200</text>
</g>
<g clip-path="url(#clip2800)">
<text style="fill:#000000; fill-opacity:1; font-family:Arial,Helvetica Neue,Helvetica,sans-serif; font-size:48px; text-anchor:end;" transform="rotate(0, 170.041, 1422.5)" x="170.041" y="1422.5">0</text>
</g>
<g clip-path="url(#clip2800)">
<text style="fill:#000000; fill-opacity:1; font-family:Arial,Helvetica Neue,Helvetica,sans-serif; font-size:48px; text-anchor:end;" transform="rotate(0, 170.041, 1031.68)" x="170.041" y="1031.68">500</text>
</g>
<g clip-path="url(#clip2800)">
<text style="fill:#000000; fill-opacity:1; font-family:Arial,Helvetica Neue,Helvetica,sans-serif; font-size:48px; text-anchor:end;" transform="rotate(0, 170.041, 640.854)" x="170.041" y="640.854">1000</text>
</g>
<g clip-path="url(#clip2800)">
<text style="fill:#000000; fill-opacity:1; font-family:Arial,Helvetica Neue,Helvetica,sans-serif; font-size:48px; text-anchor:end;" transform="rotate(0, 170.041, 250.034)" x="170.041" y="250.034">1500</text>
</g>
<polyline clip-path="url(#clip2802)" style="stroke:#000000; stroke-width:4; stroke-opacity:1; fill:none" points="
  204.835,1214.1 215.629,1214.52 226.422,1214.66 237.216,1214.85 248.009,1215.01 258.803,1215.3 269.596,1215.63 280.39,1215.86 291.184,1216.15 301.977,1216.33 
  312.771,1216.52 323.564,1216.49 334.358,1216.35 345.151,1216.21 355.945,1216.24 366.739,1216.18 377.532,1216.09 388.326,1215.99 399.119,1215.85 409.913,1215.69 
  420.706,1215.5 431.5,1215.3 442.294,1215.14 453.087,1215.08 463.881,1215.04 474.674,1214.96 485.468,1214.83 496.262,1214.69 507.055,1214.55 517.849,1214.35 
  528.642,1214.15 539.436,1213.83 550.229,1213.35 561.023,1212.72 571.817,1211.91 582.61,1210.91 593.404,1209.73 604.197,1208.42 614.991,1207.06 625.784,1205.55 
  636.578,1203.96 647.372,1202.28 658.165,1200.62 668.959,1198.94 679.752,1197.28 690.546,1195.48 701.339,1193.6 712.133,1191.52 722.927,1189.42 733.72,1187.26 
  744.514,1185.14 755.307,1182.83 766.101,1180.49 776.894,1178.02 787.688,1175.45 798.482,1172.83 809.275,1170 820.069,1166.93 830.862,1163.84 841.656,1160.6 
  852.449,1157.4 863.243,1154.21 874.037,1150.85 884.83,1147.29 895.624,1143.36 906.417,1139.37 917.211,1135.18 928.004,1130.96 938.798,1126.41 949.592,1121.99 
  960.385,1117.34 971.179,1112.62 981.972,1107.77 992.766,1102.57 1003.56,1097.21 1014.35,1091.72 1025.15,1085.84 1035.94,1079.87 1046.73,1073.75 1057.53,1067.47 
  1068.32,1060.92 1079.11,1054.11 1089.91,1046.88 1100.7,1039.63 1111.5,1031.89 1122.29,1024.14 1133.08,1016.48 1143.88,1008.35 1154.67,1000.05 1165.46,991.834 
  1176.26,982.995 1187.05,974.018 1197.84,964.73 1208.64,955.413 1219.43,946.231 1230.22,936.576 1241.02,927.043 1251.81,917.513 1262.61,907.273 1273.4,897.06 
  1284.19,886.824 1294.99,876.114 1305.78,865.993 1316.57,856.343 1327.37,846.496 1338.16,836.847 1348.95,827.091 1359.75,816.888 1370.54,807.15 1381.33,796.623 
  1392.13,786.055 1402.92,776.015 1413.72,765.787 1424.51,755.429 1435.3,744.92 1446.1,734.277 1456.89,723.305 1467.68,711.953 1478.48,700.006 1489.27,688.005 
  1500.06,675.514 1510.86,663.093 1521.65,650.212 1532.44,636.635 1543.24,622.719 1554.03,608.11 1564.83,592.486 1575.62,576.416 1586.41,559.196 1597.21,541.107 
  1608,523.569 1618.79,504.961 1629.59,484.722 1640.38,463.727 1651.17,441.051 1661.97,415.77 1672.76,388.146 1683.55,357.198 1694.35,323.556 1705.14,284.928 
  1715.94,238.871 1726.73,181.944 1737.52,102.613 1748.32,93.7181 1759.11,90.3599 1769.9,88.6606 1780.7,88.1086 1791.49,88.0053 1802.28,88.1475 1813.08,88.7687 
  1823.87,89.3904 1834.66,90.0824 1845.46,91.0999 1856.25,91.8796 1867.05,92.7366 1877.84,93.8638 1888.63,94.5585 1899.43,95.4611 1910.22,96.5144 1921.01,97.1009 
  1931.81,98.0889 1942.6,99.0232 1953.39,99.5194 1964.19,100.605 1974.98,101.497 1985.77,101.952 1996.57,103.272 2007.36,103.805 2018.16,104.519 2028.95,105.759 
  2039.74,106.286 2050.54,106.905 2061.33,108.233 2072.12,108.47 2082.92,109.666 2093.71,110.865 2104.5,111.639 2115.3,228.392 2126.09,1446.71 
  "/>
<path clip-path="url(#clip2800)" d="
M266.041 251.724 L773.617 251.724 L773.617 130.764 L266.041 130.764  Z
  " fill="#ffffff" fill-rule="evenodd" fill-opacity="1"/>
<polyline clip-path="url(#clip2800)" style="stroke:#000000; stroke-width:4; stroke-opacity:1; fill:none" points="
  266.041,251.724 773.617,251.724 773.617,130.764 266.041,130.764 266.041,251.724 
  "/>
<polyline clip-path="url(#clip2800)" style="stroke:#000000; stroke-width:4; stroke-opacity:1; fill:none" points="
  290.041,191.244 434.041,191.244 
  "/>
<g clip-path="url(#clip2800)">
<text style="fill:#000000; fill-opacity:1; font-family:Arial,Helvetica Neue,Helvetica,sans-serif; font-size:48px; text-anchor:start;" transform="rotate(0, 458.041, 208.744)" x="458.041" y="208.744">Iteration #40</text>
</g>
</svg>
