<?xml version="1.0" encoding="utf-8"?>
<svg xmlns="http://www.w3.org/2000/svg" xmlns:xlink="http://www.w3.org/1999/xlink" width="600" height="400" viewBox="0 0 2400 1600">
<defs>
  <clipPath id="clip8200">
    <rect x="0" y="0" width="2400" height="1600"/>
  </clipPath>
</defs>
<path clip-path="url(#clip8200)" d="
M0 1600 L2400 1600 L2400 0 L0 0  Z
  " fill="#ffffff" fill-rule="evenodd" fill-opacity="1"/>
<defs>
  <clipPath id="clip8201">
    <rect x="480" y="0" width="1681" height="1600"/>
  </clipPath>
</defs>
<path clip-path="url(#clip8200)" d="
M195.389 1487.47 L2352.76 1487.47 L2352.76 47.2441 L195.389 47.2441  Z
  " fill="#ffffff" fill-rule="evenodd" fill-opacity="1"/>
<defs>
  <clipPath id="clip8202">
    <rect x="195" y="47" width="2158" height="1441"/>
  </clipPath>
</defs>
<polyline clip-path="url(#clip8200)" style="stroke:#000000; stroke-width:4; stroke-opacity:1; fill:none" points="
  195.389,1487.47 2352.76,1487.47 
  "/>
<polyline clip-path="url(#clip8200)" style="stroke:#000000; stroke-width:4; stroke-opacity:1; fill:none" points="
  195.389,1487.47 195.389,47.2441 
  "/>
<polyline clip-path="url(#clip8200)" style="stroke:#000000; stroke-width:4; stroke-opacity:1; fill:none" points="
  195.389,1487.47 195.389,1470.19 
  "/>
<polyline clip-path="url(#clip8200)" style="stroke:#000000; stroke-width:4; stroke-opacity:1; fill:none" points="
  734.731,1487.47 734.731,1470.19 
  "/>
<polyline clip-path="url(#clip8200)" style="stroke:#000000; stroke-width:4; stroke-opacity:1; fill:none" points="
  1274.07,1487.47 1274.07,1470.19 
  "/>
<polyline clip-path="url(#clip8200)" style="stroke:#000000; stroke-width:4; stroke-opacity:1; fill:none" points="
  1813.41,1487.47 1813.41,1470.19 
  "/>
<polyline clip-path="url(#clip8200)" style="stroke:#000000; stroke-width:4; stroke-opacity:1; fill:none" points="
  2352.76,1487.47 2352.76,1470.19 
  "/>
<polyline clip-path="url(#clip8200)" style="stroke:#000000; stroke-width:4; stroke-opacity:1; fill:none" points="
  195.389,1376.98 221.278,1376.98 
  "/>
<polyline clip-path="url(#clip8200)" style="stroke:#000000; stroke-width:4; stroke-opacity:1; fill:none" points="
  195.389,1158.05 221.278,1158.05 
  "/>
<polyline clip-path="url(#clip8200)" style="stroke:#000000; stroke-width:4; stroke-opacity:1; fill:none" points="
  195.389,939.118 221.278,939.118 
  "/>
<polyline clip-path="url(#clip8200)" style="stroke:#000000; stroke-width:4; stroke-opacity:1; fill:none" points="
  195.389,720.185 221.278,720.185 
  "/>
<polyline clip-path="url(#clip8200)" style="stroke:#000000; stroke-width:4; stroke-opacity:1; fill:none" points="
  195.389,501.252 221.278,501.252 
  "/>
<polyline clip-path="url(#clip8200)" style="stroke:#000000; stroke-width:4; stroke-opacity:1; fill:none" points="
  195.389,282.318 221.278,282.318 
  "/>
<polyline clip-path="url(#clip8200)" style="stroke:#000000; stroke-width:4; stroke-opacity:1; fill:none" points="
  195.389,63.385 221.278,63.385 
  "/>
<g clip-path="url(#clip8200)">
<text style="fill:#000000; fill-opacity:1; font-family:Arial,Helvetica Neue,Helvetica,sans-serif; font-size:48px; text-anchor:middle;" transform="rotate(0, 195.389, 1541.47)" x="195.389" y="1541.47">0</text>
</g>
<g clip-path="url(#clip8200)">
<text style="fill:#000000; fill-opacity:1; font-family:Arial,Helvetica Neue,Helvetica,sans-serif; font-size:48px; text-anchor:middle;" transform="rotate(0, 734.731, 1541.47)" x="734.731" y="1541.47">50</text>
</g>
<g clip-path="url(#clip8200)">
<text style="fill:#000000; fill-opacity:1; font-family:Arial,Helvetica Neue,Helvetica,sans-serif; font-size:48px; text-anchor:middle;" transform="rotate(0, 1274.07, 1541.47)" x="1274.07" y="1541.47">100</text>
</g>
<g clip-path="url(#clip8200)">
<text style="fill:#000000; fill-opacity:1; font-family:Arial,Helvetica Neue,Helvetica,sans-serif; font-size:48px; text-anchor:middle;" transform="rotate(0, 1813.41, 1541.47)" x="1813.41" y="1541.47">150</text>
</g>
<g clip-path="url(#clip8200)">
<text style="fill:#000000; fill-opacity:1; font-family:Arial,Helvetica Neue,Helvetica,sans-serif; font-size:48px; text-anchor:middle;" transform="rotate(0, 2352.76, 1541.47)" x="2352.76" y="1541.47">200</text>
</g>
<g clip-path="url(#clip8200)">
<text style="fill:#000000; fill-opacity:1; font-family:Arial,Helvetica Neue,Helvetica,sans-serif; font-size:48px; text-anchor:end;" transform="rotate(0, 171.389, 1394.48)" x="171.389" y="1394.48">-500</text>
</g>
<g clip-path="url(#clip8200)">
<text style="fill:#000000; fill-opacity:1; font-family:Arial,Helvetica Neue,Helvetica,sans-serif; font-size:48px; text-anchor:end;" transform="rotate(0, 171.389, 1175.55)" x="171.389" y="1175.55">0</text>
</g>
<g clip-path="url(#clip8200)">
<text style="fill:#000000; fill-opacity:1; font-family:Arial,Helvetica Neue,Helvetica,sans-serif; font-size:48px; text-anchor:end;" transform="rotate(0, 171.389, 956.618)" x="171.389" y="956.618">500</text>
</g>
<g clip-path="url(#clip8200)">
<text style="fill:#000000; fill-opacity:1; font-family:Arial,Helvetica Neue,Helvetica,sans-serif; font-size:48px; text-anchor:end;" transform="rotate(0, 171.389, 737.685)" x="171.389" y="737.685">1000</text>
</g>
<g clip-path="url(#clip8200)">
<text style="fill:#000000; fill-opacity:1; font-family:Arial,Helvetica Neue,Helvetica,sans-serif; font-size:48px; text-anchor:end;" transform="rotate(0, 171.389, 518.752)" x="171.389" y="518.752">1500</text>
</g>
<g clip-path="url(#clip8200)">
<text style="fill:#000000; fill-opacity:1; font-family:Arial,Helvetica Neue,Helvetica,sans-serif; font-size:48px; text-anchor:end;" transform="rotate(0, 171.389, 299.818)" x="171.389" y="299.818">2000</text>
</g>
<g clip-path="url(#clip8200)">
<text style="fill:#000000; fill-opacity:1; font-family:Arial,Helvetica Neue,Helvetica,sans-serif; font-size:48px; text-anchor:end;" transform="rotate(0, 171.389, 80.885)" x="171.389" y="80.885">2500</text>
</g>
<polyline clip-path="url(#clip8202)" style="stroke:#000000; stroke-width:4; stroke-opacity:1; fill:none" points="
  206.176,1030.05 216.963,1031.37 227.75,1033.01 238.537,1033.96 249.323,1035.03 260.11,1036.74 270.897,1038.92 281.684,1040.57 292.471,1042.19 303.258,1043.62 
  314.044,1044.81 324.831,1045.01 335.618,1044.16 346.405,1043.7 357.192,1044.38 367.979,1044.57 378.765,1044.71 389.552,1044.84 400.339,1044.93 411.126,1045.01 
  421.913,1045.08 432.7,1045.21 443.486,1045.81 454.273,1047.33 465.06,1049.14 475.847,1050.79 486.634,1052.55 497.421,1054.38 508.207,1056.4 518.994,1058.51 
  529.781,1060.71 540.568,1062.52 551.355,1063.6 562.142,1063.96 572.928,1063.51 583.715,1062.15 594.502,1059.97 605.289,1057.39 616.076,1054.91 626.863,1051.87 
  637.649,1048.83 648.436,1045.55 659.223,1042.79 670.01,1040.7 680.797,1038.95 691.584,1036.99 702.37,1034.76 713.157,1031.98 723.944,1029.52 734.731,1027.31 
  745.518,1025.77 756.305,1023.88 767.091,1022.06 777.878,1020.21 788.665,1018.35 799.452,1016.62 810.239,1014.54 821.026,1011.45 831.812,1008.74 842.599,1006.37 
  853.386,1004.65 864.173,1003.49 874.96,1002.6 885.747,1000.67 896.533,997.735 907.32,995.163 918.107,992.301 928.894,989.559 939.681,986.741 950.468,984.778 
  961.254,982.573 972.041,981.169 982.828,979.208 993.615,976.999 1004.4,974.461 1015.19,971.87 1025.98,968.736 1036.76,965.53 1047.55,962.567 1058.34,959.963 
  1069.12,956.585 1079.91,952.847 1090.7,948.46 1101.48,943.765 1112.27,938.536 1123.06,933.748 1133.84,929.933 1144.63,925.229 1155.42,920.159 1166.2,916.018 
  1176.99,910.292 1187.78,903.853 1198.56,897.003 1209.35,890.794 1220.14,885.286 1230.93,878.695 1241.71,873.067 1252.5,867.217 1263.29,859.602 1274.07,851.739 
  1284.86,844.018 1295.65,835.061 1306.43,828.56 1317.22,824.577 1328.01,820.577 1338.79,816.596 1349.58,813.01 1360.37,808.075 1371.15,804.143 1381.94,798.169 
  1392.73,791.971 1403.51,787.592 1414.3,784.086 1425.09,779.277 1435.88,774.117 1446.66,769.426 1457.45,763.266 1468.24,756.093 1479.02,747.764 1489.81,738.654 
  1500.6,729.154 1511.38,720.478 1522.17,710.225 1532.96,699.084 1543.74,687.368 1554.53,673.563 1565.32,658.668 1576.1,642.732 1586.89,624.756 1597.68,606.211 
  1608.46,590.528 1619.25,573.858 1630.04,554.931 1640.82,535.699 1651.61,515.214 1662.4,491.132 1673.19,465.258 1683.97,436.584 1694.76,406.902 1705.55,373.542 
  1716.33,334.729 1727.12,288.641 1737.91,230.02 1748.69,210.481 1759.48,194.002 1770.27,178.445 1781.05,163.952 1791.84,151.126 1802.63,138.537 1813.41,126.821 
  1824.2,116.809 1834.99,108.52 1845.77,100.572 1856.56,94.5009 1867.35,88.9993 1878.14,88.0053 1888.92,89.1454 1899.71,90.5308 1910.5,93.2964 1921.28,97.1211 
  1932.07,101.989 1942.86,108.565 1953.64,114.199 1964.43,117.325 1975.22,123.252 1986,127.416 1996.79,130.688 2007.58,136.019 2018.36,138.936 2029.15,141.397 
  2039.94,145.448 2050.72,147.382 2061.51,149.935 2072.3,155.429 2083.09,157.541 2093.87,162.362 2104.66,172.442 2115.45,419.642 2126.23,1446.71 
  "/>
<path clip-path="url(#clip8200)" d="
M267.389 251.724 L801.727 251.724 L801.727 130.764 L267.389 130.764  Z
  " fill="#ffffff" fill-rule="evenodd" fill-opacity="1"/>
<polyline clip-path="url(#clip8200)" style="stroke:#000000; stroke-width:4; stroke-opacity:1; fill:none" points="
  267.389,251.724 801.727,251.724 801.727,130.764 267.389,130.764 267.389,251.724 
  "/>
<polyline clip-path="url(#clip8200)" style="stroke:#000000; stroke-width:4; stroke-opacity:1; fill:none" points="
  291.389,191.244 435.389,191.244 
  "/>
<g clip-path="url(#clip8200)">
<text style="fill:#000000; fill-opacity:1; font-family:Arial,Helvetica Neue,Helvetica,sans-serif; font-size:48px; text-anchor:start;" transform="rotate(0, 459.389, 208.744)" x="459.389" y="208.744">Iteration #130</text>
</g>
</svg>
