<?xml version="1.0" encoding="utf-8"?>
<svg xmlns="http://www.w3.org/2000/svg" xmlns:xlink="http://www.w3.org/1999/xlink" width="600" height="400" viewBox="0 0 2400 1600">
<defs>
  <clipPath id="clip0000">
    <rect x="0" y="0" width="2400" height="1600"/>
  </clipPath>
</defs>
<path clip-path="url(#clip0000)" d="
M0 1600 L2400 1600 L2400 0 L0 0  Z
  " fill="#ffffff" fill-rule="evenodd" fill-opacity="1"/>
<defs>
  <clipPath id="clip0001">
    <rect x="480" y="0" width="1681" height="1600"/>
  </clipPath>
</defs>
<path clip-path="url(#clip0000)" d="
M195.389 1487.47 L2352.76 1487.47 L2352.76 47.2441 L195.389 47.2441  Z
  " fill="#ffffff" fill-rule="evenodd" fill-opacity="1"/>
<defs>
  <clipPath id="clip0002">
    <rect x="195" y="47" width="2158" height="1441"/>
  </clipPath>
</defs>
<polyline clip-path="url(#clip0000)" style="stroke:#000000; stroke-width:4; stroke-opacity:1; fill:none" points="
  195.389,1487.47 2352.76,1487.47 
  "/>
<polyline clip-path="url(#clip0000)" style="stroke:#000000; stroke-width:4; stroke-opacity:1; fill:none" points="
  195.389,1487.47 195.389,47.2441 
  "/>
<polyline clip-path="url(#clip0000)" style="stroke:#000000; stroke-width:4; stroke-opacity:1; fill:none" points="
  195.389,1487.47 195.389,1470.19 
  "/>
<polyline clip-path="url(#clip0000)" style="stroke:#000000; stroke-width:4; stroke-opacity:1; fill:none" points="
  734.731,1487.47 734.731,1470.19 
  "/>
<polyline clip-path="url(#clip0000)" style="stroke:#000000; stroke-width:4; stroke-opacity:1; fill:none" points="
  1274.07,1487.47 1274.07,1470.19 
  "/>
<polyline clip-path="url(#clip0000)" style="stroke:#000000; stroke-width:4; stroke-opacity:1; fill:none" points="
  1813.41,1487.47 1813.41,1470.19 
  "/>
<polyline clip-path="url(#clip0000)" style="stroke:#000000; stroke-width:4; stroke-opacity:1; fill:none" points="
  2352.76,1487.47 2352.76,1470.19 
  "/>
<polyline clip-path="url(#clip0000)" style="stroke:#000000; stroke-width:4; stroke-opacity:1; fill:none" points="
  195.389,1332.02 221.278,1332.02 
  "/>
<polyline clip-path="url(#clip0000)" style="stroke:#000000; stroke-width:4; stroke-opacity:1; fill:none" points="
  195.389,1134.16 221.278,1134.16 
  "/>
<polyline clip-path="url(#clip0000)" style="stroke:#000000; stroke-width:4; stroke-opacity:1; fill:none" points="
  195.389,936.292 221.278,936.292 
  "/>
<polyline clip-path="url(#clip0000)" style="stroke:#000000; stroke-width:4; stroke-opacity:1; fill:none" points="
  195.389,738.428 221.278,738.428 
  "/>
<polyline clip-path="url(#clip0000)" style="stroke:#000000; stroke-width:4; stroke-opacity:1; fill:none" points="
  195.389,540.564 221.278,540.564 
  "/>
<polyline clip-path="url(#clip0000)" style="stroke:#000000; stroke-width:4; stroke-opacity:1; fill:none" points="
  195.389,342.7 221.278,342.7 
  "/>
<polyline clip-path="url(#clip0000)" style="stroke:#000000; stroke-width:4; stroke-opacity:1; fill:none" points="
  195.389,144.835 221.278,144.835 
  "/>
<g clip-path="url(#clip0000)">
<text style="fill:#000000; fill-opacity:1; font-family:Arial,Helvetica Neue,Helvetica,sans-serif; font-size:48px; text-anchor:middle;" transform="rotate(0, 195.389, 1541.47)" x="195.389" y="1541.47">0</text>
</g>
<g clip-path="url(#clip0000)">
<text style="fill:#000000; fill-opacity:1; font-family:Arial,Helvetica Neue,Helvetica,sans-serif; font-size:48px; text-anchor:middle;" transform="rotate(0, 734.731, 1541.47)" x="734.731" y="1541.47">50</text>
</g>
<g clip-path="url(#clip0000)">
<text style="fill:#000000; fill-opacity:1; font-family:Arial,Helvetica Neue,Helvetica,sans-serif; font-size:48px; text-anchor:middle;" transform="rotate(0, 1274.07, 1541.47)" x="1274.07" y="1541.47">100</text>
</g>
<g clip-path="url(#clip0000)">
<text style="fill:#000000; fill-opacity:1; font-family:Arial,Helvetica Neue,Helvetica,sans-serif; font-size:48px; text-anchor:middle;" transform="rotate(0, 1813.41, 1541.47)" x="1813.41" y="1541.47">150</text>
</g>
<g clip-path="url(#clip0000)">
<text style="fill:#000000; fill-opacity:1; font-family:Arial,Helvetica Neue,Helvetica,sans-serif; font-size:48px; text-anchor:middle;" transform="rotate(0, 2352.76, 1541.47)" x="2352.76" y="1541.47">200</text>
</g>
<g clip-path="url(#clip0000)">
<text style="fill:#000000; fill-opacity:1; font-family:Arial,Helvetica Neue,Helvetica,sans-serif; font-size:48px; text-anchor:end;" transform="rotate(0, 171.389, 1349.52)" x="171.389" y="1349.52">-500</text>
</g>
<g clip-path="url(#clip0000)">
<text style="fill:#000000; fill-opacity:1; font-family:Arial,Helvetica Neue,Helvetica,sans-serif; font-size:48px; text-anchor:end;" transform="rotate(0, 171.389, 1151.66)" x="171.389" y="1151.66">0</text>
</g>
<g clip-path="url(#clip0000)">
<text style="fill:#000000; fill-opacity:1; font-family:Arial,Helvetica Neue,Helvetica,sans-serif; font-size:48px; text-anchor:end;" transform="rotate(0, 171.389, 953.792)" x="171.389" y="953.792">500</text>
</g>
<g clip-path="url(#clip0000)">
<text style="fill:#000000; fill-opacity:1; font-family:Arial,Helvetica Neue,Helvetica,sans-serif; font-size:48px; text-anchor:end;" transform="rotate(0, 171.389, 755.928)" x="171.389" y="755.928">1000</text>
</g>
<g clip-path="url(#clip0000)">
<text style="fill:#000000; fill-opacity:1; font-family:Arial,Helvetica Neue,Helvetica,sans-serif; font-size:48px; text-anchor:end;" transform="rotate(0, 171.389, 558.064)" x="171.389" y="558.064">1500</text>
</g>
<g clip-path="url(#clip0000)">
<text style="fill:#000000; fill-opacity:1; font-family:Arial,Helvetica Neue,Helvetica,sans-serif; font-size:48px; text-anchor:end;" transform="rotate(0, 171.389, 360.2)" x="171.389" y="360.2">2000</text>
</g>
<g clip-path="url(#clip0000)">
<text style="fill:#000000; fill-opacity:1; font-family:Arial,Helvetica Neue,Helvetica,sans-serif; font-size:48px; text-anchor:end;" transform="rotate(0, 171.389, 162.335)" x="171.389" y="162.335">2500</text>
</g>
<polyline clip-path="url(#clip0002)" style="stroke:#000000; stroke-width:4; stroke-opacity:1; fill:none" points="
  206.176,1015.03 216.963,1016.66 227.75,1018.66 238.537,1019.78 249.323,1021.01 260.11,1023.05 270.897,1025.66 281.684,1027.61 292.471,1029.48 303.258,1031.14 
  314.044,1032.47 324.831,1032.56 335.618,1031.31 346.405,1030.57 357.192,1031.26 367.979,1031.34 378.765,1031.36 389.552,1031.35 400.339,1031.3 411.126,1031.24 
  421.913,1031.16 432.7,1031.15 443.486,1031.75 454.273,1033.5 465.06,1035.64 475.847,1037.59 486.634,1039.67 497.421,1041.88 508.207,1044.32 518.994,1046.93 
  529.781,1049.67 540.568,1051.96 551.355,1053.36 562.142,1053.9 572.928,1053.45 583.715,1051.91 594.502,1049.35 605.289,1046.36 616.076,1043.52 626.863,1040.03 
  637.649,1036.59 648.436,1032.85 659.223,1029.85 670.01,1027.69 680.797,1026.01 691.584,1024.09 702.37,1021.84 713.157,1018.93 723.944,1016.43 734.731,1014.3 
  745.518,1012.99 756.305,1011.29 767.091,1009.67 777.878,1008.04 788.665,1006.42 799.452,1004.97 810.239,1003.09 821.026,999.948 831.812,997.288 842.599,995.09 
  853.386,993.722 864.173,993.03 874.96,992.774 885.747,991.139 896.533,988.296 907.32,985.904 918.107,983.201 928.894,980.573 939.681,978 950.468,976.399 
  961.254,974.584 972.041,973.784 982.828,972.281 993.615,970.515 1004.4,968.385 1015.19,966.154 1025.98,963.365 1036.76,960.458 1047.55,957.931 1058.34,955.9 
  1069.12,952.941 1079.91,949.574 1090.7,945.488 1101.48,940.997 1112.27,935.952 1123.06,931.5 1133.84,928.303 1144.63,924.081 1155.42,919.445 1166.2,916.007 
  1176.99,910.684 1187.78,904.48 1198.56,897.824 1209.35,892.059 1220.14,887.162 1230.93,881.004 1241.71,876.087 1252.5,870.897 1263.29,863.582 1274.07,855.956 
  1284.86,848.511 1295.65,839.594 1306.43,833.725 1317.22,831.071 1328.01,828.444 1338.79,825.802 1349.58,823.738 1360.37,820.038 1371.15,817.572 1381.94,812.671 
  1392.73,807.508 1403.51,804.676 1414.3,803.105 1425.09,799.895 1435.88,796.35 1446.66,793.532 1457.45,788.927 1468.24,783.179 1479.02,776.127 1489.81,768.139 
  1500.6,759.848 1511.38,752.675 1522.17,743.647 1532.96,733.668 1543.74,723.061 1554.53,709.912 1565.32,695.604 1576.1,680.031 1586.89,662.059 1597.68,643.518 
  1608.46,628.705 1619.25,612.837 1630.04,594.302 1640.82,575.53 1651.61,555.497 1662.4,531.144 1673.19,504.94 1683.97,475.729 1694.76,445.712 1705.55,411.941 
  1716.33,372.552 1727.12,325.892 1737.91,267.889 1748.69,244.901 1759.48,224.508 1770.27,204.951 1781.05,186.433 1791.84,169.933 1802.63,153.8 1813.41,138.511 
  1824.2,125.494 1834.99,114.858 1845.77,104.455 1856.56,96.382 1867.35,89.4967 1878.14,88.0053 1888.92,89.6863 1899.71,91.5539 1910.5,94.9076 1921.28,100.124 
  1932.07,106.386 1942.86,114.535 1953.64,122.219 1964.43,126.003 1975.22,133.174 1986,139.028 1996.79,142.736 2007.58,149.284 2018.36,153.558 2029.15,155.601 
  2039.94,160.797 2050.72,163.66 2061.51,166 2072.3,172.984 2083.09,175.876 2093.87,180.57 2104.66,194.016 2115.45,453.716 2126.23,1446.71 
  "/>
<path clip-path="url(#clip0000)" d="
M267.389 251.724 L801.727 251.724 L801.727 130.764 L267.389 130.764  Z
  " fill="#ffffff" fill-rule="evenodd" fill-opacity="1"/>
<polyline clip-path="url(#clip0000)" style="stroke:#000000; stroke-width:4; stroke-opacity:1; fill:none" points="
  267.389,251.724 801.727,251.724 801.727,130.764 267.389,130.764 267.389,251.724 
  "/>
<polyline clip-path="url(#clip0000)" style="stroke:#000000; stroke-width:4; stroke-opacity:1; fill:none" points="
  291.389,191.244 435.389,191.244 
  "/>
<g clip-path="url(#clip0000)">
<text style="fill:#000000; fill-opacity:1; font-family:Arial,Helvetica Neue,Helvetica,sans-serif; font-size:48px; text-anchor:start;" transform="rotate(0, 459.389, 208.744)" x="459.389" y="208.744">Iteration #160</text>
</g>
</svg>
