<?xml version="1.0" encoding="utf-8"?>
<svg xmlns="http://www.w3.org/2000/svg" xmlns:xlink="http://www.w3.org/1999/xlink" width="600" height="400" viewBox="0 0 2400 1600">
<defs>
  <clipPath id="clip4000">
    <rect x="0" y="0" width="2400" height="1600"/>
  </clipPath>
</defs>
<path clip-path="url(#clip4000)" d="
M0 1600 L2400 1600 L2400 0 L0 0  Z
  " fill="#ffffff" fill-rule="evenodd" fill-opacity="1"/>
<defs>
  <clipPath id="clip4001">
    <rect x="480" y="0" width="1681" height="1600"/>
  </clipPath>
</defs>
<path clip-path="url(#clip4000)" d="
M194.041 1487.47 L2352.76 1487.47 L2352.76 47.2441 L194.041 47.2441  Z
  " fill="#ffffff" fill-rule="evenodd" fill-opacity="1"/>
<defs>
  <clipPath id="clip4002">
    <rect x="194" y="47" width="2160" height="1441"/>
  </clipPath>
</defs>
<polyline clip-path="url(#clip4000)" style="stroke:#000000; stroke-width:4; stroke-opacity:1; fill:none" points="
  194.041,1487.47 2352.76,1487.47 
  "/>
<polyline clip-path="url(#clip4000)" style="stroke:#000000; stroke-width:4; stroke-opacity:1; fill:none" points="
  194.041,1487.47 194.041,47.2441 
  "/>
<polyline clip-path="url(#clip4000)" style="stroke:#000000; stroke-width:4; stroke-opacity:1; fill:none" points="
  194.041,1487.47 194.041,1470.19 
  "/>
<polyline clip-path="url(#clip4000)" style="stroke:#000000; stroke-width:4; stroke-opacity:1; fill:none" points="
  733.72,1487.47 733.72,1470.19 
  "/>
<polyline clip-path="url(#clip4000)" style="stroke:#000000; stroke-width:4; stroke-opacity:1; fill:none" points="
  1273.4,1487.47 1273.4,1470.19 
  "/>
<polyline clip-path="url(#clip4000)" style="stroke:#000000; stroke-width:4; stroke-opacity:1; fill:none" points="
  1813.08,1487.47 1813.08,1470.19 
  "/>
<polyline clip-path="url(#clip4000)" style="stroke:#000000; stroke-width:4; stroke-opacity:1; fill:none" points="
  2352.76,1487.47 2352.76,1470.19 
  "/>
<polyline clip-path="url(#clip4000)" style="stroke:#000000; stroke-width:4; stroke-opacity:1; fill:none" points="
  194.041,1274.95 219.946,1274.95 
  "/>
<polyline clip-path="url(#clip4000)" style="stroke:#000000; stroke-width:4; stroke-opacity:1; fill:none" points="
  194.041,968.418 219.946,968.418 
  "/>
<polyline clip-path="url(#clip4000)" style="stroke:#000000; stroke-width:4; stroke-opacity:1; fill:none" points="
  194.041,661.888 219.946,661.888 
  "/>
<polyline clip-path="url(#clip4000)" style="stroke:#000000; stroke-width:4; stroke-opacity:1; fill:none" points="
  194.041,355.357 219.946,355.357 
  "/>
<polyline clip-path="url(#clip4000)" style="stroke:#000000; stroke-width:4; stroke-opacity:1; fill:none" points="
  194.041,48.8273 219.946,48.8273 
  "/>
<g clip-path="url(#clip4000)">
<text style="fill:#000000; fill-opacity:1; font-family:Arial,Helvetica Neue,Helvetica,sans-serif; font-size:48px; text-anchor:middle;" transform="rotate(0, 194.041, 1541.47)" x="194.041" y="1541.47">0</text>
</g>
<g clip-path="url(#clip4000)">
<text style="fill:#000000; fill-opacity:1; font-family:Arial,Helvetica Neue,Helvetica,sans-serif; font-size:48px; text-anchor:middle;" transform="rotate(0, 733.72, 1541.47)" x="733.72" y="1541.47">50</text>
</g>
<g clip-path="url(#clip4000)">
<text style="fill:#000000; fill-opacity:1; font-family:Arial,Helvetica Neue,Helvetica,sans-serif; font-size:48px; text-anchor:middle;" transform="rotate(0, 1273.4, 1541.47)" x="1273.4" y="1541.47">100</text>
</g>
<g clip-path="url(#clip4000)">
<text style="fill:#000000; fill-opacity:1; font-family:Arial,Helvetica Neue,Helvetica,sans-serif; font-size:48px; text-anchor:middle;" transform="rotate(0, 1813.08, 1541.47)" x="1813.08" y="1541.47">150</text>
</g>
<g clip-path="url(#clip4000)">
<text style="fill:#000000; fill-opacity:1; font-family:Arial,Helvetica Neue,Helvetica,sans-serif; font-size:48px; text-anchor:middle;" transform="rotate(0, 2352.76, 1541.47)" x="2352.76" y="1541.47">200</text>
</g>
<g clip-path="url(#clip4000)">
<text style="fill:#000000; fill-opacity:1; font-family:Arial,Helvetica Neue,Helvetica,sans-serif; font-size:48px; text-anchor:end;" transform="rotate(0, 170.041, 1292.45)" x="170.041" y="1292.45">0</text>
</g>
<g clip-path="url(#clip4000)">
<text style="fill:#000000; fill-opacity:1; font-family:Arial,Helvetica Neue,Helvetica,sans-serif; font-size:48px; text-anchor:end;" transform="rotate(0, 170.041, 985.918)" x="170.041" y="985.918">500</text>
</g>
<g clip-path="url(#clip4000)">
<text style="fill:#000000; fill-opacity:1; font-family:Arial,Helvetica Neue,Helvetica,sans-serif; font-size:48px; text-anchor:end;" transform="rotate(0, 170.041, 679.388)" x="170.041" y="679.388">1000</text>
</g>
<g clip-path="url(#clip4000)">
<text style="fill:#000000; fill-opacity:1; font-family:Arial,Helvetica Neue,Helvetica,sans-serif; font-size:48px; text-anchor:end;" transform="rotate(0, 170.041, 372.857)" x="170.041" y="372.857">1500</text>
</g>
<g clip-path="url(#clip4000)">
<text style="fill:#000000; fill-opacity:1; font-family:Arial,Helvetica Neue,Helvetica,sans-serif; font-size:48px; text-anchor:end;" transform="rotate(0, 170.041, 66.3273)" x="170.041" y="66.3273">2000</text>
</g>
<polyline clip-path="url(#clip4002)" style="stroke:#000000; stroke-width:4; stroke-opacity:1; fill:none" points="
  204.835,1120.02 215.629,1120.56 226.422,1121.1 237.216,1121.44 248.009,1121.84 258.803,1122.44 269.596,1123.21 280.39,1123.76 291.184,1124.36 301.977,1124.82 
  312.771,1125.25 323.564,1125.25 334.358,1125 345.151,1124.76 355.945,1124.93 366.739,1124.93 377.532,1124.87 388.326,1124.82 399.119,1124.71 409.913,1124.59 
  420.706,1124.44 431.5,1124.3 442.294,1124.28 453.087,1124.54 463.881,1124.88 474.674,1125.13 485.468,1125.39 496.262,1125.61 507.055,1125.9 517.849,1126.12 
  528.642,1126.37 539.436,1126.41 550.229,1126.15 561.023,1125.58 571.817,1124.7 582.61,1123.42 593.404,1121.81 604.197,1120.01 614.991,1118.14 625.784,1116.03 
  636.578,1113.83 647.372,1111.5 658.165,1109.25 668.959,1107.16 679.752,1105.11 690.546,1102.9 701.339,1100.56 712.133,1097.9 722.927,1095.33 733.72,1092.69 
  744.514,1090.28 755.307,1087.58 766.101,1084.88 776.894,1082.07 787.688,1079.14 798.482,1076.2 809.275,1073.02 820.069,1069.4 830.862,1065.83 841.656,1062.23 
  852.449,1058.75 863.243,1055.45 874.037,1051.99 884.83,1048.2 895.624,1043.85 906.417,1039.55 917.211,1034.96 928.004,1030.47 938.798,1025.56 949.592,1021.05 
  960.385,1016.22 971.179,1011.52 981.972,1006.6 992.766,1001.35 1003.56,995.841 1014.35,990.293 1025.15,984.24 1035.94,978.12 1046.73,971.949 1057.53,965.685 
  1068.32,959.076 1079.11,952.176 1089.91,944.78 1100.7,937.355 1111.5,929.424 1122.29,921.555 1133.08,914.036 1143.88,905.918 1154.67,897.622 1165.46,889.654 
  1176.26,880.817 1187.05,871.821 1197.84,862.534 1208.64,853.33 1219.43,844.487 1230.22,835.069 1241.02,825.947 1251.81,816.913 1262.61,806.953 1273.4,797.06 
  1284.19,787.269 1294.99,776.863 1305.78,767.509 1316.57,759.033 1327.37,750.404 1338.16,742.038 1348.95,733.692 1359.75,724.769 1370.54,716.497 1381.33,707.232 
  1392.13,697.986 1402.92,689.506 1413.72,681.05 1424.51,672.33 1435.3,663.461 1446.1,654.583 1456.89,645.29 1467.68,635.526 1478.48,625.165 1489.27,614.697 
  1500.06,603.792 1510.86,593.16 1521.65,581.946 1532.44,570.094 1543.24,557.984 1554.03,545.036 1564.83,531.214 1575.62,516.994 1586.41,501.61 1597.21,485.596 
  1608,470.501 1618.79,454.506 1629.59,437.06 1640.38,419.087 1651.17,399.705 1661.97,378.06 1672.76,354.489 1683.55,328.146 1694.35,299.908 1705.14,267.547 
  1715.94,229.194 1726.73,182.236 1737.52,117.603 1748.32,108.238 1759.11,103.257 1769.9,99.5192 1780.7,96.7522 1791.49,94.6749 1802.28,92.6301 1813.08,91.254 
  1823.87,90.086 1834.66,89.1735 1845.46,88.7303 1856.25,88.2568 1867.05,88.0053 1877.84,88.9116 1888.63,89.65 1899.43,90.6698 1910.22,92.2495 1921.01,93.3457 
  1931.81,95.1514 1942.6,97.3893 1953.39,98.7357 1964.19,100.4 1974.98,102.412 1985.77,103.486 1996.57,105.531 2007.36,107.127 2018.16,108 2028.95,110.161 
  2039.74,111.264 2050.54,112.093 2061.33,114.166 2072.12,115.248 2082.92,116.709 2093.71,119.396 2104.5,121.817 2115.3,294.682 2126.09,1446.71 
  "/>
<path clip-path="url(#clip4000)" d="
M266.041 251.724 L773.617 251.724 L773.617 130.764 L266.041 130.764  Z
  " fill="#ffffff" fill-rule="evenodd" fill-opacity="1"/>
<polyline clip-path="url(#clip4000)" style="stroke:#000000; stroke-width:4; stroke-opacity:1; fill:none" points="
  266.041,251.724 773.617,251.724 773.617,130.764 266.041,130.764 266.041,251.724 
  "/>
<polyline clip-path="url(#clip4000)" style="stroke:#000000; stroke-width:4; stroke-opacity:1; fill:none" points="
  290.041,191.244 434.041,191.244 
  "/>
<g clip-path="url(#clip4000)">
<text style="fill:#000000; fill-opacity:1; font-family:Arial,Helvetica Neue,Helvetica,sans-serif; font-size:48px; text-anchor:start;" transform="rotate(0, 458.041, 208.744)" x="458.041" y="208.744">Iteration #60</text>
</g>
</svg>
