<?xml version="1.0" encoding="utf-8"?>
<svg xmlns="http://www.w3.org/2000/svg" xmlns:xlink="http://www.w3.org/1999/xlink" width="600" height="400" viewBox="0 0 2400 1600">
<defs>
  <clipPath id="clip5400">
    <rect x="0" y="0" width="2400" height="1600"/>
  </clipPath>
</defs>
<path clip-path="url(#clip5400)" d="
M0 1600 L2400 1600 L2400 0 L0 0  Z
  " fill="#ffffff" fill-rule="evenodd" fill-opacity="1"/>
<defs>
  <clipPath id="clip5401">
    <rect x="480" y="0" width="1681" height="1600"/>
  </clipPath>
</defs>
<path clip-path="url(#clip5400)" d="
M222.152 1487.47 L2352.76 1487.47 L2352.76 47.2441 L222.152 47.2441  Z
  " fill="#ffffff" fill-rule="evenodd" fill-opacity="1"/>
<defs>
  <clipPath id="clip5402">
    <rect x="222" y="47" width="2132" height="1441"/>
  </clipPath>
</defs>
<polyline clip-path="url(#clip5400)" style="stroke:#000000; stroke-width:4; stroke-opacity:1; fill:none" points="
  222.152,1487.47 2352.76,1487.47 
  "/>
<polyline clip-path="url(#clip5400)" style="stroke:#000000; stroke-width:4; stroke-opacity:1; fill:none" points="
  222.152,1487.47 222.152,47.2441 
  "/>
<polyline clip-path="url(#clip5400)" style="stroke:#000000; stroke-width:4; stroke-opacity:1; fill:none" points="
  222.152,1487.47 222.152,1470.19 
  "/>
<polyline clip-path="url(#clip5400)" style="stroke:#000000; stroke-width:4; stroke-opacity:1; fill:none" points="
  754.803,1487.47 754.803,1470.19 
  "/>
<polyline clip-path="url(#clip5400)" style="stroke:#000000; stroke-width:4; stroke-opacity:1; fill:none" points="
  1287.45,1487.47 1287.45,1470.19 
  "/>
<polyline clip-path="url(#clip5400)" style="stroke:#000000; stroke-width:4; stroke-opacity:1; fill:none" points="
  1820.1,1487.47 1820.1,1470.19 
  "/>
<polyline clip-path="url(#clip5400)" style="stroke:#000000; stroke-width:4; stroke-opacity:1; fill:none" points="
  2352.76,1487.47 2352.76,1470.19 
  "/>
<polyline clip-path="url(#clip5400)" style="stroke:#000000; stroke-width:4; stroke-opacity:1; fill:none" points="
  222.152,1413.14 247.719,1413.14 
  "/>
<polyline clip-path="url(#clip5400)" style="stroke:#000000; stroke-width:4; stroke-opacity:1; fill:none" points="
  222.152,1096.38 247.719,1096.38 
  "/>
<polyline clip-path="url(#clip5400)" style="stroke:#000000; stroke-width:4; stroke-opacity:1; fill:none" points="
  222.152,779.613 247.719,779.613 
  "/>
<polyline clip-path="url(#clip5400)" style="stroke:#000000; stroke-width:4; stroke-opacity:1; fill:none" points="
  222.152,462.849 247.719,462.849 
  "/>
<polyline clip-path="url(#clip5400)" style="stroke:#000000; stroke-width:4; stroke-opacity:1; fill:none" points="
  222.152,146.085 247.719,146.085 
  "/>
<g clip-path="url(#clip5400)">
<text style="fill:#000000; fill-opacity:1; font-family:Arial,Helvetica Neue,Helvetica,sans-serif; font-size:48px; text-anchor:middle;" transform="rotate(0, 222.152, 1541.47)" x="222.152" y="1541.47">0</text>
</g>
<g clip-path="url(#clip5400)">
<text style="fill:#000000; fill-opacity:1; font-family:Arial,Helvetica Neue,Helvetica,sans-serif; font-size:48px; text-anchor:middle;" transform="rotate(0, 754.803, 1541.47)" x="754.803" y="1541.47">50</text>
</g>
<g clip-path="url(#clip5400)">
<text style="fill:#000000; fill-opacity:1; font-family:Arial,Helvetica Neue,Helvetica,sans-serif; font-size:48px; text-anchor:middle;" transform="rotate(0, 1287.45, 1541.47)" x="1287.45" y="1541.47">100</text>
</g>
<g clip-path="url(#clip5400)">
<text style="fill:#000000; fill-opacity:1; font-family:Arial,Helvetica Neue,Helvetica,sans-serif; font-size:48px; text-anchor:middle;" transform="rotate(0, 1820.1, 1541.47)" x="1820.1" y="1541.47">150</text>
</g>
<g clip-path="url(#clip5400)">
<text style="fill:#000000; fill-opacity:1; font-family:Arial,Helvetica Neue,Helvetica,sans-serif; font-size:48px; text-anchor:middle;" transform="rotate(0, 2352.76, 1541.47)" x="2352.76" y="1541.47">200</text>
</g>
<g clip-path="url(#clip5400)">
<text style="fill:#000000; fill-opacity:1; font-family:Arial,Helvetica Neue,Helvetica,sans-serif; font-size:48px; text-anchor:end;" transform="rotate(0, 198.152, 1430.64)" x="198.152" y="1430.64">-1000</text>
</g>
<g clip-path="url(#clip5400)">
<text style="fill:#000000; fill-opacity:1; font-family:Arial,Helvetica Neue,Helvetica,sans-serif; font-size:48px; text-anchor:end;" transform="rotate(0, 198.152, 1113.88)" x="198.152" y="1113.88">0</text>
</g>
<g clip-path="url(#clip5400)">
<text style="fill:#000000; fill-opacity:1; font-family:Arial,Helvetica Neue,Helvetica,sans-serif; font-size:48px; text-anchor:end;" transform="rotate(0, 198.152, 797.113)" x="198.152" y="797.113">1000</text>
</g>
<g clip-path="url(#clip5400)">
<text style="fill:#000000; fill-opacity:1; font-family:Arial,Helvetica Neue,Helvetica,sans-serif; font-size:48px; text-anchor:end;" transform="rotate(0, 198.152, 480.349)" x="198.152" y="480.349">2000</text>
</g>
<g clip-path="url(#clip5400)">
<text style="fill:#000000; fill-opacity:1; font-family:Arial,Helvetica Neue,Helvetica,sans-serif; font-size:48px; text-anchor:end;" transform="rotate(0, 198.152, 163.585)" x="198.152" y="163.585">3000</text>
</g>
<polyline clip-path="url(#clip5402)" style="stroke:#000000; stroke-width:4; stroke-opacity:1; fill:none" points="
  232.805,995.266 243.458,997.721 254.111,1000.64 264.764,1002.07 275.417,1003.55 286.07,1006.33 296.723,1009.96 307.376,1012.53 318.029,1014.91 328.682,1017.01 
  339.335,1018.56 349.988,1018.15 360.641,1015.53 371.294,1013.81 381.947,1014.39 392.6,1013.97 403.253,1013.46 413.906,1012.89 424.559,1012.24 435.212,1011.55 
  445.865,1010.81 456.518,1010.15 467.171,1010.44 477.824,1012.6 488.477,1015.36 499.13,1017.79 509.783,1020.46 520.436,1023.4 531.089,1026.74 541.742,1030.45 
  552.395,1034.48 563.048,1037.9 573.701,1040.05 584.354,1041.02 595.007,1040.48 605.66,1038.44 616.313,1034.91 626.966,1030.87 637.619,1027.24 648.272,1022.71 
  658.925,1018.38 669.578,1013.65 680.232,1010.27 690.885,1008.26 701.538,1007.1 712.191,1005.62 722.844,1003.6 733.497,1000.59 744.15,998.203 754.803,996.511 
  765.456,996.055 776.109,995.058 786.762,994.132 797.415,993.21 808.068,992.31 818.721,991.683 829.374,990.374 840.027,987.02 850.68,984.43 861.333,982.59 
  871.986,982.09 882.639,982.589 893.292,983.92 903.945,982.896 914.598,980.037 925.251,977.866 935.904,975.3 946.557,972.66 957.21,970.397 967.863,969.454 
  978.516,968.305 989.169,968.788 999.822,968.124 1010.48,967.121 1021.13,965.653 1031.78,963.946 1042.43,961.612 1053.09,959.046 1063.74,957.242 1074.39,956.348 
  1085.05,954.086 1095.7,951.269 1106.35,947.539 1117.01,943.142 1127.66,938.094 1138.31,934.108 1148.96,932.172 1159.62,928.791 1170.27,924.854 1180.92,922.883 
  1191.58,918.121 1202.23,911.995 1212.88,905.229 1223.54,900.071 1234.19,896.224 1244.84,890.51 1255.49,886.83 1266.15,882.652 1276.8,875.212 1287.45,867.241 
  1298.11,859.432 1308.76,849.347 1319.41,843.941 1330.07,843.603 1340.72,843.321 1351.37,842.818 1362.02,843.342 1372.68,841.339 1383.33,841.226 1393.98,837.489 
  1404.64,833.419 1415.29,833.149 1425.94,835.33 1436.6,834.956 1447.25,834.379 1457.9,835.434 1468.56,833.924 1479.21,831.081 1489.86,826.718 1500.51,821.145 
  1511.17,815.809 1521.82,812.708 1532.47,807.083 1543.13,800.715 1553.78,793.735 1564.43,783.228 1575.09,771.537 1585.74,758.196 1596.39,741.518 1607.04,724.489 
  1617.7,713.944 1628.35,702.251 1639,686.771 1649.66,671.314 1660.31,654.617 1670.96,631.374 1681.62,605.937 1692.27,576.659 1702.92,547.076 1713.57,512.964 
  1724.23,472.199 1734.88,423.28 1745.53,364.88 1756.19,333.442 1766.84,303.265 1777.49,273.331 1788.15,244.503 1798.8,218.34 1809.45,192.865 1820.1,168.348 
  1830.76,147.296 1841.41,130.491 1852.06,113.98 1862.72,100.769 1873.37,90.3269 1884.02,88.0053 1894.68,91.2343 1905.33,95.1034 1915.98,100.099 1926.64,108.747 
  1937.29,119.372 1947.94,131.852 1958.59,144.468 1969.25,150.438 1979.9,160.809 1990.55,170.512 2001.21,175.883 2011.86,184.88 2022.51,191.95 2033.17,194.671 
  2043.82,201.492 2054.47,206.34 2065.12,208.761 2075.78,218.607 2086.43,223.718 2097.08,228.65 2107.74,249.015 2118.39,531.33 2129.04,1446.71 
  "/>
<path clip-path="url(#clip5400)" d="
M294.152 251.724 L828.489 251.724 L828.489 130.764 L294.152 130.764  Z
  " fill="#ffffff" fill-rule="evenodd" fill-opacity="1"/>
<polyline clip-path="url(#clip5400)" style="stroke:#000000; stroke-width:4; stroke-opacity:1; fill:none" points="
  294.152,251.724 828.489,251.724 828.489,130.764 294.152,130.764 294.152,251.724 
  "/>
<polyline clip-path="url(#clip5400)" style="stroke:#000000; stroke-width:4; stroke-opacity:1; fill:none" points="
  318.152,191.244 462.152,191.244 
  "/>
<g clip-path="url(#clip5400)">
<text style="fill:#000000; fill-opacity:1; font-family:Arial,Helvetica Neue,Helvetica,sans-serif; font-size:48px; text-anchor:start;" transform="rotate(0, 486.152, 208.744)" x="486.152" y="208.744">Iteration #250</text>
</g>
</svg>
