<?xml version="1.0" encoding="utf-8"?>
<svg xmlns="http://www.w3.org/2000/svg" xmlns:xlink="http://www.w3.org/1999/xlink" width="600" height="400" viewBox="0 0 2400 1600">
<defs>
  <clipPath id="clip7600">
    <rect x="0" y="0" width="2400" height="1600"/>
  </clipPath>
</defs>
<path clip-path="url(#clip7600)" d="
M0 1600 L2400 1600 L2400 0 L0 0  Z
  " fill="#ffffff" fill-rule="evenodd" fill-opacity="1"/>
<defs>
  <clipPath id="clip7601">
    <rect x="480" y="0" width="1681" height="1600"/>
  </clipPath>
</defs>
<path clip-path="url(#clip7600)" d="
M195.389 1487.47 L2352.76 1487.47 L2352.76 47.2441 L195.389 47.2441  Z
  " fill="#ffffff" fill-rule="evenodd" fill-opacity="1"/>
<defs>
  <clipPath id="clip7602">
    <rect x="195" y="47" width="2158" height="1441"/>
  </clipPath>
</defs>
<polyline clip-path="url(#clip7600)" style="stroke:#000000; stroke-width:4; stroke-opacity:1; fill:none" points="
  195.389,1487.47 2352.76,1487.47 
  "/>
<polyline clip-path="url(#clip7600)" style="stroke:#000000; stroke-width:4; stroke-opacity:1; fill:none" points="
  195.389,1487.47 195.389,47.2441 
  "/>
<polyline clip-path="url(#clip7600)" style="stroke:#000000; stroke-width:4; stroke-opacity:1; fill:none" points="
  195.389,1487.47 195.389,1470.19 
  "/>
<polyline clip-path="url(#clip7600)" style="stroke:#000000; stroke-width:4; stroke-opacity:1; fill:none" points="
  734.731,1487.47 734.731,1470.19 
  "/>
<polyline clip-path="url(#clip7600)" style="stroke:#000000; stroke-width:4; stroke-opacity:1; fill:none" points="
  1274.07,1487.47 1274.07,1470.19 
  "/>
<polyline clip-path="url(#clip7600)" style="stroke:#000000; stroke-width:4; stroke-opacity:1; fill:none" points="
  1813.41,1487.47 1813.41,1470.19 
  "/>
<polyline clip-path="url(#clip7600)" style="stroke:#000000; stroke-width:4; stroke-opacity:1; fill:none" points="
  2352.76,1487.47 2352.76,1470.19 
  "/>
<polyline clip-path="url(#clip7600)" style="stroke:#000000; stroke-width:4; stroke-opacity:1; fill:none" points="
  195.389,1395.75 221.278,1395.75 
  "/>
<polyline clip-path="url(#clip7600)" style="stroke:#000000; stroke-width:4; stroke-opacity:1; fill:none" points="
  195.389,1168.27 221.278,1168.27 
  "/>
<polyline clip-path="url(#clip7600)" style="stroke:#000000; stroke-width:4; stroke-opacity:1; fill:none" points="
  195.389,940.786 221.278,940.786 
  "/>
<polyline clip-path="url(#clip7600)" style="stroke:#000000; stroke-width:4; stroke-opacity:1; fill:none" points="
  195.389,713.303 221.278,713.303 
  "/>
<polyline clip-path="url(#clip7600)" style="stroke:#000000; stroke-width:4; stroke-opacity:1; fill:none" points="
  195.389,485.82 221.278,485.82 
  "/>
<polyline clip-path="url(#clip7600)" style="stroke:#000000; stroke-width:4; stroke-opacity:1; fill:none" points="
  195.389,258.337 221.278,258.337 
  "/>
<g clip-path="url(#clip7600)">
<text style="fill:#000000; fill-opacity:1; font-family:Arial,Helvetica Neue,Helvetica,sans-serif; font-size:48px; text-anchor:middle;" transform="rotate(0, 195.389, 1541.47)" x="195.389" y="1541.47">0</text>
</g>
<g clip-path="url(#clip7600)">
<text style="fill:#000000; fill-opacity:1; font-family:Arial,Helvetica Neue,Helvetica,sans-serif; font-size:48px; text-anchor:middle;" transform="rotate(0, 734.731, 1541.47)" x="734.731" y="1541.47">50</text>
</g>
<g clip-path="url(#clip7600)">
<text style="fill:#000000; fill-opacity:1; font-family:Arial,Helvetica Neue,Helvetica,sans-serif; font-size:48px; text-anchor:middle;" transform="rotate(0, 1274.07, 1541.47)" x="1274.07" y="1541.47">100</text>
</g>
<g clip-path="url(#clip7600)">
<text style="fill:#000000; fill-opacity:1; font-family:Arial,Helvetica Neue,Helvetica,sans-serif; font-size:48px; text-anchor:middle;" transform="rotate(0, 1813.41, 1541.47)" x="1813.41" y="1541.47">150</text>
</g>
<g clip-path="url(#clip7600)">
<text style="fill:#000000; fill-opacity:1; font-family:Arial,Helvetica Neue,Helvetica,sans-serif; font-size:48px; text-anchor:middle;" transform="rotate(0, 2352.76, 1541.47)" x="2352.76" y="1541.47">200</text>
</g>
<g clip-path="url(#clip7600)">
<text style="fill:#000000; fill-opacity:1; font-family:Arial,Helvetica Neue,Helvetica,sans-serif; font-size:48px; text-anchor:end;" transform="rotate(0, 171.389, 1413.25)" x="171.389" y="1413.25">-500</text>
</g>
<g clip-path="url(#clip7600)">
<text style="fill:#000000; fill-opacity:1; font-family:Arial,Helvetica Neue,Helvetica,sans-serif; font-size:48px; text-anchor:end;" transform="rotate(0, 171.389, 1185.77)" x="171.389" y="1185.77">0</text>
</g>
<g clip-path="url(#clip7600)">
<text style="fill:#000000; fill-opacity:1; font-family:Arial,Helvetica Neue,Helvetica,sans-serif; font-size:48px; text-anchor:end;" transform="rotate(0, 171.389, 958.286)" x="171.389" y="958.286">500</text>
</g>
<g clip-path="url(#clip7600)">
<text style="fill:#000000; fill-opacity:1; font-family:Arial,Helvetica Neue,Helvetica,sans-serif; font-size:48px; text-anchor:end;" transform="rotate(0, 171.389, 730.803)" x="171.389" y="730.803">1000</text>
</g>
<g clip-path="url(#clip7600)">
<text style="fill:#000000; fill-opacity:1; font-family:Arial,Helvetica Neue,Helvetica,sans-serif; font-size:48px; text-anchor:end;" transform="rotate(0, 171.389, 503.32)" x="171.389" y="503.32">1500</text>
</g>
<g clip-path="url(#clip7600)">
<text style="fill:#000000; fill-opacity:1; font-family:Arial,Helvetica Neue,Helvetica,sans-serif; font-size:48px; text-anchor:end;" transform="rotate(0, 171.389, 275.837)" x="171.389" y="275.837">2000</text>
</g>
<polyline clip-path="url(#clip7602)" style="stroke:#000000; stroke-width:4; stroke-opacity:1; fill:none" points="
  206.176,1036.28 216.963,1037.49 227.75,1039.01 238.537,1039.89 249.323,1040.9 260.11,1042.49 270.897,1044.51 281.684,1046.05 292.471,1047.58 303.258,1048.92 
  314.044,1050.04 324.831,1050.27 335.618,1049.55 346.405,1049.17 357.192,1049.83 367.979,1050.05 378.765,1050.22 389.552,1050.39 400.339,1050.52 411.126,1050.63 
  421.913,1050.74 432.7,1050.91 443.486,1051.5 454.273,1052.92 465.06,1054.61 475.847,1056.16 486.634,1057.79 497.421,1059.49 508.207,1061.35 518.994,1063.29 
  529.781,1065.3 540.568,1066.95 551.355,1067.92 562.142,1068.24 572.928,1067.8 583.715,1066.52 594.502,1064.47 605.289,1062.06 616.076,1059.73 626.863,1056.87 
  637.649,1054.01 648.436,1050.91 659.223,1048.27 670.01,1046.25 680.797,1044.51 691.584,1042.58 702.37,1040.4 713.157,1037.71 723.944,1035.3 734.731,1033.11 
  745.518,1031.54 756.305,1029.62 767.091,1027.77 777.878,1025.89 788.665,1023.99 799.452,1022.2 810.239,1020.09 821.026,1017.06 831.812,1014.36 842.599,1011.97 
  853.386,1010.15 864.173,1008.86 874.96,1007.78 885.747,1005.78 896.533,1002.83 907.32,1000.22 918.107,997.316 928.894,994.546 939.681,991.656 950.468,989.576 
  961.254,987.241 972.041,985.632 982.828,983.511 993.615,981.144 1004.4,978.457 1015.19,975.73 1025.98,972.461 1036.76,969.135 1047.55,965.998 1058.34,963.175 
  1069.12,959.625 1079.91,955.728 1090.7,951.203 1101.48,946.4 1112.27,941.065 1123.06,936.118 1133.84,932.043 1144.63,927.122 1155.42,921.848 1166.2,917.407 
  1176.99,911.482 1187.78,904.896 1198.56,897.907 1209.35,891.475 1220.14,885.68 1230.93,878.861 1241.71,872.907 1252.5,866.744 1263.29,858.935 1274.07,850.898 
  1284.86,842.983 1295.65,833.91 1306.43,827.09 1317.22,822.544 1328.01,817.97 1338.79,813.419 1349.58,809.202 1360.37,803.736 1371.15,799.195 1381.94,792.747 
  1392.73,786.094 1403.51,781.088 1414.3,776.832 1425.09,771.393 1435.88,765.605 1446.66,760.209 1457.45,753.463 1468.24,745.755 1479.02,736.959 1489.81,727.439 
  1500.6,717.52 1511.38,708.333 1522.17,697.675 1532.96,686.163 1543.74,674.109 1554.53,660.122 1565.32,645.084 1576.1,629.082 1586.89,611.169 1597.68,592.69 
  1608.46,576.791 1619.25,559.929 1630.04,540.948 1640.82,521.634 1651.61,501.07 1662.4,477.142 1673.19,451.425 1683.97,422.965 1694.76,393.42 1705.55,360.184 
  1716.33,321.527 1727.12,275.536 1737.91,216.513 1748.69,198.205 1759.48,183.119 1770.27,168.963 1781.05,155.915 1791.84,144.371 1802.63,133.05 1813.41,122.614 
  1824.2,113.64 1834.99,106.187 1845.77,99.1863 1856.56,93.7245 1867.35,88.8052 1878.14,88.0053 1888.92,88.9389 1899.71,90.2381 1910.5,92.7884 1921.28,96.1041 
  1932.07,100.544 1942.86,106.561 1953.64,111.45 1964.43,114.416 1975.22,119.816 1986,123.436 1996.79,126.594 2007.58,131.418 2018.36,133.819 2029.15,136.591 
  2039.94,140.08 2050.72,141.71 2061.51,144.383 2072.3,149.244 2083.09,151.197 2093.87,155.947 2104.66,164.771 2115.45,407.256 2126.23,1446.71 
  "/>
<path clip-path="url(#clip7600)" d="
M267.389 251.724 L801.727 251.724 L801.727 130.764 L267.389 130.764  Z
  " fill="#ffffff" fill-rule="evenodd" fill-opacity="1"/>
<polyline clip-path="url(#clip7600)" style="stroke:#000000; stroke-width:4; stroke-opacity:1; fill:none" points="
  267.389,251.724 801.727,251.724 801.727,130.764 267.389,130.764 267.389,251.724 
  "/>
<polyline clip-path="url(#clip7600)" style="stroke:#000000; stroke-width:4; stroke-opacity:1; fill:none" points="
  291.389,191.244 435.389,191.244 
  "/>
<g clip-path="url(#clip7600)">
<text style="fill:#000000; fill-opacity:1; font-family:Arial,Helvetica Neue,Helvetica,sans-serif; font-size:48px; text-anchor:start;" transform="rotate(0, 459.389, 208.744)" x="459.389" y="208.744">Iteration #120</text>
</g>
</svg>
