<?xml version="1.0" encoding="utf-8"?>
<svg xmlns="http://www.w3.org/2000/svg" xmlns:xlink="http://www.w3.org/1999/xlink" width="600" height="400" viewBox="0 0 2400 1600">
<defs>
  <clipPath id="clip1000">
    <rect x="0" y="0" width="2400" height="1600"/>
  </clipPath>
</defs>
<path clip-path="url(#clip1000)" d="
M0 1600 L2400 1600 L2400 0 L0 0  Z
  " fill="#ffffff" fill-rule="evenodd" fill-opacity="1"/>
<defs>
  <clipPath id="clip1001">
    <rect x="480" y="0" width="1681" height="1600"/>
  </clipPath>
</defs>
<path clip-path="url(#clip1000)" d="
M194.041 1487.47 L2352.76 1487.47 L2352.76 47.2441 L194.041 47.2441  Z
  " fill="#ffffff" fill-rule="evenodd" fill-opacity="1"/>
<defs>
  <clipPath id="clip1002">
    <rect x="194" y="47" width="2160" height="1441"/>
  </clipPath>
</defs>
<polyline clip-path="url(#clip1000)" style="stroke:#000000; stroke-width:4; stroke-opacity:1; fill:none" points="
  194.041,1487.47 2352.76,1487.47 
  "/>
<polyline clip-path="url(#clip1000)" style="stroke:#000000; stroke-width:4; stroke-opacity:1; fill:none" points="
  194.041,1487.47 194.041,47.2441 
  "/>
<polyline clip-path="url(#clip1000)" style="stroke:#000000; stroke-width:4; stroke-opacity:1; fill:none" points="
  194.041,1487.47 194.041,1470.19 
  "/>
<polyline clip-path="url(#clip1000)" style="stroke:#000000; stroke-width:4; stroke-opacity:1; fill:none" points="
  733.72,1487.47 733.72,1470.19 
  "/>
<polyline clip-path="url(#clip1000)" style="stroke:#000000; stroke-width:4; stroke-opacity:1; fill:none" points="
  1273.4,1487.47 1273.4,1470.19 
  "/>
<polyline clip-path="url(#clip1000)" style="stroke:#000000; stroke-width:4; stroke-opacity:1; fill:none" points="
  1813.08,1487.47 1813.08,1470.19 
  "/>
<polyline clip-path="url(#clip1000)" style="stroke:#000000; stroke-width:4; stroke-opacity:1; fill:none" points="
  2352.76,1487.47 2352.76,1470.19 
  "/>
<polyline clip-path="url(#clip1000)" style="stroke:#000000; stroke-width:4; stroke-opacity:1; fill:none" points="
  194.041,1436.43 219.946,1436.43 
  "/>
<polyline clip-path="url(#clip1000)" style="stroke:#000000; stroke-width:4; stroke-opacity:1; fill:none" points="
  194.041,1102.09 219.946,1102.09 
  "/>
<polyline clip-path="url(#clip1000)" style="stroke:#000000; stroke-width:4; stroke-opacity:1; fill:none" points="
  194.041,767.751 219.946,767.751 
  "/>
<polyline clip-path="url(#clip1000)" style="stroke:#000000; stroke-width:4; stroke-opacity:1; fill:none" points="
  194.041,433.409 219.946,433.409 
  "/>
<polyline clip-path="url(#clip1000)" style="stroke:#000000; stroke-width:4; stroke-opacity:1; fill:none" points="
  194.041,99.0671 219.946,99.0671 
  "/>
<g clip-path="url(#clip1000)">
<text style="fill:#000000; fill-opacity:1; font-family:Arial,Helvetica Neue,Helvetica,sans-serif; font-size:48px; text-anchor:middle;" transform="rotate(0, 194.041, 1541.47)" x="194.041" y="1541.47">0</text>
</g>
<g clip-path="url(#clip1000)">
<text style="fill:#000000; fill-opacity:1; font-family:Arial,Helvetica Neue,Helvetica,sans-serif; font-size:48px; text-anchor:middle;" transform="rotate(0, 733.72, 1541.47)" x="733.72" y="1541.47">50</text>
</g>
<g clip-path="url(#clip1000)">
<text style="fill:#000000; fill-opacity:1; font-family:Arial,Helvetica Neue,Helvetica,sans-serif; font-size:48px; text-anchor:middle;" transform="rotate(0, 1273.4, 1541.47)" x="1273.4" y="1541.47">100</text>
</g>
<g clip-path="url(#clip1000)">
<text style="fill:#000000; fill-opacity:1; font-family:Arial,Helvetica Neue,Helvetica,sans-serif; font-size:48px; text-anchor:middle;" transform="rotate(0, 1813.08, 1541.47)" x="1813.08" y="1541.47">150</text>
</g>
<g clip-path="url(#clip1000)">
<text style="fill:#000000; fill-opacity:1; font-family:Arial,Helvetica Neue,Helvetica,sans-serif; font-size:48px; text-anchor:middle;" transform="rotate(0, 2352.76, 1541.47)" x="2352.76" y="1541.47">200</text>
</g>
<g clip-path="url(#clip1000)">
<text style="fill:#000000; fill-opacity:1; font-family:Arial,Helvetica Neue,Helvetica,sans-serif; font-size:48px; text-anchor:end;" transform="rotate(0, 170.041, 1453.93)" x="170.041" y="1453.93">600</text>
</g>
<g clip-path="url(#clip1000)">
<text style="fill:#000000; fill-opacity:1; font-family:Arial,Helvetica Neue,Helvetica,sans-serif; font-size:48px; text-anchor:end;" transform="rotate(0, 170.041, 1119.59)" x="170.041" y="1119.59">700</text>
</g>
<g clip-path="url(#clip1000)">
<text style="fill:#000000; fill-opacity:1; font-family:Arial,Helvetica Neue,Helvetica,sans-serif; font-size:48px; text-anchor:end;" transform="rotate(0, 170.041, 785.251)" x="170.041" y="785.251">800</text>
</g>
<g clip-path="url(#clip1000)">
<text style="fill:#000000; fill-opacity:1; font-family:Arial,Helvetica Neue,Helvetica,sans-serif; font-size:48px; text-anchor:end;" transform="rotate(0, 170.041, 450.909)" x="170.041" y="450.909">900</text>
</g>
<g clip-path="url(#clip1000)">
<text style="fill:#000000; fill-opacity:1; font-family:Arial,Helvetica Neue,Helvetica,sans-serif; font-size:48px; text-anchor:end;" transform="rotate(0, 170.041, 116.567)" x="170.041" y="116.567">1000</text>
</g>
<polyline clip-path="url(#clip1002)" style="stroke:#000000; stroke-width:4; stroke-opacity:1; fill:none" points="
  204.835,1434.28 215.629,1434.44 226.422,1434.34 237.216,1434.37 248.009,1434.43 258.803,1434.46 269.596,1434.5 280.39,1434.55 291.184,1434.59 301.977,1434.64 
  312.771,1434.7 323.564,1434.75 334.358,1434.81 345.151,1434.87 355.945,1434.93 366.739,1434.99 377.532,1435.05 388.326,1435.13 399.119,1435.2 409.913,1435.26 
  420.706,1435.33 431.5,1435.4 442.294,1435.47 453.087,1435.54 463.881,1435.61 474.674,1435.69 485.468,1435.76 496.262,1435.84 507.055,1435.91 517.849,1435.98 
  528.642,1436.06 539.436,1436.13 550.229,1436.2 561.023,1436.27 571.817,1436.34 582.61,1436.4 593.404,1436.47 604.197,1436.53 614.991,1436.6 625.784,1436.66 
  636.578,1436.72 647.372,1436.78 658.165,1436.84 668.959,1436.9 679.752,1436.96 690.546,1437.01 701.339,1437.07 712.133,1437.13 722.927,1437.18 733.72,1437.24 
  744.514,1437.29 755.307,1437.34 766.101,1437.4 776.894,1437.44 787.688,1437.48 798.482,1437.54 809.275,1437.58 820.069,1437.63 830.862,1437.68 841.656,1437.7 
  852.449,1437.75 863.243,1437.8 874.037,1437.82 884.83,1437.87 895.624,1437.89 906.417,1437.91 917.211,1437.96 928.004,1437.97 938.798,1438 949.592,1438.03 
  960.385,1438.03 971.179,1438.07 981.972,1438.09 992.766,1438.08 1003.56,1438.11 1014.35,1438.1 1025.15,1438.09 1035.94,1438.13 1046.73,1438.1 1057.53,1438.1 
  1068.32,1438.12 1079.11,1438.07 1089.91,1438.07 1100.7,1438.07 1111.5,1437.99 1122.29,1437.99 1133.08,1437.94 1143.88,1437.88 1154.67,1437.88 1165.46,1437.8 
  1176.26,1437.73 1187.05,1437.71 1197.84,1437.59 1208.64,1437.53 1219.43,1437.48 1230.22,1437.3 1241.02,1437.25 1251.81,1437.11 1262.61,1436.95 1273.4,1436.87 
  1284.19,1436.67 1294.99,1436.53 1305.78,1436.37 1316.57,1436.14 1327.37,1435.98 1338.16,1435.8 1348.95,1435.49 1359.75,1435.3 1370.54,1434.97 1381.33,1434.64 
  1392.13,1434.37 1402.92,1433.97 1413.72,1433.58 1424.51,1433.2 1435.3,1432.68 1446.1,1432.21 1456.89,1431.65 1467.68,1430.87 1478.48,1430.16 1489.27,1429.3 
  1500.06,1428.17 1510.86,1427.16 1521.65,1425.74 1532.44,1424.11 1543.24,1422.43 1554.03,1420.04 1564.83,1417.23 1575.62,1413.84 1586.41,1409.05 1597.21,1403.31 
  1608,1396 1618.79,1385.89 1629.59,1372.06 1640.38,1352.4 1651.17,1323.91 1661.97,1281.19 1672.76,1219.44 1683.55,1133.5 1694.35,1023.72 1705.14,884.137 
  1715.94,705.716 1726.73,475.257 1737.52,144.9 1748.32,112.27 1759.11,100.823 1769.9,95.1604 1780.7,92.2168 1791.49,90.4498 1802.28,89.3669 1813.08,88.7635 
  1823.87,88.3541 1834.66,88.1671 1845.46,88.054 1856.25,88.0053 1867.05,88.0066 1877.84,88.0288 1888.63,88.0676 1899.43,88.084 1910.22,88.1296 1921.01,88.1674 
  1931.81,88.1662 1942.6,88.2103 1953.39,88.2162 1964.19,88.2416 1974.98,88.3099 1985.77,88.3078 1996.57,88.3245 2007.36,88.4167 2018.16,88.4281 2028.95,88.4545 
  2039.74,88.5299 2050.54,88.5163 2061.33,88.6512 2072.12,88.6144 2082.92,88.6363 2093.71,88.7637 2104.5,88.8612 2115.3,90.12 2126.09,1446.71 
  "/>
<path clip-path="url(#clip1000)" d="
M266.041 251.724 L773.617 251.724 L773.617 130.764 L266.041 130.764  Z
  " fill="#ffffff" fill-rule="evenodd" fill-opacity="1"/>
<polyline clip-path="url(#clip1000)" style="stroke:#000000; stroke-width:4; stroke-opacity:1; fill:none" points="
  266.041,251.724 773.617,251.724 773.617,130.764 266.041,130.764 266.041,251.724 
  "/>
<polyline clip-path="url(#clip1000)" style="stroke:#000000; stroke-width:4; stroke-opacity:1; fill:none" points="
  290.041,191.244 434.041,191.244 
  "/>
<g clip-path="url(#clip1000)">
<text style="fill:#000000; fill-opacity:1; font-family:Arial,Helvetica Neue,Helvetica,sans-serif; font-size:48px; text-anchor:start;" transform="rotate(0, 458.041, 208.744)" x="458.041" y="208.744">Iteration #10</text>
</g>
</svg>
