<?xml version="1.0" encoding="utf-8"?>
<svg xmlns="http://www.w3.org/2000/svg" xmlns:xlink="http://www.w3.org/1999/xlink" width="600" height="400" viewBox="0 0 2400 1600">
<defs>
  <clipPath id="clip8800">
    <rect x="0" y="0" width="2400" height="1600"/>
  </clipPath>
</defs>
<path clip-path="url(#clip8800)" d="
M0 1600 L2400 1600 L2400 0 L0 0  Z
  " fill="#ffffff" fill-rule="evenodd" fill-opacity="1"/>
<defs>
  <clipPath id="clip8801">
    <rect x="480" y="0" width="1681" height="1600"/>
  </clipPath>
</defs>
<path clip-path="url(#clip8800)" d="
M195.389 1487.47 L2352.76 1487.47 L2352.76 47.2441 L195.389 47.2441  Z
  " fill="#ffffff" fill-rule="evenodd" fill-opacity="1"/>
<defs>
  <clipPath id="clip8802">
    <rect x="195" y="47" width="2158" height="1441"/>
  </clipPath>
</defs>
<polyline clip-path="url(#clip8800)" style="stroke:#000000; stroke-width:4; stroke-opacity:1; fill:none" points="
  195.389,1487.47 2352.76,1487.47 
  "/>
<polyline clip-path="url(#clip8800)" style="stroke:#000000; stroke-width:4; stroke-opacity:1; fill:none" points="
  195.389,1487.47 195.389,47.2441 
  "/>
<polyline clip-path="url(#clip8800)" style="stroke:#000000; stroke-width:4; stroke-opacity:1; fill:none" points="
  195.389,1487.47 195.389,1470.19 
  "/>
<polyline clip-path="url(#clip8800)" style="stroke:#000000; stroke-width:4; stroke-opacity:1; fill:none" points="
  734.731,1487.47 734.731,1470.19 
  "/>
<polyline clip-path="url(#clip8800)" style="stroke:#000000; stroke-width:4; stroke-opacity:1; fill:none" points="
  1274.07,1487.47 1274.07,1470.19 
  "/>
<polyline clip-path="url(#clip8800)" style="stroke:#000000; stroke-width:4; stroke-opacity:1; fill:none" points="
  1813.41,1487.47 1813.41,1470.19 
  "/>
<polyline clip-path="url(#clip8800)" style="stroke:#000000; stroke-width:4; stroke-opacity:1; fill:none" points="
  2352.76,1487.47 2352.76,1470.19 
  "/>
<polyline clip-path="url(#clip8800)" style="stroke:#000000; stroke-width:4; stroke-opacity:1; fill:none" points="
  195.389,1360.28 221.278,1360.28 
  "/>
<polyline clip-path="url(#clip8800)" style="stroke:#000000; stroke-width:4; stroke-opacity:1; fill:none" points="
  195.389,1149.06 221.278,1149.06 
  "/>
<polyline clip-path="url(#clip8800)" style="stroke:#000000; stroke-width:4; stroke-opacity:1; fill:none" points="
  195.389,937.831 221.278,937.831 
  "/>
<polyline clip-path="url(#clip8800)" style="stroke:#000000; stroke-width:4; stroke-opacity:1; fill:none" points="
  195.389,726.607 221.278,726.607 
  "/>
<polyline clip-path="url(#clip8800)" style="stroke:#000000; stroke-width:4; stroke-opacity:1; fill:none" points="
  195.389,515.382 221.278,515.382 
  "/>
<polyline clip-path="url(#clip8800)" style="stroke:#000000; stroke-width:4; stroke-opacity:1; fill:none" points="
  195.389,304.158 221.278,304.158 
  "/>
<polyline clip-path="url(#clip8800)" style="stroke:#000000; stroke-width:4; stroke-opacity:1; fill:none" points="
  195.389,92.9336 221.278,92.9336 
  "/>
<g clip-path="url(#clip8800)">
<text style="fill:#000000; fill-opacity:1; font-family:Arial,Helvetica Neue,Helvetica,sans-serif; font-size:48px; text-anchor:middle;" transform="rotate(0, 195.389, 1541.47)" x="195.389" y="1541.47">0</text>
</g>
<g clip-path="url(#clip8800)">
<text style="fill:#000000; fill-opacity:1; font-family:Arial,Helvetica Neue,Helvetica,sans-serif; font-size:48px; text-anchor:middle;" transform="rotate(0, 734.731, 1541.47)" x="734.731" y="1541.47">50</text>
</g>
<g clip-path="url(#clip8800)">
<text style="fill:#000000; fill-opacity:1; font-family:Arial,Helvetica Neue,Helvetica,sans-serif; font-size:48px; text-anchor:middle;" transform="rotate(0, 1274.07, 1541.47)" x="1274.07" y="1541.47">100</text>
</g>
<g clip-path="url(#clip8800)">
<text style="fill:#000000; fill-opacity:1; font-family:Arial,Helvetica Neue,Helvetica,sans-serif; font-size:48px; text-anchor:middle;" transform="rotate(0, 1813.41, 1541.47)" x="1813.41" y="1541.47">150</text>
</g>
<g clip-path="url(#clip8800)">
<text style="fill:#000000; fill-opacity:1; font-family:Arial,Helvetica Neue,Helvetica,sans-serif; font-size:48px; text-anchor:middle;" transform="rotate(0, 2352.76, 1541.47)" x="2352.76" y="1541.47">200</text>
</g>
<g clip-path="url(#clip8800)">
<text style="fill:#000000; fill-opacity:1; font-family:Arial,Helvetica Neue,Helvetica,sans-serif; font-size:48px; text-anchor:end;" transform="rotate(0, 171.389, 1377.78)" x="171.389" y="1377.78">-500</text>
</g>
<g clip-path="url(#clip8800)">
<text style="fill:#000000; fill-opacity:1; font-family:Arial,Helvetica Neue,Helvetica,sans-serif; font-size:48px; text-anchor:end;" transform="rotate(0, 171.389, 1166.56)" x="171.389" y="1166.56">0</text>
</g>
<g clip-path="url(#clip8800)">
<text style="fill:#000000; fill-opacity:1; font-family:Arial,Helvetica Neue,Helvetica,sans-serif; font-size:48px; text-anchor:end;" transform="rotate(0, 171.389, 955.331)" x="171.389" y="955.331">500</text>
</g>
<g clip-path="url(#clip8800)">
<text style="fill:#000000; fill-opacity:1; font-family:Arial,Helvetica Neue,Helvetica,sans-serif; font-size:48px; text-anchor:end;" transform="rotate(0, 171.389, 744.107)" x="171.389" y="744.107">1000</text>
</g>
<g clip-path="url(#clip8800)">
<text style="fill:#000000; fill-opacity:1; font-family:Arial,Helvetica Neue,Helvetica,sans-serif; font-size:48px; text-anchor:end;" transform="rotate(0, 171.389, 532.882)" x="171.389" y="532.882">1500</text>
</g>
<g clip-path="url(#clip8800)">
<text style="fill:#000000; fill-opacity:1; font-family:Arial,Helvetica Neue,Helvetica,sans-serif; font-size:48px; text-anchor:end;" transform="rotate(0, 171.389, 321.658)" x="171.389" y="321.658">2000</text>
</g>
<g clip-path="url(#clip8800)">
<text style="fill:#000000; fill-opacity:1; font-family:Arial,Helvetica Neue,Helvetica,sans-serif; font-size:48px; text-anchor:end;" transform="rotate(0, 171.389, 110.434)" x="171.389" y="110.434">2500</text>
</g>
<polyline clip-path="url(#clip8802)" style="stroke:#000000; stroke-width:4; stroke-opacity:1; fill:none" points="
  206.176,1024.45 216.963,1025.87 227.75,1027.64 238.537,1028.65 249.323,1029.77 260.11,1031.61 270.897,1033.93 281.684,1035.69 292.471,1037.4 303.258,1038.92 
  314.044,1040.16 324.831,1040.33 335.618,1039.35 346.405,1038.8 357.192,1039.49 367.979,1039.65 378.765,1039.76 389.552,1039.85 400.339,1039.9 411.126,1039.94 
  421.913,1039.96 432.7,1040.05 443.486,1040.66 454.273,1042.26 465.06,1044.19 475.847,1045.95 486.634,1047.83 497.421,1049.8 508.207,1051.96 518.994,1054.24 
  529.781,1056.63 540.568,1058.61 551.355,1059.79 562.142,1060.22 572.928,1059.77 583.715,1058.35 594.502,1056.03 605.289,1053.31 616.076,1050.7 626.863,1047.5 
  637.649,1044.32 648.436,1040.87 659.223,1038.02 670.01,1035.9 680.797,1034.15 691.584,1032.19 702.37,1029.94 713.157,1027.11 723.944,1024.62 734.731,1022.43 
  745.518,1020.95 756.305,1019.11 767.091,1017.34 777.878,1015.56 788.665,1013.77 799.452,1012.12 810.239,1010.1 821.026,1006.99 831.812,1004.29 842.599,1001.98 
  853.386,1000.37 864.173,999.355 874.96,998.679 885.747,996.846 896.533,993.941 907.32,991.431 918.107,988.622 928.894,985.922 939.681,983.191 950.468,981.354 
  961.254,979.287 972.041,978.094 982.828,976.296 993.615,974.248 1004.4,971.858 1015.19,969.401 1025.98,966.397 1036.76,963.306 1047.55,960.506 1058.34,958.111 
  1069.12,954.891 1079.91,951.298 1090.7,947.031 1101.48,942.425 1112.27,937.28 1123.06,932.627 1133.84,929.044 1144.63,924.527 1155.42,919.627 1166.2,915.751 
  1176.99,910.188 1187.78,903.856 1198.56,897.104 1209.35,891.073 1220.14,885.804 1230.93,879.393 1241.71,874.037 1252.5,868.447 1263.29,860.97 1274.07,853.224 
  1284.86,845.638 1295.65,836.737 1306.43,830.491 1317.22,827.002 1328.01,823.509 1338.79,820.026 1349.58,817 1360.37,812.527 1371.15,809.137 1381.94,803.569 
  1392.73,797.762 1403.51,793.947 1414.3,791.129 1425.09,786.894 1435.88,782.311 1446.66,778.276 1457.45,772.662 1468.24,765.987 1479.02,758.097 1489.81,749.374 
  1500.6,740.276 1511.38,732.102 1522.17,722.252 1532.96,711.48 1543.74,700.113 1554.53,686.503 1565.32,671.771 1576.1,655.921 1586.89,637.908 1597.68,619.323 
  1608.46,603.887 1619.25,587.44 1630.04,568.596 1640.82,549.477 1651.61,529.098 1662.4,504.885 1673.19,478.871 1683.97,449.989 1694.76,420.174 1705.55,386.674 
  1716.33,347.671 1727.12,301.428 1737.91,243.097 1748.69,222.357 1759.48,204.533 1770.27,187.606 1781.05,171.713 1791.84,157.647 1802.63,143.832 1813.41,130.869 
  1824.2,119.853 1834.99,110.747 1845.77,101.922 1856.56,95.2022 1867.35,89.1864 1878.14,88.0053 1888.92,89.3612 1899.71,90.8365 1910.5,93.8282 1921.28,98.1455 
  1932.07,103.442 1942.86,110.567 1953.64,116.924 1964.43,120.202 1975.22,126.634 1986,131.365 1996.79,134.708 2007.58,140.556 2018.36,143.976 2029.15,146.111 
  2039.94,150.698 2050.72,152.94 2061.51,155.371 2072.3,161.472 2083.09,163.778 2093.87,168.587 2104.66,179.899 2115.45,428.832 2126.23,1446.71 
  "/>
<path clip-path="url(#clip8800)" d="
M267.389 251.724 L801.727 251.724 L801.727 130.764 L267.389 130.764  Z
  " fill="#ffffff" fill-rule="evenodd" fill-opacity="1"/>
<polyline clip-path="url(#clip8800)" style="stroke:#000000; stroke-width:4; stroke-opacity:1; fill:none" points="
  267.389,251.724 801.727,251.724 801.727,130.764 267.389,130.764 267.389,251.724 
  "/>
<polyline clip-path="url(#clip8800)" style="stroke:#000000; stroke-width:4; stroke-opacity:1; fill:none" points="
  291.389,191.244 435.389,191.244 
  "/>
<g clip-path="url(#clip8800)">
<text style="fill:#000000; fill-opacity:1; font-family:Arial,Helvetica Neue,Helvetica,sans-serif; font-size:48px; text-anchor:start;" transform="rotate(0, 459.389, 208.744)" x="459.389" y="208.744">Iteration #140</text>
</g>
</svg>
