<?xml version="1.0" encoding="utf-8"?>
<svg xmlns="http://www.w3.org/2000/svg" xmlns:xlink="http://www.w3.org/1999/xlink" width="600" height="400" viewBox="0 0 2400 1600">
<defs>
  <clipPath id="clip9400">
    <rect x="0" y="0" width="2400" height="1600"/>
  </clipPath>
</defs>
<path clip-path="url(#clip9400)" d="
M0 1600 L2400 1600 L2400 0 L0 0  Z
  " fill="#ffffff" fill-rule="evenodd" fill-opacity="1"/>
<defs>
  <clipPath id="clip9401">
    <rect x="480" y="0" width="1681" height="1600"/>
  </clipPath>
</defs>
<path clip-path="url(#clip9400)" d="
M195.389 1487.47 L2352.76 1487.47 L2352.76 47.2441 L195.389 47.2441  Z
  " fill="#ffffff" fill-rule="evenodd" fill-opacity="1"/>
<defs>
  <clipPath id="clip9402">
    <rect x="195" y="47" width="2158" height="1441"/>
  </clipPath>
</defs>
<polyline clip-path="url(#clip9400)" style="stroke:#000000; stroke-width:4; stroke-opacity:1; fill:none" points="
  195.389,1487.47 2352.76,1487.47 
  "/>
<polyline clip-path="url(#clip9400)" style="stroke:#000000; stroke-width:4; stroke-opacity:1; fill:none" points="
  195.389,1487.47 195.389,47.2441 
  "/>
<polyline clip-path="url(#clip9400)" style="stroke:#000000; stroke-width:4; stroke-opacity:1; fill:none" points="
  195.389,1487.47 195.389,1470.19 
  "/>
<polyline clip-path="url(#clip9400)" style="stroke:#000000; stroke-width:4; stroke-opacity:1; fill:none" points="
  734.731,1487.47 734.731,1470.19 
  "/>
<polyline clip-path="url(#clip9400)" style="stroke:#000000; stroke-width:4; stroke-opacity:1; fill:none" points="
  1274.07,1487.47 1274.07,1470.19 
  "/>
<polyline clip-path="url(#clip9400)" style="stroke:#000000; stroke-width:4; stroke-opacity:1; fill:none" points="
  1813.41,1487.47 1813.41,1470.19 
  "/>
<polyline clip-path="url(#clip9400)" style="stroke:#000000; stroke-width:4; stroke-opacity:1; fill:none" points="
  2352.76,1487.47 2352.76,1470.19 
  "/>
<polyline clip-path="url(#clip9400)" style="stroke:#000000; stroke-width:4; stroke-opacity:1; fill:none" points="
  195.389,1345.38 221.278,1345.38 
  "/>
<polyline clip-path="url(#clip9400)" style="stroke:#000000; stroke-width:4; stroke-opacity:1; fill:none" points="
  195.389,1141.15 221.278,1141.15 
  "/>
<polyline clip-path="url(#clip9400)" style="stroke:#000000; stroke-width:4; stroke-opacity:1; fill:none" points="
  195.389,936.911 221.278,936.911 
  "/>
<polyline clip-path="url(#clip9400)" style="stroke:#000000; stroke-width:4; stroke-opacity:1; fill:none" points="
  195.389,732.676 221.278,732.676 
  "/>
<polyline clip-path="url(#clip9400)" style="stroke:#000000; stroke-width:4; stroke-opacity:1; fill:none" points="
  195.389,528.442 221.278,528.442 
  "/>
<polyline clip-path="url(#clip9400)" style="stroke:#000000; stroke-width:4; stroke-opacity:1; fill:none" points="
  195.389,324.208 221.278,324.208 
  "/>
<polyline clip-path="url(#clip9400)" style="stroke:#000000; stroke-width:4; stroke-opacity:1; fill:none" points="
  195.389,119.973 221.278,119.973 
  "/>
<g clip-path="url(#clip9400)">
<text style="fill:#000000; fill-opacity:1; font-family:Arial,Helvetica Neue,Helvetica,sans-serif; font-size:48px; text-anchor:middle;" transform="rotate(0, 195.389, 1541.47)" x="195.389" y="1541.47">0</text>
</g>
<g clip-path="url(#clip9400)">
<text style="fill:#000000; fill-opacity:1; font-family:Arial,Helvetica Neue,Helvetica,sans-serif; font-size:48px; text-anchor:middle;" transform="rotate(0, 734.731, 1541.47)" x="734.731" y="1541.47">50</text>
</g>
<g clip-path="url(#clip9400)">
<text style="fill:#000000; fill-opacity:1; font-family:Arial,Helvetica Neue,Helvetica,sans-serif; font-size:48px; text-anchor:middle;" transform="rotate(0, 1274.07, 1541.47)" x="1274.07" y="1541.47">100</text>
</g>
<g clip-path="url(#clip9400)">
<text style="fill:#000000; fill-opacity:1; font-family:Arial,Helvetica Neue,Helvetica,sans-serif; font-size:48px; text-anchor:middle;" transform="rotate(0, 1813.41, 1541.47)" x="1813.41" y="1541.47">150</text>
</g>
<g clip-path="url(#clip9400)">
<text style="fill:#000000; fill-opacity:1; font-family:Arial,Helvetica Neue,Helvetica,sans-serif; font-size:48px; text-anchor:middle;" transform="rotate(0, 2352.76, 1541.47)" x="2352.76" y="1541.47">200</text>
</g>
<g clip-path="url(#clip9400)">
<text style="fill:#000000; fill-opacity:1; font-family:Arial,Helvetica Neue,Helvetica,sans-serif; font-size:48px; text-anchor:end;" transform="rotate(0, 171.389, 1362.88)" x="171.389" y="1362.88">-500</text>
</g>
<g clip-path="url(#clip9400)">
<text style="fill:#000000; fill-opacity:1; font-family:Arial,Helvetica Neue,Helvetica,sans-serif; font-size:48px; text-anchor:end;" transform="rotate(0, 171.389, 1158.65)" x="171.389" y="1158.65">0</text>
</g>
<g clip-path="url(#clip9400)">
<text style="fill:#000000; fill-opacity:1; font-family:Arial,Helvetica Neue,Helvetica,sans-serif; font-size:48px; text-anchor:end;" transform="rotate(0, 171.389, 954.411)" x="171.389" y="954.411">500</text>
</g>
<g clip-path="url(#clip9400)">
<text style="fill:#000000; fill-opacity:1; font-family:Arial,Helvetica Neue,Helvetica,sans-serif; font-size:48px; text-anchor:end;" transform="rotate(0, 171.389, 750.176)" x="171.389" y="750.176">1000</text>
</g>
<g clip-path="url(#clip9400)">
<text style="fill:#000000; fill-opacity:1; font-family:Arial,Helvetica Neue,Helvetica,sans-serif; font-size:48px; text-anchor:end;" transform="rotate(0, 171.389, 545.942)" x="171.389" y="545.942">1500</text>
</g>
<g clip-path="url(#clip9400)">
<text style="fill:#000000; fill-opacity:1; font-family:Arial,Helvetica Neue,Helvetica,sans-serif; font-size:48px; text-anchor:end;" transform="rotate(0, 171.389, 341.708)" x="171.389" y="341.708">2000</text>
</g>
<g clip-path="url(#clip9400)">
<text style="fill:#000000; fill-opacity:1; font-family:Arial,Helvetica Neue,Helvetica,sans-serif; font-size:48px; text-anchor:end;" transform="rotate(0, 171.389, 137.473)" x="171.389" y="137.473">2500</text>
</g>
<polyline clip-path="url(#clip9402)" style="stroke:#000000; stroke-width:4; stroke-opacity:1; fill:none" points="
  206.176,1019.36 216.963,1020.88 227.75,1022.77 238.537,1023.83 249.323,1025.01 260.11,1026.96 270.897,1029.43 281.684,1031.28 292.471,1033.08 303.258,1034.67 
  314.044,1035.96 324.831,1036.09 335.618,1034.98 346.405,1034.34 357.192,1035.03 367.979,1035.15 378.765,1035.21 389.552,1035.26 400.339,1035.26 411.126,1035.25 
  421.913,1035.23 432.7,1035.28 443.486,1035.88 454.273,1037.57 465.06,1039.6 475.847,1041.46 486.634,1043.44 497.421,1045.54 508.207,1047.85 518.994,1050.29 
  529.781,1052.86 540.568,1055 551.355,1056.29 562.142,1056.78 572.928,1056.32 583.715,1054.84 594.502,1052.4 605.289,1049.54 616.076,1046.82 626.863,1043.47 
  637.649,1040.15 648.436,1036.56 659.223,1033.63 670.01,1031.48 680.797,1029.76 691.584,1027.82 702.37,1025.56 713.157,1022.69 723.944,1020.19 734.731,1018.03 
  745.518,1016.62 756.305,1014.86 767.091,1013.16 777.878,1011.45 788.665,1009.74 799.452,1008.19 810.239,1006.24 821.026,1003.11 831.812,1000.43 842.599,998.173 
  853.386,996.685 864.173,995.835 874.96,995.371 885.747,993.639 896.533,990.768 907.32,988.319 918.107,985.567 928.894,982.907 939.681,980.26 950.468,978.546 
  961.254,976.612 972.041,975.622 982.828,973.979 993.615,972.08 1004.4,969.828 1015.19,967.493 1025.98,964.606 1036.76,961.616 1047.55,958.963 1058.34,956.76 
  1069.12,953.681 1079.91,950.212 1090.7,946.046 1101.48,941.509 1112.27,936.426 1123.06,931.885 1133.84,928.508 1144.63,924.152 1155.42,919.396 1166.2,915.754 
  1176.99,910.325 1187.78,904.071 1198.56,897.383 1209.35,891.499 1220.14,886.433 1230.93,880.165 1241.71,875.045 1252.5,869.675 1263.29,862.296 1274.07,854.628 
  1284.86,847.134 1295.65,838.244 1306.43,832.207 1317.22,829.161 1328.01,826.123 1338.79,823.087 1349.58,820.568 1360.37,816.504 1371.15,813.603 1381.94,808.392 
  1392.73,802.929 1403.51,799.63 1414.3,797.457 1425.09,793.755 1435.88,789.711 1446.66,786.3 1457.45,781.205 1468.24,775.006 1479.02,767.542 1489.81,759.194 
  1500.6,750.501 1511.38,742.827 1522.17,733.387 1532.96,723.005 1543.74,712.007 1554.53,698.618 1565.32,684.083 1576.1,668.354 1586.89,650.344 1597.68,631.761 
  1608.46,616.616 1619.25,600.436 1630.04,581.724 1640.82,562.758 1651.61,542.529 1662.4,518.225 1673.19,492.101 1683.97,463.039 1694.76,433.11 1705.55,399.471 
  1716.33,360.275 1727.12,313.837 1737.91,255.707 1748.69,233.817 1759.48,214.69 1770.27,196.431 1781.05,179.197 1791.84,163.907 1802.63,148.915 1813.41,134.759 
  1824.2,122.746 1834.99,112.857 1845.77,103.214 1856.56,95.8268 1867.35,89.3529 1878.14,88.0053 1888.92,89.544 1899.71,91.179 1910.5,94.3662 1921.28,99.1582 
  1932.07,104.908 1942.86,112.556 1953.64,119.611 1964.43,123.09 1975.22,129.936 1986,135.247 1996.79,138.724 2007.58,144.99 2018.36,148.847 2029.15,150.854 
  2039.94,155.81 2050.72,158.368 2061.51,160.727 2072.3,167.327 2083.09,169.897 2093.87,174.634 2104.66,187.118 2115.45,440.124 2126.23,1446.71 
  "/>
<path clip-path="url(#clip9400)" d="
M267.389 251.724 L801.727 251.724 L801.727 130.764 L267.389 130.764  Z
  " fill="#ffffff" fill-rule="evenodd" fill-opacity="1"/>
<polyline clip-path="url(#clip9400)" style="stroke:#000000; stroke-width:4; stroke-opacity:1; fill:none" points="
  267.389,251.724 801.727,251.724 801.727,130.764 267.389,130.764 267.389,251.724 
  "/>
<polyline clip-path="url(#clip9400)" style="stroke:#000000; stroke-width:4; stroke-opacity:1; fill:none" points="
  291.389,191.244 435.389,191.244 
  "/>
<g clip-path="url(#clip9400)">
<text style="fill:#000000; fill-opacity:1; font-family:Arial,Helvetica Neue,Helvetica,sans-serif; font-size:48px; text-anchor:start;" transform="rotate(0, 459.389, 208.744)" x="459.389" y="208.744">Iteration #150</text>
</g>
</svg>
