<?xml version="1.0" encoding="utf-8"?>
<svg xmlns="http://www.w3.org/2000/svg" xmlns:xlink="http://www.w3.org/1999/xlink" width="600" height="400" viewBox="0 0 2400 1600">
<defs>
  <clipPath id="clip7800">
    <rect x="0" y="0" width="2400" height="1600"/>
  </clipPath>
</defs>
<path clip-path="url(#clip7800)" d="
M0 1600 L2400 1600 L2400 0 L0 0  Z
  " fill="#ffffff" fill-rule="evenodd" fill-opacity="1"/>
<defs>
  <clipPath id="clip7801">
    <rect x="480" y="0" width="1681" height="1600"/>
  </clipPath>
</defs>
<path clip-path="url(#clip7800)" d="
M222.152 1487.47 L2352.76 1487.47 L2352.76 47.2441 L222.152 47.2441  Z
  " fill="#ffffff" fill-rule="evenodd" fill-opacity="1"/>
<defs>
  <clipPath id="clip7802">
    <rect x="222" y="47" width="2132" height="1441"/>
  </clipPath>
</defs>
<polyline clip-path="url(#clip7800)" style="stroke:#000000; stroke-width:4; stroke-opacity:1; fill:none" points="
  222.152,1487.47 2352.76,1487.47 
  "/>
<polyline clip-path="url(#clip7800)" style="stroke:#000000; stroke-width:4; stroke-opacity:1; fill:none" points="
  222.152,1487.47 222.152,47.2441 
  "/>
<polyline clip-path="url(#clip7800)" style="stroke:#000000; stroke-width:4; stroke-opacity:1; fill:none" points="
  222.152,1487.47 222.152,1470.19 
  "/>
<polyline clip-path="url(#clip7800)" style="stroke:#000000; stroke-width:4; stroke-opacity:1; fill:none" points="
  754.803,1487.47 754.803,1470.19 
  "/>
<polyline clip-path="url(#clip7800)" style="stroke:#000000; stroke-width:4; stroke-opacity:1; fill:none" points="
  1287.45,1487.47 1287.45,1470.19 
  "/>
<polyline clip-path="url(#clip7800)" style="stroke:#000000; stroke-width:4; stroke-opacity:1; fill:none" points="
  1820.1,1487.47 1820.1,1470.19 
  "/>
<polyline clip-path="url(#clip7800)" style="stroke:#000000; stroke-width:4; stroke-opacity:1; fill:none" points="
  2352.76,1487.47 2352.76,1470.19 
  "/>
<polyline clip-path="url(#clip7800)" style="stroke:#000000; stroke-width:4; stroke-opacity:1; fill:none" points="
  222.152,1381.73 247.719,1381.73 
  "/>
<polyline clip-path="url(#clip7800)" style="stroke:#000000; stroke-width:4; stroke-opacity:1; fill:none" points="
  222.152,1087.69 247.719,1087.69 
  "/>
<polyline clip-path="url(#clip7800)" style="stroke:#000000; stroke-width:4; stroke-opacity:1; fill:none" points="
  222.152,793.647 247.719,793.647 
  "/>
<polyline clip-path="url(#clip7800)" style="stroke:#000000; stroke-width:4; stroke-opacity:1; fill:none" points="
  222.152,499.606 247.719,499.606 
  "/>
<polyline clip-path="url(#clip7800)" style="stroke:#000000; stroke-width:4; stroke-opacity:1; fill:none" points="
  222.152,205.566 247.719,205.566 
  "/>
<g clip-path="url(#clip7800)">
<text style="fill:#000000; fill-opacity:1; font-family:Arial,Helvetica Neue,Helvetica,sans-serif; font-size:48px; text-anchor:middle;" transform="rotate(0, 222.152, 1541.47)" x="222.152" y="1541.47">0</text>
</g>
<g clip-path="url(#clip7800)">
<text style="fill:#000000; fill-opacity:1; font-family:Arial,Helvetica Neue,Helvetica,sans-serif; font-size:48px; text-anchor:middle;" transform="rotate(0, 754.803, 1541.47)" x="754.803" y="1541.47">50</text>
</g>
<g clip-path="url(#clip7800)">
<text style="fill:#000000; fill-opacity:1; font-family:Arial,Helvetica Neue,Helvetica,sans-serif; font-size:48px; text-anchor:middle;" transform="rotate(0, 1287.45, 1541.47)" x="1287.45" y="1541.47">100</text>
</g>
<g clip-path="url(#clip7800)">
<text style="fill:#000000; fill-opacity:1; font-family:Arial,Helvetica Neue,Helvetica,sans-serif; font-size:48px; text-anchor:middle;" transform="rotate(0, 1820.1, 1541.47)" x="1820.1" y="1541.47">150</text>
</g>
<g clip-path="url(#clip7800)">
<text style="fill:#000000; fill-opacity:1; font-family:Arial,Helvetica Neue,Helvetica,sans-serif; font-size:48px; text-anchor:middle;" transform="rotate(0, 2352.76, 1541.47)" x="2352.76" y="1541.47">200</text>
</g>
<g clip-path="url(#clip7800)">
<text style="fill:#000000; fill-opacity:1; font-family:Arial,Helvetica Neue,Helvetica,sans-serif; font-size:48px; text-anchor:end;" transform="rotate(0, 198.152, 1399.23)" x="198.152" y="1399.23">-1000</text>
</g>
<g clip-path="url(#clip7800)">
<text style="fill:#000000; fill-opacity:1; font-family:Arial,Helvetica Neue,Helvetica,sans-serif; font-size:48px; text-anchor:end;" transform="rotate(0, 198.152, 1105.19)" x="198.152" y="1105.19">0</text>
</g>
<g clip-path="url(#clip7800)">
<text style="fill:#000000; fill-opacity:1; font-family:Arial,Helvetica Neue,Helvetica,sans-serif; font-size:48px; text-anchor:end;" transform="rotate(0, 198.152, 811.147)" x="198.152" y="811.147">1000</text>
</g>
<g clip-path="url(#clip7800)">
<text style="fill:#000000; fill-opacity:1; font-family:Arial,Helvetica Neue,Helvetica,sans-serif; font-size:48px; text-anchor:end;" transform="rotate(0, 198.152, 517.106)" x="198.152" y="517.106">2000</text>
</g>
<g clip-path="url(#clip7800)">
<text style="fill:#000000; fill-opacity:1; font-family:Arial,Helvetica Neue,Helvetica,sans-serif; font-size:48px; text-anchor:end;" transform="rotate(0, 198.152, 223.066)" x="198.152" y="223.066">3000</text>
</g>
<polyline clip-path="url(#clip7802)" style="stroke:#000000; stroke-width:4; stroke-opacity:1; fill:none" points="
  232.805,991.959 243.458,994.753 254.111,998.029 264.764,999.535 275.417,1001.07 286.07,1004.1 296.723,1008.11 307.376,1010.89 318.029,1013.44 328.682,1015.69 
  339.335,1017.31 349.988,1016.67 360.641,1013.45 371.294,1011.31 381.947,1011.86 392.6,1011.24 403.253,1010.51 413.906,1009.7 424.559,1008.8 435.212,1007.83 
  445.865,1006.79 456.518,1005.82 467.171,1005.94 477.824,1008.2 488.477,1011.16 499.13,1013.72 509.783,1016.54 520.436,1019.69 531.089,1023.3 541.742,1027.4 
  552.395,1031.89 563.048,1035.74 573.701,1038.15 584.354,1039.27 595.007,1038.69 605.66,1036.46 616.313,1032.55 626.966,1028.13 637.619,1024.26 648.272,1019.38 
  658.925,1014.77 669.578,1009.73 680.232,1006.29 690.885,1004.44 701.538,1003.6 712.191,1002.38 722.844,1000.52 733.497,997.513 744.15,995.203 754.803,993.709 
  765.456,993.628 776.109,992.91 786.762,992.253 797.415,991.591 808.068,990.947 818.721,990.616 829.374,989.481 840.027,985.948 850.68,983.3 861.333,981.512 
  871.986,981.282 882.639,982.184 893.292,984.084 903.945,983.208 914.598,980.215 925.251,978.023 935.904,975.399 946.557,972.634 957.21,970.376 967.863,969.596 
  978.516,968.596 989.169,969.505 999.822,969.068 1010.48,968.261 1021.13,966.954 1031.78,965.355 1042.43,963.104 1053.09,960.586 1063.74,958.997 1074.39,958.521 
  1085.05,956.492 1095.7,953.852 1106.35,950.236 1117.01,945.847 1127.66,940.768 1138.31,936.966 1148.96,935.562 1159.62,932.533 1170.27,928.888 1180.92,927.55 
  1191.58,923.035 1202.23,916.946 1212.88,910.123 1223.54,905.232 1234.19,901.828 1244.84,896.269 1255.49,893.097 1266.15,889.293 1276.8,881.717 1287.45,873.484 
  1298.11,865.361 1308.76,854.562 1319.41,849.093 1330.07,849.434 1340.72,849.788 1351.37,849.757 1362.02,850.911 1372.68,849.105 1383.33,849.434 1393.98,845.594 
  1404.64,841.36 1415.29,841.528 1425.94,844.664 1436.6,844.82 1447.25,844.827 1457.9,846.893 1468.56,846.054 1479.21,843.848 1489.86,840.072 1500.51,834.999 
  1511.17,830.462 1521.82,828.732 1532.47,824.221 1543.13,819.167 1553.78,813.592 1564.43,804.132 1575.09,793.608 1585.74,781.331 1596.39,765.403 1607.04,749.301 
  1617.7,740.971 1628.35,731.555 1639,717.921 1649.66,704.501 1660.31,689.91 1670.96,667.858 1681.62,643.431 1692.27,614.804 1702.92,586.087 1713.57,552.396 
  1724.23,511.44 1734.88,461.671 1745.53,402.817 1756.19,368.365 1766.84,334.523 1777.49,300.588 1788.15,267.737 1798.8,237.722 1809.45,208.473 1820.1,180.287 
  1830.76,155.842 1841.41,136.649 1852.06,117.715 1862.72,102.226 1873.37,90.5897 1884.02,88.0053 1894.68,91.7787 1905.33,96.6242 1915.98,102.356 1926.64,112.239 
  1937.29,124.819 1947.94,138.979 1958.59,153.356 1969.25,160.493 1979.9,171.802 1990.55,182.867 2001.21,189.314 2011.86,198.717 2022.51,206.848 2033.17,210.187 
  2043.82,217.066 2054.47,222.651 2065.12,225.364 2075.78,235.699 2086.43,241.933 2097.08,247.145 2107.74,268.674 2118.39,563.828 2129.04,1446.71 
  "/>
<path clip-path="url(#clip7800)" d="
M294.152 251.724 L828.489 251.724 L828.489 130.764 L294.152 130.764  Z
  " fill="#ffffff" fill-rule="evenodd" fill-opacity="1"/>
<polyline clip-path="url(#clip7800)" style="stroke:#000000; stroke-width:4; stroke-opacity:1; fill:none" points="
  294.152,251.724 828.489,251.724 828.489,130.764 294.152,130.764 294.152,251.724 
  "/>
<polyline clip-path="url(#clip7800)" style="stroke:#000000; stroke-width:4; stroke-opacity:1; fill:none" points="
  318.152,191.244 462.152,191.244 
  "/>
<g clip-path="url(#clip7800)">
<text style="fill:#000000; fill-opacity:1; font-family:Arial,Helvetica Neue,Helvetica,sans-serif; font-size:48px; text-anchor:start;" transform="rotate(0, 486.152, 208.744)" x="486.152" y="208.744">Iteration #290</text>
</g>
</svg>
