<?xml version="1.0" encoding="utf-8"?>
<svg xmlns="http://www.w3.org/2000/svg" xmlns:xlink="http://www.w3.org/1999/xlink" width="600" height="400" viewBox="0 0 2400 1600">
<defs>
  <clipPath id="clip2200">
    <rect x="0" y="0" width="2400" height="1600"/>
  </clipPath>
</defs>
<path clip-path="url(#clip2200)" d="
M0 1600 L2400 1600 L2400 0 L0 0  Z
  " fill="#ffffff" fill-rule="evenodd" fill-opacity="1"/>
<defs>
  <clipPath id="clip2201">
    <rect x="480" y="0" width="1681" height="1600"/>
  </clipPath>
</defs>
<path clip-path="url(#clip2200)" d="
M194.041 1487.47 L2352.76 1487.47 L2352.76 47.2441 L194.041 47.2441  Z
  " fill="#ffffff" fill-rule="evenodd" fill-opacity="1"/>
<defs>
  <clipPath id="clip2202">
    <rect x="194" y="47" width="2160" height="1441"/>
  </clipPath>
</defs>
<polyline clip-path="url(#clip2200)" style="stroke:#000000; stroke-width:4; stroke-opacity:1; fill:none" points="
  194.041,1487.47 2352.76,1487.47 
  "/>
<polyline clip-path="url(#clip2200)" style="stroke:#000000; stroke-width:4; stroke-opacity:1; fill:none" points="
  194.041,1487.47 194.041,47.2441 
  "/>
<polyline clip-path="url(#clip2200)" style="stroke:#000000; stroke-width:4; stroke-opacity:1; fill:none" points="
  194.041,1487.47 194.041,1470.19 
  "/>
<polyline clip-path="url(#clip2200)" style="stroke:#000000; stroke-width:4; stroke-opacity:1; fill:none" points="
  733.72,1487.47 733.72,1470.19 
  "/>
<polyline clip-path="url(#clip2200)" style="stroke:#000000; stroke-width:4; stroke-opacity:1; fill:none" points="
  1273.4,1487.47 1273.4,1470.19 
  "/>
<polyline clip-path="url(#clip2200)" style="stroke:#000000; stroke-width:4; stroke-opacity:1; fill:none" points="
  1813.08,1487.47 1813.08,1470.19 
  "/>
<polyline clip-path="url(#clip2200)" style="stroke:#000000; stroke-width:4; stroke-opacity:1; fill:none" points="
  2352.76,1487.47 2352.76,1470.19 
  "/>
<polyline clip-path="url(#clip2200)" style="stroke:#000000; stroke-width:4; stroke-opacity:1; fill:none" points="
  194.041,1393.35 219.946,1393.35 
  "/>
<polyline clip-path="url(#clip2200)" style="stroke:#000000; stroke-width:4; stroke-opacity:1; fill:none" points="
  194.041,1186.73 219.946,1186.73 
  "/>
<polyline clip-path="url(#clip2200)" style="stroke:#000000; stroke-width:4; stroke-opacity:1; fill:none" points="
  194.041,980.108 219.946,980.108 
  "/>
<polyline clip-path="url(#clip2200)" style="stroke:#000000; stroke-width:4; stroke-opacity:1; fill:none" points="
  194.041,773.489 219.946,773.489 
  "/>
<polyline clip-path="url(#clip2200)" style="stroke:#000000; stroke-width:4; stroke-opacity:1; fill:none" points="
  194.041,566.869 219.946,566.869 
  "/>
<polyline clip-path="url(#clip2200)" style="stroke:#000000; stroke-width:4; stroke-opacity:1; fill:none" points="
  194.041,360.249 219.946,360.249 
  "/>
<polyline clip-path="url(#clip2200)" style="stroke:#000000; stroke-width:4; stroke-opacity:1; fill:none" points="
  194.041,153.63 219.946,153.63 
  "/>
<g clip-path="url(#clip2200)">
<text style="fill:#000000; fill-opacity:1; font-family:Arial,Helvetica Neue,Helvetica,sans-serif; font-size:48px; text-anchor:middle;" transform="rotate(0, 194.041, 1541.47)" x="194.041" y="1541.47">0</text>
</g>
<g clip-path="url(#clip2200)">
<text style="fill:#000000; fill-opacity:1; font-family:Arial,Helvetica Neue,Helvetica,sans-serif; font-size:48px; text-anchor:middle;" transform="rotate(0, 733.72, 1541.47)" x="733.72" y="1541.47">50</text>
</g>
<g clip-path="url(#clip2200)">
<text style="fill:#000000; fill-opacity:1; font-family:Arial,Helvetica Neue,Helvetica,sans-serif; font-size:48px; text-anchor:middle;" transform="rotate(0, 1273.4, 1541.47)" x="1273.4" y="1541.47">100</text>
</g>
<g clip-path="url(#clip2200)">
<text style="fill:#000000; fill-opacity:1; font-family:Arial,Helvetica Neue,Helvetica,sans-serif; font-size:48px; text-anchor:middle;" transform="rotate(0, 1813.08, 1541.47)" x="1813.08" y="1541.47">150</text>
</g>
<g clip-path="url(#clip2200)">
<text style="fill:#000000; fill-opacity:1; font-family:Arial,Helvetica Neue,Helvetica,sans-serif; font-size:48px; text-anchor:middle;" transform="rotate(0, 2352.76, 1541.47)" x="2352.76" y="1541.47">200</text>
</g>
<g clip-path="url(#clip2200)">
<text style="fill:#000000; fill-opacity:1; font-family:Arial,Helvetica Neue,Helvetica,sans-serif; font-size:48px; text-anchor:end;" transform="rotate(0, 170.041, 1410.85)" x="170.041" y="1410.85">200</text>
</g>
<g clip-path="url(#clip2200)">
<text style="fill:#000000; fill-opacity:1; font-family:Arial,Helvetica Neue,Helvetica,sans-serif; font-size:48px; text-anchor:end;" transform="rotate(0, 170.041, 1204.23)" x="170.041" y="1204.23">400</text>
</g>
<g clip-path="url(#clip2200)">
<text style="fill:#000000; fill-opacity:1; font-family:Arial,Helvetica Neue,Helvetica,sans-serif; font-size:48px; text-anchor:end;" transform="rotate(0, 170.041, 997.608)" x="170.041" y="997.608">600</text>
</g>
<g clip-path="url(#clip2200)">
<text style="fill:#000000; fill-opacity:1; font-family:Arial,Helvetica Neue,Helvetica,sans-serif; font-size:48px; text-anchor:end;" transform="rotate(0, 170.041, 790.989)" x="170.041" y="790.989">800</text>
</g>
<g clip-path="url(#clip2200)">
<text style="fill:#000000; fill-opacity:1; font-family:Arial,Helvetica Neue,Helvetica,sans-serif; font-size:48px; text-anchor:end;" transform="rotate(0, 170.041, 584.369)" x="170.041" y="584.369">1000</text>
</g>
<g clip-path="url(#clip2200)">
<text style="fill:#000000; fill-opacity:1; font-family:Arial,Helvetica Neue,Helvetica,sans-serif; font-size:48px; text-anchor:end;" transform="rotate(0, 170.041, 377.749)" x="170.041" y="377.749">1200</text>
</g>
<g clip-path="url(#clip2200)">
<text style="fill:#000000; fill-opacity:1; font-family:Arial,Helvetica Neue,Helvetica,sans-serif; font-size:48px; text-anchor:end;" transform="rotate(0, 170.041, 171.13)" x="170.041" y="171.13">1400</text>
</g>
<polyline clip-path="url(#clip2202)" style="stroke:#000000; stroke-width:4; stroke-opacity:1; fill:none" points="
  204.835,1312.79 215.629,1313.21 226.422,1313.19 237.216,1313.37 248.009,1313.51 258.803,1313.74 269.596,1313.98 280.39,1314.19 291.184,1314.46 301.977,1314.67 
  312.771,1314.91 323.564,1315.06 334.358,1315.18 345.151,1315.3 355.945,1315.49 366.739,1315.65 377.532,1315.81 388.326,1315.96 399.119,1316.11 409.913,1316.25 
  420.706,1316.38 431.5,1316.5 442.294,1316.64 453.087,1316.82 463.881,1317.01 474.674,1317.2 485.468,1317.33 496.262,1317.49 507.055,1317.63 517.849,1317.76 
  528.642,1317.88 539.436,1317.94 550.229,1317.94 561.023,1317.89 571.817,1317.74 582.61,1317.52 593.404,1317.24 604.197,1316.87 614.991,1316.51 625.784,1316.07 
  636.578,1315.58 647.372,1315.07 658.165,1314.53 668.959,1314 679.752,1313.48 690.546,1312.86 701.339,1312.22 712.133,1311.5 722.927,1310.71 733.72,1309.95 
  744.514,1309.14 755.307,1308.25 766.101,1307.37 776.894,1306.38 787.688,1305.35 798.482,1304.3 809.275,1303.09 820.069,1301.83 830.862,1300.5 841.656,1299.06 
  852.449,1297.68 863.243,1296.21 874.037,1294.67 884.83,1293.03 895.624,1291.16 906.417,1289.25 917.211,1287.27 928.004,1285.09 938.798,1282.89 949.592,1280.62 
  960.385,1278.15 971.179,1275.71 981.972,1273.08 992.766,1270.22 1003.56,1267.32 1014.35,1264.15 1025.15,1260.82 1035.94,1257.37 1046.73,1253.66 1057.53,1249.91 
  1068.32,1245.87 1079.11,1241.54 1089.91,1236.99 1100.7,1232.23 1111.5,1227.04 1122.29,1221.86 1133.08,1216.43 1143.88,1210.69 1154.67,1204.71 1165.46,1198.52 
  1176.26,1191.88 1187.05,1184.95 1197.84,1177.52 1208.64,1170.07 1219.43,1162.37 1230.22,1154.16 1241.02,1145.96 1251.81,1137.4 1262.61,1128.18 1273.4,1118.78 
  1284.19,1109.02 1294.99,1098.81 1305.78,1088.78 1316.57,1078.93 1327.37,1068.86 1338.16,1058.68 1348.95,1048.22 1359.75,1037.25 1370.54,1026.42 1381.33,1014.75 
  1392.13,1002.82 1402.92,991.212 1413.72,979.321 1424.51,967.1 1435.3,954.52 1446.1,941.755 1456.89,928.349 1467.68,914.441 1478.48,899.72 1489.27,884.719 
  1500.06,869.068 1510.86,853.305 1521.65,836.859 1532.44,819.47 1543.24,801.504 1554.03,782.551 1564.83,762.258 1575.62,741.19 1586.41,718.655 1597.21,694.841 
  1608,671.552 1618.79,646.838 1629.59,619.898 1640.38,591.869 1651.17,561.647 1661.97,527.84 1672.76,490.96 1683.55,449.673 1694.35,404.659 1705.14,353.153 
  1715.94,291.763 1726.73,215.931 1737.52,110.574 1748.32,98.2561 1759.11,93.1879 1769.9,90.441 1780.7,89.0771 1791.49,88.3151 1802.28,88.0053 1813.08,88.1121 
  1823.87,88.3529 1834.66,88.7188 1845.46,89.2891 1856.25,89.8251 1867.05,90.3606 1877.84,91.0113 1888.63,91.4192 1899.43,91.8594 1910.22,92.4519 1921.01,92.7299 
  1931.81,93.1214 1942.6,93.5595 1953.39,93.7225 1964.19,94.2365 1974.98,94.6777 1985.77,94.8085 1996.57,95.456 2007.36,95.7373 2018.16,96.0416 2028.95,96.6929 
  2039.74,97.072 2050.54,97.1922 2061.33,98.126 2072.12,98.0899 2082.92,98.6929 2093.71,99.4041 2104.5,99.5511 2115.3,160.743 2126.09,1446.71 
  "/>
<path clip-path="url(#clip2200)" d="
M266.041 251.724 L773.617 251.724 L773.617 130.764 L266.041 130.764  Z
  " fill="#ffffff" fill-rule="evenodd" fill-opacity="1"/>
<polyline clip-path="url(#clip2200)" style="stroke:#000000; stroke-width:4; stroke-opacity:1; fill:none" points="
  266.041,251.724 773.617,251.724 773.617,130.764 266.041,130.764 266.041,251.724 
  "/>
<polyline clip-path="url(#clip2200)" style="stroke:#000000; stroke-width:4; stroke-opacity:1; fill:none" points="
  290.041,191.244 434.041,191.244 
  "/>
<g clip-path="url(#clip2200)">
<text style="fill:#000000; fill-opacity:1; font-family:Arial,Helvetica Neue,Helvetica,sans-serif; font-size:48px; text-anchor:start;" transform="rotate(0, 458.041, 208.744)" x="458.041" y="208.744">Iteration #30</text>
</g>
</svg>
