<?xml version="1.0" encoding="utf-8"?>
<svg xmlns="http://www.w3.org/2000/svg" xmlns:xlink="http://www.w3.org/1999/xlink" width="600" height="400" viewBox="0 0 2400 1600">
<defs>
  <clipPath id="clip2400">
    <rect x="0" y="0" width="2400" height="1600"/>
  </clipPath>
</defs>
<path clip-path="url(#clip2400)" d="
M0 1600 L2400 1600 L2400 0 L0 0  Z
  " fill="#ffffff" fill-rule="evenodd" fill-opacity="1"/>
<defs>
  <clipPath id="clip2401">
    <rect x="480" y="0" width="1681" height="1600"/>
  </clipPath>
</defs>
<path clip-path="url(#clip2400)" d="
M222.152 1487.47 L2352.76 1487.47 L2352.76 47.2441 L222.152 47.2441  Z
  " fill="#ffffff" fill-rule="evenodd" fill-opacity="1"/>
<defs>
  <clipPath id="clip2402">
    <rect x="222" y="47" width="2132" height="1441"/>
  </clipPath>
</defs>
<polyline clip-path="url(#clip2400)" style="stroke:#000000; stroke-width:4; stroke-opacity:1; fill:none" points="
  222.152,1487.47 2352.76,1487.47 
  "/>
<polyline clip-path="url(#clip2400)" style="stroke:#000000; stroke-width:4; stroke-opacity:1; fill:none" points="
  222.152,1487.47 222.152,47.2441 
  "/>
<polyline clip-path="url(#clip2400)" style="stroke:#000000; stroke-width:4; stroke-opacity:1; fill:none" points="
  222.152,1487.47 222.152,1470.19 
  "/>
<polyline clip-path="url(#clip2400)" style="stroke:#000000; stroke-width:4; stroke-opacity:1; fill:none" points="
  754.803,1487.47 754.803,1470.19 
  "/>
<polyline clip-path="url(#clip2400)" style="stroke:#000000; stroke-width:4; stroke-opacity:1; fill:none" points="
  1287.45,1487.47 1287.45,1470.19 
  "/>
<polyline clip-path="url(#clip2400)" style="stroke:#000000; stroke-width:4; stroke-opacity:1; fill:none" points="
  1820.1,1487.47 1820.1,1470.19 
  "/>
<polyline clip-path="url(#clip2400)" style="stroke:#000000; stroke-width:4; stroke-opacity:1; fill:none" points="
  2352.76,1487.47 2352.76,1470.19 
  "/>
<polyline clip-path="url(#clip2400)" style="stroke:#000000; stroke-width:4; stroke-opacity:1; fill:none" points="
  222.152,1467.59 247.719,1467.59 
  "/>
<polyline clip-path="url(#clip2400)" style="stroke:#000000; stroke-width:4; stroke-opacity:1; fill:none" points="
  222.152,1113.3 247.719,1113.3 
  "/>
<polyline clip-path="url(#clip2400)" style="stroke:#000000; stroke-width:4; stroke-opacity:1; fill:none" points="
  222.152,759.008 247.719,759.008 
  "/>
<polyline clip-path="url(#clip2400)" style="stroke:#000000; stroke-width:4; stroke-opacity:1; fill:none" points="
  222.152,404.717 247.719,404.717 
  "/>
<polyline clip-path="url(#clip2400)" style="stroke:#000000; stroke-width:4; stroke-opacity:1; fill:none" points="
  222.152,50.4269 247.719,50.4269 
  "/>
<g clip-path="url(#clip2400)">
<text style="fill:#000000; fill-opacity:1; font-family:Arial,Helvetica Neue,Helvetica,sans-serif; font-size:48px; text-anchor:middle;" transform="rotate(0, 222.152, 1541.47)" x="222.152" y="1541.47">0</text>
</g>
<g clip-path="url(#clip2400)">
<text style="fill:#000000; fill-opacity:1; font-family:Arial,Helvetica Neue,Helvetica,sans-serif; font-size:48px; text-anchor:middle;" transform="rotate(0, 754.803, 1541.47)" x="754.803" y="1541.47">50</text>
</g>
<g clip-path="url(#clip2400)">
<text style="fill:#000000; fill-opacity:1; font-family:Arial,Helvetica Neue,Helvetica,sans-serif; font-size:48px; text-anchor:middle;" transform="rotate(0, 1287.45, 1541.47)" x="1287.45" y="1541.47">100</text>
</g>
<g clip-path="url(#clip2400)">
<text style="fill:#000000; fill-opacity:1; font-family:Arial,Helvetica Neue,Helvetica,sans-serif; font-size:48px; text-anchor:middle;" transform="rotate(0, 1820.1, 1541.47)" x="1820.1" y="1541.47">150</text>
</g>
<g clip-path="url(#clip2400)">
<text style="fill:#000000; fill-opacity:1; font-family:Arial,Helvetica Neue,Helvetica,sans-serif; font-size:48px; text-anchor:middle;" transform="rotate(0, 2352.76, 1541.47)" x="2352.76" y="1541.47">200</text>
</g>
<g clip-path="url(#clip2400)">
<text style="fill:#000000; fill-opacity:1; font-family:Arial,Helvetica Neue,Helvetica,sans-serif; font-size:48px; text-anchor:end;" transform="rotate(0, 198.152, 1485.09)" x="198.152" y="1485.09">-1000</text>
</g>
<g clip-path="url(#clip2400)">
<text style="fill:#000000; fill-opacity:1; font-family:Arial,Helvetica Neue,Helvetica,sans-serif; font-size:48px; text-anchor:end;" transform="rotate(0, 198.152, 1130.8)" x="198.152" y="1130.8">0</text>
</g>
<g clip-path="url(#clip2400)">
<text style="fill:#000000; fill-opacity:1; font-family:Arial,Helvetica Neue,Helvetica,sans-serif; font-size:48px; text-anchor:end;" transform="rotate(0, 198.152, 776.508)" x="198.152" y="776.508">1000</text>
</g>
<g clip-path="url(#clip2400)">
<text style="fill:#000000; fill-opacity:1; font-family:Arial,Helvetica Neue,Helvetica,sans-serif; font-size:48px; text-anchor:end;" transform="rotate(0, 198.152, 422.217)" x="198.152" y="422.217">2000</text>
</g>
<g clip-path="url(#clip2400)">
<text style="fill:#000000; fill-opacity:1; font-family:Arial,Helvetica Neue,Helvetica,sans-serif; font-size:48px; text-anchor:end;" transform="rotate(0, 198.152, 67.9269)" x="198.152" y="67.9269">3000</text>
</g>
<polyline clip-path="url(#clip2402)" style="stroke:#000000; stroke-width:4; stroke-opacity:1; fill:none" points="
  232.805,1003.43 243.458,1005.44 254.111,1007.87 264.764,1009.15 275.417,1010.53 286.07,1012.93 296.723,1016.03 307.376,1018.29 318.029,1020.42 328.682,1022.31 
  339.335,1023.76 349.988,1023.64 360.641,1021.79 371.294,1020.63 381.947,1021.28 392.6,1021.14 403.253,1020.94 413.906,1020.69 424.559,1020.38 435.212,1020.05 
  445.865,1019.7 456.518,1019.43 467.171,1019.92 477.824,1021.89 488.477,1024.35 499.13,1026.57 509.783,1028.97 520.436,1031.56 531.089,1034.46 541.742,1037.61 
  552.395,1040.97 563.048,1043.81 573.701,1045.57 584.354,1046.32 595.007,1045.84 605.66,1044.06 616.313,1041.05 626.966,1037.55 637.619,1034.33 648.272,1030.32 
  658.925,1026.42 669.578,1022.19 680.232,1018.97 690.885,1016.83 701.538,1015.33 712.191,1013.56 722.844,1011.38 733.497,1008.4 744.15,1005.92 754.803,1003.97 
  765.456,1003.03 776.109,1001.64 786.762,1000.33 797.415,999.026 808.068,997.742 818.721,996.674 829.374,995.072 840.027,991.864 850.68,989.264 861.333,987.264 
  871.986,986.326 882.639,986.211 893.292,986.719 903.945,985.406 914.598,982.607 925.251,980.367 935.904,977.777 946.557,975.198 957.21,972.826 967.863,971.575 
  978.516,970.128 989.169,969.967 999.822,968.904 1010.48,967.55 1021.13,965.778 1031.78,963.841 1042.43,961.318 1053.09,958.613 1063.74,956.465 1074.39,954.99 
  1085.05,952.381 1095.7,949.303 1106.35,945.407 1117.01,940.982 1127.66,935.969 1138.31,931.745 1148.96,929.138 1159.62,925.322 1170.27,921.017 1180.92,918.265 
  1191.58,913.219 1202.23,907.069 1212.88,900.404 1223.54,894.941 1234.19,890.55 1244.84,884.656 1255.49,880.344 1266.15,875.684 1276.8,868.403 1287.45,860.711 
  1298.11,853.231 1308.76,843.934 1319.41,838.431 1330.07,837.027 1340.72,835.669 1351.37,834.233 1362.02,833.609 1372.68,830.945 1383.33,829.837 1393.98,825.773 
  1404.64,821.403 1415.29,820.057 1425.94,820.493 1436.6,818.868 1447.25,816.988 1457.9,816.201 1468.56,813.268 1479.21,809.095 1489.86,803.47 1500.51,796.778 
  1511.17,789.993 1521.82,784.757 1532.47,777.374 1543.13,769.061 1553.78,760.083 1564.43,748.103 1575.09,734.874 1585.74,720.181 1596.39,702.654 1607.04,684.594 
  1617.7,671.459 1628.35,657.224 1639,639.757 1649.66,622.18 1660.31,603.319 1670.96,579.137 1681.62,552.983 1692.27,523.456 1702.92,493.349 1713.57,459.239 
  1724.23,419.101 1734.88,371.428 1745.53,313.499 1756.19,286.419 1766.84,261.383 1777.49,236.974 1788.15,213.572 1798.8,192.593 1809.45,172.181 1820.1,152.495 
  1830.76,135.827 1841.41,122.349 1852.06,108.954 1862.72,98.747 1873.37,90.0025 1884.02,88.0053 1894.68,90.5504 1905.33,93.2259 1915.98,97.1809 1926.64,104.21 
  1937.29,112.362 1947.94,122.33 1958.59,132.738 1969.25,137.283 1979.9,145.866 1990.55,154.014 2001.21,158.031 2011.86,165.897 2022.51,171.859 2033.17,173.617 
  2043.82,180.028 2054.47,183.98 2065.12,185.973 2075.78,194.649 2086.43,198.716 2097.08,202.954 2107.74,220.497 2118.39,510.2 2129.04,1446.71 
  "/>
<path clip-path="url(#clip2400)" d="
M294.152 251.724 L828.489 251.724 L828.489 130.764 L294.152 130.764  Z
  " fill="#ffffff" fill-rule="evenodd" fill-opacity="1"/>
<polyline clip-path="url(#clip2400)" style="stroke:#000000; stroke-width:4; stroke-opacity:1; fill:none" points="
  294.152,251.724 828.489,251.724 828.489,130.764 294.152,130.764 294.152,251.724 
  "/>
<polyline clip-path="url(#clip2400)" style="stroke:#000000; stroke-width:4; stroke-opacity:1; fill:none" points="
  318.152,191.244 462.152,191.244 
  "/>
<g clip-path="url(#clip2400)">
<text style="fill:#000000; fill-opacity:1; font-family:Arial,Helvetica Neue,Helvetica,sans-serif; font-size:48px; text-anchor:start;" transform="rotate(0, 486.152, 208.744)" x="486.152" y="208.744">Iteration #200</text>
</g>
</svg>
