<?xml version="1.0" encoding="utf-8"?>
<svg xmlns="http://www.w3.org/2000/svg" xmlns:xlink="http://www.w3.org/1999/xlink" width="600" height="400" viewBox="0 0 2400 1600">
<defs>
  <clipPath id="clip1400">
    <rect x="0" y="0" width="2400" height="1600"/>
  </clipPath>
</defs>
<path clip-path="url(#clip1400)" d="
M0 1600 L2400 1600 L2400 0 L0 0  Z
  " fill="#ffffff" fill-rule="evenodd" fill-opacity="1"/>
<defs>
  <clipPath id="clip1401">
    <rect x="480" y="0" width="1681" height="1600"/>
  </clipPath>
</defs>
<path clip-path="url(#clip1400)" d="
M222.152 1487.47 L2352.76 1487.47 L2352.76 47.2441 L222.152 47.2441  Z
  " fill="#ffffff" fill-rule="evenodd" fill-opacity="1"/>
<defs>
  <clipPath id="clip1402">
    <rect x="222" y="47" width="2132" height="1441"/>
  </clipPath>
</defs>
<polyline clip-path="url(#clip1400)" style="stroke:#000000; stroke-width:4; stroke-opacity:1; fill:none" points="
  222.152,1487.47 2352.76,1487.47 
  "/>
<polyline clip-path="url(#clip1400)" style="stroke:#000000; stroke-width:4; stroke-opacity:1; fill:none" points="
  222.152,1487.47 222.152,47.2441 
  "/>
<polyline clip-path="url(#clip1400)" style="stroke:#000000; stroke-width:4; stroke-opacity:1; fill:none" points="
  222.152,1487.47 222.152,1470.19 
  "/>
<polyline clip-path="url(#clip1400)" style="stroke:#000000; stroke-width:4; stroke-opacity:1; fill:none" points="
  754.803,1487.47 754.803,1470.19 
  "/>
<polyline clip-path="url(#clip1400)" style="stroke:#000000; stroke-width:4; stroke-opacity:1; fill:none" points="
  1287.45,1487.47 1287.45,1470.19 
  "/>
<polyline clip-path="url(#clip1400)" style="stroke:#000000; stroke-width:4; stroke-opacity:1; fill:none" points="
  1820.1,1487.47 1820.1,1470.19 
  "/>
<polyline clip-path="url(#clip1400)" style="stroke:#000000; stroke-width:4; stroke-opacity:1; fill:none" points="
  2352.76,1487.47 2352.76,1470.19 
  "/>
<polyline clip-path="url(#clip1400)" style="stroke:#000000; stroke-width:4; stroke-opacity:1; fill:none" points="
  222.152,1346.43 247.719,1346.43 
  "/>
<polyline clip-path="url(#clip1400)" style="stroke:#000000; stroke-width:4; stroke-opacity:1; fill:none" points="
  222.152,1078.89 247.719,1078.89 
  "/>
<polyline clip-path="url(#clip1400)" style="stroke:#000000; stroke-width:4; stroke-opacity:1; fill:none" points="
  222.152,811.358 247.719,811.358 
  "/>
<polyline clip-path="url(#clip1400)" style="stroke:#000000; stroke-width:4; stroke-opacity:1; fill:none" points="
  222.152,543.821 247.719,543.821 
  "/>
<polyline clip-path="url(#clip1400)" style="stroke:#000000; stroke-width:4; stroke-opacity:1; fill:none" points="
  222.152,276.285 247.719,276.285 
  "/>
<g clip-path="url(#clip1400)">
<text style="fill:#000000; fill-opacity:1; font-family:Arial,Helvetica Neue,Helvetica,sans-serif; font-size:48px; text-anchor:middle;" transform="rotate(0, 222.152, 1541.47)" x="222.152" y="1541.47">0</text>
</g>
<g clip-path="url(#clip1400)">
<text style="fill:#000000; fill-opacity:1; font-family:Arial,Helvetica Neue,Helvetica,sans-serif; font-size:48px; text-anchor:middle;" transform="rotate(0, 754.803, 1541.47)" x="754.803" y="1541.47">50</text>
</g>
<g clip-path="url(#clip1400)">
<text style="fill:#000000; fill-opacity:1; font-family:Arial,Helvetica Neue,Helvetica,sans-serif; font-size:48px; text-anchor:middle;" transform="rotate(0, 1287.45, 1541.47)" x="1287.45" y="1541.47">100</text>
</g>
<g clip-path="url(#clip1400)">
<text style="fill:#000000; fill-opacity:1; font-family:Arial,Helvetica Neue,Helvetica,sans-serif; font-size:48px; text-anchor:middle;" transform="rotate(0, 1820.1, 1541.47)" x="1820.1" y="1541.47">150</text>
</g>
<g clip-path="url(#clip1400)">
<text style="fill:#000000; fill-opacity:1; font-family:Arial,Helvetica Neue,Helvetica,sans-serif; font-size:48px; text-anchor:middle;" transform="rotate(0, 2352.76, 1541.47)" x="2352.76" y="1541.47">200</text>
</g>
<g clip-path="url(#clip1400)">
<text style="fill:#000000; fill-opacity:1; font-family:Arial,Helvetica Neue,Helvetica,sans-serif; font-size:48px; text-anchor:end;" transform="rotate(0, 198.152, 1363.93)" x="198.152" y="1363.93">-1000</text>
</g>
<g clip-path="url(#clip1400)">
<text style="fill:#000000; fill-opacity:1; font-family:Arial,Helvetica Neue,Helvetica,sans-serif; font-size:48px; text-anchor:end;" transform="rotate(0, 198.152, 1096.39)" x="198.152" y="1096.39">0</text>
</g>
<g clip-path="url(#clip1400)">
<text style="fill:#000000; fill-opacity:1; font-family:Arial,Helvetica Neue,Helvetica,sans-serif; font-size:48px; text-anchor:end;" transform="rotate(0, 198.152, 828.858)" x="198.152" y="828.858">1000</text>
</g>
<g clip-path="url(#clip1400)">
<text style="fill:#000000; fill-opacity:1; font-family:Arial,Helvetica Neue,Helvetica,sans-serif; font-size:48px; text-anchor:end;" transform="rotate(0, 198.152, 561.321)" x="198.152" y="561.321">2000</text>
</g>
<g clip-path="url(#clip1400)">
<text style="fill:#000000; fill-opacity:1; font-family:Arial,Helvetica Neue,Helvetica,sans-serif; font-size:48px; text-anchor:end;" transform="rotate(0, 198.152, 293.785)" x="198.152" y="293.785">3000</text>
</g>
<polyline clip-path="url(#clip1402)" style="stroke:#000000; stroke-width:4; stroke-opacity:1; fill:none" points="
  232.805,989.425 243.458,992.696 254.111,996.464 264.764,998.034 275.417,999.578 286.07,1002.93 296.723,1007.47 307.376,1010.5 318.029,1013.27 328.682,1015.74 
  339.335,1017.48 349.988,1016.51 360.641,1012.44 371.294,1009.72 381.947,1010.29 392.6,1009.43 403.253,1008.45 413.906,1007.36 424.559,1006.13 435.212,1004.8 
  445.865,1003.34 456.518,1001.92 467.171,1001.78 477.824,1004.18 488.477,1007.4 499.13,1010.08 509.783,1013.06 520.436,1016.43 531.089,1020.37 541.742,1024.93 
  552.395,1030.02 563.048,1034.42 573.701,1037.17 584.354,1038.48 595.007,1037.85 605.66,1035.36 616.313,1030.94 626.966,1026.02 637.619,1021.87 648.272,1016.57 
  658.925,1011.66 669.578,1006.23 680.232,1002.79 690.885,1001.24 701.538,1000.93 712.191,1000.12 722.844,998.529 733.497,995.512 744.15,993.307 754.803,992.074 
  765.456,992.507 776.109,992.148 786.762,991.818 797.415,991.472 808.068,991.127 818.721,991.155 829.374,990.207 840.027,986.32 850.68,983.507 861.333,981.713 
  871.986,981.784 882.639,983.197 893.292,985.851 903.945,985.104 914.598,981.841 925.251,979.546 935.904,976.77 946.557,973.767 957.21,971.435 967.863,970.833 
  978.516,969.973 989.169,971.421 999.822,971.246 1010.48,970.639 1021.13,969.486 1031.78,967.989 1042.43,965.773 1053.09,963.267 1063.74,961.942 1074.39,962.014 
  1085.05,960.293 1095.7,957.873 1106.35,954.385 1117.01,950.005 1127.66,944.842 1138.31,941.295 1148.96,940.684 1159.62,938.133 1170.27,934.922 1180.92,934.539 
  1191.58,930.377 1202.23,924.392 1212.88,917.512 1223.54,913.047 1234.19,910.382 1244.84,905.071 1255.49,902.718 1266.15,899.557 1276.8,891.803 1287.45,883.263 
  1298.11,874.724 1308.76,862.829 1319.41,857.261 1330.07,858.503 1340.72,859.642 1351.37,860.153 1362.02,861.978 1372.68,860.202 1383.33,860.929 1393.98,856.555 
  1404.64,851.739 1415.29,852.163 1425.94,856.242 1436.6,856.757 1447.25,857.11 1457.9,860.154 1468.56,859.83 1479.21,858.001 1489.86,854.589 1500.51,849.778 
  1511.17,845.855 1521.82,845.713 1532.47,842.391 1543.13,838.808 1553.78,834.982 1564.43,826.719 1575.09,817.64 1585.74,806.779 1596.39,791.791 1607.04,776.993 
  1617.7,771.994 1628.35,765.989 1639,755.306 1649.66,745.191 1660.31,734.1 1670.96,714.292 1681.62,691.947 1692.27,664.863 1702.92,638.161 1713.57,605.734 
  1724.23,565.084 1734.88,514.541 1745.53,455.138 1756.19,416.926 1766.84,378.368 1777.49,338.924 1788.15,300.592 1798.8,265.329 1809.45,230.566 1820.1,197.231 
  1830.76,168.065 1841.41,145.189 1852.06,123.001 1862.72,104.399 1873.37,90.7035 1884.02,88.0053 1894.68,92.6261 1905.33,98.5087 1915.98,105.757 1926.64,117.195 
  1937.29,132.154 1947.94,149.361 1958.59,165.793 1969.25,173.998 1979.9,187.59 1990.55,199.807 2001.21,207.345 2011.86,218.253 2022.51,226.948 2033.17,230.917 
  2043.82,238.727 2054.47,244.353 2065.12,247.378 2075.78,259.297 2086.43,265.52 2097.08,271.794 2107.74,295.4 2118.39,580.855 2129.04,1446.71 
  "/>
<path clip-path="url(#clip1400)" d="
M294.152 251.724 L828.489 251.724 L828.489 130.764 L294.152 130.764  Z
  " fill="#ffffff" fill-rule="evenodd" fill-opacity="1"/>
<polyline clip-path="url(#clip1400)" style="stroke:#000000; stroke-width:4; stroke-opacity:1; fill:none" points="
  294.152,251.724 828.489,251.724 828.489,130.764 294.152,130.764 294.152,251.724 
  "/>
<polyline clip-path="url(#clip1400)" style="stroke:#000000; stroke-width:4; stroke-opacity:1; fill:none" points="
  318.152,191.244 462.152,191.244 
  "/>
<g clip-path="url(#clip1400)">
<text style="fill:#000000; fill-opacity:1; font-family:Arial,Helvetica Neue,Helvetica,sans-serif; font-size:48px; text-anchor:start;" transform="rotate(0, 486.152, 208.744)" x="486.152" y="208.744">Iteration #350</text>
</g>
</svg>
