<?xml version="1.0" encoding="utf-8"?>
<svg xmlns="http://www.w3.org/2000/svg" xmlns:xlink="http://www.w3.org/1999/xlink" width="600" height="400" viewBox="0 0 2400 1600">
<defs>
  <clipPath id="clip6600">
    <rect x="0" y="0" width="2400" height="1600"/>
  </clipPath>
</defs>
<path clip-path="url(#clip6600)" d="
M0 1600 L2400 1600 L2400 0 L0 0  Z
  " fill="#ffffff" fill-rule="evenodd" fill-opacity="1"/>
<defs>
  <clipPath id="clip6601">
    <rect x="480" y="0" width="1681" height="1600"/>
  </clipPath>
</defs>
<path clip-path="url(#clip6600)" d="
M222.152 1487.47 L2352.76 1487.47 L2352.76 47.2441 L222.152 47.2441  Z
  " fill="#ffffff" fill-rule="evenodd" fill-opacity="1"/>
<defs>
  <clipPath id="clip6602">
    <rect x="222" y="47" width="2132" height="1441"/>
  </clipPath>
</defs>
<polyline clip-path="url(#clip6600)" style="stroke:#000000; stroke-width:4; stroke-opacity:1; fill:none" points="
  222.152,1487.47 2352.76,1487.47 
  "/>
<polyline clip-path="url(#clip6600)" style="stroke:#000000; stroke-width:4; stroke-opacity:1; fill:none" points="
  222.152,1487.47 222.152,47.2441 
  "/>
<polyline clip-path="url(#clip6600)" style="stroke:#000000; stroke-width:4; stroke-opacity:1; fill:none" points="
  222.152,1487.47 222.152,1470.19 
  "/>
<polyline clip-path="url(#clip6600)" style="stroke:#000000; stroke-width:4; stroke-opacity:1; fill:none" points="
  754.803,1487.47 754.803,1470.19 
  "/>
<polyline clip-path="url(#clip6600)" style="stroke:#000000; stroke-width:4; stroke-opacity:1; fill:none" points="
  1287.45,1487.47 1287.45,1470.19 
  "/>
<polyline clip-path="url(#clip6600)" style="stroke:#000000; stroke-width:4; stroke-opacity:1; fill:none" points="
  1820.1,1487.47 1820.1,1470.19 
  "/>
<polyline clip-path="url(#clip6600)" style="stroke:#000000; stroke-width:4; stroke-opacity:1; fill:none" points="
  2352.76,1487.47 2352.76,1470.19 
  "/>
<polyline clip-path="url(#clip6600)" style="stroke:#000000; stroke-width:4; stroke-opacity:1; fill:none" points="
  222.152,1396.43 247.719,1396.43 
  "/>
<polyline clip-path="url(#clip6600)" style="stroke:#000000; stroke-width:4; stroke-opacity:1; fill:none" points="
  222.152,1091.65 247.719,1091.65 
  "/>
<polyline clip-path="url(#clip6600)" style="stroke:#000000; stroke-width:4; stroke-opacity:1; fill:none" points="
  222.152,786.881 247.719,786.881 
  "/>
<polyline clip-path="url(#clip6600)" style="stroke:#000000; stroke-width:4; stroke-opacity:1; fill:none" points="
  222.152,482.107 247.719,482.107 
  "/>
<polyline clip-path="url(#clip6600)" style="stroke:#000000; stroke-width:4; stroke-opacity:1; fill:none" points="
  222.152,177.334 247.719,177.334 
  "/>
<g clip-path="url(#clip6600)">
<text style="fill:#000000; fill-opacity:1; font-family:Arial,Helvetica Neue,Helvetica,sans-serif; font-size:48px; text-anchor:middle;" transform="rotate(0, 222.152, 1541.47)" x="222.152" y="1541.47">0</text>
</g>
<g clip-path="url(#clip6600)">
<text style="fill:#000000; fill-opacity:1; font-family:Arial,Helvetica Neue,Helvetica,sans-serif; font-size:48px; text-anchor:middle;" transform="rotate(0, 754.803, 1541.47)" x="754.803" y="1541.47">50</text>
</g>
<g clip-path="url(#clip6600)">
<text style="fill:#000000; fill-opacity:1; font-family:Arial,Helvetica Neue,Helvetica,sans-serif; font-size:48px; text-anchor:middle;" transform="rotate(0, 1287.45, 1541.47)" x="1287.45" y="1541.47">100</text>
</g>
<g clip-path="url(#clip6600)">
<text style="fill:#000000; fill-opacity:1; font-family:Arial,Helvetica Neue,Helvetica,sans-serif; font-size:48px; text-anchor:middle;" transform="rotate(0, 1820.1, 1541.47)" x="1820.1" y="1541.47">150</text>
</g>
<g clip-path="url(#clip6600)">
<text style="fill:#000000; fill-opacity:1; font-family:Arial,Helvetica Neue,Helvetica,sans-serif; font-size:48px; text-anchor:middle;" transform="rotate(0, 2352.76, 1541.47)" x="2352.76" y="1541.47">200</text>
</g>
<g clip-path="url(#clip6600)">
<text style="fill:#000000; fill-opacity:1; font-family:Arial,Helvetica Neue,Helvetica,sans-serif; font-size:48px; text-anchor:end;" transform="rotate(0, 198.152, 1413.93)" x="198.152" y="1413.93">-1000</text>
</g>
<g clip-path="url(#clip6600)">
<text style="fill:#000000; fill-opacity:1; font-family:Arial,Helvetica Neue,Helvetica,sans-serif; font-size:48px; text-anchor:end;" transform="rotate(0, 198.152, 1109.15)" x="198.152" y="1109.15">0</text>
</g>
<g clip-path="url(#clip6600)">
<text style="fill:#000000; fill-opacity:1; font-family:Arial,Helvetica Neue,Helvetica,sans-serif; font-size:48px; text-anchor:end;" transform="rotate(0, 198.152, 804.381)" x="198.152" y="804.381">1000</text>
</g>
<g clip-path="url(#clip6600)">
<text style="fill:#000000; fill-opacity:1; font-family:Arial,Helvetica Neue,Helvetica,sans-serif; font-size:48px; text-anchor:end;" transform="rotate(0, 198.152, 499.607)" x="198.152" y="499.607">2000</text>
</g>
<g clip-path="url(#clip6600)">
<text style="fill:#000000; fill-opacity:1; font-family:Arial,Helvetica Neue,Helvetica,sans-serif; font-size:48px; text-anchor:end;" transform="rotate(0, 198.152, 194.834)" x="198.152" y="194.834">3000</text>
</g>
<polyline clip-path="url(#clip6602)" style="stroke:#000000; stroke-width:4; stroke-opacity:1; fill:none" points="
  232.805,993.383 243.458,996.01 254.111,999.109 264.764,1000.58 275.417,1002.09 286.07,1005 296.723,1008.83 307.376,1011.5 318.029,1013.97 328.682,1016.15 
  339.335,1017.73 349.988,1017.2 360.641,1014.28 371.294,1012.35 381.947,1012.92 392.6,1012.39 403.253,1011.77 413.906,1011.07 424.559,1010.3 435.212,1009.46 
  445.865,1008.56 456.518,1007.75 467.171,1007.96 477.824,1010.17 488.477,1013.03 499.13,1015.53 509.783,1018.29 520.436,1021.34 531.089,1024.82 541.742,1028.73 
  552.395,1032.99 563.048,1036.64 573.701,1038.92 584.354,1039.97 595.007,1039.41 605.66,1037.27 616.313,1033.55 626.966,1029.31 637.619,1025.55 648.272,1020.84 
  658.925,1016.36 669.578,1011.47 680.232,1008.06 690.885,1006.12 701.538,1005.12 712.191,1003.76 722.844,1001.82 733.497,998.813 744.15,996.464 754.803,994.873 
  765.456,994.607 776.109,993.754 786.762,992.967 797.415,992.18 808.068,991.415 818.721,990.941 829.374,989.726 840.027,986.289 850.68,983.677 861.333,981.87 
  871.986,981.513 882.639,982.222 893.292,983.846 903.945,982.904 914.598,979.985 925.251,977.81 935.904,975.221 946.557,972.525 957.21,970.272 967.863,969.417 
  978.516,968.35 989.169,969.054 999.822,968.511 1010.48,967.614 1021.13,966.234 1031.78,964.587 1042.43,962.301 1053.09,959.765 1063.74,958.073 1074.39,957.393 
  1085.05,955.251 1095.7,952.525 1106.35,948.854 1117.01,944.462 1127.66,939.399 1138.31,935.505 1148.96,933.835 1159.62,930.631 1170.27,926.84 1180.92,925.184 
  1191.58,920.544 1202.23,914.432 1212.88,907.635 1223.54,902.607 1234.19,898.976 1244.84,893.338 1255.49,889.909 1266.15,885.914 1276.8,878.404 1287.45,870.3 
  1298.11,862.333 1308.76,851.895 1319.41,846.463 1330.07,846.478 1340.72,846.531 1351.37,846.282 1362.02,847.146 1372.68,845.267 1383.33,845.403 1393.98,841.647 
  1404.64,837.528 1415.29,837.513 1425.94,840.213 1436.6,840.144 1447.25,839.903 1457.9,841.508 1468.56,840.375 1479.21,837.895 1489.86,833.867 1500.51,828.584 
  1511.17,823.687 1521.82,821.308 1532.47,816.274 1543.13,810.594 1553.78,804.341 1564.43,794.379 1575.09,783.285 1585.74,770.486 1596.39,754.184 1607.04,737.617 
  1617.7,728.173 1628.35,717.604 1639,703.027 1649.66,688.562 1660.31,672.885 1670.96,650.195 1681.62,625.221 1692.27,596.221 1702.92,567.023 1713.57,533.074 
  1724.23,492.175 1734.88,442.803 1745.53,384.174 1756.19,351.177 1766.84,319.115 1777.49,287.144 1788.15,256.263 1798.8,228.144 1809.45,200.768 1820.1,174.38 
  1830.76,151.617 1841.41,133.612 1852.06,115.867 1862.72,101.505 1873.37,90.4707 1884.02,88.0053 1894.68,91.5087 1905.33,95.8758 1915.98,101.227 1926.64,110.509 
  1937.29,122.132 1947.94,135.448 1958.59,148.975 1969.25,155.557 1979.9,166.372 1990.55,176.787 2001.21,182.735 2011.86,191.901 2022.51,199.552 2033.17,202.597 
  2043.82,209.412 2054.47,214.681 2065.12,217.282 2075.78,227.319 2086.43,233.088 2097.08,238.083 2107.74,259.107 2118.39,548.86 2129.04,1446.71 
  "/>
<path clip-path="url(#clip6600)" d="
M294.152 251.724 L828.489 251.724 L828.489 130.764 L294.152 130.764  Z
  " fill="#ffffff" fill-rule="evenodd" fill-opacity="1"/>
<polyline clip-path="url(#clip6600)" style="stroke:#000000; stroke-width:4; stroke-opacity:1; fill:none" points="
  294.152,251.724 828.489,251.724 828.489,130.764 294.152,130.764 294.152,251.724 
  "/>
<polyline clip-path="url(#clip6600)" style="stroke:#000000; stroke-width:4; stroke-opacity:1; fill:none" points="
  318.152,191.244 462.152,191.244 
  "/>
<g clip-path="url(#clip6600)">
<text style="fill:#000000; fill-opacity:1; font-family:Arial,Helvetica Neue,Helvetica,sans-serif; font-size:48px; text-anchor:start;" transform="rotate(0, 486.152, 208.744)" x="486.152" y="208.744">Iteration #270</text>
</g>
</svg>
