<?xml version="1.0" encoding="utf-8"?>
<svg xmlns="http://www.w3.org/2000/svg" xmlns:xlink="http://www.w3.org/1999/xlink" width="600" height="400" viewBox="0 0 2400 1600">
<defs>
  <clipPath id="clip7000">
    <rect x="0" y="0" width="2400" height="1600"/>
  </clipPath>
</defs>
<path clip-path="url(#clip7000)" d="
M0 1600 L2400 1600 L2400 0 L0 0  Z
  " fill="#ffffff" fill-rule="evenodd" fill-opacity="1"/>
<defs>
  <clipPath id="clip7001">
    <rect x="480" y="0" width="1681" height="1600"/>
  </clipPath>
</defs>
<path clip-path="url(#clip7000)" d="
M195.389 1487.47 L2352.76 1487.47 L2352.76 47.2441 L195.389 47.2441  Z
  " fill="#ffffff" fill-rule="evenodd" fill-opacity="1"/>
<defs>
  <clipPath id="clip7002">
    <rect x="195" y="47" width="2158" height="1441"/>
  </clipPath>
</defs>
<polyline clip-path="url(#clip7000)" style="stroke:#000000; stroke-width:4; stroke-opacity:1; fill:none" points="
  195.389,1487.47 2352.76,1487.47 
  "/>
<polyline clip-path="url(#clip7000)" style="stroke:#000000; stroke-width:4; stroke-opacity:1; fill:none" points="
  195.389,1487.47 195.389,47.2441 
  "/>
<polyline clip-path="url(#clip7000)" style="stroke:#000000; stroke-width:4; stroke-opacity:1; fill:none" points="
  195.389,1487.47 195.389,1470.19 
  "/>
<polyline clip-path="url(#clip7000)" style="stroke:#000000; stroke-width:4; stroke-opacity:1; fill:none" points="
  734.731,1487.47 734.731,1470.19 
  "/>
<polyline clip-path="url(#clip7000)" style="stroke:#000000; stroke-width:4; stroke-opacity:1; fill:none" points="
  1274.07,1487.47 1274.07,1470.19 
  "/>
<polyline clip-path="url(#clip7000)" style="stroke:#000000; stroke-width:4; stroke-opacity:1; fill:none" points="
  1813.41,1487.47 1813.41,1470.19 
  "/>
<polyline clip-path="url(#clip7000)" style="stroke:#000000; stroke-width:4; stroke-opacity:1; fill:none" points="
  2352.76,1487.47 2352.76,1470.19 
  "/>
<polyline clip-path="url(#clip7000)" style="stroke:#000000; stroke-width:4; stroke-opacity:1; fill:none" points="
  195.389,1416.97 221.278,1416.97 
  "/>
<polyline clip-path="url(#clip7000)" style="stroke:#000000; stroke-width:4; stroke-opacity:1; fill:none" points="
  195.389,1179.94 221.278,1179.94 
  "/>
<polyline clip-path="url(#clip7000)" style="stroke:#000000; stroke-width:4; stroke-opacity:1; fill:none" points="
  195.389,942.919 221.278,942.919 
  "/>
<polyline clip-path="url(#clip7000)" style="stroke:#000000; stroke-width:4; stroke-opacity:1; fill:none" points="
  195.389,705.896 221.278,705.896 
  "/>
<polyline clip-path="url(#clip7000)" style="stroke:#000000; stroke-width:4; stroke-opacity:1; fill:none" points="
  195.389,468.872 221.278,468.872 
  "/>
<polyline clip-path="url(#clip7000)" style="stroke:#000000; stroke-width:4; stroke-opacity:1; fill:none" points="
  195.389,231.849 221.278,231.849 
  "/>
<g clip-path="url(#clip7000)">
<text style="fill:#000000; fill-opacity:1; font-family:Arial,Helvetica Neue,Helvetica,sans-serif; font-size:48px; text-anchor:middle;" transform="rotate(0, 195.389, 1541.47)" x="195.389" y="1541.47">0</text>
</g>
<g clip-path="url(#clip7000)">
<text style="fill:#000000; fill-opacity:1; font-family:Arial,Helvetica Neue,Helvetica,sans-serif; font-size:48px; text-anchor:middle;" transform="rotate(0, 734.731, 1541.47)" x="734.731" y="1541.47">50</text>
</g>
<g clip-path="url(#clip7000)">
<text style="fill:#000000; fill-opacity:1; font-family:Arial,Helvetica Neue,Helvetica,sans-serif; font-size:48px; text-anchor:middle;" transform="rotate(0, 1274.07, 1541.47)" x="1274.07" y="1541.47">100</text>
</g>
<g clip-path="url(#clip7000)">
<text style="fill:#000000; fill-opacity:1; font-family:Arial,Helvetica Neue,Helvetica,sans-serif; font-size:48px; text-anchor:middle;" transform="rotate(0, 1813.41, 1541.47)" x="1813.41" y="1541.47">150</text>
</g>
<g clip-path="url(#clip7000)">
<text style="fill:#000000; fill-opacity:1; font-family:Arial,Helvetica Neue,Helvetica,sans-serif; font-size:48px; text-anchor:middle;" transform="rotate(0, 2352.76, 1541.47)" x="2352.76" y="1541.47">200</text>
</g>
<g clip-path="url(#clip7000)">
<text style="fill:#000000; fill-opacity:1; font-family:Arial,Helvetica Neue,Helvetica,sans-serif; font-size:48px; text-anchor:end;" transform="rotate(0, 171.389, 1434.47)" x="171.389" y="1434.47">-500</text>
</g>
<g clip-path="url(#clip7000)">
<text style="fill:#000000; fill-opacity:1; font-family:Arial,Helvetica Neue,Helvetica,sans-serif; font-size:48px; text-anchor:end;" transform="rotate(0, 171.389, 1197.44)" x="171.389" y="1197.44">0</text>
</g>
<g clip-path="url(#clip7000)">
<text style="fill:#000000; fill-opacity:1; font-family:Arial,Helvetica Neue,Helvetica,sans-serif; font-size:48px; text-anchor:end;" transform="rotate(0, 171.389, 960.419)" x="171.389" y="960.419">500</text>
</g>
<g clip-path="url(#clip7000)">
<text style="fill:#000000; fill-opacity:1; font-family:Arial,Helvetica Neue,Helvetica,sans-serif; font-size:48px; text-anchor:end;" transform="rotate(0, 171.389, 723.396)" x="171.389" y="723.396">1000</text>
</g>
<g clip-path="url(#clip7000)">
<text style="fill:#000000; fill-opacity:1; font-family:Arial,Helvetica Neue,Helvetica,sans-serif; font-size:48px; text-anchor:end;" transform="rotate(0, 171.389, 486.372)" x="171.389" y="486.372">1500</text>
</g>
<g clip-path="url(#clip7000)">
<text style="fill:#000000; fill-opacity:1; font-family:Arial,Helvetica Neue,Helvetica,sans-serif; font-size:48px; text-anchor:end;" transform="rotate(0, 171.389, 249.349)" x="171.389" y="249.349">2000</text>
</g>
<polyline clip-path="url(#clip7002)" style="stroke:#000000; stroke-width:4; stroke-opacity:1; fill:none" points="
  206.176,1043.57 216.963,1044.67 227.75,1046.05 238.537,1046.87 249.323,1047.81 260.11,1049.28 270.897,1051.13 281.684,1052.55 292.471,1053.98 303.258,1055.22 
  314.044,1056.28 324.831,1056.53 335.618,1055.93 346.405,1055.63 357.192,1056.27 367.979,1056.52 378.765,1056.72 389.552,1056.92 400.339,1057.09 411.126,1057.24 
  421.913,1057.39 432.7,1057.59 443.486,1058.17 454.273,1059.5 465.06,1061.06 475.847,1062.5 486.634,1064.01 497.421,1065.57 508.207,1067.29 518.994,1069.05 
  529.781,1070.88 540.568,1072.38 551.355,1073.25 562.142,1073.52 572.928,1073.11 583.715,1071.93 594.502,1070.05 605.289,1067.83 616.076,1065.66 626.863,1063.02 
  637.649,1060.36 648.436,1057.48 659.223,1055 670.01,1053.07 680.797,1051.38 691.584,1049.52 702.37,1047.43 713.157,1044.85 723.944,1042.55 734.731,1040.41 
  745.518,1038.83 756.305,1036.93 767.091,1035.09 777.878,1033.21 788.665,1031.31 799.452,1029.5 810.239,1027.39 821.026,1024.45 831.812,1021.8 842.599,1019.41 
  853.386,1017.54 864.173,1016.14 874.96,1014.9 885.747,1012.84 896.533,1009.91 907.32,1007.27 918.107,1004.36 928.894,1001.57 939.681,998.629 950.468,996.44 
  961.254,993.986 972.041,992.175 982.828,989.897 993.615,987.371 1004.4,984.532 1015.19,981.662 1025.98,978.25 1036.76,974.79 1047.55,971.465 1058.34,968.404 
  1069.12,964.659 1079.91,960.579 1090.7,955.887 1101.48,950.947 1112.27,945.471 1123.06,940.328 1133.84,935.95 1144.63,930.767 1155.42,925.245 1166.2,920.448 
  1176.99,914.274 1187.78,907.483 1198.56,900.295 1209.35,893.582 1220.14,887.434 1230.93,880.319 1241.71,873.969 1252.5,867.422 1263.29,859.346 1274.07,851.062 
  1284.86,842.875 1295.65,833.608 1306.43,826.393 1317.22,821.198 1328.01,815.964 1338.79,810.761 1349.58,805.829 1360.37,799.749 1371.15,794.517 1381.94,787.519 
  1392.73,780.334 1403.51,774.63 1414.3,769.553 1425.09,763.421 1435.88,756.944 1446.66,750.79 1457.45,743.409 1468.24,735.127 1479.02,725.827 1489.81,715.876 
  1500.6,705.509 1511.38,695.799 1522.17,684.73 1532.96,672.846 1543.74,660.458 1554.53,646.301 1565.32,631.131 1576.1,615.084 1586.89,597.255 1597.68,578.864 
  1608.46,562.776 1619.25,545.746 1630.04,526.735 1640.82,507.364 1651.61,486.741 1662.4,462.98 1673.19,437.429 1683.97,409.178 1694.76,379.761 1705.55,346.625 
  1716.33,308.073 1727.12,262.1 1737.91,202.536 1748.69,185.493 1759.48,171.844 1770.27,159.128 1781.05,147.57 1791.84,137.366 1802.63,127.351 1813.41,118.222 
  1824.2,110.34 1834.99,103.752 1845.77,97.7267 1856.56,92.8523 1867.35,88.6283 1878.14,88.0053 1888.92,88.765 1899.71,89.9555 1910.5,92.3097 1921.28,95.1198 
  1932.07,99.1148 1942.86,104.557 1953.64,108.711 1964.43,111.483 1975.22,116.313 1986,119.445 1996.79,122.435 2007.58,126.767 2018.36,128.677 2029.15,131.659 
  2039.94,134.609 2050.72,135.949 2061.51,138.714 2072.3,142.94 2083.09,144.719 2093.87,149.348 2104.66,156.928 2115.45,390.745 2126.23,1446.71 
  "/>
<path clip-path="url(#clip7000)" d="
M267.389 251.724 L801.727 251.724 L801.727 130.764 L267.389 130.764  Z
  " fill="#ffffff" fill-rule="evenodd" fill-opacity="1"/>
<polyline clip-path="url(#clip7000)" style="stroke:#000000; stroke-width:4; stroke-opacity:1; fill:none" points="
  267.389,251.724 801.727,251.724 801.727,130.764 267.389,130.764 267.389,251.724 
  "/>
<polyline clip-path="url(#clip7000)" style="stroke:#000000; stroke-width:4; stroke-opacity:1; fill:none" points="
  291.389,191.244 435.389,191.244 
  "/>
<g clip-path="url(#clip7000)">
<text style="fill:#000000; fill-opacity:1; font-family:Arial,Helvetica Neue,Helvetica,sans-serif; font-size:48px; text-anchor:start;" transform="rotate(0, 459.389, 208.744)" x="459.389" y="208.744">Iteration #110</text>
</g>
</svg>
