<?xml version="1.0" encoding="utf-8"?>
<svg xmlns="http://www.w3.org/2000/svg" xmlns:xlink="http://www.w3.org/1999/xlink" width="600" height="400" viewBox="0 0 2400 1600">
<defs>
  <clipPath id="clip2000">
    <rect x="0" y="0" width="2400" height="1600"/>
  </clipPath>
</defs>
<path clip-path="url(#clip2000)" d="
M0 1600 L2400 1600 L2400 0 L0 0  Z
  " fill="#ffffff" fill-rule="evenodd" fill-opacity="1"/>
<defs>
  <clipPath id="clip2001">
    <rect x="480" y="0" width="1681" height="1600"/>
  </clipPath>
</defs>
<path clip-path="url(#clip2000)" d="
M222.152 1487.47 L2352.76 1487.47 L2352.76 47.2441 L222.152 47.2441  Z
  " fill="#ffffff" fill-rule="evenodd" fill-opacity="1"/>
<defs>
  <clipPath id="clip2002">
    <rect x="222" y="47" width="2132" height="1441"/>
  </clipPath>
</defs>
<polyline clip-path="url(#clip2000)" style="stroke:#000000; stroke-width:4; stroke-opacity:1; fill:none" points="
  222.152,1487.47 2352.76,1487.47 
  "/>
<polyline clip-path="url(#clip2000)" style="stroke:#000000; stroke-width:4; stroke-opacity:1; fill:none" points="
  222.152,1487.47 222.152,47.2441 
  "/>
<polyline clip-path="url(#clip2000)" style="stroke:#000000; stroke-width:4; stroke-opacity:1; fill:none" points="
  222.152,1487.47 222.152,1470.19 
  "/>
<polyline clip-path="url(#clip2000)" style="stroke:#000000; stroke-width:4; stroke-opacity:1; fill:none" points="
  754.803,1487.47 754.803,1470.19 
  "/>
<polyline clip-path="url(#clip2000)" style="stroke:#000000; stroke-width:4; stroke-opacity:1; fill:none" points="
  1287.45,1487.47 1287.45,1470.19 
  "/>
<polyline clip-path="url(#clip2000)" style="stroke:#000000; stroke-width:4; stroke-opacity:1; fill:none" points="
  1820.1,1487.47 1820.1,1470.19 
  "/>
<polyline clip-path="url(#clip2000)" style="stroke:#000000; stroke-width:4; stroke-opacity:1; fill:none" points="
  2352.76,1487.47 2352.76,1470.19 
  "/>
<polyline clip-path="url(#clip2000)" style="stroke:#000000; stroke-width:4; stroke-opacity:1; fill:none" points="
  222.152,1341.65 247.719,1341.65 
  "/>
<polyline clip-path="url(#clip2000)" style="stroke:#000000; stroke-width:4; stroke-opacity:1; fill:none" points="
  222.152,1077.86 247.719,1077.86 
  "/>
<polyline clip-path="url(#clip2000)" style="stroke:#000000; stroke-width:4; stroke-opacity:1; fill:none" points="
  222.152,814.059 247.719,814.059 
  "/>
<polyline clip-path="url(#clip2000)" style="stroke:#000000; stroke-width:4; stroke-opacity:1; fill:none" points="
  222.152,550.262 247.719,550.262 
  "/>
<polyline clip-path="url(#clip2000)" style="stroke:#000000; stroke-width:4; stroke-opacity:1; fill:none" points="
  222.152,286.465 247.719,286.465 
  "/>
<g clip-path="url(#clip2000)">
<text style="fill:#000000; fill-opacity:1; font-family:Arial,Helvetica Neue,Helvetica,sans-serif; font-size:48px; text-anchor:middle;" transform="rotate(0, 222.152, 1541.47)" x="222.152" y="1541.47">0</text>
</g>
<g clip-path="url(#clip2000)">
<text style="fill:#000000; fill-opacity:1; font-family:Arial,Helvetica Neue,Helvetica,sans-serif; font-size:48px; text-anchor:middle;" transform="rotate(0, 754.803, 1541.47)" x="754.803" y="1541.47">50</text>
</g>
<g clip-path="url(#clip2000)">
<text style="fill:#000000; fill-opacity:1; font-family:Arial,Helvetica Neue,Helvetica,sans-serif; font-size:48px; text-anchor:middle;" transform="rotate(0, 1287.45, 1541.47)" x="1287.45" y="1541.47">100</text>
</g>
<g clip-path="url(#clip2000)">
<text style="fill:#000000; fill-opacity:1; font-family:Arial,Helvetica Neue,Helvetica,sans-serif; font-size:48px; text-anchor:middle;" transform="rotate(0, 1820.1, 1541.47)" x="1820.1" y="1541.47">150</text>
</g>
<g clip-path="url(#clip2000)">
<text style="fill:#000000; fill-opacity:1; font-family:Arial,Helvetica Neue,Helvetica,sans-serif; font-size:48px; text-anchor:middle;" transform="rotate(0, 2352.76, 1541.47)" x="2352.76" y="1541.47">200</text>
</g>
<g clip-path="url(#clip2000)">
<text style="fill:#000000; fill-opacity:1; font-family:Arial,Helvetica Neue,Helvetica,sans-serif; font-size:48px; text-anchor:end;" transform="rotate(0, 198.152, 1359.15)" x="198.152" y="1359.15">-1000</text>
</g>
<g clip-path="url(#clip2000)">
<text style="fill:#000000; fill-opacity:1; font-family:Arial,Helvetica Neue,Helvetica,sans-serif; font-size:48px; text-anchor:end;" transform="rotate(0, 198.152, 1095.36)" x="198.152" y="1095.36">0</text>
</g>
<g clip-path="url(#clip2000)">
<text style="fill:#000000; fill-opacity:1; font-family:Arial,Helvetica Neue,Helvetica,sans-serif; font-size:48px; text-anchor:end;" transform="rotate(0, 198.152, 831.559)" x="198.152" y="831.559">1000</text>
</g>
<g clip-path="url(#clip2000)">
<text style="fill:#000000; fill-opacity:1; font-family:Arial,Helvetica Neue,Helvetica,sans-serif; font-size:48px; text-anchor:end;" transform="rotate(0, 198.152, 567.762)" x="198.152" y="567.762">2000</text>
</g>
<g clip-path="url(#clip2000)">
<text style="fill:#000000; fill-opacity:1; font-family:Arial,Helvetica Neue,Helvetica,sans-serif; font-size:48px; text-anchor:end;" transform="rotate(0, 198.152, 303.965)" x="198.152" y="303.965">3000</text>
</g>
<polyline clip-path="url(#clip2002)" style="stroke:#000000; stroke-width:4; stroke-opacity:1; fill:none" points="
  232.805,989.259 243.458,992.607 254.111,996.452 264.764,998.027 275.417,999.566 286.07,1002.97 296.723,1007.59 307.376,1010.66 318.029,1013.46 328.682,1015.97 
  339.335,1017.72 349.988,1016.71 360.641,1012.5 371.294,1009.69 381.947,1010.27 392.6,1009.38 403.253,1008.36 413.906,1007.23 424.559,1005.96 435.212,1004.57 
  445.865,1003.05 456.518,1001.56 467.171,1001.37 477.824,1003.8 488.477,1007.05 499.13,1009.75 509.783,1012.75 520.436,1016.15 531.089,1020.13 541.742,1024.76 
  552.395,1029.94 563.048,1034.42 573.701,1037.22 584.354,1038.56 595.007,1037.92 605.66,1035.38 616.313,1030.89 626.966,1025.89 637.619,1021.71 648.272,1016.35 
  658.925,1011.39 669.578,1005.91 680.232,1002.47 690.885,1000.98 701.538,1000.76 712.191,1000.03 722.844,998.473 733.497,995.454 744.15,993.262 754.803,992.068 
  765.456,992.581 776.109,992.273 786.762,991.99 797.415,991.689 808.068,991.385 818.721,991.464 829.374,990.54 840.027,986.588 850.68,983.74 861.333,981.938 
  871.986,982.052 882.639,983.542 893.292,986.314 903.945,985.584 914.598,982.269 925.251,979.954 935.904,977.15 946.557,974.103 957.21,971.756 967.863,971.179 
  978.516,970.335 989.169,971.869 999.822,971.729 1010.48,971.149 1021.13,970.015 1031.78,968.527 1042.43,966.312 1053.09,963.802 1063.74,962.513 1074.39,962.672 
  1085.05,960.995 1095.7,958.605 1106.35,955.135 1117.01,950.75 1127.66,945.57 1138.31,942.061 1148.96,941.572 1159.62,939.098 1170.27,935.953 1180.92,935.722 
  1191.58,931.619 1202.23,925.648 1212.88,918.758 1223.54,914.368 1234.19,911.824 1244.84,906.559 1255.49,904.348 1266.15,901.295 1276.8,893.524 1287.45,884.941 
  1298.11,876.339 1308.76,864.272 1319.41,858.685 1330.07,860.076 1340.72,861.342 1351.37,861.925 1362.02,863.851 1372.68,862.066 1383.33,862.834 1393.98,858.357 
  1404.64,853.418 1415.29,853.853 1425.94,858.064 1436.6,858.598 1447.25,858.97 1457.9,862.141 1468.56,861.852 1479.21,860.045 1489.86,856.651 1500.51,851.826 
  1511.17,847.964 1521.82,848.036 1532.47,844.854 1543.13,841.474 1553.78,837.888 1564.43,829.778 1575.09,820.906 1585.74,810.238 1596.39,795.378 1607.04,780.775 
  1617.7,776.298 1628.35,770.856 1639,760.658 1649.66,751.093 1660.31,740.613 1670.96,721.206 1681.62,699.248 1692.27,672.483 1702.92,646.177 1713.57,614.027 
  1724.23,573.498 1734.88,522.872 1745.53,463.415 1756.19,424.661 1766.84,385.38 1777.49,345.093 1788.15,305.901 1798.8,269.79 1809.45,234.162 1820.1,199.99 
  1830.76,170.034 1841.41,146.602 1852.06,123.867 1862.72,104.725 1873.37,90.7368 1884.02,88.0053 1894.68,92.7381 1905.33,98.8465 1915.98,106.298 1926.64,117.958 
  1937.29,133.378 1947.94,151 1958.59,167.753 1969.25,176.22 1979.9,190.05 1990.55,202.462 2001.21,210.27 2011.86,221.278 2022.51,230.08 2033.17,234.25 
  2043.82,242.078 2054.47,247.736 2065.12,250.93 2075.78,262.892 2086.43,269.225 2097.08,275.719 2107.74,299.445 2118.39,585.575 2129.04,1446.71 
  "/>
<path clip-path="url(#clip2000)" d="
M294.152 251.724 L828.489 251.724 L828.489 130.764 L294.152 130.764  Z
  " fill="#ffffff" fill-rule="evenodd" fill-opacity="1"/>
<polyline clip-path="url(#clip2000)" style="stroke:#000000; stroke-width:4; stroke-opacity:1; fill:none" points="
  294.152,251.724 828.489,251.724 828.489,130.764 294.152,130.764 294.152,251.724 
  "/>
<polyline clip-path="url(#clip2000)" style="stroke:#000000; stroke-width:4; stroke-opacity:1; fill:none" points="
  318.152,191.244 462.152,191.244 
  "/>
<g clip-path="url(#clip2000)">
<text style="fill:#000000; fill-opacity:1; font-family:Arial,Helvetica Neue,Helvetica,sans-serif; font-size:48px; text-anchor:start;" transform="rotate(0, 486.152, 208.744)" x="486.152" y="208.744">Iteration #360</text>
</g>
</svg>
