<?xml version="1.0" encoding="utf-8"?>
<svg xmlns="http://www.w3.org/2000/svg" xmlns:xlink="http://www.w3.org/1999/xlink" width="600" height="400" viewBox="0 0 2400 1600">
<defs>
  <clipPath id="clip4200">
    <rect x="0" y="0" width="2400" height="1600"/>
  </clipPath>
</defs>
<path clip-path="url(#clip4200)" d="
M0 1600 L2400 1600 L2400 0 L0 0  Z
  " fill="#ffffff" fill-rule="evenodd" fill-opacity="1"/>
<defs>
  <clipPath id="clip4201">
    <rect x="480" y="0" width="1681" height="1600"/>
  </clipPath>
</defs>
<path clip-path="url(#clip4200)" d="
M222.152 1487.47 L2352.76 1487.47 L2352.76 47.2441 L222.152 47.2441  Z
  " fill="#ffffff" fill-rule="evenodd" fill-opacity="1"/>
<defs>
  <clipPath id="clip4202">
    <rect x="222" y="47" width="2132" height="1441"/>
  </clipPath>
</defs>
<polyline clip-path="url(#clip4200)" style="stroke:#000000; stroke-width:4; stroke-opacity:1; fill:none" points="
  222.152,1487.47 2352.76,1487.47 
  "/>
<polyline clip-path="url(#clip4200)" style="stroke:#000000; stroke-width:4; stroke-opacity:1; fill:none" points="
  222.152,1487.47 222.152,47.2441 
  "/>
<polyline clip-path="url(#clip4200)" style="stroke:#000000; stroke-width:4; stroke-opacity:1; fill:none" points="
  222.152,1487.47 222.152,1470.19 
  "/>
<polyline clip-path="url(#clip4200)" style="stroke:#000000; stroke-width:4; stroke-opacity:1; fill:none" points="
  754.803,1487.47 754.803,1470.19 
  "/>
<polyline clip-path="url(#clip4200)" style="stroke:#000000; stroke-width:4; stroke-opacity:1; fill:none" points="
  1287.45,1487.47 1287.45,1470.19 
  "/>
<polyline clip-path="url(#clip4200)" style="stroke:#000000; stroke-width:4; stroke-opacity:1; fill:none" points="
  1820.1,1487.47 1820.1,1470.19 
  "/>
<polyline clip-path="url(#clip4200)" style="stroke:#000000; stroke-width:4; stroke-opacity:1; fill:none" points="
  2352.76,1487.47 2352.76,1470.19 
  "/>
<polyline clip-path="url(#clip4200)" style="stroke:#000000; stroke-width:4; stroke-opacity:1; fill:none" points="
  222.152,1432.5 247.719,1432.5 
  "/>
<polyline clip-path="url(#clip4200)" style="stroke:#000000; stroke-width:4; stroke-opacity:1; fill:none" points="
  222.152,1102.19 247.719,1102.19 
  "/>
<polyline clip-path="url(#clip4200)" style="stroke:#000000; stroke-width:4; stroke-opacity:1; fill:none" points="
  222.152,771.873 247.719,771.873 
  "/>
<polyline clip-path="url(#clip4200)" style="stroke:#000000; stroke-width:4; stroke-opacity:1; fill:none" points="
  222.152,441.559 247.719,441.559 
  "/>
<polyline clip-path="url(#clip4200)" style="stroke:#000000; stroke-width:4; stroke-opacity:1; fill:none" points="
  222.152,111.245 247.719,111.245 
  "/>
<g clip-path="url(#clip4200)">
<text style="fill:#000000; fill-opacity:1; font-family:Arial,Helvetica Neue,Helvetica,sans-serif; font-size:48px; text-anchor:middle;" transform="rotate(0, 222.152, 1541.47)" x="222.152" y="1541.47">0</text>
</g>
<g clip-path="url(#clip4200)">
<text style="fill:#000000; fill-opacity:1; font-family:Arial,Helvetica Neue,Helvetica,sans-serif; font-size:48px; text-anchor:middle;" transform="rotate(0, 754.803, 1541.47)" x="754.803" y="1541.47">50</text>
</g>
<g clip-path="url(#clip4200)">
<text style="fill:#000000; fill-opacity:1; font-family:Arial,Helvetica Neue,Helvetica,sans-serif; font-size:48px; text-anchor:middle;" transform="rotate(0, 1287.45, 1541.47)" x="1287.45" y="1541.47">100</text>
</g>
<g clip-path="url(#clip4200)">
<text style="fill:#000000; fill-opacity:1; font-family:Arial,Helvetica Neue,Helvetica,sans-serif; font-size:48px; text-anchor:middle;" transform="rotate(0, 1820.1, 1541.47)" x="1820.1" y="1541.47">150</text>
</g>
<g clip-path="url(#clip4200)">
<text style="fill:#000000; fill-opacity:1; font-family:Arial,Helvetica Neue,Helvetica,sans-serif; font-size:48px; text-anchor:middle;" transform="rotate(0, 2352.76, 1541.47)" x="2352.76" y="1541.47">200</text>
</g>
<g clip-path="url(#clip4200)">
<text style="fill:#000000; fill-opacity:1; font-family:Arial,Helvetica Neue,Helvetica,sans-serif; font-size:48px; text-anchor:end;" transform="rotate(0, 198.152, 1450)" x="198.152" y="1450">-1000</text>
</g>
<g clip-path="url(#clip4200)">
<text style="fill:#000000; fill-opacity:1; font-family:Arial,Helvetica Neue,Helvetica,sans-serif; font-size:48px; text-anchor:end;" transform="rotate(0, 198.152, 1119.69)" x="198.152" y="1119.69">0</text>
</g>
<g clip-path="url(#clip4200)">
<text style="fill:#000000; fill-opacity:1; font-family:Arial,Helvetica Neue,Helvetica,sans-serif; font-size:48px; text-anchor:end;" transform="rotate(0, 198.152, 789.373)" x="198.152" y="789.373">1000</text>
</g>
<g clip-path="url(#clip4200)">
<text style="fill:#000000; fill-opacity:1; font-family:Arial,Helvetica Neue,Helvetica,sans-serif; font-size:48px; text-anchor:end;" transform="rotate(0, 198.152, 459.059)" x="198.152" y="459.059">2000</text>
</g>
<g clip-path="url(#clip4200)">
<text style="fill:#000000; fill-opacity:1; font-family:Arial,Helvetica Neue,Helvetica,sans-serif; font-size:48px; text-anchor:end;" transform="rotate(0, 198.152, 128.745)" x="198.152" y="128.745">3000</text>
</g>
<polyline clip-path="url(#clip4202)" style="stroke:#000000; stroke-width:4; stroke-opacity:1; fill:none" points="
  232.805,997.881 243.458,1000.16 254.111,1002.89 264.764,1004.27 275.417,1005.72 286.07,1008.35 296.723,1011.78 307.376,1014.23 318.029,1016.52 328.682,1018.54 
  339.335,1020.05 349.988,1019.76 360.641,1017.45 371.294,1015.95 381.947,1016.56 392.6,1016.25 403.253,1015.86 413.906,1015.41 424.559,1014.9 435.212,1014.35 
  445.865,1013.77 456.518,1013.27 467.171,1013.65 477.824,1015.73 488.477,1018.38 499.13,1020.74 509.783,1023.32 520.436,1026.13 531.089,1029.3 541.742,1032.81 
  552.395,1036.58 563.048,1039.78 573.701,1041.78 584.354,1042.67 595.007,1042.15 605.66,1040.21 616.313,1036.88 626.966,1033.04 637.619,1029.57 648.272,1025.23 
  658.925,1021.06 669.578,1016.52 680.232,1013.19 690.885,1011.11 701.538,1009.81 712.191,1008.2 722.844,1006.11 733.497,1003.11 744.15,1000.68 754.803,998.886 
  765.456,998.236 776.109,997.088 786.762,996.014 797.415,994.944 808.068,993.899 818.721,993.105 829.374,991.689 840.027,988.404 850.68,985.822 861.333,983.931 
  871.986,983.271 882.639,983.54 893.292,984.559 903.945,983.436 914.598,980.617 925.251,978.434 935.904,975.873 946.557,973.273 957.21,970.983 967.863,969.933 
  978.516,968.684 989.169,968.927 999.822,968.121 1010.48,966.995 1021.13,965.422 1031.78,963.637 1042.43,961.243 1053.09,958.632 1063.74,956.703 1074.39,955.588 
  1085.05,953.194 1095.7,950.28 1106.35,946.488 1117.01,942.083 1127.66,937.051 1138.31,932.971 1148.96,930.769 1159.62,927.215 1170.27,923.13 1180.92,920.848 
  1191.58,915.971 1202.23,909.832 1212.88,903.107 1223.54,897.826 1234.19,893.762 1244.84,887.98 1255.49,884.051 1266.15,879.689 1276.8,872.323 1287.45,864.474 
  1298.11,856.816 1308.76,847.07 1319.41,841.656 1330.07,840.935 1340.72,840.271 1351.37,839.453 1362.02,839.582 1372.68,837.38 1383.33,836.943 1393.98,833.153 
  1404.64,829.039 1415.29,828.427 1425.94,829.995 1436.6,829.208 1447.25,828.2 1457.9,828.605 1468.56,826.61 1479.21,823.315 1489.86,818.519 1500.51,812.568 
  1511.17,806.716 1521.82,802.809 1532.47,796.529 1543.13,789.419 1553.78,781.66 1564.43,770.581 1575.09,758.272 1585.74,744.375 1596.39,727.338 1607.04,709.863 
  1617.7,698.239 1628.35,685.481 1639,669.142 1649.66,652.764 1660.31,635.134 1670.96,611.424 1681.62,585.623 1692.27,556.164 1702.92,526.288 1713.57,492.113 
  1724.23,451.548 1734.88,403.11 1745.53,344.934 1756.19,315.15 1766.84,286.951 1777.49,259.158 1788.15,232.428 1798.8,208.291 1809.45,184.806 1820.1,162.159 
  1830.76,142.845 1841.41,127.334 1852.06,112.018 1862.72,100.01 1873.37,90.2203 1884.02,88.0053 1894.68,90.9724 1905.33,94.3703 1915.98,98.9264 1926.64,106.977 
  1937.29,116.602 1947.94,128.097 1958.59,139.913 1969.25,145.279 1979.9,154.981 1990.55,164.114 2001.21,168.884 2011.86,177.495 2022.51,184.183 2033.17,186.468 
  2043.82,193.181 2054.47,197.717 2065.12,199.863 2075.78,209.426 2086.43,214.11 2097.08,218.625 2107.74,238.064 2118.39,525.416 2129.04,1446.71 
  "/>
<path clip-path="url(#clip4200)" d="
M294.152 251.724 L828.489 251.724 L828.489 130.764 L294.152 130.764  Z
  " fill="#ffffff" fill-rule="evenodd" fill-opacity="1"/>
<polyline clip-path="url(#clip4200)" style="stroke:#000000; stroke-width:4; stroke-opacity:1; fill:none" points="
  294.152,251.724 828.489,251.724 828.489,130.764 294.152,130.764 294.152,251.724 
  "/>
<polyline clip-path="url(#clip4200)" style="stroke:#000000; stroke-width:4; stroke-opacity:1; fill:none" points="
  318.152,191.244 462.152,191.244 
  "/>
<g clip-path="url(#clip4200)">
<text style="fill:#000000; fill-opacity:1; font-family:Arial,Helvetica Neue,Helvetica,sans-serif; font-size:48px; text-anchor:start;" transform="rotate(0, 486.152, 208.744)" x="486.152" y="208.744">Iteration #230</text>
</g>
</svg>
