<?xml version="1.0" encoding="utf-8"?>
<svg xmlns="http://www.w3.org/2000/svg" xmlns:xlink="http://www.w3.org/1999/xlink" width="600" height="400" viewBox="0 0 2400 1600">
<defs>
  <clipPath id="clip9000">
    <rect x="0" y="0" width="2400" height="1600"/>
  </clipPath>
</defs>
<path clip-path="url(#clip9000)" d="
M0 1600 L2400 1600 L2400 0 L0 0  Z
  " fill="#ffffff" fill-rule="evenodd" fill-opacity="1"/>
<defs>
  <clipPath id="clip9001">
    <rect x="480" y="0" width="1681" height="1600"/>
  </clipPath>
</defs>
<path clip-path="url(#clip9000)" d="
M222.152 1487.47 L2352.76 1487.47 L2352.76 47.2441 L222.152 47.2441  Z
  " fill="#ffffff" fill-rule="evenodd" fill-opacity="1"/>
<defs>
  <clipPath id="clip9002">
    <rect x="222" y="47" width="2132" height="1441"/>
  </clipPath>
</defs>
<polyline clip-path="url(#clip9000)" style="stroke:#000000; stroke-width:4; stroke-opacity:1; fill:none" points="
  222.152,1487.47 2352.76,1487.47 
  "/>
<polyline clip-path="url(#clip9000)" style="stroke:#000000; stroke-width:4; stroke-opacity:1; fill:none" points="
  222.152,1487.47 222.152,47.2441 
  "/>
<polyline clip-path="url(#clip9000)" style="stroke:#000000; stroke-width:4; stroke-opacity:1; fill:none" points="
  222.152,1487.47 222.152,1470.19 
  "/>
<polyline clip-path="url(#clip9000)" style="stroke:#000000; stroke-width:4; stroke-opacity:1; fill:none" points="
  754.803,1487.47 754.803,1470.19 
  "/>
<polyline clip-path="url(#clip9000)" style="stroke:#000000; stroke-width:4; stroke-opacity:1; fill:none" points="
  1287.45,1487.47 1287.45,1470.19 
  "/>
<polyline clip-path="url(#clip9000)" style="stroke:#000000; stroke-width:4; stroke-opacity:1; fill:none" points="
  1820.1,1487.47 1820.1,1470.19 
  "/>
<polyline clip-path="url(#clip9000)" style="stroke:#000000; stroke-width:4; stroke-opacity:1; fill:none" points="
  2352.76,1487.47 2352.76,1470.19 
  "/>
<polyline clip-path="url(#clip9000)" style="stroke:#000000; stroke-width:4; stroke-opacity:1; fill:none" points="
  222.152,1368.5 247.719,1368.5 
  "/>
<polyline clip-path="url(#clip9000)" style="stroke:#000000; stroke-width:4; stroke-opacity:1; fill:none" points="
  222.152,1084.17 247.719,1084.17 
  "/>
<polyline clip-path="url(#clip9000)" style="stroke:#000000; stroke-width:4; stroke-opacity:1; fill:none" points="
  222.152,799.837 247.719,799.837 
  "/>
<polyline clip-path="url(#clip9000)" style="stroke:#000000; stroke-width:4; stroke-opacity:1; fill:none" points="
  222.152,515.507 247.719,515.507 
  "/>
<polyline clip-path="url(#clip9000)" style="stroke:#000000; stroke-width:4; stroke-opacity:1; fill:none" points="
  222.152,231.176 247.719,231.176 
  "/>
<g clip-path="url(#clip9000)">
<text style="fill:#000000; fill-opacity:1; font-family:Arial,Helvetica Neue,Helvetica,sans-serif; font-size:48px; text-anchor:middle;" transform="rotate(0, 222.152, 1541.47)" x="222.152" y="1541.47">0</text>
</g>
<g clip-path="url(#clip9000)">
<text style="fill:#000000; fill-opacity:1; font-family:Arial,Helvetica Neue,Helvetica,sans-serif; font-size:48px; text-anchor:middle;" transform="rotate(0, 754.803, 1541.47)" x="754.803" y="1541.47">50</text>
</g>
<g clip-path="url(#clip9000)">
<text style="fill:#000000; fill-opacity:1; font-family:Arial,Helvetica Neue,Helvetica,sans-serif; font-size:48px; text-anchor:middle;" transform="rotate(0, 1287.45, 1541.47)" x="1287.45" y="1541.47">100</text>
</g>
<g clip-path="url(#clip9000)">
<text style="fill:#000000; fill-opacity:1; font-family:Arial,Helvetica Neue,Helvetica,sans-serif; font-size:48px; text-anchor:middle;" transform="rotate(0, 1820.1, 1541.47)" x="1820.1" y="1541.47">150</text>
</g>
<g clip-path="url(#clip9000)">
<text style="fill:#000000; fill-opacity:1; font-family:Arial,Helvetica Neue,Helvetica,sans-serif; font-size:48px; text-anchor:middle;" transform="rotate(0, 2352.76, 1541.47)" x="2352.76" y="1541.47">200</text>
</g>
<g clip-path="url(#clip9000)">
<text style="fill:#000000; fill-opacity:1; font-family:Arial,Helvetica Neue,Helvetica,sans-serif; font-size:48px; text-anchor:end;" transform="rotate(0, 198.152, 1386)" x="198.152" y="1386">-1000</text>
</g>
<g clip-path="url(#clip9000)">
<text style="fill:#000000; fill-opacity:1; font-family:Arial,Helvetica Neue,Helvetica,sans-serif; font-size:48px; text-anchor:end;" transform="rotate(0, 198.152, 1101.67)" x="198.152" y="1101.67">0</text>
</g>
<g clip-path="url(#clip9000)">
<text style="fill:#000000; fill-opacity:1; font-family:Arial,Helvetica Neue,Helvetica,sans-serif; font-size:48px; text-anchor:end;" transform="rotate(0, 198.152, 817.337)" x="198.152" y="817.337">1000</text>
</g>
<g clip-path="url(#clip9000)">
<text style="fill:#000000; fill-opacity:1; font-family:Arial,Helvetica Neue,Helvetica,sans-serif; font-size:48px; text-anchor:end;" transform="rotate(0, 198.152, 533.007)" x="198.152" y="533.007">2000</text>
</g>
<g clip-path="url(#clip9000)">
<text style="fill:#000000; fill-opacity:1; font-family:Arial,Helvetica Neue,Helvetica,sans-serif; font-size:48px; text-anchor:end;" transform="rotate(0, 198.152, 248.676)" x="198.152" y="248.676">3000</text>
</g>
<polyline clip-path="url(#clip9002)" style="stroke:#000000; stroke-width:4; stroke-opacity:1; fill:none" points="
  232.805,990.74 243.458,993.696 254.111,997.142 264.764,998.676 275.417,1000.22 286.07,1003.36 296.723,1007.56 307.376,1010.43 318.029,1013.05 328.682,1015.38 
  339.335,1017.04 349.988,1016.28 360.641,1012.77 371.294,1010.44 381.947,1010.98 392.6,1010.27 403.253,1009.45 413.906,1008.54 424.559,1007.52 435.212,1006.42 
  445.865,1005.23 456.518,1004.11 467.171,1004.14 477.824,1006.45 488.477,1009.5 499.13,1012.11 509.783,1015 520.436,1018.23 531.089,1021.96 541.742,1026.23 
  552.395,1030.93 563.048,1034.97 573.701,1037.5 584.354,1038.69 595.007,1038.1 605.66,1035.77 616.313,1031.69 626.966,1027.09 637.619,1023.12 648.272,1018.08 
  658.925,1013.36 669.578,1008.18 680.232,1004.73 690.885,1002.97 701.538,1002.31 712.191,1001.22 722.844,999.454 733.497,996.444 744.15,994.172 754.803,992.77 
  765.456,992.867 776.109,992.278 786.762,991.738 797.415,991.192 808.068,990.658 818.721,990.456 829.374,989.393 840.027,985.751 850.68,983.057 861.333,981.277 
  871.986,981.157 882.639,982.24 893.292,984.402 903.945,983.577 914.598,980.503 925.251,978.282 935.904,975.612 946.557,972.775 957.21,970.497 967.863,969.784 
  978.516,968.839 989.169,969.936 999.822,969.597 1010.48,968.865 1021.13,967.618 1031.78,966.063 1042.43,963.83 1053.09,961.325 1063.74,959.833 1074.39,959.546 
  1085.05,957.629 1095.7,955.067 1106.35,951.499 1117.01,947.119 1127.66,942.015 1138.31,938.303 1148.96,937.171 1159.62,934.305 1170.27,930.811 1180.92,929.796 
  1191.58,925.399 1202.23,919.346 1212.88,912.501 1223.54,907.748 1234.19,904.591 1244.84,899.107 1255.49,896.203 1266.15,892.609 1276.8,884.959 1287.45,876.617 
  1298.11,868.347 1308.76,857.175 1319.41,851.677 1330.07,852.323 1340.72,852.951 1351.37,853.124 1362.02,854.519 1372.68,852.749 1383.33,853.244 1393.98,849.252 
  1404.64,844.863 1415.29,845.159 1425.94,848.65 1436.6,848.982 1447.25,849.156 1457.9,851.602 1468.56,851 1479.21,848.974 1489.86,845.382 1500.51,840.464 
  1511.17,836.188 1521.82,835.053 1532.47,831.003 1543.13,826.494 1553.78,821.563 1564.43,812.55 1575.09,802.55 1585.74,790.789 1596.39,775.201 1607.04,759.558 
  1617.7,752.362 1628.35,744.083 1639,731.434 1649.66,719.1 1660.31,705.637 1670.96,684.293 1681.62,660.502 1692.27,632.314 1702.92,604.194 1713.57,570.839 
  1724.23,529.908 1734.88,479.83 1745.53,420.754 1756.19,384.954 1766.84,349.462 1777.49,313.602 1788.15,278.865 1798.8,247.062 1809.45,215.915 1820.1,185.992 
  1830.76,159.957 1841.41,139.476 1852.06,119.482 1862.72,102.93 1873.37,90.5797 1884.02,88.0053 1894.68,92.0303 1905.33,97.1953 1915.98,103.503 1926.64,113.911 
  1937.29,127.244 1947.94,142.546 1958.59,157.577 1969.25,165.017 1979.9,177.263 1990.55,188.641 2001.21,195.435 2011.86,205.467 2022.51,213.703 2033.17,217.239 
  2043.82,224.577 2054.47,230.041 2065.12,232.903 2075.78,243.917 2086.43,249.946 2097.08,255.68 2107.74,278.016 2118.39,565.379 2129.04,1446.71 
  "/>
<path clip-path="url(#clip9000)" d="
M294.152 251.724 L828.489 251.724 L828.489 130.764 L294.152 130.764  Z
  " fill="#ffffff" fill-rule="evenodd" fill-opacity="1"/>
<polyline clip-path="url(#clip9000)" style="stroke:#000000; stroke-width:4; stroke-opacity:1; fill:none" points="
  294.152,251.724 828.489,251.724 828.489,130.764 294.152,130.764 294.152,251.724 
  "/>
<polyline clip-path="url(#clip9000)" style="stroke:#000000; stroke-width:4; stroke-opacity:1; fill:none" points="
  318.152,191.244 462.152,191.244 
  "/>
<g clip-path="url(#clip9000)">
<text style="fill:#000000; fill-opacity:1; font-family:Arial,Helvetica Neue,Helvetica,sans-serif; font-size:48px; text-anchor:start;" transform="rotate(0, 486.152, 208.744)" x="486.152" y="208.744">Iteration #310</text>
</g>
</svg>
