<?xml version="1.0" encoding="utf-8"?>
<svg xmlns="http://www.w3.org/2000/svg" xmlns:xlink="http://www.w3.org/1999/xlink" width="600" height="400" viewBox="0 0 2400 1600">
<defs>
  <clipPath id="clip1600">
    <rect x="0" y="0" width="2400" height="1600"/>
  </clipPath>
</defs>
<path clip-path="url(#clip1600)" d="
M0 1600 L2400 1600 L2400 0 L0 0  Z
  " fill="#ffffff" fill-rule="evenodd" fill-opacity="1"/>
<defs>
  <clipPath id="clip1601">
    <rect x="480" y="0" width="1681" height="1600"/>
  </clipPath>
</defs>
<path clip-path="url(#clip1600)" d="
M194.041 1487.47 L2352.76 1487.47 L2352.76 47.2441 L194.041 47.2441  Z
  " fill="#ffffff" fill-rule="evenodd" fill-opacity="1"/>
<defs>
  <clipPath id="clip1602">
    <rect x="194" y="47" width="2160" height="1441"/>
  </clipPath>
</defs>
<polyline clip-path="url(#clip1600)" style="stroke:#000000; stroke-width:4; stroke-opacity:1; fill:none" points="
  194.041,1487.47 2352.76,1487.47 
  "/>
<polyline clip-path="url(#clip1600)" style="stroke:#000000; stroke-width:4; stroke-opacity:1; fill:none" points="
  194.041,1487.47 194.041,47.2441 
  "/>
<polyline clip-path="url(#clip1600)" style="stroke:#000000; stroke-width:4; stroke-opacity:1; fill:none" points="
  194.041,1487.47 194.041,1470.19 
  "/>
<polyline clip-path="url(#clip1600)" style="stroke:#000000; stroke-width:4; stroke-opacity:1; fill:none" points="
  733.72,1487.47 733.72,1470.19 
  "/>
<polyline clip-path="url(#clip1600)" style="stroke:#000000; stroke-width:4; stroke-opacity:1; fill:none" points="
  1273.4,1487.47 1273.4,1470.19 
  "/>
<polyline clip-path="url(#clip1600)" style="stroke:#000000; stroke-width:4; stroke-opacity:1; fill:none" points="
  1813.08,1487.47 1813.08,1470.19 
  "/>
<polyline clip-path="url(#clip1600)" style="stroke:#000000; stroke-width:4; stroke-opacity:1; fill:none" points="
  2352.76,1487.47 2352.76,1470.19 
  "/>
<polyline clip-path="url(#clip1600)" style="stroke:#000000; stroke-width:4; stroke-opacity:1; fill:none" points="
  194.041,1412.82 219.946,1412.82 
  "/>
<polyline clip-path="url(#clip1600)" style="stroke:#000000; stroke-width:4; stroke-opacity:1; fill:none" points="
  194.041,1090.99 219.946,1090.99 
  "/>
<polyline clip-path="url(#clip1600)" style="stroke:#000000; stroke-width:4; stroke-opacity:1; fill:none" points="
  194.041,769.149 219.946,769.149 
  "/>
<polyline clip-path="url(#clip1600)" style="stroke:#000000; stroke-width:4; stroke-opacity:1; fill:none" points="
  194.041,447.314 219.946,447.314 
  "/>
<polyline clip-path="url(#clip1600)" style="stroke:#000000; stroke-width:4; stroke-opacity:1; fill:none" points="
  194.041,125.478 219.946,125.478 
  "/>
<g clip-path="url(#clip1600)">
<text style="fill:#000000; fill-opacity:1; font-family:Arial,Helvetica Neue,Helvetica,sans-serif; font-size:48px; text-anchor:middle;" transform="rotate(0, 194.041, 1541.47)" x="194.041" y="1541.47">0</text>
</g>
<g clip-path="url(#clip1600)">
<text style="fill:#000000; fill-opacity:1; font-family:Arial,Helvetica Neue,Helvetica,sans-serif; font-size:48px; text-anchor:middle;" transform="rotate(0, 733.72, 1541.47)" x="733.72" y="1541.47">50</text>
</g>
<g clip-path="url(#clip1600)">
<text style="fill:#000000; fill-opacity:1; font-family:Arial,Helvetica Neue,Helvetica,sans-serif; font-size:48px; text-anchor:middle;" transform="rotate(0, 1273.4, 1541.47)" x="1273.4" y="1541.47">100</text>
</g>
<g clip-path="url(#clip1600)">
<text style="fill:#000000; fill-opacity:1; font-family:Arial,Helvetica Neue,Helvetica,sans-serif; font-size:48px; text-anchor:middle;" transform="rotate(0, 1813.08, 1541.47)" x="1813.08" y="1541.47">150</text>
</g>
<g clip-path="url(#clip1600)">
<text style="fill:#000000; fill-opacity:1; font-family:Arial,Helvetica Neue,Helvetica,sans-serif; font-size:48px; text-anchor:middle;" transform="rotate(0, 2352.76, 1541.47)" x="2352.76" y="1541.47">200</text>
</g>
<g clip-path="url(#clip1600)">
<text style="fill:#000000; fill-opacity:1; font-family:Arial,Helvetica Neue,Helvetica,sans-serif; font-size:48px; text-anchor:end;" transform="rotate(0, 170.041, 1430.32)" x="170.041" y="1430.32">400</text>
</g>
<g clip-path="url(#clip1600)">
<text style="fill:#000000; fill-opacity:1; font-family:Arial,Helvetica Neue,Helvetica,sans-serif; font-size:48px; text-anchor:end;" transform="rotate(0, 170.041, 1108.49)" x="170.041" y="1108.49">600</text>
</g>
<g clip-path="url(#clip1600)">
<text style="fill:#000000; fill-opacity:1; font-family:Arial,Helvetica Neue,Helvetica,sans-serif; font-size:48px; text-anchor:end;" transform="rotate(0, 170.041, 786.649)" x="170.041" y="786.649">800</text>
</g>
<g clip-path="url(#clip1600)">
<text style="fill:#000000; fill-opacity:1; font-family:Arial,Helvetica Neue,Helvetica,sans-serif; font-size:48px; text-anchor:end;" transform="rotate(0, 170.041, 464.814)" x="170.041" y="464.814">1000</text>
</g>
<g clip-path="url(#clip1600)">
<text style="fill:#000000; fill-opacity:1; font-family:Arial,Helvetica Neue,Helvetica,sans-serif; font-size:48px; text-anchor:end;" transform="rotate(0, 170.041, 142.978)" x="170.041" y="142.978">1200</text>
</g>
<polyline clip-path="url(#clip1602)" style="stroke:#000000; stroke-width:4; stroke-opacity:1; fill:none" points="
  204.835,1394.07 215.629,1394.32 226.422,1394.28 237.216,1394.38 248.009,1394.48 258.803,1394.61 269.596,1394.75 280.39,1394.89 291.184,1395.07 301.977,1395.22 
  312.771,1395.4 323.564,1395.56 334.358,1395.74 345.151,1395.9 355.945,1396.09 366.739,1396.28 377.532,1396.47 388.326,1396.67 399.119,1396.87 409.913,1397.07 
  420.706,1397.27 431.5,1397.47 442.294,1397.68 453.087,1397.89 463.881,1398.11 474.674,1398.34 485.468,1398.55 496.262,1398.77 507.055,1398.99 517.849,1399.2 
  528.642,1399.42 539.436,1399.62 550.229,1399.81 561.023,1400 571.817,1400.16 582.61,1400.31 593.404,1400.46 604.197,1400.57 614.991,1400.7 625.784,1400.81 
  636.578,1400.9 647.372,1401.01 658.165,1401.09 668.959,1401.19 679.752,1401.3 690.546,1401.36 701.339,1401.44 712.133,1401.51 722.927,1401.54 733.72,1401.6 
  744.514,1401.65 755.307,1401.65 766.101,1401.71 776.894,1401.7 787.688,1401.7 798.482,1401.72 809.275,1401.66 820.069,1401.64 830.862,1401.59 841.656,1401.49 
  852.449,1401.44 863.243,1401.36 874.037,1401.23 884.83,1401.16 895.624,1400.98 906.417,1400.81 917.211,1400.67 928.004,1400.42 938.798,1400.23 949.592,1400.01 
  960.385,1399.69 971.179,1399.46 981.972,1399.15 992.766,1398.76 1003.56,1398.46 1014.35,1398 1025.15,1397.55 1035.94,1397.14 1046.73,1396.56 1057.53,1396.05 
  1068.32,1395.49 1079.11,1394.74 1089.91,1394.09 1100.7,1393.32 1111.5,1392.37 1122.29,1391.6 1133.08,1390.58 1143.88,1389.52 1154.67,1388.52 1165.46,1387.24 
  1176.26,1385.96 1187.05,1384.62 1197.84,1382.92 1208.64,1381.38 1219.43,1379.63 1230.22,1377.56 1241.02,1375.68 1251.81,1373.38 1262.61,1370.83 1273.4,1368.35 
  1284.19,1365.28 1294.99,1362.15 1305.78,1358.84 1316.57,1355.23 1327.37,1351.61 1338.16,1347.58 1348.95,1343.08 1359.75,1338.38 1370.54,1333.16 1381.33,1327.33 
  1392.13,1321.15 1402.92,1314.39 1413.72,1307.36 1424.51,1299.57 1435.3,1290.91 1446.1,1281.8 1456.89,1271.58 1467.68,1260.2 1478.48,1247.73 1489.27,1234.07 
  1500.06,1219.11 1510.86,1203.37 1521.65,1185.96 1532.44,1166.88 1543.24,1146.36 1554.03,1123.69 1564.83,1098.73 1575.62,1071.85 1586.41,1042.21 1597.21,1010.14 
  1608,977.951 1618.79,943.148 1629.59,904.583 1640.38,863.787 1651.17,819.252 1661.97,768.841 1672.76,713.295 1683.55,650.578 1694.35,581.707 1705.14,502.47 
  1715.94,407.586 1726.73,289.947 1737.52,126.13 1748.32,106.997 1759.11,98.951 1769.9,94.439 1780.7,91.8453 1791.49,90.119 1802.28,89.079 1813.08,88.4863 
  1823.87,88.1201 1834.66,88.0053 1845.46,88.0111 1856.25,88.1085 1867.05,88.2334 1877.84,88.4184 1888.63,88.5773 1899.43,88.6796 1910.22,88.903 1921.01,88.9967 
  1931.81,89.0774 1942.6,89.2555 1953.39,89.2788 1964.19,89.4195 1974.98,89.6234 1985.77,89.6226 1996.57,89.8175 2007.36,89.991 2018.16,90.0159 2028.95,90.2872 
  2039.74,90.4355 2050.54,90.4598 2061.33,90.905 2072.12,90.8224 2082.92,90.9815 2093.71,91.3859 2104.5,91.373 2115.3,107.499 2126.09,1446.71 
  "/>
<path clip-path="url(#clip1600)" d="
M266.041 251.724 L773.617 251.724 L773.617 130.764 L266.041 130.764  Z
  " fill="#ffffff" fill-rule="evenodd" fill-opacity="1"/>
<polyline clip-path="url(#clip1600)" style="stroke:#000000; stroke-width:4; stroke-opacity:1; fill:none" points="
  266.041,251.724 773.617,251.724 773.617,130.764 266.041,130.764 266.041,251.724 
  "/>
<polyline clip-path="url(#clip1600)" style="stroke:#000000; stroke-width:4; stroke-opacity:1; fill:none" points="
  290.041,191.244 434.041,191.244 
  "/>
<g clip-path="url(#clip1600)">
<text style="fill:#000000; fill-opacity:1; font-family:Arial,Helvetica Neue,Helvetica,sans-serif; font-size:48px; text-anchor:start;" transform="rotate(0, 458.041, 208.744)" x="458.041" y="208.744">Iteration #20</text>
</g>
</svg>
