<?xml version="1.0" encoding="utf-8"?>
<svg xmlns="http://www.w3.org/2000/svg" xmlns:xlink="http://www.w3.org/1999/xlink" width="600" height="400" viewBox="0 0 2400 1600">
<defs>
  <clipPath id="clip9600">
    <rect x="0" y="0" width="2400" height="1600"/>
  </clipPath>
</defs>
<path clip-path="url(#clip9600)" d="
M0 1600 L2400 1600 L2400 0 L0 0  Z
  " fill="#ffffff" fill-rule="evenodd" fill-opacity="1"/>
<defs>
  <clipPath id="clip9601">
    <rect x="480" y="0" width="1681" height="1600"/>
  </clipPath>
</defs>
<path clip-path="url(#clip9600)" d="
M222.152 1487.47 L2352.76 1487.47 L2352.76 47.2441 L222.152 47.2441  Z
  " fill="#ffffff" fill-rule="evenodd" fill-opacity="1"/>
<defs>
  <clipPath id="clip9602">
    <rect x="222" y="47" width="2132" height="1441"/>
  </clipPath>
</defs>
<polyline clip-path="url(#clip9600)" style="stroke:#000000; stroke-width:4; stroke-opacity:1; fill:none" points="
  222.152,1487.47 2352.76,1487.47 
  "/>
<polyline clip-path="url(#clip9600)" style="stroke:#000000; stroke-width:4; stroke-opacity:1; fill:none" points="
  222.152,1487.47 222.152,47.2441 
  "/>
<polyline clip-path="url(#clip9600)" style="stroke:#000000; stroke-width:4; stroke-opacity:1; fill:none" points="
  222.152,1487.47 222.152,1470.19 
  "/>
<polyline clip-path="url(#clip9600)" style="stroke:#000000; stroke-width:4; stroke-opacity:1; fill:none" points="
  754.803,1487.47 754.803,1470.19 
  "/>
<polyline clip-path="url(#clip9600)" style="stroke:#000000; stroke-width:4; stroke-opacity:1; fill:none" points="
  1287.45,1487.47 1287.45,1470.19 
  "/>
<polyline clip-path="url(#clip9600)" style="stroke:#000000; stroke-width:4; stroke-opacity:1; fill:none" points="
  1820.1,1487.47 1820.1,1470.19 
  "/>
<polyline clip-path="url(#clip9600)" style="stroke:#000000; stroke-width:4; stroke-opacity:1; fill:none" points="
  2352.76,1487.47 2352.76,1470.19 
  "/>
<polyline clip-path="url(#clip9600)" style="stroke:#000000; stroke-width:4; stroke-opacity:1; fill:none" points="
  222.152,1362.45 247.719,1362.45 
  "/>
<polyline clip-path="url(#clip9600)" style="stroke:#000000; stroke-width:4; stroke-opacity:1; fill:none" points="
  222.152,1082.63 247.719,1082.63 
  "/>
<polyline clip-path="url(#clip9600)" style="stroke:#000000; stroke-width:4; stroke-opacity:1; fill:none" points="
  222.152,802.807 247.719,802.807 
  "/>
<polyline clip-path="url(#clip9600)" style="stroke:#000000; stroke-width:4; stroke-opacity:1; fill:none" points="
  222.152,522.984 247.719,522.984 
  "/>
<polyline clip-path="url(#clip9600)" style="stroke:#000000; stroke-width:4; stroke-opacity:1; fill:none" points="
  222.152,243.162 247.719,243.162 
  "/>
<g clip-path="url(#clip9600)">
<text style="fill:#000000; fill-opacity:1; font-family:Arial,Helvetica Neue,Helvetica,sans-serif; font-size:48px; text-anchor:middle;" transform="rotate(0, 222.152, 1541.47)" x="222.152" y="1541.47">0</text>
</g>
<g clip-path="url(#clip9600)">
<text style="fill:#000000; fill-opacity:1; font-family:Arial,Helvetica Neue,Helvetica,sans-serif; font-size:48px; text-anchor:middle;" transform="rotate(0, 754.803, 1541.47)" x="754.803" y="1541.47">50</text>
</g>
<g clip-path="url(#clip9600)">
<text style="fill:#000000; fill-opacity:1; font-family:Arial,Helvetica Neue,Helvetica,sans-serif; font-size:48px; text-anchor:middle;" transform="rotate(0, 1287.45, 1541.47)" x="1287.45" y="1541.47">100</text>
</g>
<g clip-path="url(#clip9600)">
<text style="fill:#000000; fill-opacity:1; font-family:Arial,Helvetica Neue,Helvetica,sans-serif; font-size:48px; text-anchor:middle;" transform="rotate(0, 1820.1, 1541.47)" x="1820.1" y="1541.47">150</text>
</g>
<g clip-path="url(#clip9600)">
<text style="fill:#000000; fill-opacity:1; font-family:Arial,Helvetica Neue,Helvetica,sans-serif; font-size:48px; text-anchor:middle;" transform="rotate(0, 2352.76, 1541.47)" x="2352.76" y="1541.47">200</text>
</g>
<g clip-path="url(#clip9600)">
<text style="fill:#000000; fill-opacity:1; font-family:Arial,Helvetica Neue,Helvetica,sans-serif; font-size:48px; text-anchor:end;" transform="rotate(0, 198.152, 1379.95)" x="198.152" y="1379.95">-1000</text>
</g>
<g clip-path="url(#clip9600)">
<text style="fill:#000000; fill-opacity:1; font-family:Arial,Helvetica Neue,Helvetica,sans-serif; font-size:48px; text-anchor:end;" transform="rotate(0, 198.152, 1100.13)" x="198.152" y="1100.13">0</text>
</g>
<g clip-path="url(#clip9600)">
<text style="fill:#000000; fill-opacity:1; font-family:Arial,Helvetica Neue,Helvetica,sans-serif; font-size:48px; text-anchor:end;" transform="rotate(0, 198.152, 820.307)" x="198.152" y="820.307">1000</text>
</g>
<g clip-path="url(#clip9600)">
<text style="fill:#000000; fill-opacity:1; font-family:Arial,Helvetica Neue,Helvetica,sans-serif; font-size:48px; text-anchor:end;" transform="rotate(0, 198.152, 540.484)" x="198.152" y="540.484">2000</text>
</g>
<g clip-path="url(#clip9600)">
<text style="fill:#000000; fill-opacity:1; font-family:Arial,Helvetica Neue,Helvetica,sans-serif; font-size:48px; text-anchor:end;" transform="rotate(0, 198.152, 260.662)" x="198.152" y="260.662">3000</text>
</g>
<polyline clip-path="url(#clip9602)" style="stroke:#000000; stroke-width:4; stroke-opacity:1; fill:none" points="
  232.805,990.269 243.458,993.305 254.111,996.833 264.764,998.379 275.417,999.924 286.07,1003.12 296.723,1007.41 307.376,1010.32 318.029,1012.98 328.682,1015.35 
  339.335,1017.02 349.988,1016.21 360.641,1012.56 371.294,1010.12 381.947,1010.67 392.6,1009.92 403.253,1009.06 413.906,1008.1 424.559,1007.02 435.212,1005.86 
  445.865,1004.6 456.518,1003.41 467.171,1003.39 477.824,1005.73 488.477,1008.82 499.13,1011.45 509.783,1014.36 520.436,1017.63 531.089,1021.42 541.742,1025.77 
  552.395,1030.57 563.048,1034.7 573.701,1037.29 584.354,1038.51 595.007,1037.91 605.66,1035.54 616.313,1031.38 626.966,1026.69 637.619,1022.67 648.272,1017.57 
  658.925,1012.79 669.578,1007.54 680.232,1004.1 690.885,1002.39 701.538,1001.81 712.191,1000.8 722.844,999.07 733.497,996.059 744.15,993.805 754.803,992.447 
  765.456,992.631 776.109,992.103 786.762,991.619 797.415,991.127 808.068,990.644 818.721,990.502 829.374,989.472 840.027,985.772 850.68,983.051 861.333,981.272 
  871.986,981.202 882.639,982.372 893.292,984.66 903.945,983.857 914.598,980.739 925.251,978.5 935.904,975.805 946.557,972.929 957.21,970.639 967.863,969.955 
  978.516,969.036 989.169,970.221 999.822,969.928 1010.48,969.23 1021.13,968.009 1031.78,966.473 1042.43,964.246 1053.09,961.743 1063.74,960.298 1074.39,960.101 
  1085.05,958.237 1095.7,955.714 1106.35,952.166 1117.01,947.79 1127.66,942.672 1138.31,939.002 1148.96,938.006 1159.62,935.219 1170.27,931.799 1180.92,930.946 
  1191.58,926.605 1202.23,920.572 1212.88,913.718 1223.54,909.034 1234.19,906.002 1244.84,900.558 1255.49,897.789 1266.15,894.305 1276.8,886.622 1287.45,878.228 
  1298.11,869.889 1308.76,858.53 1319.41,853.017 1330.07,853.814 1340.72,854.57 1351.37,854.838 1362.02,856.343 1372.68,854.579 1383.33,855.146 1393.98,851.063 
  1404.64,846.581 1415.29,846.925 1425.94,850.572 1436.6,850.97 1447.25,851.207 1457.9,853.818 1468.56,853.311 1479.21,851.351 1489.86,847.823 1500.51,842.96 
  1511.17,838.788 1521.82,837.926 1532.47,834.085 1543.13,829.822 1553.78,825.193 1564.43,816.387 1575.09,806.63 1585.74,795.115 1596.39,779.688 1607.04,764.264 
  1617.7,757.634 1628.35,749.923 1639,737.767 1649.66,725.99 1660.31,713.104 1670.96,692.133 1681.62,668.687 1692.27,640.744 1702.92,612.955 1713.57,579.802 
  1724.23,538.912 1734.88,488.702 1745.53,429.528 1756.19,393.089 1766.84,356.807 1777.49,320.015 1788.15,284.357 1798.8,251.684 1809.45,219.602 1820.1,188.819 
  1830.76,162.015 1841.41,140.885 1852.06,120.36 1862.72,103.323 1873.37,90.5854 1884.02,88.0053 1894.68,92.1926 1905.33,97.4926 1915.98,104.073 1926.64,114.774 
  1937.29,128.45 1947.94,144.291 1958.59,159.689 1969.25,167.245 1979.9,179.938 1990.55,191.524 2001.21,198.417 2011.86,208.792 2022.51,217.105 2033.17,220.684 
  2043.82,228.251 2054.47,233.711 2065.12,236.526 2075.78,247.934 2086.43,253.906 2097.08,259.773 2107.74,282.57 2118.39,566.36 2129.04,1446.71 
  "/>
<path clip-path="url(#clip9600)" d="
M294.152 251.724 L828.489 251.724 L828.489 130.764 L294.152 130.764  Z
  " fill="#ffffff" fill-rule="evenodd" fill-opacity="1"/>
<polyline clip-path="url(#clip9600)" style="stroke:#000000; stroke-width:4; stroke-opacity:1; fill:none" points="
  294.152,251.724 828.489,251.724 828.489,130.764 294.152,130.764 294.152,251.724 
  "/>
<polyline clip-path="url(#clip9600)" style="stroke:#000000; stroke-width:4; stroke-opacity:1; fill:none" points="
  318.152,191.244 462.152,191.244 
  "/>
<g clip-path="url(#clip9600)">
<text style="fill:#000000; fill-opacity:1; font-family:Arial,Helvetica Neue,Helvetica,sans-serif; font-size:48px; text-anchor:start;" transform="rotate(0, 486.152, 208.744)" x="486.152" y="208.744">Iteration #320</text>
</g>
</svg>
