<?xml version="1.0" encoding="utf-8"?>
<svg xmlns="http://www.w3.org/2000/svg" xmlns:xlink="http://www.w3.org/1999/xlink" width="600" height="400" viewBox="0 0 2400 1600">
<defs>
  <clipPath id="clip7200">
    <rect x="0" y="0" width="2400" height="1600"/>
  </clipPath>
</defs>
<path clip-path="url(#clip7200)" d="
M0 1600 L2400 1600 L2400 0 L0 0  Z
  " fill="#ffffff" fill-rule="evenodd" fill-opacity="1"/>
<defs>
  <clipPath id="clip7201">
    <rect x="480" y="0" width="1681" height="1600"/>
  </clipPath>
</defs>
<path clip-path="url(#clip7200)" d="
M222.152 1487.47 L2352.76 1487.47 L2352.76 47.2441 L222.152 47.2441  Z
  " fill="#ffffff" fill-rule="evenodd" fill-opacity="1"/>
<defs>
  <clipPath id="clip7202">
    <rect x="222" y="47" width="2132" height="1441"/>
  </clipPath>
</defs>
<polyline clip-path="url(#clip7200)" style="stroke:#000000; stroke-width:4; stroke-opacity:1; fill:none" points="
  222.152,1487.47 2352.76,1487.47 
  "/>
<polyline clip-path="url(#clip7200)" style="stroke:#000000; stroke-width:4; stroke-opacity:1; fill:none" points="
  222.152,1487.47 222.152,47.2441 
  "/>
<polyline clip-path="url(#clip7200)" style="stroke:#000000; stroke-width:4; stroke-opacity:1; fill:none" points="
  222.152,1487.47 222.152,1470.19 
  "/>
<polyline clip-path="url(#clip7200)" style="stroke:#000000; stroke-width:4; stroke-opacity:1; fill:none" points="
  754.803,1487.47 754.803,1470.19 
  "/>
<polyline clip-path="url(#clip7200)" style="stroke:#000000; stroke-width:4; stroke-opacity:1; fill:none" points="
  1287.45,1487.47 1287.45,1470.19 
  "/>
<polyline clip-path="url(#clip7200)" style="stroke:#000000; stroke-width:4; stroke-opacity:1; fill:none" points="
  1820.1,1487.47 1820.1,1470.19 
  "/>
<polyline clip-path="url(#clip7200)" style="stroke:#000000; stroke-width:4; stroke-opacity:1; fill:none" points="
  2352.76,1487.47 2352.76,1470.19 
  "/>
<polyline clip-path="url(#clip7200)" style="stroke:#000000; stroke-width:4; stroke-opacity:1; fill:none" points="
  222.152,1388.87 247.719,1388.87 
  "/>
<polyline clip-path="url(#clip7200)" style="stroke:#000000; stroke-width:4; stroke-opacity:1; fill:none" points="
  222.152,1089.6 247.719,1089.6 
  "/>
<polyline clip-path="url(#clip7200)" style="stroke:#000000; stroke-width:4; stroke-opacity:1; fill:none" points="
  222.152,790.336 247.719,790.336 
  "/>
<polyline clip-path="url(#clip7200)" style="stroke:#000000; stroke-width:4; stroke-opacity:1; fill:none" points="
  222.152,491.069 247.719,491.069 
  "/>
<polyline clip-path="url(#clip7200)" style="stroke:#000000; stroke-width:4; stroke-opacity:1; fill:none" points="
  222.152,191.802 247.719,191.802 
  "/>
<g clip-path="url(#clip7200)">
<text style="fill:#000000; fill-opacity:1; font-family:Arial,Helvetica Neue,Helvetica,sans-serif; font-size:48px; text-anchor:middle;" transform="rotate(0, 222.152, 1541.47)" x="222.152" y="1541.47">0</text>
</g>
<g clip-path="url(#clip7200)">
<text style="fill:#000000; fill-opacity:1; font-family:Arial,Helvetica Neue,Helvetica,sans-serif; font-size:48px; text-anchor:middle;" transform="rotate(0, 754.803, 1541.47)" x="754.803" y="1541.47">50</text>
</g>
<g clip-path="url(#clip7200)">
<text style="fill:#000000; fill-opacity:1; font-family:Arial,Helvetica Neue,Helvetica,sans-serif; font-size:48px; text-anchor:middle;" transform="rotate(0, 1287.45, 1541.47)" x="1287.45" y="1541.47">100</text>
</g>
<g clip-path="url(#clip7200)">
<text style="fill:#000000; fill-opacity:1; font-family:Arial,Helvetica Neue,Helvetica,sans-serif; font-size:48px; text-anchor:middle;" transform="rotate(0, 1820.1, 1541.47)" x="1820.1" y="1541.47">150</text>
</g>
<g clip-path="url(#clip7200)">
<text style="fill:#000000; fill-opacity:1; font-family:Arial,Helvetica Neue,Helvetica,sans-serif; font-size:48px; text-anchor:middle;" transform="rotate(0, 2352.76, 1541.47)" x="2352.76" y="1541.47">200</text>
</g>
<g clip-path="url(#clip7200)">
<text style="fill:#000000; fill-opacity:1; font-family:Arial,Helvetica Neue,Helvetica,sans-serif; font-size:48px; text-anchor:end;" transform="rotate(0, 198.152, 1406.37)" x="198.152" y="1406.37">-1000</text>
</g>
<g clip-path="url(#clip7200)">
<text style="fill:#000000; fill-opacity:1; font-family:Arial,Helvetica Neue,Helvetica,sans-serif; font-size:48px; text-anchor:end;" transform="rotate(0, 198.152, 1107.1)" x="198.152" y="1107.1">0</text>
</g>
<g clip-path="url(#clip7200)">
<text style="fill:#000000; fill-opacity:1; font-family:Arial,Helvetica Neue,Helvetica,sans-serif; font-size:48px; text-anchor:end;" transform="rotate(0, 198.152, 807.836)" x="198.152" y="807.836">1000</text>
</g>
<g clip-path="url(#clip7200)">
<text style="fill:#000000; fill-opacity:1; font-family:Arial,Helvetica Neue,Helvetica,sans-serif; font-size:48px; text-anchor:end;" transform="rotate(0, 198.152, 508.569)" x="198.152" y="508.569">2000</text>
</g>
<g clip-path="url(#clip7200)">
<text style="fill:#000000; fill-opacity:1; font-family:Arial,Helvetica Neue,Helvetica,sans-serif; font-size:48px; text-anchor:end;" transform="rotate(0, 198.152, 209.302)" x="198.152" y="209.302">3000</text>
</g>
<polyline clip-path="url(#clip7202)" style="stroke:#000000; stroke-width:4; stroke-opacity:1; fill:none" points="
  232.805,992.634 243.458,995.345 254.111,998.533 264.764,1000.02 275.417,1001.55 286.07,1004.52 296.723,1008.44 307.376,1011.16 318.029,1013.67 328.682,1015.89 
  339.335,1017.49 349.988,1016.9 360.641,1013.84 371.294,1011.8 381.947,1012.36 392.6,1011.78 403.253,1011.1 413.906,1010.35 424.559,1009.51 435.212,1008.61 
  445.865,1007.64 456.518,1006.75 467.171,1006.91 477.824,1009.14 488.477,1012.06 499.13,1014.59 509.783,1017.38 520.436,1020.48 531.089,1024.03 541.742,1028.04 
  552.395,1032.41 563.048,1036.16 573.701,1038.51 584.354,1039.59 595.007,1039.03 605.66,1036.84 616.313,1033.02 626.966,1028.69 637.619,1024.88 648.272,1020.08 
  658.925,1015.53 669.578,1010.56 680.232,1007.14 690.885,1005.24 701.538,1004.32 712.191,1003.03 722.844,1001.13 733.497,998.123 744.15,995.793 754.803,994.251 
  765.456,994.078 776.109,993.294 786.762,992.573 797.415,991.85 808.068,991.147 818.721,990.746 829.374,989.572 840.027,986.089 850.68,983.46 861.333,981.664 
  871.986,981.372 882.639,982.18 893.292,983.943 903.945,983.036 914.598,980.082 925.251,977.9 935.904,975.295 946.557,972.565 957.21,970.312 967.863,969.495 
  978.516,968.464 989.169,969.272 999.822,968.783 1010.48,967.934 1021.13,966.592 1031.78,964.97 1042.43,962.703 1053.09,960.177 1063.74,958.537 1074.39,957.961 
  1085.05,955.876 1095.7,953.194 1106.35,949.551 1117.01,945.16 1127.66,940.09 1138.31,936.242 1148.96,934.704 1159.62,931.589 1170.27,927.87 1180.92,926.373 
  1191.58,921.796 1202.23,915.694 1212.88,908.884 1223.54,903.923 1234.19,900.404 1244.84,894.806 1255.49,891.504 1266.15,887.602 1276.8,880.06 1287.45,871.89 
  1298.11,863.844 1308.76,853.227 1319.41,847.777 1330.07,847.958 1340.72,848.165 1351.37,848.028 1362.02,849.044 1372.68,847.206 1383.33,847.444 1393.98,843.654 
  1404.64,839.485 1415.29,839.569 1425.94,842.497 1436.6,842.548 1447.25,842.443 1457.9,844.288 1468.56,843.31 1479.21,840.98 1489.86,837.087 1500.51,831.917 
  1511.17,827.212 1521.82,825.165 1532.47,820.401 1543.13,815.043 1553.78,809.134 1564.43,799.43 1575.09,788.625 1585.74,776.088 1596.39,759.977 1607.04,743.642 
  1617.7,734.752 1628.35,724.759 1639,710.649 1649.66,696.701 1660.31,681.56 1670.96,659.179 1681.62,634.468 1692.27,605.644 1702.92,576.673 1713.57,542.842 
  1724.23,501.905 1734.88,452.325 1745.53,393.583 1756.19,359.845 1766.84,326.878 1777.49,293.919 1788.15,262.042 1798.8,232.963 1809.45,204.652 1820.1,177.36 
  1830.76,153.74 1841.41,135.154 1852.06,116.799 1862.72,101.871 1873.37,90.5426 1884.02,88.0053 1894.68,91.6482 1905.33,96.2643 1915.98,101.788 1926.64,111.387 
  1937.29,123.499 1947.94,137.216 1958.59,151.187 1969.25,158.07 1979.9,169.087 1990.55,179.874 2001.21,186.071 2011.86,195.329 2022.51,203.249 2033.17,206.453 
  2043.82,213.274 2054.47,218.729 2065.12,221.404 2075.78,231.537 2086.43,237.61 2097.08,242.669 2107.74,263.93 2118.39,557.79 2129.04,1446.71 
  "/>
<path clip-path="url(#clip7200)" d="
M294.152 251.724 L828.489 251.724 L828.489 130.764 L294.152 130.764  Z
  " fill="#ffffff" fill-rule="evenodd" fill-opacity="1"/>
<polyline clip-path="url(#clip7200)" style="stroke:#000000; stroke-width:4; stroke-opacity:1; fill:none" points="
  294.152,251.724 828.489,251.724 828.489,130.764 294.152,130.764 294.152,251.724 
  "/>
<polyline clip-path="url(#clip7200)" style="stroke:#000000; stroke-width:4; stroke-opacity:1; fill:none" points="
  318.152,191.244 462.152,191.244 
  "/>
<g clip-path="url(#clip7200)">
<text style="fill:#000000; fill-opacity:1; font-family:Arial,Helvetica Neue,Helvetica,sans-serif; font-size:48px; text-anchor:start;" transform="rotate(0, 486.152, 208.744)" x="486.152" y="208.744">Iteration #280</text>
</g>
</svg>
