<?xml version="1.0" encoding="utf-8"?>
<svg xmlns="http://www.w3.org/2000/svg" xmlns:xlink="http://www.w3.org/1999/xlink" width="600" height="400" viewBox="0 0 2400 1600">
<defs>
  <clipPath id="clip6000">
    <rect x="0" y="0" width="2400" height="1600"/>
  </clipPath>
</defs>
<path clip-path="url(#clip6000)" d="
M0 1600 L2400 1600 L2400 0 L0 0  Z
  " fill="#ffffff" fill-rule="evenodd" fill-opacity="1"/>
<defs>
  <clipPath id="clip6001">
    <rect x="480" y="0" width="1681" height="1600"/>
  </clipPath>
</defs>
<path clip-path="url(#clip6000)" d="
M222.152 1487.47 L2352.76 1487.47 L2352.76 47.2441 L222.152 47.2441  Z
  " fill="#ffffff" fill-rule="evenodd" fill-opacity="1"/>
<defs>
  <clipPath id="clip6002">
    <rect x="222" y="47" width="2132" height="1441"/>
  </clipPath>
</defs>
<polyline clip-path="url(#clip6000)" style="stroke:#000000; stroke-width:4; stroke-opacity:1; fill:none" points="
  222.152,1487.47 2352.76,1487.47 
  "/>
<polyline clip-path="url(#clip6000)" style="stroke:#000000; stroke-width:4; stroke-opacity:1; fill:none" points="
  222.152,1487.47 222.152,47.2441 
  "/>
<polyline clip-path="url(#clip6000)" style="stroke:#000000; stroke-width:4; stroke-opacity:1; fill:none" points="
  222.152,1487.47 222.152,1470.19 
  "/>
<polyline clip-path="url(#clip6000)" style="stroke:#000000; stroke-width:4; stroke-opacity:1; fill:none" points="
  754.803,1487.47 754.803,1470.19 
  "/>
<polyline clip-path="url(#clip6000)" style="stroke:#000000; stroke-width:4; stroke-opacity:1; fill:none" points="
  1287.45,1487.47 1287.45,1470.19 
  "/>
<polyline clip-path="url(#clip6000)" style="stroke:#000000; stroke-width:4; stroke-opacity:1; fill:none" points="
  1820.1,1487.47 1820.1,1470.19 
  "/>
<polyline clip-path="url(#clip6000)" style="stroke:#000000; stroke-width:4; stroke-opacity:1; fill:none" points="
  2352.76,1487.47 2352.76,1470.19 
  "/>
<polyline clip-path="url(#clip6000)" style="stroke:#000000; stroke-width:4; stroke-opacity:1; fill:none" points="
  222.152,1404.51 247.719,1404.51 
  "/>
<polyline clip-path="url(#clip6000)" style="stroke:#000000; stroke-width:4; stroke-opacity:1; fill:none" points="
  222.152,1093.91 247.719,1093.91 
  "/>
<polyline clip-path="url(#clip6000)" style="stroke:#000000; stroke-width:4; stroke-opacity:1; fill:none" points="
  222.152,783.316 247.719,783.316 
  "/>
<polyline clip-path="url(#clip6000)" style="stroke:#000000; stroke-width:4; stroke-opacity:1; fill:none" points="
  222.152,472.718 247.719,472.718 
  "/>
<polyline clip-path="url(#clip6000)" style="stroke:#000000; stroke-width:4; stroke-opacity:1; fill:none" points="
  222.152,162.12 247.719,162.12 
  "/>
<g clip-path="url(#clip6000)">
<text style="fill:#000000; fill-opacity:1; font-family:Arial,Helvetica Neue,Helvetica,sans-serif; font-size:48px; text-anchor:middle;" transform="rotate(0, 222.152, 1541.47)" x="222.152" y="1541.47">0</text>
</g>
<g clip-path="url(#clip6000)">
<text style="fill:#000000; fill-opacity:1; font-family:Arial,Helvetica Neue,Helvetica,sans-serif; font-size:48px; text-anchor:middle;" transform="rotate(0, 754.803, 1541.47)" x="754.803" y="1541.47">50</text>
</g>
<g clip-path="url(#clip6000)">
<text style="fill:#000000; fill-opacity:1; font-family:Arial,Helvetica Neue,Helvetica,sans-serif; font-size:48px; text-anchor:middle;" transform="rotate(0, 1287.45, 1541.47)" x="1287.45" y="1541.47">100</text>
</g>
<g clip-path="url(#clip6000)">
<text style="fill:#000000; fill-opacity:1; font-family:Arial,Helvetica Neue,Helvetica,sans-serif; font-size:48px; text-anchor:middle;" transform="rotate(0, 1820.1, 1541.47)" x="1820.1" y="1541.47">150</text>
</g>
<g clip-path="url(#clip6000)">
<text style="fill:#000000; fill-opacity:1; font-family:Arial,Helvetica Neue,Helvetica,sans-serif; font-size:48px; text-anchor:middle;" transform="rotate(0, 2352.76, 1541.47)" x="2352.76" y="1541.47">200</text>
</g>
<g clip-path="url(#clip6000)">
<text style="fill:#000000; fill-opacity:1; font-family:Arial,Helvetica Neue,Helvetica,sans-serif; font-size:48px; text-anchor:end;" transform="rotate(0, 198.152, 1422.01)" x="198.152" y="1422.01">-1000</text>
</g>
<g clip-path="url(#clip6000)">
<text style="fill:#000000; fill-opacity:1; font-family:Arial,Helvetica Neue,Helvetica,sans-serif; font-size:48px; text-anchor:end;" transform="rotate(0, 198.152, 1111.41)" x="198.152" y="1111.41">0</text>
</g>
<g clip-path="url(#clip6000)">
<text style="fill:#000000; fill-opacity:1; font-family:Arial,Helvetica Neue,Helvetica,sans-serif; font-size:48px; text-anchor:end;" transform="rotate(0, 198.152, 800.816)" x="198.152" y="800.816">1000</text>
</g>
<g clip-path="url(#clip6000)">
<text style="fill:#000000; fill-opacity:1; font-family:Arial,Helvetica Neue,Helvetica,sans-serif; font-size:48px; text-anchor:end;" transform="rotate(0, 198.152, 490.218)" x="198.152" y="490.218">2000</text>
</g>
<g clip-path="url(#clip6000)">
<text style="fill:#000000; fill-opacity:1; font-family:Arial,Helvetica Neue,Helvetica,sans-serif; font-size:48px; text-anchor:end;" transform="rotate(0, 198.152, 179.62)" x="198.152" y="179.62">3000</text>
</g>
<polyline clip-path="url(#clip6002)" style="stroke:#000000; stroke-width:4; stroke-opacity:1; fill:none" points="
  232.805,994.263 243.458,996.804 254.111,999.814 264.764,1001.26 275.417,1002.76 286.07,1005.61 296.723,1009.34 307.376,1011.96 318.029,1014.38 328.682,1016.52 
  339.335,1018.09 349.988,1017.62 360.641,1014.85 371.294,1013.03 381.947,1013.6 392.6,1013.12 403.253,1012.56 413.906,1011.92 424.559,1011.21 435.212,1010.44 
  445.865,1009.62 456.518,1008.89 467.171,1009.14 477.824,1011.32 488.477,1014.13 499.13,1016.6 509.783,1019.32 520.436,1022.31 531.089,1025.72 541.742,1029.54 
  552.395,1033.68 563.048,1037.22 573.701,1039.44 584.354,1040.45 595.007,1039.9 605.66,1037.81 616.313,1034.18 626.966,1030.04 637.619,1026.35 648.272,1021.72 
  658.925,1017.31 669.578,1012.5 680.232,1009.1 690.885,1007.13 701.538,1006.05 712.191,1004.62 722.844,1002.65 733.497,999.639 744.15,997.269 754.803,995.628 
  765.456,995.268 776.109,994.344 786.762,993.489 797.415,992.635 808.068,991.804 818.721,991.256 829.374,989.995 840.027,986.601 850.68,984.002 861.333,982.18 
  871.986,981.754 882.639,982.36 893.292,983.84 903.945,982.86 914.598,979.972 925.251,977.802 935.904,975.226 946.557,972.56 957.21,970.304 967.863,969.406 
  978.516,968.301 989.169,968.897 999.822,968.295 1010.48,967.348 1021.13,965.926 1031.78,964.25 1042.43,961.942 1053.09,959.392 1063.74,957.645 1074.39,956.861 
  1085.05,954.659 1095.7,951.888 1106.35,948.189 1117.01,943.793 1127.66,938.738 1138.31,934.799 1148.96,932.995 1159.62,929.704 1170.27,925.838 1180.92,924.024 
  1191.58,919.324 1202.23,913.203 1212.88,906.42 1223.54,901.328 1234.19,897.586 1244.84,891.91 1255.49,888.355 1266.15,884.267 1276.8,876.794 1287.45,868.755 
  1298.11,860.866 1308.76,850.609 1319.41,845.19 1330.07,845.032 1340.72,844.924 1351.37,844.552 1362.02,845.254 1372.68,843.321 1383.33,843.339 1393.98,839.604 
  1404.64,835.517 1415.29,835.384 1425.94,837.838 1436.6,837.625 1447.25,837.229 1457.9,838.572 1468.56,837.26 1479.21,834.612 1489.86,830.427 1500.51,825.007 
  1511.17,819.904 1521.82,817.171 1532.47,811.849 1543.13,805.836 1553.78,799.223 1564.43,788.994 1575.09,777.605 1585.74,764.535 1596.39,748.046 1607.04,731.247 
  1617.7,721.247 1628.35,710.114 1639,695.078 1649.66,680.109 1660.31,663.914 1670.96,640.934 1681.62,615.718 1692.27,586.568 1702.92,557.163 1713.57,523.121 
  1724.23,482.281 1734.88,433.126 1745.53,374.613 1756.19,342.384 1766.84,311.246 1777.49,280.29 1788.15,250.424 1798.8,223.269 1809.45,196.847 1820.1,171.381 
  1830.76,149.462 1841.41,132.073 1852.06,114.928 1862.72,101.131 1873.37,90.4101 1884.02,88.0053 1894.68,91.3613 1905.33,95.5096 1915.98,100.655 1926.64,109.622 
  1937.29,120.785 1947.94,133.637 1958.59,146.726 1969.25,153.052 1979.9,163.58 1990.55,173.673 2001.21,179.371 2011.86,188.39 2022.51,195.794 2033.17,198.716 
  2043.82,205.444 2054.47,210.571 2065.12,213.102 2075.78,222.979 2086.43,228.491 2097.08,233.426 2107.74,254.062 2118.39,541.492 2129.04,1446.71 
  "/>
<path clip-path="url(#clip6000)" d="
M294.152 251.724 L828.489 251.724 L828.489 130.764 L294.152 130.764  Z
  " fill="#ffffff" fill-rule="evenodd" fill-opacity="1"/>
<polyline clip-path="url(#clip6000)" style="stroke:#000000; stroke-width:4; stroke-opacity:1; fill:none" points="
  294.152,251.724 828.489,251.724 828.489,130.764 294.152,130.764 294.152,251.724 
  "/>
<polyline clip-path="url(#clip6000)" style="stroke:#000000; stroke-width:4; stroke-opacity:1; fill:none" points="
  318.152,191.244 462.152,191.244 
  "/>
<g clip-path="url(#clip6000)">
<text style="fill:#000000; fill-opacity:1; font-family:Arial,Helvetica Neue,Helvetica,sans-serif; font-size:48px; text-anchor:start;" transform="rotate(0, 486.152, 208.744)" x="486.152" y="208.744">Iteration #260</text>
</g>
</svg>
