<?xml version="1.0" encoding="utf-8"?>
<svg xmlns="http://www.w3.org/2000/svg" xmlns:xlink="http://www.w3.org/1999/xlink" width="600" height="400" viewBox="0 0 2400 1600">
<defs>
  <clipPath id="clip0200">
    <rect x="0" y="0" width="2400" height="1600"/>
  </clipPath>
</defs>
<path clip-path="url(#clip0200)" d="
M0 1600 L2400 1600 L2400 0 L0 0  Z
  " fill="#ffffff" fill-rule="evenodd" fill-opacity="1"/>
<defs>
  <clipPath id="clip0201">
    <rect x="480" y="0" width="1681" height="1600"/>
  </clipPath>
</defs>
<path clip-path="url(#clip0200)" d="
M222.152 1487.47 L2352.76 1487.47 L2352.76 47.2441 L222.152 47.2441  Z
  " fill="#ffffff" fill-rule="evenodd" fill-opacity="1"/>
<defs>
  <clipPath id="clip0202">
    <rect x="222" y="47" width="2132" height="1441"/>
  </clipPath>
</defs>
<polyline clip-path="url(#clip0200)" style="stroke:#000000; stroke-width:4; stroke-opacity:1; fill:none" points="
  222.152,1487.47 2352.76,1487.47 
  "/>
<polyline clip-path="url(#clip0200)" style="stroke:#000000; stroke-width:4; stroke-opacity:1; fill:none" points="
  222.152,1487.47 222.152,47.2441 
  "/>
<polyline clip-path="url(#clip0200)" style="stroke:#000000; stroke-width:4; stroke-opacity:1; fill:none" points="
  222.152,1487.47 222.152,1470.19 
  "/>
<polyline clip-path="url(#clip0200)" style="stroke:#000000; stroke-width:4; stroke-opacity:1; fill:none" points="
  754.803,1487.47 754.803,1470.19 
  "/>
<polyline clip-path="url(#clip0200)" style="stroke:#000000; stroke-width:4; stroke-opacity:1; fill:none" points="
  1287.45,1487.47 1287.45,1470.19 
  "/>
<polyline clip-path="url(#clip0200)" style="stroke:#000000; stroke-width:4; stroke-opacity:1; fill:none" points="
  1820.1,1487.47 1820.1,1470.19 
  "/>
<polyline clip-path="url(#clip0200)" style="stroke:#000000; stroke-width:4; stroke-opacity:1; fill:none" points="
  2352.76,1487.47 2352.76,1470.19 
  "/>
<polyline clip-path="url(#clip0200)" style="stroke:#000000; stroke-width:4; stroke-opacity:1; fill:none" points="
  222.152,1356.8 247.719,1356.8 
  "/>
<polyline clip-path="url(#clip0200)" style="stroke:#000000; stroke-width:4; stroke-opacity:1; fill:none" points="
  222.152,1081.27 247.719,1081.27 
  "/>
<polyline clip-path="url(#clip0200)" style="stroke:#000000; stroke-width:4; stroke-opacity:1; fill:none" points="
  222.152,805.741 247.719,805.741 
  "/>
<polyline clip-path="url(#clip0200)" style="stroke:#000000; stroke-width:4; stroke-opacity:1; fill:none" points="
  222.152,530.21 247.719,530.21 
  "/>
<polyline clip-path="url(#clip0200)" style="stroke:#000000; stroke-width:4; stroke-opacity:1; fill:none" points="
  222.152,254.678 247.719,254.678 
  "/>
<g clip-path="url(#clip0200)">
<text style="fill:#000000; fill-opacity:1; font-family:Arial,Helvetica Neue,Helvetica,sans-serif; font-size:48px; text-anchor:middle;" transform="rotate(0, 222.152, 1541.47)" x="222.152" y="1541.47">0</text>
</g>
<g clip-path="url(#clip0200)">
<text style="fill:#000000; fill-opacity:1; font-family:Arial,Helvetica Neue,Helvetica,sans-serif; font-size:48px; text-anchor:middle;" transform="rotate(0, 754.803, 1541.47)" x="754.803" y="1541.47">50</text>
</g>
<g clip-path="url(#clip0200)">
<text style="fill:#000000; fill-opacity:1; font-family:Arial,Helvetica Neue,Helvetica,sans-serif; font-size:48px; text-anchor:middle;" transform="rotate(0, 1287.45, 1541.47)" x="1287.45" y="1541.47">100</text>
</g>
<g clip-path="url(#clip0200)">
<text style="fill:#000000; fill-opacity:1; font-family:Arial,Helvetica Neue,Helvetica,sans-serif; font-size:48px; text-anchor:middle;" transform="rotate(0, 1820.1, 1541.47)" x="1820.1" y="1541.47">150</text>
</g>
<g clip-path="url(#clip0200)">
<text style="fill:#000000; fill-opacity:1; font-family:Arial,Helvetica Neue,Helvetica,sans-serif; font-size:48px; text-anchor:middle;" transform="rotate(0, 2352.76, 1541.47)" x="2352.76" y="1541.47">200</text>
</g>
<g clip-path="url(#clip0200)">
<text style="fill:#000000; fill-opacity:1; font-family:Arial,Helvetica Neue,Helvetica,sans-serif; font-size:48px; text-anchor:end;" transform="rotate(0, 198.152, 1374.3)" x="198.152" y="1374.3">-1000</text>
</g>
<g clip-path="url(#clip0200)">
<text style="fill:#000000; fill-opacity:1; font-family:Arial,Helvetica Neue,Helvetica,sans-serif; font-size:48px; text-anchor:end;" transform="rotate(0, 198.152, 1098.77)" x="198.152" y="1098.77">0</text>
</g>
<g clip-path="url(#clip0200)">
<text style="fill:#000000; fill-opacity:1; font-family:Arial,Helvetica Neue,Helvetica,sans-serif; font-size:48px; text-anchor:end;" transform="rotate(0, 198.152, 823.241)" x="198.152" y="823.241">1000</text>
</g>
<g clip-path="url(#clip0200)">
<text style="fill:#000000; fill-opacity:1; font-family:Arial,Helvetica Neue,Helvetica,sans-serif; font-size:48px; text-anchor:end;" transform="rotate(0, 198.152, 547.71)" x="198.152" y="547.71">2000</text>
</g>
<g clip-path="url(#clip0200)">
<text style="fill:#000000; fill-opacity:1; font-family:Arial,Helvetica Neue,Helvetica,sans-serif; font-size:48px; text-anchor:end;" transform="rotate(0, 198.152, 272.178)" x="198.152" y="272.178">3000</text>
</g>
<polyline clip-path="url(#clip0202)" style="stroke:#000000; stroke-width:4; stroke-opacity:1; fill:none" points="
  232.805,989.922 243.458,993.037 254.111,996.647 264.764,998.202 275.417,999.749 286.07,1003 296.723,1007.37 307.376,1010.32 318.029,1013.03 328.682,1015.43 
  339.335,1017.12 349.988,1016.25 360.641,1012.46 371.294,1009.93 381.947,1010.49 392.6,1009.69 403.253,1008.79 413.906,1007.78 424.559,1006.65 435.212,1005.43 
  445.865,1004.11 456.518,1002.84 467.171,1002.78 477.824,1005.14 488.477,1008.27 499.13,1010.92 509.783,1013.86 520.436,1017.17 531.089,1021 541.742,1025.43 
  552.395,1030.33 563.048,1034.55 573.701,1037.2 584.354,1038.45 595.007,1037.84 605.66,1035.43 616.313,1031.17 626.966,1026.41 637.619,1022.34 648.272,1017.17 
  658.925,1012.35 669.578,1007.04 680.232,1003.59 690.885,1001.94 701.538,1001.44 712.191,1000.5 722.844,998.817 733.497,995.805 744.15,993.569 754.803,992.254 
  765.456,992.522 776.109,992.053 786.762,991.622 797.415,991.182 808.068,990.747 818.721,990.663 829.374,989.663 840.027,985.903 850.68,983.152 861.333,981.371 
  871.986,981.35 882.639,982.603 893.292,985.015 903.945,984.232 914.598,981.067 925.251,978.811 935.904,976.089 946.557,973.172 957.21,970.869 967.863,970.213 
  978.516,969.316 989.169,970.59 999.822,970.337 1010.48,969.673 1021.13,968.475 1031.78,966.954 1042.43,964.733 1053.09,962.229 1063.74,960.828 1074.39,960.722 
  1085.05,958.907 1095.7,956.421 1106.35,952.893 1117.01,948.517 1127.66,943.387 1138.31,939.758 1148.96,938.893 1159.62,936.186 1170.27,932.836 1180.92,932.143 
  1191.58,927.862 1202.23,921.844 1212.88,914.984 1223.54,910.371 1234.19,907.461 1244.84,902.062 1255.49,899.428 1266.15,896.052 1276.8,888.343 1287.45,879.896 
  1298.11,871.491 1308.76,859.95 1319.41,854.418 1330.07,855.366 1340.72,856.249 1351.37,856.602 1362.02,858.219 1372.68,856.453 1383.33,857.082 1393.98,852.907 
  1404.64,848.317 1415.29,848.701 1425.94,852.499 1436.6,852.944 1447.25,853.235 1457.9,855.998 1468.56,855.566 1479.21,853.664 1489.86,850.185 1500.51,845.357 
  1511.17,841.282 1521.82,840.67 1532.47,837.022 1543.13,832.998 1553.78,828.649 1564.43,820.041 1575.09,810.517 1585.74,799.233 1596.39,783.964 1607.04,768.752 
  1617.7,762.676 1628.35,755.538 1639,743.872 1649.66,732.653 1660.31,720.357 1670.96,699.764 1681.62,676.678 1692.27,649.002 1702.92,621.557 1713.57,588.63 
  1724.23,547.799 1734.88,497.465 1745.53,438.209 1756.19,401.15 1766.84,364.094 1777.49,326.401 1788.15,289.83 1798.8,256.291 1809.45,223.304 1820.1,191.652 
  1830.76,164.075 1841.41,142.351 1852.06,121.25 1862.72,103.724 1873.37,90.6472 1884.02,88.0053 1894.68,92.3742 1905.33,97.8576 1915.98,104.631 1926.64,115.641 
  1937.29,129.711 1947.94,145.994 1958.59,161.789 1969.25,169.541 1979.9,182.526 1990.55,194.39 2001.21,201.429 2011.86,211.999 2022.51,220.511 2033.17,224.141 
  2043.82,231.823 2054.47,237.379 2065.12,240.182 2075.78,251.821 2086.43,257.921 2097.08,263.814 2107.74,286.934 2118.39,571.705 2129.04,1446.71 
  "/>
<path clip-path="url(#clip0200)" d="
M294.152 251.724 L828.489 251.724 L828.489 130.764 L294.152 130.764  Z
  " fill="#ffffff" fill-rule="evenodd" fill-opacity="1"/>
<polyline clip-path="url(#clip0200)" style="stroke:#000000; stroke-width:4; stroke-opacity:1; fill:none" points="
  294.152,251.724 828.489,251.724 828.489,130.764 294.152,130.764 294.152,251.724 
  "/>
<polyline clip-path="url(#clip0200)" style="stroke:#000000; stroke-width:4; stroke-opacity:1; fill:none" points="
  318.152,191.244 462.152,191.244 
  "/>
<g clip-path="url(#clip0200)">
<text style="fill:#000000; fill-opacity:1; font-family:Arial,Helvetica Neue,Helvetica,sans-serif; font-size:48px; text-anchor:start;" transform="rotate(0, 486.152, 208.744)" x="486.152" y="208.744">Iteration #330</text>
</g>
</svg>
