<?xml version="1.0" encoding="utf-8"?>
<svg xmlns="http://www.w3.org/2000/svg" xmlns:xlink="http://www.w3.org/1999/xlink" width="600" height="400" viewBox="0 0 2400 1600">
<defs>
  <clipPath id="clip1800">
    <rect x="0" y="0" width="2400" height="1600"/>
  </clipPath>
</defs>
<path clip-path="url(#clip1800)" d="
M0 1600 L2400 1600 L2400 0 L0 0  Z
  " fill="#ffffff" fill-rule="evenodd" fill-opacity="1"/>
<defs>
  <clipPath id="clip1801">
    <rect x="480" y="0" width="1681" height="1600"/>
  </clipPath>
</defs>
<path clip-path="url(#clip1800)" d="
M222.152 1487.47 L2352.76 1487.47 L2352.76 47.2441 L222.152 47.2441  Z
  " fill="#ffffff" fill-rule="evenodd" fill-opacity="1"/>
<defs>
  <clipPath id="clip1802">
    <rect x="222" y="47" width="2132" height="1441"/>
  </clipPath>
</defs>
<polyline clip-path="url(#clip1800)" style="stroke:#000000; stroke-width:4; stroke-opacity:1; fill:none" points="
  222.152,1487.47 2352.76,1487.47 
  "/>
<polyline clip-path="url(#clip1800)" style="stroke:#000000; stroke-width:4; stroke-opacity:1; fill:none" points="
  222.152,1487.47 222.152,47.2441 
  "/>
<polyline clip-path="url(#clip1800)" style="stroke:#000000; stroke-width:4; stroke-opacity:1; fill:none" points="
  222.152,1487.47 222.152,1470.19 
  "/>
<polyline clip-path="url(#clip1800)" style="stroke:#000000; stroke-width:4; stroke-opacity:1; fill:none" points="
  754.803,1487.47 754.803,1470.19 
  "/>
<polyline clip-path="url(#clip1800)" style="stroke:#000000; stroke-width:4; stroke-opacity:1; fill:none" points="
  1287.45,1487.47 1287.45,1470.19 
  "/>
<polyline clip-path="url(#clip1800)" style="stroke:#000000; stroke-width:4; stroke-opacity:1; fill:none" points="
  1820.1,1487.47 1820.1,1470.19 
  "/>
<polyline clip-path="url(#clip1800)" style="stroke:#000000; stroke-width:4; stroke-opacity:1; fill:none" points="
  2352.76,1487.47 2352.76,1470.19 
  "/>
<polyline clip-path="url(#clip1800)" style="stroke:#000000; stroke-width:4; stroke-opacity:1; fill:none" points="
  222.152,1481.06 247.719,1481.06 
  "/>
<polyline clip-path="url(#clip1800)" style="stroke:#000000; stroke-width:4; stroke-opacity:1; fill:none" points="
  222.152,1117.62 247.719,1117.62 
  "/>
<polyline clip-path="url(#clip1800)" style="stroke:#000000; stroke-width:4; stroke-opacity:1; fill:none" points="
  222.152,754.183 247.719,754.183 
  "/>
<polyline clip-path="url(#clip1800)" style="stroke:#000000; stroke-width:4; stroke-opacity:1; fill:none" points="
  222.152,390.743 247.719,390.743 
  "/>
<g clip-path="url(#clip1800)">
<text style="fill:#000000; fill-opacity:1; font-family:Arial,Helvetica Neue,Helvetica,sans-serif; font-size:48px; text-anchor:middle;" transform="rotate(0, 222.152, 1541.47)" x="222.152" y="1541.47">0</text>
</g>
<g clip-path="url(#clip1800)">
<text style="fill:#000000; fill-opacity:1; font-family:Arial,Helvetica Neue,Helvetica,sans-serif; font-size:48px; text-anchor:middle;" transform="rotate(0, 754.803, 1541.47)" x="754.803" y="1541.47">50</text>
</g>
<g clip-path="url(#clip1800)">
<text style="fill:#000000; fill-opacity:1; font-family:Arial,Helvetica Neue,Helvetica,sans-serif; font-size:48px; text-anchor:middle;" transform="rotate(0, 1287.45, 1541.47)" x="1287.45" y="1541.47">100</text>
</g>
<g clip-path="url(#clip1800)">
<text style="fill:#000000; fill-opacity:1; font-family:Arial,Helvetica Neue,Helvetica,sans-serif; font-size:48px; text-anchor:middle;" transform="rotate(0, 1820.1, 1541.47)" x="1820.1" y="1541.47">150</text>
</g>
<g clip-path="url(#clip1800)">
<text style="fill:#000000; fill-opacity:1; font-family:Arial,Helvetica Neue,Helvetica,sans-serif; font-size:48px; text-anchor:middle;" transform="rotate(0, 2352.76, 1541.47)" x="2352.76" y="1541.47">200</text>
</g>
<g clip-path="url(#clip1800)">
<text style="fill:#000000; fill-opacity:1; font-family:Arial,Helvetica Neue,Helvetica,sans-serif; font-size:48px; text-anchor:end;" transform="rotate(0, 198.152, 1498.56)" x="198.152" y="1498.56">-1000</text>
</g>
<g clip-path="url(#clip1800)">
<text style="fill:#000000; fill-opacity:1; font-family:Arial,Helvetica Neue,Helvetica,sans-serif; font-size:48px; text-anchor:end;" transform="rotate(0, 198.152, 1135.12)" x="198.152" y="1135.12">0</text>
</g>
<g clip-path="url(#clip1800)">
<text style="fill:#000000; fill-opacity:1; font-family:Arial,Helvetica Neue,Helvetica,sans-serif; font-size:48px; text-anchor:end;" transform="rotate(0, 198.152, 771.683)" x="198.152" y="771.683">1000</text>
</g>
<g clip-path="url(#clip1800)">
<text style="fill:#000000; fill-opacity:1; font-family:Arial,Helvetica Neue,Helvetica,sans-serif; font-size:48px; text-anchor:end;" transform="rotate(0, 198.152, 408.243)" x="198.152" y="408.243">2000</text>
</g>
<polyline clip-path="url(#clip1802)" style="stroke:#000000; stroke-width:4; stroke-opacity:1; fill:none" points="
  232.805,1005.67 243.458,1007.58 254.111,1009.91 264.764,1011.16 275.417,1012.5 286.07,1014.82 296.723,1017.81 307.376,1019.99 318.029,1022.07 328.682,1023.9 
  339.335,1025.33 349.988,1025.27 360.641,1023.57 371.294,1022.52 381.947,1023.18 392.6,1023.1 403.253,1022.95 413.906,1022.77 424.559,1022.53 435.212,1022.27 
  445.865,1021.99 456.518,1021.8 467.171,1022.32 477.824,1024.25 488.477,1026.64 499.13,1028.79 509.783,1031.12 520.436,1033.63 531.089,1036.42 541.742,1039.45 
  552.395,1042.67 563.048,1045.37 573.701,1047.05 584.354,1047.75 595.007,1047.28 605.66,1045.56 616.313,1042.66 626.966,1039.28 637.619,1036.14 648.272,1032.26 
  658.925,1028.47 669.578,1024.35 680.232,1021.17 690.885,1019.02 701.538,1017.47 712.191,1015.65 722.844,1013.45 733.497,1010.48 744.15,1007.99 754.803,1005.99 
  765.456,1004.95 776.109,1003.49 786.762,1002.1 797.415,1000.71 808.068,999.34 818.721,998.178 829.374,996.508 840.027,993.321 850.68,990.709 861.333,988.664 
  871.986,987.624 882.639,987.372 893.292,987.696 903.945,986.31 914.598,983.509 925.251,981.239 935.904,978.629 946.557,976.047 957.21,973.635 967.863,972.306 
  978.516,970.779 989.169,970.47 999.822,969.309 1010.48,967.865 1021.13,966.015 1031.78,964.017 1042.43,961.439 1053.09,958.695 1063.74,956.463 1074.39,954.86 
  1085.05,952.174 1095.7,949.033 1106.35,945.098 1117.01,940.666 1127.66,935.653 1138.31,931.381 1148.96,928.636 1159.62,924.727 1170.27,920.35 1180.92,917.437 
  1191.58,912.33 1202.23,906.179 1212.88,899.527 1223.54,894.001 1234.19,889.5 1244.84,883.555 1255.49,879.11 1266.15,874.338 1276.8,867.07 1287.45,859.42 
  1298.11,851.975 1308.76,842.803 1319.41,837.246 1330.07,835.569 1340.72,833.939 1351.37,832.252 1362.02,831.317 1372.68,828.449 1383.33,827.056 1393.98,822.837 
  1404.64,818.327 1415.29,816.665 1425.94,816.656 1436.6,814.693 1447.25,812.448 1457.9,811.204 1468.56,807.901 1479.21,803.373 1489.86,797.429 1500.51,790.443 
  1511.17,783.306 1521.82,777.603 1532.47,769.821 1543.13,761.093 1553.78,751.708 1564.43,739.42 1575.09,725.906 1585.74,710.968 1596.39,693.297 1607.04,675.082 
  1617.7,661.489 1628.35,646.798 1639,629.018 1649.66,611.093 1660.31,591.887 1670.96,567.614 1681.62,541.401 1692.27,511.91 1702.92,481.792 1713.57,447.74 
  1724.23,407.779 1734.88,360.377 1745.53,302.481 1756.19,276.379 1766.84,252.459 1777.49,229.216 1788.15,206.998 1798.8,187.107 1809.45,167.72 1820.1,149.113 
  1830.76,133.336 1841.41,120.531 1852.06,107.87 1862.72,98.1937 1873.37,89.8599 1884.02,88.0053 1894.68,90.3126 1905.33,92.7713 1915.98,96.6101 1926.64,103.183 
  1937.29,110.84 1947.94,120.444 1958.59,130.123 1969.25,134.469 1979.9,142.793 1990.55,150.311 2001.21,154.294 2011.86,161.877 2022.51,167.42 2033.17,169.182 
  2043.82,175.434 2054.47,178.995 2065.12,181.168 2075.78,189.434 2086.43,193.13 2097.08,197.55 2107.74,214.139 2118.39,494.258 2129.04,1446.71 
  "/>
<path clip-path="url(#clip1800)" d="
M294.152 251.724 L828.489 251.724 L828.489 130.764 L294.152 130.764  Z
  " fill="#ffffff" fill-rule="evenodd" fill-opacity="1"/>
<polyline clip-path="url(#clip1800)" style="stroke:#000000; stroke-width:4; stroke-opacity:1; fill:none" points="
  294.152,251.724 828.489,251.724 828.489,130.764 294.152,130.764 294.152,251.724 
  "/>
<polyline clip-path="url(#clip1800)" style="stroke:#000000; stroke-width:4; stroke-opacity:1; fill:none" points="
  318.152,191.244 462.152,191.244 
  "/>
<g clip-path="url(#clip1800)">
<text style="fill:#000000; fill-opacity:1; font-family:Arial,Helvetica Neue,Helvetica,sans-serif; font-size:48px; text-anchor:start;" transform="rotate(0, 486.152, 208.744)" x="486.152" y="208.744">Iteration #190</text>
</g>
</svg>
