<?xml version="1.0" encoding="utf-8"?>
<svg xmlns="http://www.w3.org/2000/svg" xmlns:xlink="http://www.w3.org/1999/xlink" width="600" height="400" viewBox="0 0 2400 1600">
<defs>
  <clipPath id="clip3000">
    <rect x="0" y="0" width="2400" height="1600"/>
  </clipPath>
</defs>
<path clip-path="url(#clip3000)" d="
M0 1600 L2400 1600 L2400 0 L0 0  Z
  " fill="#ffffff" fill-rule="evenodd" fill-opacity="1"/>
<defs>
  <clipPath id="clip3001">
    <rect x="480" y="0" width="1681" height="1600"/>
  </clipPath>
</defs>
<path clip-path="url(#clip3000)" d="
M222.152 1487.47 L2352.76 1487.47 L2352.76 47.2441 L222.152 47.2441  Z
  " fill="#ffffff" fill-rule="evenodd" fill-opacity="1"/>
<defs>
  <clipPath id="clip3002">
    <rect x="222" y="47" width="2132" height="1441"/>
  </clipPath>
</defs>
<polyline clip-path="url(#clip3000)" style="stroke:#000000; stroke-width:4; stroke-opacity:1; fill:none" points="
  222.152,1487.47 2352.76,1487.47 
  "/>
<polyline clip-path="url(#clip3000)" style="stroke:#000000; stroke-width:4; stroke-opacity:1; fill:none" points="
  222.152,1487.47 222.152,47.2441 
  "/>
<polyline clip-path="url(#clip3000)" style="stroke:#000000; stroke-width:4; stroke-opacity:1; fill:none" points="
  222.152,1487.47 222.152,1470.19 
  "/>
<polyline clip-path="url(#clip3000)" style="stroke:#000000; stroke-width:4; stroke-opacity:1; fill:none" points="
  754.803,1487.47 754.803,1470.19 
  "/>
<polyline clip-path="url(#clip3000)" style="stroke:#000000; stroke-width:4; stroke-opacity:1; fill:none" points="
  1287.45,1487.47 1287.45,1470.19 
  "/>
<polyline clip-path="url(#clip3000)" style="stroke:#000000; stroke-width:4; stroke-opacity:1; fill:none" points="
  1820.1,1487.47 1820.1,1470.19 
  "/>
<polyline clip-path="url(#clip3000)" style="stroke:#000000; stroke-width:4; stroke-opacity:1; fill:none" points="
  2352.76,1487.47 2352.76,1470.19 
  "/>
<polyline clip-path="url(#clip3000)" style="stroke:#000000; stroke-width:4; stroke-opacity:1; fill:none" points="
  222.152,1455.11 247.719,1455.11 
  "/>
<polyline clip-path="url(#clip3000)" style="stroke:#000000; stroke-width:4; stroke-opacity:1; fill:none" points="
  222.152,1109.34 247.719,1109.34 
  "/>
<polyline clip-path="url(#clip3000)" style="stroke:#000000; stroke-width:4; stroke-opacity:1; fill:none" points="
  222.152,763.575 247.719,763.575 
  "/>
<polyline clip-path="url(#clip3000)" style="stroke:#000000; stroke-width:4; stroke-opacity:1; fill:none" points="
  222.152,417.807 247.719,417.807 
  "/>
<polyline clip-path="url(#clip3000)" style="stroke:#000000; stroke-width:4; stroke-opacity:1; fill:none" points="
  222.152,72.0383 247.719,72.0383 
  "/>
<g clip-path="url(#clip3000)">
<text style="fill:#000000; fill-opacity:1; font-family:Arial,Helvetica Neue,Helvetica,sans-serif; font-size:48px; text-anchor:middle;" transform="rotate(0, 222.152, 1541.47)" x="222.152" y="1541.47">0</text>
</g>
<g clip-path="url(#clip3000)">
<text style="fill:#000000; fill-opacity:1; font-family:Arial,Helvetica Neue,Helvetica,sans-serif; font-size:48px; text-anchor:middle;" transform="rotate(0, 754.803, 1541.47)" x="754.803" y="1541.47">50</text>
</g>
<g clip-path="url(#clip3000)">
<text style="fill:#000000; fill-opacity:1; font-family:Arial,Helvetica Neue,Helvetica,sans-serif; font-size:48px; text-anchor:middle;" transform="rotate(0, 1287.45, 1541.47)" x="1287.45" y="1541.47">100</text>
</g>
<g clip-path="url(#clip3000)">
<text style="fill:#000000; fill-opacity:1; font-family:Arial,Helvetica Neue,Helvetica,sans-serif; font-size:48px; text-anchor:middle;" transform="rotate(0, 1820.1, 1541.47)" x="1820.1" y="1541.47">150</text>
</g>
<g clip-path="url(#clip3000)">
<text style="fill:#000000; fill-opacity:1; font-family:Arial,Helvetica Neue,Helvetica,sans-serif; font-size:48px; text-anchor:middle;" transform="rotate(0, 2352.76, 1541.47)" x="2352.76" y="1541.47">200</text>
</g>
<g clip-path="url(#clip3000)">
<text style="fill:#000000; fill-opacity:1; font-family:Arial,Helvetica Neue,Helvetica,sans-serif; font-size:48px; text-anchor:end;" transform="rotate(0, 198.152, 1472.61)" x="198.152" y="1472.61">-1000</text>
</g>
<g clip-path="url(#clip3000)">
<text style="fill:#000000; fill-opacity:1; font-family:Arial,Helvetica Neue,Helvetica,sans-serif; font-size:48px; text-anchor:end;" transform="rotate(0, 198.152, 1126.84)" x="198.152" y="1126.84">0</text>
</g>
<g clip-path="url(#clip3000)">
<text style="fill:#000000; fill-opacity:1; font-family:Arial,Helvetica Neue,Helvetica,sans-serif; font-size:48px; text-anchor:end;" transform="rotate(0, 198.152, 781.075)" x="198.152" y="781.075">1000</text>
</g>
<g clip-path="url(#clip3000)">
<text style="fill:#000000; fill-opacity:1; font-family:Arial,Helvetica Neue,Helvetica,sans-serif; font-size:48px; text-anchor:end;" transform="rotate(0, 198.152, 435.307)" x="198.152" y="435.307">2000</text>
</g>
<g clip-path="url(#clip3000)">
<text style="fill:#000000; fill-opacity:1; font-family:Arial,Helvetica Neue,Helvetica,sans-serif; font-size:48px; text-anchor:end;" transform="rotate(0, 198.152, 89.5383)" x="198.152" y="89.5383">3000</text>
</g>
<polyline clip-path="url(#clip3002)" style="stroke:#000000; stroke-width:4; stroke-opacity:1; fill:none" points="
  232.805,1001.43 243.458,1003.53 254.111,1006.06 264.764,1007.38 275.417,1008.78 286.07,1011.27 296.723,1014.48 307.376,1016.81 318.029,1018.99 328.682,1020.93 
  339.335,1022.4 349.988,1022.23 360.641,1020.22 371.294,1018.95 381.947,1019.58 392.6,1019.39 403.253,1019.12 413.906,1018.81 424.559,1018.43 435.212,1018.03 
  445.865,1017.6 456.518,1017.26 467.171,1017.71 477.824,1019.73 488.477,1022.25 499.13,1024.52 509.783,1026.98 520.436,1029.65 531.089,1032.65 541.742,1035.92 
  552.395,1039.43 563.048,1042.39 573.701,1044.23 584.354,1045.03 595.007,1044.54 605.66,1042.71 616.313,1039.58 626.966,1035.97 637.619,1032.66 648.272,1028.54 
  658.925,1024.54 669.578,1020.2 680.232,1016.94 690.885,1014.81 701.538,1013.37 712.191,1011.66 722.844,1009.5 733.497,1006.51 744.15,1004.05 754.803,1002.15 
  765.456,1001.3 776.109,999.999 786.762,998.769 797.415,997.542 808.068,996.341 818.721,995.367 829.374,993.829 840.027,990.6 850.68,988.008 861.333,986.049 
  871.986,985.209 882.639,985.226 893.292,985.912 903.945,984.667 914.598,981.866 925.251,979.652 935.904,977.075 946.557,974.495 957.21,972.157 967.863,970.977 
  978.516,969.604 989.169,969.585 999.822,968.612 1010.48,967.342 1021.13,965.641 1031.78,963.76 1042.43,961.287 1053.09,958.616 1063.74,956.546 1074.39,955.196 
  1085.05,952.659 1095.7,949.642 1106.35,945.781 1117.01,941.362 1127.66,936.347 1138.31,932.169 1148.96,929.699 1159.62,925.973 1170.27,921.739 1180.92,919.147 
  1191.58,914.157 1202.23,908.008 1212.88,901.327 1223.54,895.924 1234.19,891.642 1244.84,885.792 1255.49,881.608 1266.15,877.052 1276.8,869.75 1287.45,862.007 
  1298.11,854.48 1308.76,845.043 1319.41,839.579 1330.07,838.426 1340.72,837.316 1351.37,836.107 1362.02,835.764 1372.68,833.274 1383.33,832.42 1393.98,828.478 
  1404.64,824.217 1415.29,823.152 1425.94,823.996 1436.6,822.679 1447.25,821.128 1457.9,820.764 1468.56,818.173 1479.21,814.325 1489.86,808.995 1500.51,802.575 
  1511.17,796.123 1521.82,791.34 1532.47,784.344 1543.13,776.44 1553.78,767.867 1564.43,756.196 1575.09,743.264 1585.74,728.826 1596.39,711.456 1607.04,693.571 
  1617.7,680.92 1628.35,667.162 1639,650.038 1649.66,632.837 1660.31,614.357 1670.96,590.295 1681.62,564.234 1692.27,534.697 1702.92,504.633 1713.57,470.486 
  1724.23,430.183 1734.88,382.245 1745.53,324.257 1756.19,296.232 1766.84,270.113 1777.49,244.562 1788.15,220.005 1798.8,197.962 1809.45,176.528 1820.1,155.8 
  1830.76,138.257 1841.41,124.107 1852.06,110.003 1862.72,99.2388 1873.37,90.1256 1884.02,88.0053 1894.68,90.7686 1905.33,93.6613 1915.98,97.7521 1926.64,105.214 
  1937.29,113.836 1947.94,124.227 1958.59,135.299 1969.25,140.017 1979.9,148.92 1990.55,157.59 2001.21,161.712 2011.86,169.849 2022.51,176.159 2033.17,177.971 
  2043.82,184.543 2054.47,188.793 2065.12,190.664 2075.78,199.771 2086.43,204.121 2097.08,208.222 2107.74,226.663 2118.39,521.531 2129.04,1446.71 
  "/>
<path clip-path="url(#clip3000)" d="
M294.152 251.724 L828.489 251.724 L828.489 130.764 L294.152 130.764  Z
  " fill="#ffffff" fill-rule="evenodd" fill-opacity="1"/>
<polyline clip-path="url(#clip3000)" style="stroke:#000000; stroke-width:4; stroke-opacity:1; fill:none" points="
  294.152,251.724 828.489,251.724 828.489,130.764 294.152,130.764 294.152,251.724 
  "/>
<polyline clip-path="url(#clip3000)" style="stroke:#000000; stroke-width:4; stroke-opacity:1; fill:none" points="
  318.152,191.244 462.152,191.244 
  "/>
<g clip-path="url(#clip3000)">
<text style="fill:#000000; fill-opacity:1; font-family:Arial,Helvetica Neue,Helvetica,sans-serif; font-size:48px; text-anchor:start;" transform="rotate(0, 486.152, 208.744)" x="486.152" y="208.744">Iteration #210</text>
</g>
</svg>
