<?xml version="1.0" encoding="utf-8"?>
<svg xmlns="http://www.w3.org/2000/svg" xmlns:xlink="http://www.w3.org/1999/xlink" width="600" height="400" viewBox="0 0 2400 1600">
<defs>
  <clipPath id="clip4800">
    <rect x="0" y="0" width="2400" height="1600"/>
  </clipPath>
</defs>
<path clip-path="url(#clip4800)" d="
M0 1600 L2400 1600 L2400 0 L0 0  Z
  " fill="#ffffff" fill-rule="evenodd" fill-opacity="1"/>
<defs>
  <clipPath id="clip4801">
    <rect x="480" y="0" width="1681" height="1600"/>
  </clipPath>
</defs>
<path clip-path="url(#clip4800)" d="
M222.152 1487.47 L2352.76 1487.47 L2352.76 47.2441 L222.152 47.2441  Z
  " fill="#ffffff" fill-rule="evenodd" fill-opacity="1"/>
<defs>
  <clipPath id="clip4802">
    <rect x="222" y="47" width="2132" height="1441"/>
  </clipPath>
</defs>
<polyline clip-path="url(#clip4800)" style="stroke:#000000; stroke-width:4; stroke-opacity:1; fill:none" points="
  222.152,1487.47 2352.76,1487.47 
  "/>
<polyline clip-path="url(#clip4800)" style="stroke:#000000; stroke-width:4; stroke-opacity:1; fill:none" points="
  222.152,1487.47 222.152,47.2441 
  "/>
<polyline clip-path="url(#clip4800)" style="stroke:#000000; stroke-width:4; stroke-opacity:1; fill:none" points="
  222.152,1487.47 222.152,1470.19 
  "/>
<polyline clip-path="url(#clip4800)" style="stroke:#000000; stroke-width:4; stroke-opacity:1; fill:none" points="
  754.803,1487.47 754.803,1470.19 
  "/>
<polyline clip-path="url(#clip4800)" style="stroke:#000000; stroke-width:4; stroke-opacity:1; fill:none" points="
  1287.45,1487.47 1287.45,1470.19 
  "/>
<polyline clip-path="url(#clip4800)" style="stroke:#000000; stroke-width:4; stroke-opacity:1; fill:none" points="
  1820.1,1487.47 1820.1,1470.19 
  "/>
<polyline clip-path="url(#clip4800)" style="stroke:#000000; stroke-width:4; stroke-opacity:1; fill:none" points="
  2352.76,1487.47 2352.76,1470.19 
  "/>
<polyline clip-path="url(#clip4800)" style="stroke:#000000; stroke-width:4; stroke-opacity:1; fill:none" points="
  222.152,1422.44 247.719,1422.44 
  "/>
<polyline clip-path="url(#clip4800)" style="stroke:#000000; stroke-width:4; stroke-opacity:1; fill:none" points="
  222.152,1099.12 247.719,1099.12 
  "/>
<polyline clip-path="url(#clip4800)" style="stroke:#000000; stroke-width:4; stroke-opacity:1; fill:none" points="
  222.152,775.796 247.719,775.796 
  "/>
<polyline clip-path="url(#clip4800)" style="stroke:#000000; stroke-width:4; stroke-opacity:1; fill:none" points="
  222.152,452.473 247.719,452.473 
  "/>
<polyline clip-path="url(#clip4800)" style="stroke:#000000; stroke-width:4; stroke-opacity:1; fill:none" points="
  222.152,129.151 247.719,129.151 
  "/>
<g clip-path="url(#clip4800)">
<text style="fill:#000000; fill-opacity:1; font-family:Arial,Helvetica Neue,Helvetica,sans-serif; font-size:48px; text-anchor:middle;" transform="rotate(0, 222.152, 1541.47)" x="222.152" y="1541.47">0</text>
</g>
<g clip-path="url(#clip4800)">
<text style="fill:#000000; fill-opacity:1; font-family:Arial,Helvetica Neue,Helvetica,sans-serif; font-size:48px; text-anchor:middle;" transform="rotate(0, 754.803, 1541.47)" x="754.803" y="1541.47">50</text>
</g>
<g clip-path="url(#clip4800)">
<text style="fill:#000000; fill-opacity:1; font-family:Arial,Helvetica Neue,Helvetica,sans-serif; font-size:48px; text-anchor:middle;" transform="rotate(0, 1287.45, 1541.47)" x="1287.45" y="1541.47">100</text>
</g>
<g clip-path="url(#clip4800)">
<text style="fill:#000000; fill-opacity:1; font-family:Arial,Helvetica Neue,Helvetica,sans-serif; font-size:48px; text-anchor:middle;" transform="rotate(0, 1820.1, 1541.47)" x="1820.1" y="1541.47">150</text>
</g>
<g clip-path="url(#clip4800)">
<text style="fill:#000000; fill-opacity:1; font-family:Arial,Helvetica Neue,Helvetica,sans-serif; font-size:48px; text-anchor:middle;" transform="rotate(0, 2352.76, 1541.47)" x="2352.76" y="1541.47">200</text>
</g>
<g clip-path="url(#clip4800)">
<text style="fill:#000000; fill-opacity:1; font-family:Arial,Helvetica Neue,Helvetica,sans-serif; font-size:48px; text-anchor:end;" transform="rotate(0, 198.152, 1439.94)" x="198.152" y="1439.94">-1000</text>
</g>
<g clip-path="url(#clip4800)">
<text style="fill:#000000; fill-opacity:1; font-family:Arial,Helvetica Neue,Helvetica,sans-serif; font-size:48px; text-anchor:end;" transform="rotate(0, 198.152, 1116.62)" x="198.152" y="1116.62">0</text>
</g>
<g clip-path="url(#clip4800)">
<text style="fill:#000000; fill-opacity:1; font-family:Arial,Helvetica Neue,Helvetica,sans-serif; font-size:48px; text-anchor:end;" transform="rotate(0, 198.152, 793.296)" x="198.152" y="793.296">1000</text>
</g>
<g clip-path="url(#clip4800)">
<text style="fill:#000000; fill-opacity:1; font-family:Arial,Helvetica Neue,Helvetica,sans-serif; font-size:48px; text-anchor:end;" transform="rotate(0, 198.152, 469.973)" x="198.152" y="469.973">2000</text>
</g>
<g clip-path="url(#clip4800)">
<text style="fill:#000000; fill-opacity:1; font-family:Arial,Helvetica Neue,Helvetica,sans-serif; font-size:48px; text-anchor:end;" transform="rotate(0, 198.152, 146.651)" x="198.152" y="146.651">3000</text>
</g>
<polyline clip-path="url(#clip4802)" style="stroke:#000000; stroke-width:4; stroke-opacity:1; fill:none" points="
  232.805,996.458 243.458,998.827 254.111,1001.65 264.764,1003.05 275.417,1004.52 286.07,1007.23 296.723,1010.76 307.376,1013.27 318.029,1015.61 328.682,1017.67 
  339.335,1019.2 349.988,1018.85 360.641,1016.38 371.294,1014.78 381.947,1015.37 392.6,1015 403.253,1014.55 413.906,1014.04 424.559,1013.46 435.212,1012.84 
  445.865,1012.18 456.518,1011.6 467.171,1011.93 477.824,1014.06 488.477,1016.76 499.13,1019.16 509.783,1021.79 520.436,1024.66 531.089,1027.92 541.742,1031.53 
  552.395,1035.43 563.048,1038.75 573.701,1040.82 584.354,1041.75 595.007,1041.22 605.66,1039.23 616.313,1035.8 626.966,1031.86 637.619,1028.31 648.272,1023.87 
  658.925,1019.61 669.578,1014.98 680.232,1011.62 690.885,1009.58 701.538,1008.34 712.191,1006.8 722.844,1004.74 733.497,1001.74 744.15,999.329 754.803,997.585 
  765.456,997.033 776.109,995.961 786.762,994.962 797.415,993.968 808.068,992.997 818.721,992.287 829.374,990.927 840.027,987.609 850.68,985.025 861.333,983.162 
  871.986,982.584 882.639,982.971 893.292,984.149 903.945,983.078 914.598,980.242 925.251,978.066 935.904,975.505 946.557,972.888 957.21,970.613 967.863,969.62 
  978.516,968.423 989.169,968.789 999.822,968.057 1010.48,966.995 1021.13,965.476 1031.78,963.734 1042.43,961.37 1053.09,958.784 1063.74,956.92 1074.39,955.915 
  1085.05,953.59 1095.7,950.725 1106.35,946.964 1117.01,942.564 1127.66,937.524 1138.31,933.49 1148.96,931.423 1159.62,927.954 1170.27,923.944 1180.92,921.817 
  1191.58,916.996 1202.23,910.865 1212.88,904.118 1223.54,898.897 1234.19,894.943 1244.84,889.193 1255.49,885.389 1266.15,881.121 1276.8,873.717 1287.45,865.809 
  1298.11,858.078 1308.76,848.163 1319.41,842.759 1330.07,842.235 1340.72,841.768 1351.37,841.118 1362.02,841.45 1372.68,839.358 1383.33,839.096 1393.98,835.34 
  1404.64,831.261 1415.29,830.834 1425.94,832.719 1436.6,832.154 1447.25,831.374 1457.9,832.116 1468.56,830.38 1479.21,827.321 1489.86,822.754 1500.51,817.006 
  1511.17,811.419 1521.82,807.926 1532.47,801.983 1543.13,795.248 1553.78,787.886 1564.43,777.096 1575.09,765.096 1585.74,751.479 1596.39,734.618 1607.04,717.363 
  1617.7,706.276 1628.35,694.04 1639,678.124 1649.66,662.198 1660.31,645.02 1670.96,621.534 1681.62,595.902 1692.27,566.519 1702.92,536.78 1713.57,502.624 
  1724.23,461.949 1734.88,413.272 1745.53,354.984 1756.19,324.36 1766.84,295.165 1777.49,266.282 1788.15,238.498 1798.8,213.345 1809.45,188.847 1820.1,165.268 
  1830.76,145.09 1841.41,128.902 1852.06,113.002 1862.72,100.394 1873.37,90.2539 1884.02,88.0053 1894.68,91.1013 1905.33,94.7081 1915.98,99.521 1926.64,107.872 
  1937.29,117.956 1947.94,130.012 1958.59,142.196 1969.25,147.835 1979.9,157.95 1990.55,167.321 2001.21,172.378 2011.86,181.249 2022.51,188.078 2033.17,190.573 
  2043.82,197.412 2054.47,202.039 2065.12,204.326 2075.78,214.102 2086.43,218.913 2097.08,223.693 2107.74,243.701 2118.39,525.5 2129.04,1446.71 
  "/>
<path clip-path="url(#clip4800)" d="
M294.152 251.724 L828.489 251.724 L828.489 130.764 L294.152 130.764  Z
  " fill="#ffffff" fill-rule="evenodd" fill-opacity="1"/>
<polyline clip-path="url(#clip4800)" style="stroke:#000000; stroke-width:4; stroke-opacity:1; fill:none" points="
  294.152,251.724 828.489,251.724 828.489,130.764 294.152,130.764 294.152,251.724 
  "/>
<polyline clip-path="url(#clip4800)" style="stroke:#000000; stroke-width:4; stroke-opacity:1; fill:none" points="
  318.152,191.244 462.152,191.244 
  "/>
<g clip-path="url(#clip4800)">
<text style="fill:#000000; fill-opacity:1; font-family:Arial,Helvetica Neue,Helvetica,sans-serif; font-size:48px; text-anchor:start;" transform="rotate(0, 486.152, 208.744)" x="486.152" y="208.744">Iteration #240</text>
</g>
</svg>
