<?xml version="1.0" encoding="utf-8"?>
<svg xmlns="http://www.w3.org/2000/svg" xmlns:xlink="http://www.w3.org/1999/xlink" width="600" height="400" viewBox="0 0 2400 1600">
<defs>
  <clipPath id="clip4900">
    <rect x="0" y="0" width="2400" height="1600"/>
  </clipPath>
</defs>
<path clip-path="url(#clip4900)" d="
M0 1600 L2400 1600 L2400 0 L0 0  Z
  " fill="#ffffff" fill-rule="evenodd" fill-opacity="1"/>
<defs>
  <clipPath id="clip4901">
    <rect x="480" y="0" width="1681" height="1600"/>
  </clipPath>
</defs>
<path clip-path="url(#clip4900)" d="
M195.389 1487.47 L2352.76 1487.47 L2352.76 47.2441 L195.389 47.2441  Z
  " fill="#ffffff" fill-rule="evenodd" fill-opacity="1"/>
<defs>
  <clipPath id="clip4902">
    <rect x="195" y="47" width="2158" height="1441"/>
  </clipPath>
</defs>
<polyline clip-path="url(#clip4900)" style="stroke:#000000; stroke-width:4; stroke-opacity:1; fill:none" points="
  195.389,1487.47 2352.76,1487.47 
  "/>
<polyline clip-path="url(#clip4900)" style="stroke:#000000; stroke-width:4; stroke-opacity:1; fill:none" points="
  195.389,1487.47 195.389,47.2441 
  "/>
<polyline clip-path="url(#clip4900)" style="stroke:#000000; stroke-width:4; stroke-opacity:1; fill:none" points="
  195.389,1487.47 195.389,1470.19 
  "/>
<polyline clip-path="url(#clip4900)" style="stroke:#000000; stroke-width:4; stroke-opacity:1; fill:none" points="
  734.731,1487.47 734.731,1470.19 
  "/>
<polyline clip-path="url(#clip4900)" style="stroke:#000000; stroke-width:4; stroke-opacity:1; fill:none" points="
  1274.07,1487.47 1274.07,1470.19 
  "/>
<polyline clip-path="url(#clip4900)" style="stroke:#000000; stroke-width:4; stroke-opacity:1; fill:none" points="
  1813.41,1487.47 1813.41,1470.19 
  "/>
<polyline clip-path="url(#clip4900)" style="stroke:#000000; stroke-width:4; stroke-opacity:1; fill:none" points="
  2352.76,1487.47 2352.76,1470.19 
  "/>
<polyline clip-path="url(#clip4900)" style="stroke:#000000; stroke-width:4; stroke-opacity:1; fill:none" points="
  195.389,1487.47 221.278,1487.47 
  "/>
<polyline clip-path="url(#clip4900)" style="stroke:#000000; stroke-width:4; stroke-opacity:1; fill:none" points="
  195.389,1199.43 221.278,1199.43 
  "/>
<polyline clip-path="url(#clip4900)" style="stroke:#000000; stroke-width:4; stroke-opacity:1; fill:none" points="
  195.389,911.382 221.278,911.382 
  "/>
<polyline clip-path="url(#clip4900)" style="stroke:#000000; stroke-width:4; stroke-opacity:1; fill:none" points="
  195.389,623.336 221.278,623.336 
  "/>
<polyline clip-path="url(#clip4900)" style="stroke:#000000; stroke-width:4; stroke-opacity:1; fill:none" points="
  195.389,335.29 221.278,335.29 
  "/>
<polyline clip-path="url(#clip4900)" style="stroke:#000000; stroke-width:4; stroke-opacity:1; fill:none" points="
  195.389,47.2441 221.278,47.2441 
  "/>
<g clip-path="url(#clip4900)">
<text style="fill:#000000; fill-opacity:1; font-family:Arial,Helvetica Neue,Helvetica,sans-serif; font-size:48px; text-anchor:middle;" transform="rotate(0, 195.389, 1541.47)" x="195.389" y="1541.47">0</text>
</g>
<g clip-path="url(#clip4900)">
<text style="fill:#000000; fill-opacity:1; font-family:Arial,Helvetica Neue,Helvetica,sans-serif; font-size:48px; text-anchor:middle;" transform="rotate(0, 734.731, 1541.47)" x="734.731" y="1541.47">50</text>
</g>
<g clip-path="url(#clip4900)">
<text style="fill:#000000; fill-opacity:1; font-family:Arial,Helvetica Neue,Helvetica,sans-serif; font-size:48px; text-anchor:middle;" transform="rotate(0, 1274.07, 1541.47)" x="1274.07" y="1541.47">100</text>
</g>
<g clip-path="url(#clip4900)">
<text style="fill:#000000; fill-opacity:1; font-family:Arial,Helvetica Neue,Helvetica,sans-serif; font-size:48px; text-anchor:middle;" transform="rotate(0, 1813.41, 1541.47)" x="1813.41" y="1541.47">150</text>
</g>
<g clip-path="url(#clip4900)">
<text style="fill:#000000; fill-opacity:1; font-family:Arial,Helvetica Neue,Helvetica,sans-serif; font-size:48px; text-anchor:middle;" transform="rotate(0, 2352.76, 1541.47)" x="2352.76" y="1541.47">200</text>
</g>
<g clip-path="url(#clip4900)">
<text style="fill:#000000; fill-opacity:1; font-family:Arial,Helvetica Neue,Helvetica,sans-serif; font-size:48px; text-anchor:end;" transform="rotate(0, 171.389, 1504.97)" x="171.389" y="1504.97">-200</text>
</g>
<g clip-path="url(#clip4900)">
<text style="fill:#000000; fill-opacity:1; font-family:Arial,Helvetica Neue,Helvetica,sans-serif; font-size:48px; text-anchor:end;" transform="rotate(0, 171.389, 1216.93)" x="171.389" y="1216.93">-150</text>
</g>
<g clip-path="url(#clip4900)">
<text style="fill:#000000; fill-opacity:1; font-family:Arial,Helvetica Neue,Helvetica,sans-serif; font-size:48px; text-anchor:end;" transform="rotate(0, 171.389, 928.882)" x="171.389" y="928.882">-100</text>
</g>
<g clip-path="url(#clip4900)">
<text style="fill:#000000; fill-opacity:1; font-family:Arial,Helvetica Neue,Helvetica,sans-serif; font-size:48px; text-anchor:end;" transform="rotate(0, 171.389, 640.836)" x="171.389" y="640.836">-50</text>
</g>
<g clip-path="url(#clip4900)">
<text style="fill:#000000; fill-opacity:1; font-family:Arial,Helvetica Neue,Helvetica,sans-serif; font-size:48px; text-anchor:end;" transform="rotate(0, 171.389, 352.79)" x="171.389" y="352.79">0</text>
</g>
<g clip-path="url(#clip4900)">
<text style="fill:#000000; fill-opacity:1; font-family:Arial,Helvetica Neue,Helvetica,sans-serif; font-size:48px; text-anchor:end;" transform="rotate(0, 171.389, 64.7441)" x="171.389" y="64.7441">50</text>
</g>
<polyline clip-path="url(#clip4902)" style="stroke:#000000; stroke-width:4; stroke-opacity:1; fill:none" stroke-dasharray="16, 10" points="
  206.176,139.419 216.963,144.248 227.75,152.549 238.537,160.983 249.323,169.327 260.11,177.483 270.897,185.662 281.684,193.668 292.471,201.514 303.258,209.35 
  314.044,217.003 324.831,224.552 335.618,232.083 346.405,239.486 357.192,246.897 367.979,254.286 378.765,261.541 389.552,268.779 400.339,275.972 411.126,283.068 
  421.913,290.142 432.7,297.166 443.486,304.119 454.273,311.041 465.06,317.893 475.847,324.645 486.634,331.31 497.421,337.888 508.207,344.374 518.994,350.783 
  529.781,357.083 540.568,363.308 551.355,369.429 562.142,375.466 572.928,381.48 583.715,387.412 594.502,393.366 605.289,399.335 616.076,405.304 626.863,411.373 
  637.649,417.432 648.436,423.561 659.223,429.8 670.01,436.016 680.797,442.352 691.584,448.705 702.37,455.031 713.157,461.491 723.944,467.907 734.731,474.396 
  745.518,481.014 756.305,487.528 767.091,494.177 777.878,500.854 788.665,507.47 799.452,514.268 810.239,520.985 821.026,527.733 831.812,534.662 842.599,541.467 
  853.386,548.444 864.173,555.503 874.96,562.432 885.747,569.562 896.533,576.61 907.32,583.658 918.107,590.953 928.894,598.087 939.681,605.37 950.468,612.826 
  961.254,620.092 972.041,627.617 982.828,635.132 993.615,642.541 1004.4,650.244 1015.19,657.788 1025.98,665.406 1036.76,673.291 1047.55,680.933 1058.34,688.839 
  1069.12,696.853 1079.91,704.667 1090.7,712.847 1101.48,720.954 1112.27,729.052 1123.06,737.549 1133.84,745.814 1144.63,754.275 1155.42,762.999 1166.2,771.434 
  1176.99,780.233 1187.78,789.083 1198.56,797.764 1209.35,806.921 1220.14,815.911 1230.93,824.933 1241.71,834.376 1252.5,843.446 1263.29,852.774 1274.07,862.338 
  1284.86,871.535 1295.65,881.177 1306.43,890.807 1317.22,900.23 1328.01,910.117 1338.79,919.63 1349.58,929.127 1360.37,938.983 1371.15,948.276 1381.94,957.808 
  1392.73,967.493 1403.51,976.649 1414.3,986.236 1425.09,995.652 1435.88,1004.69 1446.66,1014.21 1457.45,1023.26 1468.24,1032.22 1479.02,1041.6 1489.81,1050.31 
  1500.6,1059.26 1511.38,1068.42 1522.17,1076.92 1532.96,1085.86 1543.74,1094.69 1554.53,1103.04 1565.32,1111.95 1576.1,1120.42 1586.89,1128.72 1597.68,1137.55 
  1608.46,1145.71 1619.25,1154.02 1630.04,1162.66 1640.82,1170.5 1651.61,1178.76 1662.4,1187.06 1673.19,1194.68 1683.97,1202.87 1694.76,1210.82 1705.55,1218.34 
  1716.33,1226.49 1727.12,1234.1 1737.91,1241.61 1748.69,1249.95 1759.48,1257.52 1770.27,1265.04 1781.05,1272.75 1791.84,1279.35 1802.63,1286.13 1813.41,1292.87 
  1824.2,1298.59 1834.99,1304.67 1845.77,1310.47 1856.56,1315.43 1867.35,1320.88 1878.14,1325.77 1888.92,1330.1 1899.71,1334.94 1910.5,1338.99 1921.28,1342.77 
  1932.07,1347.05 1942.86,1350.34 1953.64,1353.69 1964.43,1357.4 1975.22,1360.06 1986,1363.06 1996.79,1366.22 2007.58,1368.41 2018.36,1371.13 2029.15,1373.75 
  2039.94,1375.59 2050.72,1378.09 2061.51,1380.19 2072.3,1381.79 2083.09,1384.08 2093.87,1385.71 2104.66,1387.15 2115.45,1389.35 2126.23,1391.14 
  "/>
<polyline clip-path="url(#clip4902)" style="stroke:#000000; stroke-width:4; stroke-opacity:1; fill:none" points="
  206.176,139.419 216.963,147.906 227.75,162.278 238.537,169.402 249.323,176.527 260.11,186.476 270.897,199.988 281.684,207.113 292.471,214.237 303.258,221.362 
  314.044,228.486 324.831,233.031 335.618,233.031 346.405,235.98 357.192,250.842 367.979,257.966 378.765,265.091 389.552,272.215 400.339,279.339 411.126,286.464 
  421.913,293.588 432.7,300.712 443.486,308.39 454.273,320.12 465.06,331.298 475.847,338.423 486.634,345.547 497.421,352.672 508.207,359.796 518.994,366.92 
  529.781,374.045 540.568,380.002 551.355,382.753 562.142,385.505 572.928,386.881 583.715,388.256 594.502,389.632 605.289,391.008 616.076,398.058 626.863,401.314 
  637.649,408.254 648.436,412.492 659.223,420.783 670.01,429.811 680.797,440.007 691.584,447.131 702.37,454.194 713.157,458.309 723.944,465.433 734.731,472.557 
  745.518,482.753 756.305,489.877 767.091,497.002 777.878,504.126 788.665,511.25 799.452,518.375 810.239,526.666 821.026,529.552 831.812,536.677 842.599,544.108 
  853.386,553.997 864.173,562.411 874.96,573.097 885.747,579.239 896.533,582.494 907.32,589.618 918.107,596.743 928.894,603.867 939.681,610.991 950.468,621.187 
  961.254,627.881 972.041,638.506 982.828,645.631 993.615,652.755 1004.4,659.879 1015.19,667.004 1025.98,674.128 1036.76,681.253 1047.55,688.807 1058.34,698.572 
  1069.12,705.697 1079.91,712.821 1090.7,719.945 1101.48,727.07 1112.27,734.194 1123.06,742.117 1133.84,752.804 1144.63,761.709 1155.42,768.035 1166.2,779.029 
  1176.99,786.153 1187.78,793.278 1198.56,800.402 1209.35,809.184 1220.14,820.793 1230.93,827.917 1241.71,838.173 1252.5,848.307 1263.29,855.432 1274.07,862.556 
  1284.86,872.752 1295.65,879.324 1306.43,889.952 1317.22,904.201 1328.01,916.604 1338.79,925.14 1349.58,936.992 1360.37,943.439 1371.15,954.311 1381.94,961.435 
  1392.73,968.56 1403.51,978.263 1414.3,990.734 1425.09,999.15 1435.88,1005.97 1446.66,1016.47 1457.45,1023.59 1468.24,1030.72 1479.02,1037.84 1489.81,1044.96 
  1500.6,1051.66 1511.38,1062.28 1522.17,1069.41 1532.96,1076.53 1543.74,1085.19 1554.53,1090.78 1565.32,1097.91 1576.1,1105.03 1586.89,1111.72 1597.68,1117.14 
  1608.46,1129.23 1619.25,1139.67 1630.04,1146.79 1640.82,1153.73 1651.61,1163.8 1662.4,1168.16 1673.19,1175.29 1683.97,1180.64 1694.76,1189.54 1705.55,1196.67 
  1716.33,1203.61 1727.12,1207.85 1737.91,1214.97 1748.69,1222.09 1759.48,1229.21 1770.27,1236.34 1781.05,1243.53 1791.84,1253.66 1802.63,1261.83 1813.41,1270.98 
  1824.2,1279.09 1834.99,1293.89 1845.77,1304.58 1856.56,1314.84 1867.35,1325.65 1878.14,1347.01 1888.92,1367.65 1899.71,1382.57 1910.5,1393.44 1921.28,1401.18 
  1932.07,1414.63 1942.86,1421.45 1953.64,1427.6 1964.43,1420.65 1975.22,1424.52 1986,1424.52 1996.79,1424.52 2007.58,1424.52 2018.36,1424.52 2029.15,1424.52 
  2039.94,1424.52 2050.72,1424.52 2061.51,1425.07 2072.3,1427.6 2083.09,1427.6 2093.87,1427.6 2104.66,1427.6 2115.45,1427.58 2126.23,1427.6 
  "/>
<path clip-path="url(#clip4900)" d="
M1773.18 312.204 L2280.76 312.204 L2280.76 130.764 L1773.18 130.764  Z
  " fill="#ffffff" fill-rule="evenodd" fill-opacity="1"/>
<polyline clip-path="url(#clip4900)" style="stroke:#000000; stroke-width:4; stroke-opacity:1; fill:none" points="
  1773.18,312.204 2280.76,312.204 2280.76,130.764 1773.18,130.764 1773.18,312.204 
  "/>
<polyline clip-path="url(#clip4900)" style="stroke:#000000; stroke-width:4; stroke-opacity:1; fill:none" stroke-dasharray="16, 10" points="
  1797.18,191.244 1941.18,191.244 
  "/>
<g clip-path="url(#clip4900)">
<text style="fill:#000000; fill-opacity:1; font-family:Arial,Helvetica Neue,Helvetica,sans-serif; font-size:48px; text-anchor:start;" transform="rotate(0, 1965.18, 208.744)" x="1965.18" y="208.744">Iteration #80</text>
</g>
<polyline clip-path="url(#clip4900)" style="stroke:#000000; stroke-width:4; stroke-opacity:1; fill:none" points="
  1797.18,251.724 1941.18,251.724 
  "/>
<g clip-path="url(#clip4900)">
<text style="fill:#000000; fill-opacity:1; font-family:Arial,Helvetica Neue,Helvetica,sans-serif; font-size:48px; text-anchor:start;" transform="rotate(0, 1965.18, 269.224)" x="1965.18" y="269.224">Test data</text>
</g>
</svg>
