<?xml version="1.0" encoding="utf-8"?>
<svg xmlns="http://www.w3.org/2000/svg" xmlns:xlink="http://www.w3.org/1999/xlink" width="600" height="400" viewBox="0 0 2400 1600">
<defs>
  <clipPath id="clip2100">
    <rect x="0" y="0" width="2400" height="1600"/>
  </clipPath>
</defs>
<path clip-path="url(#clip2100)" d="
M0 1600 L2400 1600 L2400 0 L0 0  Z
  " fill="#ffffff" fill-rule="evenodd" fill-opacity="1"/>
<defs>
  <clipPath id="clip2101">
    <rect x="480" y="0" width="1681" height="1600"/>
  </clipPath>
</defs>
<path clip-path="url(#clip2100)" d="
M195.389 1487.47 L2352.76 1487.47 L2352.76 47.2441 L195.389 47.2441  Z
  " fill="#ffffff" fill-rule="evenodd" fill-opacity="1"/>
<defs>
  <clipPath id="clip2102">
    <rect x="195" y="47" width="2158" height="1441"/>
  </clipPath>
</defs>
<polyline clip-path="url(#clip2100)" style="stroke:#000000; stroke-width:4; stroke-opacity:1; fill:none" points="
  195.389,1487.47 2352.76,1487.47 
  "/>
<polyline clip-path="url(#clip2100)" style="stroke:#000000; stroke-width:4; stroke-opacity:1; fill:none" points="
  195.389,1487.47 195.389,47.2441 
  "/>
<polyline clip-path="url(#clip2100)" style="stroke:#000000; stroke-width:4; stroke-opacity:1; fill:none" points="
  195.389,1487.47 195.389,1470.19 
  "/>
<polyline clip-path="url(#clip2100)" style="stroke:#000000; stroke-width:4; stroke-opacity:1; fill:none" points="
  734.731,1487.47 734.731,1470.19 
  "/>
<polyline clip-path="url(#clip2100)" style="stroke:#000000; stroke-width:4; stroke-opacity:1; fill:none" points="
  1274.07,1487.47 1274.07,1470.19 
  "/>
<polyline clip-path="url(#clip2100)" style="stroke:#000000; stroke-width:4; stroke-opacity:1; fill:none" points="
  1813.41,1487.47 1813.41,1470.19 
  "/>
<polyline clip-path="url(#clip2100)" style="stroke:#000000; stroke-width:4; stroke-opacity:1; fill:none" points="
  2352.76,1487.47 2352.76,1470.19 
  "/>
<polyline clip-path="url(#clip2100)" style="stroke:#000000; stroke-width:4; stroke-opacity:1; fill:none" points="
  195.389,1487.47 221.278,1487.47 
  "/>
<polyline clip-path="url(#clip2100)" style="stroke:#000000; stroke-width:4; stroke-opacity:1; fill:none" points="
  195.389,1199.43 221.278,1199.43 
  "/>
<polyline clip-path="url(#clip2100)" style="stroke:#000000; stroke-width:4; stroke-opacity:1; fill:none" points="
  195.389,911.382 221.278,911.382 
  "/>
<polyline clip-path="url(#clip2100)" style="stroke:#000000; stroke-width:4; stroke-opacity:1; fill:none" points="
  195.389,623.336 221.278,623.336 
  "/>
<polyline clip-path="url(#clip2100)" style="stroke:#000000; stroke-width:4; stroke-opacity:1; fill:none" points="
  195.389,335.29 221.278,335.29 
  "/>
<polyline clip-path="url(#clip2100)" style="stroke:#000000; stroke-width:4; stroke-opacity:1; fill:none" points="
  195.389,47.2441 221.278,47.2441 
  "/>
<g clip-path="url(#clip2100)">
<text style="fill:#000000; fill-opacity:1; font-family:Arial,Helvetica Neue,Helvetica,sans-serif; font-size:48px; text-anchor:middle;" transform="rotate(0, 195.389, 1541.47)" x="195.389" y="1541.47">0</text>
</g>
<g clip-path="url(#clip2100)">
<text style="fill:#000000; fill-opacity:1; font-family:Arial,Helvetica Neue,Helvetica,sans-serif; font-size:48px; text-anchor:middle;" transform="rotate(0, 734.731, 1541.47)" x="734.731" y="1541.47">50</text>
</g>
<g clip-path="url(#clip2100)">
<text style="fill:#000000; fill-opacity:1; font-family:Arial,Helvetica Neue,Helvetica,sans-serif; font-size:48px; text-anchor:middle;" transform="rotate(0, 1274.07, 1541.47)" x="1274.07" y="1541.47">100</text>
</g>
<g clip-path="url(#clip2100)">
<text style="fill:#000000; fill-opacity:1; font-family:Arial,Helvetica Neue,Helvetica,sans-serif; font-size:48px; text-anchor:middle;" transform="rotate(0, 1813.41, 1541.47)" x="1813.41" y="1541.47">150</text>
</g>
<g clip-path="url(#clip2100)">
<text style="fill:#000000; fill-opacity:1; font-family:Arial,Helvetica Neue,Helvetica,sans-serif; font-size:48px; text-anchor:middle;" transform="rotate(0, 2352.76, 1541.47)" x="2352.76" y="1541.47">200</text>
</g>
<g clip-path="url(#clip2100)">
<text style="fill:#000000; fill-opacity:1; font-family:Arial,Helvetica Neue,Helvetica,sans-serif; font-size:48px; text-anchor:end;" transform="rotate(0, 171.389, 1504.97)" x="171.389" y="1504.97">-200</text>
</g>
<g clip-path="url(#clip2100)">
<text style="fill:#000000; fill-opacity:1; font-family:Arial,Helvetica Neue,Helvetica,sans-serif; font-size:48px; text-anchor:end;" transform="rotate(0, 171.389, 1216.93)" x="171.389" y="1216.93">-150</text>
</g>
<g clip-path="url(#clip2100)">
<text style="fill:#000000; fill-opacity:1; font-family:Arial,Helvetica Neue,Helvetica,sans-serif; font-size:48px; text-anchor:end;" transform="rotate(0, 171.389, 928.882)" x="171.389" y="928.882">-100</text>
</g>
<g clip-path="url(#clip2100)">
<text style="fill:#000000; fill-opacity:1; font-family:Arial,Helvetica Neue,Helvetica,sans-serif; font-size:48px; text-anchor:end;" transform="rotate(0, 171.389, 640.836)" x="171.389" y="640.836">-50</text>
</g>
<g clip-path="url(#clip2100)">
<text style="fill:#000000; fill-opacity:1; font-family:Arial,Helvetica Neue,Helvetica,sans-serif; font-size:48px; text-anchor:end;" transform="rotate(0, 171.389, 352.79)" x="171.389" y="352.79">0</text>
</g>
<g clip-path="url(#clip2100)">
<text style="fill:#000000; fill-opacity:1; font-family:Arial,Helvetica Neue,Helvetica,sans-serif; font-size:48px; text-anchor:end;" transform="rotate(0, 171.389, 64.7441)" x="171.389" y="64.7441">50</text>
</g>
<polyline clip-path="url(#clip2102)" style="stroke:#000000; stroke-width:4; stroke-opacity:1; fill:none" stroke-dasharray="16, 10" points="
  206.176,139.419 216.963,144.989 227.75,154.506 238.537,163.957 249.323,173.223 260.11,182.21 270.897,191.1 281.684,199.661 292.471,207.854 303.258,215.892 
  314.044,223.646 324.831,231.131 335.618,238.528 346.405,245.901 357.192,253.413 367.979,260.932 378.765,268.317 389.552,275.686 400.339,283.049 411.126,290.342 
  421.913,297.63 432.7,304.911 443.486,312.167 454.273,319.42 465.06,326.557 475.847,333.476 486.634,340.177 497.421,346.671 508.207,352.943 518.994,358.999 
  529.781,364.78 540.568,370.3 551.355,375.526 562.142,380.506 572.928,385.371 583.715,390.121 594.502,394.898 605.289,399.834 616.076,404.919 626.863,410.247 
  637.649,415.785 648.436,421.521 659.223,427.602 670.01,433.856 680.797,440.307 691.584,446.878 702.37,453.405 713.157,460.09 723.944,466.871 734.731,473.752 
  745.518,480.865 756.305,487.892 767.091,494.986 777.878,502.181 788.665,509.255 799.452,516.487 810.239,523.693 821.026,530.794 831.812,538.154 842.599,545.499 
  853.386,552.972 864.173,560.619 874.96,568.038 885.747,575.485 896.533,582.869 907.32,590.147 918.107,597.707 928.894,605.198 939.681,612.736 950.468,620.564 
  961.254,628.162 972.041,635.91 982.828,643.707 993.615,651.198 1004.4,658.908 1015.19,666.538 1025.98,674.041 1036.76,681.849 1047.55,689.464 1058.34,697.189 
  1069.12,705.105 1079.91,712.686 1090.7,720.537 1101.48,728.477 1112.27,736.254 1123.06,744.496 1133.84,752.687 1144.63,760.853 1155.42,769.362 1166.2,777.594 
  1176.99,786.008 1187.78,794.615 1198.56,802.946 1209.35,811.787 1220.14,820.693 1230.93,829.421 1241.71,838.643 1252.5,847.598 1263.29,856.564 1274.07,865.939 
  1284.86,874.963 1295.65,884.355 1306.43,894.07 1317.22,903.5 1328.01,913.309 1338.79,922.849 1349.58,932.024 1360.37,941.508 1371.15,950.473 1381.94,959.336 
  1392.73,968.487 1403.51,977.053 1414.3,985.879 1425.09,994.685 1435.88,1002.82 1446.66,1011.34 1457.45,1019.55 1468.24,1027.35 1479.02,1035.61 1489.81,1043.37 
  1500.6,1051.13 1511.38,1059.38 1522.17,1066.94 1532.96,1074.8 1543.74,1082.88 1554.53,1090.35 1565.32,1098.39 1576.1,1106.38 1586.89,1114.07 1597.68,1122.48 
  1608.46,1130.63 1619.25,1138.78 1630.04,1147.49 1640.82,1155.54 1651.61,1163.91 1662.4,1172.64 1673.19,1180.7 1683.97,1189.37 1694.76,1198.2 1705.55,1206.54 
  1716.33,1215.59 1727.12,1224.48 1737.91,1233.14 1748.69,1242.82 1759.48,1252.04 1770.27,1260.97 1781.05,1270.3 1791.84,1278.68 1802.63,1286.92 1813.41,1295.39 
  1824.2,1302.75 1834.99,1310.14 1845.77,1317.59 1856.56,1323.87 1867.35,1330.31 1878.14,1336.65 1888.92,1341.87 1899.71,1347.35 1910.5,1352.53 1921.28,1356.7 
  1932.07,1361.26 1942.86,1365.38 1953.64,1368.67 1964.43,1372.44 1975.22,1375.64 1986,1378.25 1996.79,1381.42 2007.58,1383.87 2018.36,1385.99 2029.15,1388.69 
  2039.94,1390.52 2050.72,1392.3 2061.51,1394.6 2072.3,1395.95 2083.09,1397.48 2093.87,1399.43 2104.66,1400.39 2115.45,1401.89 2126.23,1403.69 
  "/>
<polyline clip-path="url(#clip2102)" style="stroke:#000000; stroke-width:4; stroke-opacity:1; fill:none" points="
  206.176,139.419 216.963,147.906 227.75,162.278 238.537,169.402 249.323,176.527 260.11,186.476 270.897,199.988 281.684,207.113 292.471,214.237 303.258,221.362 
  314.044,228.486 324.831,233.031 335.618,233.031 346.405,235.98 357.192,250.842 367.979,257.966 378.765,265.091 389.552,272.215 400.339,279.339 411.126,286.464 
  421.913,293.588 432.7,300.712 443.486,308.39 454.273,320.12 465.06,331.298 475.847,338.423 486.634,345.547 497.421,352.672 508.207,359.796 518.994,366.92 
  529.781,374.045 540.568,380.002 551.355,382.753 562.142,385.505 572.928,386.881 583.715,388.256 594.502,389.632 605.289,391.008 616.076,398.058 626.863,401.314 
  637.649,408.254 648.436,412.492 659.223,420.783 670.01,429.811 680.797,440.007 691.584,447.131 702.37,454.194 713.157,458.309 723.944,465.433 734.731,472.557 
  745.518,482.753 756.305,489.877 767.091,497.002 777.878,504.126 788.665,511.25 799.452,518.375 810.239,526.666 821.026,529.552 831.812,536.677 842.599,544.108 
  853.386,553.997 864.173,562.411 874.96,573.097 885.747,579.239 896.533,582.494 907.32,589.618 918.107,596.743 928.894,603.867 939.681,610.991 950.468,621.187 
  961.254,627.881 972.041,638.506 982.828,645.631 993.615,652.755 1004.4,659.879 1015.19,667.004 1025.98,674.128 1036.76,681.253 1047.55,688.807 1058.34,698.572 
  1069.12,705.697 1079.91,712.821 1090.7,719.945 1101.48,727.07 1112.27,734.194 1123.06,742.117 1133.84,752.804 1144.63,761.709 1155.42,768.035 1166.2,779.029 
  1176.99,786.153 1187.78,793.278 1198.56,800.402 1209.35,809.184 1220.14,820.793 1230.93,827.917 1241.71,838.173 1252.5,848.307 1263.29,855.432 1274.07,862.556 
  1284.86,872.752 1295.65,879.324 1306.43,889.952 1317.22,904.201 1328.01,916.604 1338.79,925.14 1349.58,936.992 1360.37,943.439 1371.15,954.311 1381.94,961.435 
  1392.73,968.56 1403.51,978.263 1414.3,990.734 1425.09,999.15 1435.88,1005.97 1446.66,1016.47 1457.45,1023.59 1468.24,1030.72 1479.02,1037.84 1489.81,1044.96 
  1500.6,1051.66 1511.38,1062.28 1522.17,1069.41 1532.96,1076.53 1543.74,1085.19 1554.53,1090.78 1565.32,1097.91 1576.1,1105.03 1586.89,1111.72 1597.68,1117.14 
  1608.46,1129.23 1619.25,1139.67 1630.04,1146.79 1640.82,1153.73 1651.61,1163.8 1662.4,1168.16 1673.19,1175.29 1683.97,1180.64 1694.76,1189.54 1705.55,1196.67 
  1716.33,1203.61 1727.12,1207.85 1737.91,1214.97 1748.69,1222.09 1759.48,1229.21 1770.27,1236.34 1781.05,1243.53 1791.84,1253.66 1802.63,1261.83 1813.41,1270.98 
  1824.2,1279.09 1834.99,1293.89 1845.77,1304.58 1856.56,1314.84 1867.35,1325.65 1878.14,1347.01 1888.92,1367.65 1899.71,1382.57 1910.5,1393.44 1921.28,1401.18 
  1932.07,1414.63 1942.86,1421.45 1953.64,1427.6 1964.43,1420.65 1975.22,1424.52 1986,1424.52 1996.79,1424.52 2007.58,1424.52 2018.36,1424.52 2029.15,1424.52 
  2039.94,1424.52 2050.72,1424.52 2061.51,1425.07 2072.3,1427.6 2083.09,1427.6 2093.87,1427.6 2104.66,1427.6 2115.45,1427.58 2126.23,1427.6 
  "/>
<path clip-path="url(#clip2100)" d="
M1746.42 312.204 L2280.76 312.204 L2280.76 130.764 L1746.42 130.764  Z
  " fill="#ffffff" fill-rule="evenodd" fill-opacity="1"/>
<polyline clip-path="url(#clip2100)" style="stroke:#000000; stroke-width:4; stroke-opacity:1; fill:none" points="
  1746.42,312.204 2280.76,312.204 2280.76,130.764 1746.42,130.764 1746.42,312.204 
  "/>
<polyline clip-path="url(#clip2100)" style="stroke:#000000; stroke-width:4; stroke-opacity:1; fill:none" stroke-dasharray="16, 10" points="
  1770.42,191.244 1914.42,191.244 
  "/>
<g clip-path="url(#clip2100)">
<text style="fill:#000000; fill-opacity:1; font-family:Arial,Helvetica Neue,Helvetica,sans-serif; font-size:48px; text-anchor:start;" transform="rotate(0, 1938.42, 208.744)" x="1938.42" y="208.744">Iteration #200</text>
</g>
<polyline clip-path="url(#clip2100)" style="stroke:#000000; stroke-width:4; stroke-opacity:1; fill:none" points="
  1770.42,251.724 1914.42,251.724 
  "/>
<g clip-path="url(#clip2100)">
<text style="fill:#000000; fill-opacity:1; font-family:Arial,Helvetica Neue,Helvetica,sans-serif; font-size:48px; text-anchor:start;" transform="rotate(0, 1938.42, 269.224)" x="1938.42" y="269.224">Test data</text>
</g>
</svg>
